<?xml version="1.0" encoding="utf-8"?>
<!-- Generator: Adobe Illustrator 19.0.0, SVG Export Plug-In . SVG Version: 6.00 Build 0)  -->
<svg version="1.1" id="Calque_1" xmlns="http://www.w3.org/2000/svg" xmlns:xlink="http://www.w3.org/1999/xlink" x="0px" y="0px"
	 viewBox="0 0 841.9 595.3" style="enable-background:new 0 0 841.9 595.3;" xml:space="preserve">
<style type="text/css">
	.st0{fill:#E4EFFA;}
	.st1{fill:#CFD9E8;}
	.st2{fill:#ACD5F3;}
	.st3{opacity:0.7;}
	.st4{fill:#95CDF1;}
	.st5{fill:#7EBFE9;}
	.st6{opacity:0.3;}
	.st7{opacity:0.2;fill:#FFFFFF;}
	.st8{fill:#39A7C3;}
	.st9{fill:#E9D6B8;}
	.st10{fill:#1B4966;}
	.st11{fill:#3BB7D5;}
	.st12{fill:#171813;}
	.st13{fill:#173F59;}
	.st14{fill:#B0BEDE;}
	.st15{fill:#AEBDDB;}
	.st16{fill:#F1EFF6;}
	.st17{fill:#D9E1E4;}
	.st18{fill:none;stroke:#BBC2C7;stroke-width:0.1954;stroke-miterlimit:10;}
	.st19{fill:none;stroke:#BBC2C7;stroke-width:0.1955;stroke-miterlimit:10;}
	.st20{fill:#BBC2C7;}
	.st21{opacity:0.34;fill:#FFFFFF;}
	.st22{fill:#FDC314;}
	.st23{fill:#1A5770;}
	.st24{fill:#377183;}
	.st25{fill:#89BEDA;}
	.st26{fill:#1A2542;}
	.st27{fill:#4FBDC2;}
	.st28{fill:#36A9B6;}
	.st29{fill:#DCE5EA;}
	.st30{fill:#B3C0C7;}
	.st31{fill:#D6E3EB;}
	.st32{fill:#8699A4;}
	.st33{fill:#D7DFE2;}
	.st34{fill:#E3C59C;}
	.st35{fill:#FFCF42;}
	.st36{fill:#D1DBEA;}
	.st37{fill:#D0DEE6;}
	.st38{fill:#B7C2C9;}
	.st39{fill:#87BBD8;}
	.st40{fill:url(#XMLID_298_);}
	.st41{fill:#F9C44F;}
	.st42{fill:#38AFB1;}
	.st43{fill:#2E5C6B;}
	.st44{fill:#FFFFFF;}
	.st45{fill:none;stroke:#3296AF;stroke-width:2.3965;stroke-miterlimit:10;}
	.st46{fill:none;stroke:#F4DA80;stroke-width:2.3965;stroke-miterlimit:10;}
	.st47{fill:none;stroke:#171813;stroke-width:1.791;stroke-miterlimit:10;}
</style>
<g id="XMLID_615_">
	<rect id="XMLID_295_" x="548.3" y="91.1" class="st0" width="216.6" height="167.7"/>
	<rect id="XMLID_294_" x="544.7" y="82.7" class="st1" width="223.9" height="9.1"/>
	<rect id="XMLID_293_" x="544.7" y="81.6" class="st0" width="223.9" height="7.1"/>
	<rect id="XMLID_292_" x="557.7" y="100.6" class="st2" width="197.8" height="148.8"/>
	<g id="XMLID_619_">
		<g id="XMLID_634_" class="st3">
			<rect id="XMLID_291_" x="596.1" y="117.1" class="st4" width="57.3" height="119"/>
			<rect id="XMLID_290_" x="593.7" y="232.9" class="st4" width="62.2" height="15.7"/>
			<rect id="XMLID_289_" x="593.7" y="234.1" class="st4" width="9.4" height="14.5"/>
			<rect id="XMLID_288_" x="646.5" y="234.1" class="st4" width="9.4" height="14.5"/>
			<rect id="XMLID_287_" x="600" y="234.1" class="st5" width="53.2" height="14.5"/>
			<rect id="XMLID_286_" x="596.1" y="117.1" class="st5" width="57.3" height="6"/>
			<rect id="XMLID_285_" x="593.3" y="111.1" class="st4" width="63" height="7.4"/>
			<g id="XMLID_670_">
				<rect id="XMLID_284_" x="600.5" y="127.3" class="st5" width="9.6" height="9.6"/>
				<rect id="XMLID_283_" x="613.5" y="127.3" class="st5" width="9.6" height="9.6"/>
				<rect id="XMLID_282_" x="626.5" y="127.3" class="st5" width="9.6" height="9.6"/>
				<rect id="XMLID_281_" x="639.5" y="127.3" class="st5" width="9.6" height="9.6"/>
			</g>
			<g id="XMLID_665_">
				<rect id="XMLID_280_" x="600.5" y="140" class="st5" width="9.6" height="9.6"/>
				<rect id="XMLID_279_" x="613.5" y="140" class="st5" width="9.6" height="9.6"/>
				<rect id="XMLID_278_" x="626.5" y="140" class="st5" width="9.6" height="9.6"/>
				<rect id="XMLID_277_" x="639.5" y="140" class="st5" width="9.6" height="9.6"/>
			</g>
			<g id="XMLID_660_">
				<rect id="XMLID_276_" x="600.5" y="152.7" class="st5" width="9.6" height="9.6"/>
				<rect id="XMLID_275_" x="613.5" y="152.7" class="st5" width="9.6" height="9.6"/>
				<rect id="XMLID_274_" x="626.5" y="152.7" class="st5" width="9.6" height="9.6"/>
				<rect id="XMLID_273_" x="639.5" y="152.7" class="st5" width="9.6" height="9.6"/>
			</g>
			<g id="XMLID_655_">
				<rect id="XMLID_272_" x="600.5" y="165.4" class="st5" width="9.6" height="9.6"/>
				<rect id="XMLID_271_" x="613.5" y="165.4" class="st5" width="9.6" height="9.6"/>
				<rect id="XMLID_270_" x="626.5" y="165.4" class="st5" width="9.6" height="9.6"/>
				<rect id="XMLID_269_" x="639.5" y="165.4" class="st5" width="9.6" height="9.6"/>
			</g>
			<g id="XMLID_650_">
				<rect id="XMLID_268_" x="600.5" y="178.1" class="st5" width="9.6" height="9.6"/>
				<rect id="XMLID_267_" x="613.5" y="178.1" class="st5" width="9.6" height="9.6"/>
				<rect id="XMLID_266_" x="626.5" y="178.1" class="st5" width="9.6" height="9.6"/>
				<rect id="XMLID_265_" x="639.5" y="178.1" class="st5" width="9.6" height="9.6"/>
			</g>
			<g id="XMLID_645_">
				<rect id="XMLID_264_" x="600.5" y="190.8" class="st5" width="9.6" height="9.6"/>
				<rect id="XMLID_263_" x="613.5" y="190.8" class="st5" width="9.6" height="9.6"/>
				<rect id="XMLID_262_" x="626.5" y="190.8" class="st5" width="9.6" height="9.6"/>
				<rect id="XMLID_261_" x="639.5" y="190.8" class="st5" width="9.6" height="9.6"/>
			</g>
			<g id="XMLID_640_">
				<rect id="XMLID_260_" x="600.5" y="203.5" class="st5" width="9.6" height="9.6"/>
				<rect id="XMLID_259_" x="613.5" y="203.5" class="st5" width="9.6" height="9.6"/>
				<rect id="XMLID_258_" x="626.5" y="203.5" class="st5" width="9.6" height="9.6"/>
				<rect id="XMLID_257_" x="639.5" y="203.5" class="st5" width="9.6" height="9.6"/>
			</g>
			<g id="XMLID_635_">
				<rect id="XMLID_256_" x="600.5" y="216.2" class="st5" width="9.6" height="9.6"/>
				<rect id="XMLID_255_" x="613.5" y="216.2" class="st5" width="9.6" height="9.6"/>
				<rect id="XMLID_254_" x="626.5" y="216.2" class="st5" width="9.6" height="9.6"/>
				<rect id="XMLID_253_" x="639.5" y="216.2" class="st5" width="9.6" height="9.6"/>
			</g>
		</g>
		<g id="XMLID_625_">
			<polygon id="XMLID_252_" class="st4" points="755.9,207.8 680.8,207.8 680.8,156 755.9,168.3 			"/>
			<polygon id="XMLID_251_" class="st5" points="755.9,170.6 679.2,158.2 679.2,154 755.9,166.4 			"/>
			<rect id="XMLID_250_" x="637.2" y="209.1" class="st4" width="118.6" height="39.5"/>
			<rect id="XMLID_249_" x="729.5" y="234.2" class="st4" width="16.4" height="14.4"/>
			<rect id="XMLID_248_" x="646.1" y="221.1" class="st5" width="42.1" height="19.1"/>
			<rect id="XMLID_247_" x="696.8" y="221.1" class="st5" width="50.5" height="7.1"/>
			<rect id="XMLID_246_" x="680.8" y="179.8" class="st5" width="55.7" height="19.1"/>
			<rect id="XMLID_245_" x="634.8" y="207.2" class="st5" width="121.1" height="4.2"/>
		</g>
		<g id="XMLID_620_" class="st6">
			<g id="XMLID_622_">
				<polygon id="XMLID_244_" class="st4" points="595.5,248.6 570.3,248.6 570.3,218.1 582.6,208.9 595.5,218.1 				"/>
				<polygon id="XMLID_243_" class="st5" points="582.6,209.3 596,219.1 596,216.8 582.6,206.3 569.8,216.8 569.8,219.1 				"/>
			</g>
			<rect id="XMLID_242_" x="581" y="224.2" class="st5" width="3.8" height="8.1"/>
		</g>
	</g>
	<polygon id="XMLID_241_" class="st7" points="602.7,249.4 717.6,100.6 700.9,100.6 585.9,249.4 	"/>
	<polygon id="XMLID_240_" class="st7" points="618.3,249.4 733.3,100.6 725.7,100.6 610.8,249.4 	"/>
	<rect id="XMLID_239_" x="651.9" y="97.7" class="st0" width="9.4" height="154.5"/>
</g>
<g id="XMLID_496_">
	<g id="XMLID_579_">
		<path id="XMLID_238_" class="st8" d="M298.5,129.9c0,0-4.5,6.7,3.7,14.4c14,13.1,32,20.3,35.5,21.8c3.5,1.5,14.1,4,17.7-0.7
			c3.6-4.7-7.4-13.4-7.4-13.4s-12.3-6.8-23.3-13.8C313.7,131,298.5,129.9,298.5,129.9z"/>
		<path id="XMLID_237_" class="st8" d="M372,116.8c0,0-13.6-6.8-14.7-3.4c-5,14.9-12.6,31-13.4,34.7c-0.8,3.7-1.2,14.6,4.1,17.2
			c5.3,2.6,11.8-9.8,11.8-9.8s4.3-13.4,9.1-25.6C373.7,117.7,372,116.8,372,116.8z"/>
		<g id="XMLID_595_">
			<path id="XMLID_236_" class="st9" d="M311,129.5c-0.3,3.9-2.4,7.3-4.7,7.5c-2.1,0-4.2,0-6.3,0c-2.2-0.2-4.3-3.6-4.7-7.5
				c-0.5-6.5-1-12.9-1.5-19.4c-0.3-3.9,1.2-11.7,4.5-14c3.1-2,6.6-2,9.7,0c3.4,2.3,4.9,10.1,4.5,14
				C312.1,116.6,311.6,123.1,311,129.5z"/>
			<path id="XMLID_235_" class="st9" d="M262.7,194.6l16.9,27.4c0,0-25.1-12-23.8-23.3C257.1,187.5,262.7,194.6,262.7,194.6z"/>
			<path id="XMLID_234_" class="st10" d="M301.8,225.7c0,0,9.4,44.6,19.2,68.2c8.7,20.9,18.8-6.3,18.8-6.3l-15.9-81.1l-26.2-2
				C297.8,204.6,296,205.2,301.8,225.7z"/>
			<path id="XMLID_233_" class="st10" d="M303.9,204.8l3.2,34.7l-4.5,2.7c0,0-2.6,51.6-3.5,54.2c-4.9,14.9-17.6,6-19.3,1
				c-1.7-5-4.6-41.8-4-68.7c0.6-26.9,0.6-26.9,0.6-26.9L303.9,204.8z"/>
			<path id="XMLID_232_" class="st11" d="M326.7,139.8l-16.8-8.6l-4.5,1.8l-13-1.4l-20.2,6.9c0,0-4.1,5.3-0.4,24.5
				c3.6,19.1,4,49.9,4,49.9l50.3,3C326.1,215.9,332.8,135.6,326.7,139.8z"/>
			<path id="XMLID_231_" class="st11" d="M280.9,139.4c0,0-6.8-5.9-14.7,5c-11.7,16.2-18.6,34.9-19.9,38.6c-1.3,3.7-3,15,2.2,18.3
				c5.2,3.3,5.2,3.3,5.2,3.3l11.6-6.7l-2-3.6l-1.3-1.7c0,0,6.1-13.3,12.5-25.3C280.9,155.1,280.9,139.4,280.9,139.4z"/>
			<polygon id="XMLID_230_" class="st8" points="306.2,132.6 303,138.8 292.9,131.5 294.9,127.9 			"/>
			<polygon id="XMLID_229_" class="st8" points="311.6,128.1 307.1,132.6 311.4,137.9 313.9,131.2 			"/>
			<path id="XMLID_228_" class="st12" d="M280.7,382.6c-0.4,0.6-0.1,2.2-0.1,2.2s7.8,1,10.3,0.4c0.6-0.2,1.7-0.8,2.8-1.5
				c0.2-0.1,0.5-0.8,0.6-0.9c0.3-0.2,0.5,0.1,0.7,0c0.7-0.5,1.2-0.9,1.2-0.9c0.7-4-0.2-5.6-0.2-5.6s-6.6-2.5-7.9-0.8
				C285.2,379.4,281.7,381.2,280.7,382.6z"/>
			<path id="XMLID_227_" class="st12" d="M336.1,373.7l1.2,6.5h6.3c0,0,0.3-0.9,0.9-0.9c0.5,0,1,0.9,1.6,0.9c1.3,0,2.8,0,3.4,0
				c1.2,0,12.6,0,12.6,0s0.3-1.4-0.1-1.8c-0.2-0.2-1.2-0.7-1.9-0.9c-3.3-1-12.6-4-14.2-7.2C344,366.3,336.1,373.7,336.1,373.7z"/>
			<path id="XMLID_226_" class="st10" d="M298,282.8c0,0,2.1,9.8,1.8,28.2c-0.2,11.7-1.3,42.6-3.3,65.7c-0.1,1.4-11,0.3-11,0.3
				s-6.6-74.8-7.2-89.3C278.2,283.4,289.4,272.5,298,282.8z"/>
			<path id="XMLID_225_" class="st10" d="M335.4,286.4c0,0-3.4-1.3-12.7,1.3c-6,1.7,12.4,87,12.4,87l13.7-5l-9.4-84.2L335.4,286.4z"
				/>
			<g id="XMLID_596_">
				<path id="XMLID_224_" class="st13" d="M304.2,91.6v-4.5h1.9h4.9h2.9c3.3,0,5.9,2.6,5.9,5.9v4.5h-1.9H313h-3
					C306.8,97.5,304.2,94.9,304.2,91.6z"/>
				<path id="XMLID_223_" class="st9" d="M294.9,118.8c0,2.9,2.3,5.2,5.2,5.2H312c2.9,0,5.2-2.3,5.2-5.2V95c0-2.9-2.3-5.2-5.2-5.2
					h-11.9c-2.9,0-5.2,2.4-5.2,5.2V118.8z"/>
				<path id="XMLID_222_" class="st13" d="M303.8,87.1c-2.1,0-3.9,1.1-4.9,2.7h-2c-2.5,0-4.6,2-4.6,4.6v11.3h3.2v-4.6
					c0-1.8,1.4-3.2,3.2-3.2h1.9h4.9h2.9c3.3,0,5.9-2.6,5.9-5.9v-4.8H303.8z"/>
				<path id="XMLID_221_" class="st9" d="M296.5,108.6c0-1.5-1.3-2.8-2.8-2.8h-0.2c-1.5,0-2.8,1.3-2.8,2.8v3.4
					c0,1.5,1.3,2.8,2.8,2.8h0.2c1.1,0,2.1-0.7,2.6-1.7"/>
			</g>
		</g>
		<g id="XMLID_583_">
			<g id="XMLID_592_">
				<polygon id="XMLID_220_" class="st14" points="357.8,137.8 355.3,130.9 346,370 348.7,370 				"/>
				<polygon id="XMLID_219_" class="st14" points="347.6,370 348.7,370 357.8,137.8 356.8,135 				"/>
			</g>
			<polygon id="XMLID_218_" class="st14" points="386.7,259.2 346,259.2 351.8,111.5 392.5,111.5 			"/>
			<g id="XMLID_588_">
				<polygon id="XMLID_217_" class="st1" points="485.4,234.1 489.1,229.9 502.8,377.6 498.8,377.6 				"/>
				<polygon id="XMLID_216_" class="st15" points="500.4,377.6 498.8,377.6 485.4,234.1 486.9,232.4 				"/>
			</g>
			<g id="XMLID_585_">
				<polygon id="XMLID_215_" class="st1" points="369.8,234.1 373.5,229.9 387.2,377.6 383.2,377.6 				"/>
				<polygon id="XMLID_214_" class="st15" points="384.8,377.6 383.2,377.6 369.8,234.1 371.3,232.4 				"/>
			</g>
			<polygon id="XMLID_213_" class="st16" points="366,259.2 497.7,259.2 484,111.5 352.2,111.5 			"/>
		</g>
		<g id="XMLID_580_">
			<path id="XMLID_212_" class="st9" d="M364.5,108c-2.1,0.2-7.2,3-7.2,3l7.7,0.2c0.2,1,0,1.6,0,1.6l0.2,4.8l-0.1,2.2
				c0,0-0.1,1.3,0.1,1.6c0.6,1,1.1,0.1,1.1,0.1l1-8.7l1.2,8.3c0,0,0.3,1,0.9,1.1c0.5,0,0.5-0.3,0.5-0.3l0.8-9.7l1.1,4.2
				c0,0,0.4,1,0.9,1.1c0.6,0.1,0.8,0.1,0.8,0.1l-1.1-8.9C372.5,108.8,368.6,107.5,364.5,108z"/>
			<path id="XMLID_211_" class="st9" d="M368.9,113.2l1.2,5.8c0,0,0.1,1.3,0.6,1.9c0.5,0.7,1.1,0.3,1.1,0.3l-1-8.9L368.9,113.2z"/>
		</g>
	</g>
	<g id="XMLID_497_">
		<g id="XMLID_577_">
			<polygon id="XMLID_210_" class="st17" points="433.8,129.7 370.2,129.7 370,127.1 433.5,127.1 			"/>
		</g>
		<g id="XMLID_575_">
			<polygon id="XMLID_209_" class="st17" points="390.3,124.1 369.7,124.1 369.5,121.5 390.1,121.5 			"/>
		</g>
		<g id="XMLID_498_">
			<g id="XMLID_499_">
				<g id="XMLID_510_">
					<g id="XMLID_565_">
						<polygon id="XMLID_208_" class="st18" points="373.2,135.2 472.4,135.2 482.2,247.7 383,247.7 						"/>
						<line id="XMLID_207_" class="st19" x1="381.6" y1="231.6" x2="480.8" y2="231.6"/>
						<line id="XMLID_206_" class="st19" x1="380.2" y1="215.5" x2="479.4" y2="215.5"/>
						<line id="XMLID_205_" class="st19" x1="378.8" y1="199.5" x2="478" y2="199.5"/>
						<line id="XMLID_204_" class="st19" x1="377.4" y1="183.4" x2="476.6" y2="183.4"/>
						<line id="XMLID_203_" class="st19" x1="376" y1="167.3" x2="475.2" y2="167.3"/>
						<line id="XMLID_202_" class="st19" x1="374.6" y1="151.2" x2="473.8" y2="151.2"/>
						<line id="XMLID_201_" class="st19" x1="439.3" y1="135.2" x2="449.2" y2="247.7"/>
						<line id="XMLID_200_" class="st19" x1="406.2" y1="135.2" x2="416.1" y2="247.7"/>
					</g>
					<line id="XMLID_199_" class="st19" x1="373.2" y1="135.2" x2="368.5" y2="140.3"/>
					<line id="XMLID_198_" class="st19" x1="374.6" y1="151.2" x2="369.9" y2="156.4"/>
					<line id="XMLID_197_" class="st19" x1="376" y1="167.3" x2="371.3" y2="172.4"/>
					<line id="XMLID_196_" class="st19" x1="377.4" y1="183.4" x2="372.7" y2="188.5"/>
					<line id="XMLID_195_" class="st19" x1="378.8" y1="199.5" x2="374.1" y2="204.6"/>
					<line id="XMLID_194_" class="st19" x1="380.2" y1="215.5" x2="375.5" y2="220.7"/>
					<line id="XMLID_193_" class="st19" x1="381.6" y1="231.6" x2="376.9" y2="236.7"/>
					<g id="XMLID_552_">
						<path id="XMLID_556_" class="st20" d="M372.4,237.1L372.4,237.1l-0.5,0.3l-0.1-0.3l0.6-0.3h0.3l0.3,2.9h-0.4L372.4,237.1z"/>
						<path id="XMLID_553_" class="st20" d="M375.9,238.2c0.1,1-0.2,1.5-0.9,1.5c-0.6,0-1-0.5-1.1-1.5c-0.1-1,0.3-1.5,0.9-1.5
							C375.4,236.7,375.8,237.3,375.9,238.2z M374.3,238.3c0.1,0.8,0.3,1.2,0.7,1.2c0.4,0,0.6-0.5,0.5-1.2c-0.1-0.7-0.3-1.2-0.7-1.2
							C374.5,237,374.2,237.5,374.3,238.3z"/>
					</g>
					<g id="XMLID_546_">
						<path id="XMLID_550_" class="st20" d="M370.4,223.7l0-0.2l0.3-0.3c0.7-0.7,1-1.1,1-1.5c0-0.3-0.2-0.6-0.6-0.6
							c-0.3,0-0.5,0.1-0.6,0.2l-0.1-0.3c0.2-0.2,0.5-0.3,0.8-0.3c0.6,0,0.9,0.4,1,0.8c0,0.5-0.3,1-0.9,1.6l-0.2,0.2l0,0h1.3l0,0.3
							H370.4z"/>
						<path id="XMLID_547_" class="st20" d="M374.5,222.3c0.1,1-0.2,1.5-0.9,1.5c-0.6,0-1-0.5-1.1-1.5c-0.1-1,0.3-1.5,0.9-1.5
							C374,220.8,374.4,221.3,374.5,222.3z M372.9,222.3c0.1,0.8,0.3,1.2,0.7,1.2c0.4,0,0.6-0.5,0.5-1.2c-0.1-0.7-0.3-1.2-0.7-1.2
							C373.1,221.1,372.8,221.5,372.9,222.3z"/>
					</g>
					<g id="XMLID_540_">
						<path id="XMLID_544_" class="st20" d="M369,207.3c0.1,0.1,0.4,0.2,0.7,0.2c0.5,0,0.6-0.3,0.6-0.6c0-0.4-0.4-0.6-0.8-0.6h-0.2
							l0-0.3h0.2c0.3,0,0.6-0.1,0.6-0.5c0-0.2-0.2-0.4-0.5-0.4c-0.2,0-0.4,0.1-0.6,0.2l-0.1-0.3c0.1-0.1,0.4-0.2,0.7-0.2
							c0.6,0,0.9,0.3,0.9,0.7c0,0.3-0.1,0.6-0.5,0.7l0,0c0.4,0.1,0.7,0.3,0.7,0.7c0,0.5-0.3,0.9-1,0.9c-0.3,0-0.6-0.1-0.8-0.2
							L369,207.3z"/>
						<path id="XMLID_541_" class="st20" d="M373.1,206.3c0.1,1-0.2,1.5-0.9,1.5c-0.6,0-1-0.5-1.1-1.5c-0.1-1,0.3-1.5,0.9-1.5
							C372.6,204.8,373,205.4,373.1,206.3z M371.5,206.3c0.1,0.8,0.3,1.2,0.7,1.2c0.4,0,0.6-0.5,0.5-1.2c-0.1-0.7-0.3-1.2-0.7-1.2
							C371.7,205.1,371.5,205.5,371.5,206.3z"/>
					</g>
					<g id="XMLID_533_">
						<path id="XMLID_537_" class="st20" d="M368.8,191.8l-0.1-0.8h-1.4l0-0.3l1.1-1.9h0.4l0.2,1.8h0.4l0,0.3h-0.4l0.1,0.8H368.8z
							 M368.7,190.7l-0.1-1c0-0.2,0-0.3,0-0.5h0c-0.1,0.2-0.1,0.3-0.2,0.4l-0.6,1l0,0H368.7z"/>
						<path id="XMLID_534_" class="st20" d="M371.7,190.3c0.1,1-0.2,1.5-0.9,1.5c-0.6,0-1-0.5-1.1-1.5c-0.1-1,0.3-1.5,0.9-1.5
							C371.2,188.9,371.6,189.4,371.7,190.3z M370.1,190.4c0.1,0.8,0.3,1.2,0.7,1.2c0.4,0,0.6-0.5,0.5-1.2c-0.1-0.7-0.3-1.2-0.7-1.2
							C370.3,189.2,370.1,189.6,370.1,190.4z"/>
					</g>
					<g id="XMLID_527_">
						<path id="XMLID_531_" class="st20" d="M367.7,173.3h-1.1l0,0.7c0.1,0,0.1,0,0.2,0c0.2,0,0.5,0,0.6,0.2
							c0.2,0.1,0.5,0.4,0.5,0.7c0,0.6-0.4,1-1,1c-0.3,0-0.6-0.1-0.7-0.2l0.1-0.3c0.1,0.1,0.4,0.2,0.6,0.2c0.4,0,0.7-0.2,0.6-0.6
							c0-0.4-0.3-0.6-0.9-0.6c-0.2,0-0.3,0-0.4,0l0.1-1.4h1.4L367.7,173.3z"/>
						<path id="XMLID_528_" class="st20" d="M370.3,174.4c0.1,1-0.2,1.5-0.9,1.5c-0.6,0-1-0.5-1.1-1.5c-0.1-1,0.3-1.5,0.9-1.5
							C369.8,172.9,370.2,173.5,370.3,174.4z M368.7,174.4c0.1,0.8,0.3,1.2,0.7,1.2c0.4,0,0.6-0.5,0.5-1.2c-0.1-0.7-0.3-1.2-0.7-1.2
							C368.9,173.2,368.7,173.6,368.7,174.4z"/>
					</g>
					<g id="XMLID_520_">
						<path id="XMLID_524_" class="st20" d="M366.2,157.3c-0.1,0-0.2,0-0.3,0c-0.6,0.1-0.9,0.6-0.9,1h0c0.1-0.2,0.4-0.3,0.7-0.3
							c0.5,0,0.9,0.4,1,0.9c0,0.5-0.3,1-0.9,1c-0.6,0-1.1-0.5-1.1-1.2c-0.1-0.6,0.1-1,0.4-1.3c0.2-0.2,0.5-0.4,0.9-0.4
							c0.1,0,0.2,0,0.3,0L366.2,157.3z M366.3,159c0-0.4-0.3-0.7-0.7-0.7c-0.2,0-0.4,0.1-0.5,0.4c0,0,0,0.1,0,0.2
							c0.1,0.5,0.3,0.8,0.7,0.8C366.1,159.7,366.3,159.4,366.3,159z"/>
						<path id="XMLID_521_" class="st20" d="M368.9,158.4c0.1,1-0.2,1.5-0.9,1.5c-0.6,0-1-0.5-1.1-1.5c-0.1-1,0.3-1.5,0.9-1.5
							C368.4,156.9,368.8,157.5,368.9,158.4z M367.3,158.5c0.1,0.8,0.3,1.2,0.7,1.2c0.4,0,0.6-0.5,0.5-1.2c-0.1-0.7-0.3-1.2-0.7-1.2
							C367.5,157.3,367.3,157.7,367.3,158.5z"/>
					</g>
					<g id="XMLID_514_">
						<path id="XMLID_518_" class="st20" d="M365,141l0,0.3l-1,2.7h-0.4l1-2.6l0,0h-1.4l0-0.3H365z"/>
						<path id="XMLID_515_" class="st20" d="M367.5,142.5c0.1,1-0.2,1.5-0.9,1.5c-0.6,0-1-0.5-1.1-1.5c-0.1-1,0.3-1.5,0.9-1.5
							C367,141,367.4,141.5,367.5,142.5z M365.9,142.5c0.1,0.8,0.3,1.2,0.7,1.2c0.4,0,0.6-0.5,0.5-1.2c-0.1-0.7-0.3-1.2-0.7-1.2
							C366.1,141.3,365.9,141.7,365.9,142.5z"/>
					</g>
					<polygon id="XMLID_169_" class="st21" points="376,167.3 475.2,167.3 473.8,151.2 374.6,151.2 					"/>
					<polygon id="XMLID_168_" class="st21" points="378.8,199.5 478,199.5 476.6,183.4 377.4,183.4 					"/>
					<polygon id="XMLID_167_" class="st21" points="381.6,231.6 480.8,231.6 479.4,215.5 380.2,215.5 					"/>
				</g>
				<g id="XMLID_500_">
					<polygon id="XMLID_166_" class="st22" points="419.4,153.8 374.8,153.8 374.6,151.2 419.2,151.2 					"/>
					<polygon id="XMLID_165_" class="st23" points="452,160.6 375.4,160.6 375.2,158 451.8,158 					"/>
					<polygon id="XMLID_164_" class="st11" points="403.3,167.3 376,167.3 375.8,164.7 403.1,164.7 					"/>
					<polygon id="XMLID_163_" class="st22" points="458.1,185.9 377.6,185.9 377.4,183.4 457.9,183.4 					"/>
					<polygon id="XMLID_162_" class="st23" points="411.3,192.7 378.2,192.7 378,190.1 411.1,190.1 					"/>
					<polygon id="XMLID_161_" class="st11" points="445,199.5 378.8,199.5 378.6,196.9 444.7,196.9 					"/>
					<polygon id="XMLID_160_" class="st22" points="413.5,218.3 380.4,218.3 380.2,215.7 413.3,215.7 					"/>
					<polygon id="XMLID_159_" class="st23" points="447.2,225 381,225 380.8,222.5 447,222.5 					"/>
					<polygon id="XMLID_158_" class="st11" points="436.2,231.8 381.6,231.8 381.4,229.2 436,229.2 					"/>
				</g>
			</g>
		</g>
	</g>
</g>
<g id="XMLID_473_">
	<g id="XMLID_494_">
		<path id="XMLID_157_" class="st24" d="M100.7,372.8c-2.3,0-5.8-0.5-8.9-3.2c-4.5-3.9-6.4-10.8-5.8-20.6c0.4-6.6,3-13.3,5.8-20.4
			c4.6-11.9,9.9-25.4,7.1-43.3l5.1-0.8c3,19.2-2.8,34-7.4,45.9c-2.7,7-5.1,13-5.5,18.8c-0.5,7.9,0.8,13.6,4,16.4
			c3,2.6,6.7,1.9,6.8,1.9l1,5.1C102.9,372.6,102,372.8,100.7,372.8z"/>
	</g>
	<g id="XMLID_482_">
		<g id="XMLID_491_">
			<path id="XMLID_156_" class="st25" d="M140.3,413.8l5,7.7L103.1,435c0,0-2.8-2.7,7.5-8.1C122.7,420.5,140.3,413.8,140.3,413.8z"
				/>
			<path id="XMLID_155_" class="st25" d="M147.8,413.8l-5,7.7L185,435c0,0,2.8-2.7-7.5-8.1C165.4,420.5,147.8,413.8,147.8,413.8z"/>
		</g>
		<rect id="XMLID_154_" x="139.6" y="391" class="st25" width="8.8" height="31.4"/>
		<g id="XMLID_487_">
			<path id="XMLID_153_" class="st2" d="M139.7,415.4l4.3,7.3l-36.1,12.9c0,0-2.4-2.6,6.5-7.7C124.7,421.8,139.7,415.4,139.7,415.4z
				"/>
			<path id="XMLID_152_" class="st2" d="M148.4,415.4l-4.3,7.3l36.1,12.9c0,0,2.4-2.6-6.5-7.7C163.4,421.8,148.4,415.4,148.4,415.4z
				"/>
		</g>
		<circle id="XMLID_151_" class="st26" cx="108.9" cy="438.5" r="3.1"/>
		<circle id="XMLID_150_" class="st26" cx="178.9" cy="438.5" r="3.1"/>
		<circle id="XMLID_149_" class="st24" cx="101.5" cy="438.5" r="3.1"/>
		<circle id="XMLID_148_" class="st24" cx="186.4" cy="438.5" r="3.1"/>
	</g>
	<rect id="XMLID_147_" x="140.7" y="379.5" class="st24" width="6.5" height="11.3"/>
	<path id="XMLID_146_" class="st24" d="M152,373.5c0,3.5-2.8,6.3-6.3,6.3h-3.5c-3.5,0-6.3-2.8-6.3-6.3l0,0c0-3.5,2.8-6.3,6.3-6.3
		h3.5C149.2,367.2,152,370,152,373.5L152,373.5z"/>
	<path id="XMLID_145_" class="st27" d="M191.9,367.7c0.2-0.7,0.2-5.4,0.2-6.2c0-5.1-3.3-9.2-7.3-9.2h-81.7c-4.1,0-7.3,4.1-7.3,9.2
		c0,0.8,0.1,5.4,0.2,6.2H191.9z"/>
	<path id="XMLID_144_" class="st24" d="M95,370.2c0,1.6,0.9,2.8,2,2.8h93.8c1.1,0,2-1.3,2-2.8l0,0c0-1.6-0.9-2.8-2-2.8H97
		C95.9,367.4,95,368.7,95,370.2L95,370.2z"/>
	<g id="XMLID_474_">
		<path id="XMLID_143_" class="st27" d="M99.5,320.5c2,0.1,14.8,0.4,17,0.4c14,0.2,26.1-2.5,26.8-5.9c2.8-14.4,2.9-29.1,0.4-43.4
			c-0.6-3.5-12.9-6.1-27.2-5.9c-2.3,0-15.3,0.3-17.4,0.4C103.6,284,103.7,302.6,99.5,320.5z"/>
		<path id="XMLID_142_" class="st24" d="M97.6,266.1c-1.6,0-2.7,0.8-2.4,1.7c3.9,16.8,4.1,34.3,0.4,51.1c-0.2,0.9,0.9,1.6,2.4,1.7
			l0,0c1.5,0,3-0.7,3.2-1.6c3.7-16.9,3.5-34.4-0.3-51.3C100.6,266.8,99.2,266.1,97.6,266.1L97.6,266.1z"/>
		<path id="XMLID_141_" class="st28" d="M97,320.5c0.4,0.1,3.2,0.2,3.7,0.2c3.1,0,6.2-2.7,6.8-6.1c2.5-14.1,2.5-28.6-0.2-42.8
			c-0.6-3.4-3.9-6.1-7-6.1c-0.5,0-3.3,0.1-3.8,0.2C101,284,101.1,302.6,97,320.5z"/>
	</g>
</g>
<g id="XMLID_471_">
	<path id="XMLID_140_" class="st29" d="M173.5,192.6h-6.9v3.5C168.1,194,170.6,192.6,173.5,192.6z"/>
</g>
<g id="XMLID_436_">
	<path id="XMLID_139_" class="st15" d="M143.1,213.9c0,0-12,4.3-0.5,38.5c11.5,34.3,19.1,30.1,19.1,30.1l9.5-0.9l18.2-21.6l-9.8-8.6
		l-2,0.8c0,0-2.5-1-2.8-3.4c-0.3-2.4-4.9-12.2-8.4-32.4C164.9,207.2,145.4,213,143.1,213.9z"/>
	<path id="XMLID_138_" class="st9" d="M186.9,260.4c0,0,23.6,12.1,38.5-11.3c4.4-6.9,2.5,1,0.1,8.6c-2.4,7.6-17.1,24.8-33.7,25.9
		c-16.7,1.2-23,0.2-26.2-5.5C162.4,272.4,186.9,260.4,186.9,260.4z"/>
	<path id="XMLID_137_" class="st1" d="M166.6,255l6-3.9l2.5-1.4c0.7,1.8,2.6,2.6,2.6,2.6l-5,2.1l-5.4,3.5l-5.6,6.8L166.6,255z"/>
	<path id="XMLID_136_" class="st1" d="M165.2,312.3l-44.7-1c0,0-17.6-46-18.6-62.2c-0.6-9.4,5-30.1,14.6-34.7c2.1-1,8.8-3.7,12-3.9
		c18.8-1.3,34.1,0.1,34.1,0.1S178.2,224.1,165.2,312.3z"/>
	<path id="XMLID_135_" class="st13" d="M238.7,444.4c0,0-4.3,6.7-6.6,2.6c-6.7-12.3-12.7-51.2-13-67.2c-0.5-21.3-1.5-34.3-1.5-34.3
		l21.4-7.8L238.7,444.4z"/>
	<path id="XMLID_134_" class="st13" d="M163.6,311.9l75.6,25.9l-19.8,11.1c0,0-78,13.7-79.3-15.3
		C138.8,309.2,163.6,311.9,163.6,311.9z"/>
	<path id="XMLID_133_" class="st10" d="M211.9,445c0,0-3.9,3.6-6.1-0.5c-6.7-12.3-17.6-45.1-18-61c-0.5-21.3,3-36.1,3-36.1l21.9-7.6
		L211.9,445z"/>
	<path id="XMLID_132_" class="st10" d="M140.2,312.7l72.1,27.2l-19.7,10.7c0,0-73.1,13.7-74.6-15.3
		C116.5,306.5,140.2,312.7,140.2,312.7z"/>
	<path id="XMLID_131_" class="st10" d="M116.6,337c-0.2,2,1,8.6,3.2,11.3c6.8,8.2,23,5.5,35.9,5.5c0.7,0,4.3-10.1,4.3-10.1l5.4-32.9
		l-45.2,0.8C120.2,311.6,118.2,320.4,116.6,337z"/>
	<path id="XMLID_130_" class="st9" d="M190.1,291.7l16.5-3c0,0,2.6-0.3,2.7,1.5c0.2,2.3-0.3,10-0.3,10l-3-1.8l-4.3,2.6l-4.9-6.5
		c0,0-2.6,0.5-4.7,0C191.5,294.3,190.1,291.7,190.1,291.7z"/>
	<path id="XMLID_129_" class="st9" d="M149.5,287l43.8,4.9c0,0-23.5,12-34.3,12.1c-10.8,0.1-20.9-2.4-20.9-2.4L149.5,287z"/>
	<path id="XMLID_128_" class="st15" d="M127.9,241.6l21.9,41.4l-1.3,3.4l3.4,0.6l-10.2,16.3l-16-3.7L106,253.4
		c0,0-6.9-19.6,7.1-32.5C116.8,217.5,125.9,238.3,127.9,241.6z"/>
	<path id="XMLID_127_" class="st1" d="M133.4,297.2c0,0,10.4-7.9,15.6-12.2l-0.5,1.5l3.4,0.6l-3.6,5.6l-6.2,7.2l-3.6-1.3l1.3-2.5
		L133.4,297.2z"/>
	<g id="XMLID_455_">
		<path id="XMLID_126_" class="st9" d="M223.5,257.3c0,0-3.6-8.5-2.3-10.8c1.3-2.3,6.5-10.4,6.5-10.4l1.5-2c0,0,3.1,0.5-0.5,5.9
			c-3.6,5.4-0.4,3.7-0.4,3.7l5.1-3.7l6.6-4.1l2.7-2.2c0,0,1.4-1.3,2.1-1.4c1.8-0.1,1.2,1.3,1.2,1.3l-9.8,9.3l11.4-6.2
			c0,0,1.6-0.5,2.2,0.1c0.5,0.6,0.1,0.9,0.1,0.9l-11.3,10l6.3-2.5c0,0,1.6-0.5,2.2,0.1c0.6,0.7,0.8,0.9,0.8,0.9l-23,12.9
			L223.5,257.3z"/>
		<path id="XMLID_125_" class="st9" d="M238.2,244.6l8.3-3.9c0,0,1.8-1.1,2.9-1.1c1.3,0,1.3,1.1,1.3,1.1l-11.9,7.1L238.2,244.6z"/>
	</g>
	<path id="XMLID_124_" class="st10" d="M218.9,451.6c0.4,0.6,0.1,2.3,0.1,2.3s-6.8,1.1-8.9,0.4c-0.6-0.2-1.5-0.8-2.4-1.5
		c-0.2-0.1-0.4-0.8-0.6-0.9c-0.3-0.2-0.4,0.2-0.6,0c-0.6-0.5-1-0.9-1-1c-0.6-4.2,0.3-5.9,0.3-5.9s5.8-2.7,6.8-0.9
		C215,448.4,218.1,450.2,218.9,451.6z"/>
	<path id="XMLID_123_" class="st13" d="M231.5,446.3l1,6.1h5.1c0,0,0.3-0.9,0.7-0.9c0.4,0,0.8,0.9,1.3,0.9c1.1,0,2.3,0,2.7,0
		c1,0,10.3,0,10.3,0s0.2-1.3,0-1.7c-0.1-0.2-1-0.6-1.6-0.8c-2.6-0.9-10.6-2.9-12.4-5.7C237.2,442,231.5,446.3,231.5,446.3z"/>
	
		<rect id="XMLID_122_" x="126.4" y="206.5" transform="matrix(-0.9155 -0.4023 0.4023 -0.9155 168.1188 456.2698)" class="st15" width="11.1" height="7.9"/>
	<g id="XMLID_437_">
		<g id="XMLID_441_">
			<path id="XMLID_121_" class="st13" d="M146.3,180.4c0.5,3-1.6,5.7-4.5,6.2l-20.2,3.2c-3,0.5-5.7-1.6-6.2-4.5l0,0
				c-0.5-3,1.5-5.7,4.5-6.2l20.2-3.2C143,175.5,145.8,177.5,146.3,180.4L146.3,180.4z"/>
			<path id="XMLID_120_" class="st13" d="M144,190.3c0.9,5.5-2.9,10.6-8.3,11.4l-10.5,1.7c-5.5,0.9-10.6-2.9-11.4-8.3l0,0
				c-0.9-5.5,2.9-10.6,8.3-11.4l10.5-1.7C138.1,181.1,143.2,184.9,144,190.3L144,190.3z"/>
			<path id="XMLID_119_" class="st9" d="M154.5,204.9l-4.9-30.9c-0.8-4.9-4,0.6-8.9,1.4l-4.8,0.7c-4.9,0.8-8.3,5.4-7.5,10.3l3.5,22
				L154.5,204.9z"/>
			<path id="XMLID_118_" class="st9" d="M133.4,192.7c0.3,2.2-1.1,4.2-3.3,4.5l0,0c-2.2,0.3-4.2-1.1-4.5-3.3l0,0
				c-0.3-2.2,1.1-4.2,3.3-4.5l0,0C131.1,189.1,133.1,190.6,133.4,192.7L133.4,192.7z"/>
			<path id="XMLID_117_" class="st9" d="M150.4,195.6c0.2,1.3,1.3,2.1,2.6,1.9l1.8-0.3c1.2-0.2,2-1.4,1.8-2.6c0,0-5.9-11.1-7.1-10.9
				c0,0-0.8,1.2-0.6,2.4L150.4,195.6z"/>
			<path id="XMLID_116_" class="st13" d="M141.7,205.2c-8.9,1.4-10.3-1.2-11-4.3c0,0-1.1,8.2-0.7,10.7l0.4,2.8c0.9,5.4,7.1,9,14,7.9
				l12.5-2l-2.2-13.9l-0.5-3.3L141.7,205.2z"/>
			<path id="XMLID_115_" class="st13" d="M153.3,197.5l-7.1,1.1c-3.3,0.5-5.5,3.6-5,6.9c0.1,0.5,0.2,1,0.4,1.5l12.9-2L153.3,197.5z"
				/>
			<path id="XMLID_114_" class="st9" d="M145.1,205.1l0.3,2c0.1,0.5,0.6,0.9,1.1,0.8l5.8-0.9c0.5-0.1,0.9-0.6,0.8-1.1l-0.3-2
				L145.1,205.1z"/>
			<path id="XMLID_113_" class="st13" d="M145.7,169l-18.3,2.9c-2,0.3-3.3,2.2-3,4.1l1.1,7.1l21.8-3.4L145.7,169z"/>
			<path id="XMLID_112_" class="st13" d="M157.8,172.5c0.5,3-1.6,5.8-4.5,6.2l-12.4,1.9c-3,0.5-5.8-1.6-6.2-4.5l0,0
				c-0.5-3,1.6-5.8,4.5-6.2l12.4-1.9C154.6,167.5,157.4,169.5,157.8,172.5L157.8,172.5z"/>
		</g>
		
			<rect id="XMLID_111_" x="128.2" y="179.7" transform="matrix(0.9878 -0.1556 0.1556 0.9878 -27.4026 22.611)" class="st13" width="5" height="13.2"/>
		
			<rect id="XMLID_110_" x="129" y="173.1" transform="matrix(0.9878 -0.1556 0.1556 0.9878 -26.4832 23.4177)" class="st13" width="14.7" height="15.5"/>
		<path id="XMLID_109_" class="st9" d="M133.7,189.3c-0.6-4.1,2.1-7.9,6.2-8.5l3.8-0.6c4.1-0.6,6.8,2.3,7.4,6.4l0,0
			c0.6,4.1-2.1,7.9-6.2,8.5l-2.7,0.4C138.2,196.2,134.4,193.4,133.7,189.3L133.7,189.3z"/>
	</g>
</g>
<g id="XMLID_428_">
	<path id="XMLID_108_" class="st30" d="M190.7,300.7C190.7,300.7,190.7,300.7,190.7,300.7v-2.2h88.8v2.1c0,0,0,0,0,0.1l-0.2,0.4
		c-1.1,1.9-3.2,2.2-5.5,2.2h-77.2c-2.3,0-4.4-0.3-5.5-2.2L190.7,300.7z"/>
	<path id="XMLID_107_" class="st31" d="M212.1,301.1C212.1,301.1,212.1,301.1,212.1,301.1l-0.2,0.4c-0.4,0.5-0.8,0.8-1.3,1.1h-13.5
		c-2.3,0-4.2-0.3-5.3-1.8l-0.2-0.3c0,0,0,0,0-0.1l0-1.1h20.6V301.1z"/>
	<g id="XMLID_432_">
		<rect id="XMLID_106_" x="224.1" y="299" class="st32" width="44.4" height="1.5"/>
	</g>
	<g id="XMLID_429_">
		<path id="XMLID_105_" class="st33" d="M212.6,298.4l11.5-43.6c0.3-1.2,1.5-2.1,2.6-2.1H289c1.1,0,1.8,0.9,1.5,2.1L279,298.4H212.6
			z"/>
		<path id="XMLID_104_" class="st30" d="M247.8,275.6c-0.6,2.2,0.7,4,3,4c2.2,0,4.5-1.8,5.1-4c0.6-2.2-0.7-4-3-4
			C250.7,271.5,248.4,273.3,247.8,275.6z"/>
	</g>
</g>
<g id="XMLID_405_">
	<g id="XMLID_426_">
		<path id="XMLID_103_" class="st24" d="M673.2,375c2,0,5.3-0.5,8.1-2.9c4.1-3.5,5.8-9.8,5.2-18.7c-0.4-6-2.8-12-5.2-18.4
			c-4.2-10.8-8.9-23-6.5-39.2l-4.6-0.7c-2.7,17.4,2.5,30.8,6.7,41.6c2.5,6.3,4.6,11.8,4.9,17.1c0.5,7.2-0.8,12.3-3.6,14.8
			c-2.7,2.4-6,1.8-6.2,1.7l-0.9,4.6C671.2,374.8,672,375,673.2,375z"/>
	</g>
	<g id="XMLID_414_">
		<g id="XMLID_423_">
			<path id="XMLID_102_" class="st25" d="M637.4,412l-4.5,6.9l38.2,12.2c0,0,2.5-2.4-6.8-7.3C653.3,418.2,637.4,412,637.4,412z"/>
			<path id="XMLID_101_" class="st25" d="M630.6,412l4.5,6.9L597,431.2c0,0-2.6-2.4,6.8-7.3C614.7,418.2,630.6,412,630.6,412z"/>
		</g>
		<rect id="XMLID_100_" x="630" y="391.4" class="st25" width="8" height="28.4"/>
		<g id="XMLID_419_">
			<path id="XMLID_99_" class="st2" d="M637.9,413.5l-3.9,6.6l32.7,11.7c0,0,2.2-2.3-5.8-7C651.5,419.3,637.9,413.5,637.9,413.5z"/>
			<path id="XMLID_98_" class="st2" d="M630.1,413.5l3.9,6.6l-32.7,11.7c0,0-2.2-2.3,5.8-7C616.5,419.3,630.1,413.5,630.1,413.5z"/>
		</g>
		<circle id="XMLID_97_" class="st26" cx="665.8" cy="434.4" r="2.8"/>
		<circle id="XMLID_96_" class="st26" cx="602.4" cy="434.4" r="2.8"/>
		<circle id="XMLID_95_" class="st24" cx="672.5" cy="434.4" r="2.8"/>
		<circle id="XMLID_94_" class="st24" cx="595.7" cy="434.4" r="2.8"/>
	</g>
	<rect id="XMLID_93_" x="631.2" y="381" class="st24" width="5.8" height="10.2"/>
	<path id="XMLID_92_" class="st24" d="M626.8,375.6c0,3.1,2.5,5.7,5.7,5.7h3.2c3.1,0,5.7-2.5,5.7-5.7l0,0c0-3.1-2.5-5.7-5.7-5.7
		h-3.2C629.4,369.9,626.8,372.5,626.8,375.6L626.8,375.6z"/>
	<path id="XMLID_91_" class="st27" d="M590.7,370.4c-0.1-0.7-0.2-4.9-0.2-5.6c0-4.6,3-8.3,6.6-8.3h74c3.7,0,6.6,3.7,6.6,8.3
		c0,0.7-0.1,4.9-0.2,5.6H590.7z"/>
	<path id="XMLID_90_" class="st24" d="M678.4,372.6c0,1.4-0.8,2.5-1.8,2.5h-84.9c-1,0-1.8-1.1-1.8-2.5l0,0c0-1.4,0.8-2.5,1.8-2.5
		h84.9C677.6,370.1,678.4,371.2,678.4,372.6L678.4,372.6z"/>
	<g id="XMLID_406_">
		<path id="XMLID_89_" class="st27" d="M674.3,327.7c-1.8,0.1-13.4,0.3-15.4,0.4c-12.7,0.2-23.6-2.2-24.2-5.4
			c-2.5-13-2.6-26.3-0.3-39.3c0.5-3.1,11.6-5.5,24.6-5.3c2,0,13.9,0.2,15.7,0.4C670.6,294.6,670.5,311.5,674.3,327.7z"/>
		<path id="XMLID_88_" class="st24" d="M676,278.4c1.4,0,2.4,0.7,2.2,1.5c-3.5,15.2-3.7,31-0.4,46.3c0.2,0.8-0.8,1.5-2.2,1.5l0,0
			c-1.4,0-2.7-0.6-2.9-1.5c-3.3-15.3-3.2-31.1,0.3-46.4C673.3,279,674.6,278.4,676,278.4L676,278.4z"/>
		<path id="XMLID_87_" class="st28" d="M676.6,327.7c-0.4,0.1-2.9,0.2-3.3,0.2c-2.8,0-5.6-2.4-6.2-5.5c-2.3-12.8-2.2-25.9,0.2-38.7
			c0.6-3.1,3.5-5.5,6.3-5.5c0.4,0,3,0.1,3.4,0.2C673,294.6,672.8,311.5,676.6,327.7z"/>
	</g>
</g>
<g id="XMLID_376_">
	<g id="XMLID_397_">
		<g id="XMLID_399_">
			<g id="XMLID_401_">
				<path id="XMLID_86_" class="st34" d="M599.6,290.7c0,0-0.1,3.2-15.8,3.2c-15.7,0-38.7-3.8-38.7-3.8l36.2-3.4
					C581.3,286.6,595.2,286,599.6,290.7z"/>
				<path id="XMLID_85_" class="st34" d="M557.5,291.2c-7.5,0.2-10.5,4.1-13.5,5.3c-2.9,1.3-5.8,3.1-5.8,3.1c1.6-3.2,4-3.4,5.1-4.5
					c1.2-1.1,0.9-0.5-1.8-0.7c-1.5-0.1-4.1,2.7-5.9,4.2c-1.6,1.3-2.6,1.5-2.6,1.5s1.8-2.7,4.2-5c2.9-2.7,6.5-5,7.3-5.4
					c1.6-0.7,6.6-1,10.1-0.6C558.7,289.5,562.9,291,557.5,291.2z"/>
				<path id="XMLID_84_" class="st34" d="M545,289.9c0,0-5.7,1.6-6.6,2.4c-0.7,0.5-3.5,3.7-3.5,3.7s2.1-0.4,3.3-1.6
					C539.4,293.2,545,289.9,545,289.9z"/>
			</g>
			<path id="XMLID_83_" class="st14" d="M592.5,284.1c0,0,14.5,0.4,13.8,9c-0.4,4.9-3.6,6.7-8,6.5c-8.1-0.4-17.3-1.2-17.3-1.2
				l-4.6-13.2L592.5,284.1z"/>
		</g>
		<path id="XMLID_82_" class="st14" d="M595.6,285.2l12.6-44.5c0,0,1.9-6.5,5.3-5.4c5,1.6,2.7,6.9,2.4,10.1c-0.7,6.4,0,9.2-4,24.7
			c-2.5,9.6-4.5,20.6-6.8,26.9c-1.5,4.4-4.6-1.7-9.1-3.3C587.8,290.7,595.6,285.2,595.6,285.2z"/>
	</g>
	
		<ellipse id="XMLID_81_" transform="matrix(-0.9758 0.2187 -0.2187 -0.9758 1309.0918 299.6354)" class="st10" cx="638" cy="222.3" rx="18.4" ry="18"/>
	<path id="XMLID_80_" class="st10" d="M603.1,216.3c1.7,7.4,9.1,12.1,16.5,10.5l1.9-7.2c7.4-1.7,12.1-9.1,10.5-16.5l-1.1-5.1
		c-1.7-7.4-9.1-12.1-16.5-10.5l-3.4,0.8c-7.4,1.7-12.1,9.1-10.5,16.5L603.1,216.3z"/>
	<path id="XMLID_79_" class="st9" d="M604.1,195.3c0.3,1.2,0.7,2.5,1.2,3.7c3.3,8.3,10,13.7,16,13.3c1.1,3.9,2.6,7.2,4.2,10
		c1.8,3.2,6.6,5.9,6.6,5.9c2.3,5.8-21,25.3-22,24.8c-2.1-1.1,1.7-15.1,5.5-19.4c1.8-2,3.6-4.4,3.7-5.8c0.1-4.8-1.4-5.8-3.7-8
		c-4.1-3.1-8.7-2-8.7-2c-0.5,0.1-0.9,0-1.2-0.2c-0.5-0.8-0.8-1.7-1.1-2.7l-2.5-11.1C601.4,200.6,602.2,197.5,604.1,195.3z"/>
	<path id="XMLID_78_" class="st35" d="M628.3,319.2c0,0-6,5.4-7.7,5.9c-2.2,0.6-8.5-2.1-8.5-2.1s1.7-28.1,1.1-39.2
		c-0.7-11.1-3.3-14.3-3-17.8c0.5-5.5-4-8.3-2.7-12.5c1.3-4.2,4.6-19.2,4.8-17.1c1.9,17.8,8.8,4.1,10.1,1.9
		C623.3,237.3,628.3,319.2,628.3,319.2z"/>
	<path id="XMLID_77_" class="st36" d="M615.8,231.7c0,0-7.9,5.8-7.8,8.5c0.1,2.7-4.1,10.6-2.4,22.5c1.9,13.6,2.7,22.7,2.3,31.4
		c-0.4,8.7-4.4,16.2-4.5,26.8c-0.1,8.4,1.8,9.1,1.8,9.1s3.7,1.4,6.8-1.5c3.1-2.9,2.5-31.4,2.1-38.6c-0.5-7.2-2.7-24.1-3.2-29.1
		c-0.6-6.1,0.3-12.1,0.6-13.9c1.1-6.1,2.4-9.8,3.3-12.1c0.2-0.4,2.2-2,2.3-2.3C617.6,231.2,616.4,231,615.8,231.7z"/>
	<path id="XMLID_76_" class="st14" d="M617.9,228.8c0,0,1.6-0.3,0.2,1.5c-0.8,1-0.8,1.9-0.8,1.9s-0.7-0.7-1.8,0.3
		c-1,1-2.5,2.2-2.5,2.2s1-2.8,1.2-3C615,231.1,617.9,228.8,617.9,228.8z"/>
	
		<ellipse id="XMLID_75_" transform="matrix(-0.9758 0.2187 -0.2187 -0.9758 1326.3054 346.2196)" class="st10" cx="644" cy="246.5" rx="19.2" ry="18.8"/>
	<polygon id="XMLID_74_" class="st9" points="585.8,415.2 589.4,442.7 573.9,449.8 565.3,451.6 580.6,440.2 575.6,415.4 	"/>
	<path id="XMLID_73_" class="st12" d="M590.4,446.9l-3.4,0.9l-2.3-2l-12.4,6l-11,2.5c0,0-0.1-0.9,0.2-1.3c1.4-1.7,9.1-5.6,9.1-5.6
		s0.1,2.6,1.2,2.6c1.1,0.1,10.6-4.7,12.8-6.1c3.8-2.3,4.5-3.7,4.8-3.6C590.3,440.7,590.4,446.9,590.4,446.9z"/>
	<polygon id="XMLID_72_" class="st9" points="548.4,377 536.1,400.4 519,399.6 510.6,397.2 529.4,394.1 539.7,374.1 	"/>
	<path id="XMLID_71_" class="st12" d="M535.1,404.5l-3.4-0.8l-1.1-2.8l-15.3-0.2l-9.1-2.1c0,0,1.1-1.2,1.8-1.5
		c2-0.8,9.2-1.2,9.2-1.2s-0.8,2,0.2,2.6c0.9,0.6,11.4,0.9,14,0.7c4.4-0.3,5.7-1.3,5.9-1C537.8,399,535.1,404.5,535.1,404.5z"/>
	<path id="XMLID_70_" class="st10" d="M638.4,306.9l-9.2,4l-4,12l-59.1-9.7c0,0-6-1.9-9.9,7.7c-5.5,13.5-19.3,55.6-19.3,55.6
		l8.8,9.2l27.6-47.6c0,0,56.5,26.5,75.1,20.8c7.1-2.2,12.6-14.8,11.6-27.6c-0.8-10-2.8-19.2-2.8-19.2L638.4,306.9z"/>
	<path id="XMLID_69_" class="st13" d="M630.4,358.5l-45.2-3.3l3.9,69.8l-13.3,0.4l-9.8-81.7c0,0,2.7-12.2,11.3-10.3
		C585.8,335.2,606.7,351.2,630.4,358.5z"/>
	<path id="XMLID_68_" class="st36" d="M624.7,324.6c0,0-1.1-28.4-1.9-41.8c-0.8-13.5-0.6-39.4-0.8-42.7c-0.2-3.2,0.7-7.8,0.7-7.8
		s4.1-7,8.6-6.4c4,0.5,10.2,6.1,14.1,8.7c3.8,2.5,3.4,50,3.6,52.4c0.7,8.6,5.8,17.1,9.7,25.4c2.5,5.3,3.1,13.7,3.1,13.7
		S638.6,321.6,624.7,324.6z"/>
	<polygon id="XMLID_67_" class="st14" points="629.9,223.7 626.6,226.9 622.1,231.8 624.4,237.3 632.4,226 	"/>
	<g id="XMLID_378_">
		<path id="XMLID_66_" class="st9" d="M636.1,297.8c0,0-0.5,3.5-19.1,1.4c-18.6-2-45.4-9.2-45.4-9.2l43.3,1.1
			C614.8,291.1,631.4,292.2,636.1,297.8z"/>
		<path id="XMLID_65_" class="st9" d="M586.1,292.9c-8.9-0.7-13,3-16.6,4c-3.6,1-7.3,2.6-7.3,2.6c2.2-3.3,5.1-3.1,6.6-4.1
			c1.5-1,1.1-0.5-2-0.9c-1.8-0.3-5.2,2.4-7.5,3.8c-2.1,1.2-3.3,1.2-3.3,1.2s2.5-2.7,5.6-4.8c3.7-2.5,8.3-4.5,9.4-4.8
			c1.9-0.5,7.9-0.2,12.1,0.6C587.7,291.2,592.4,293.4,586.1,292.9z"/>
		<path id="XMLID_64_" class="st9" d="M571.4,289.8c0,0-6.9,1-8.2,1.7c-0.9,0.5-4.6,3.5-4.6,3.5s2.6-0.2,4.1-1.3
			C564.3,292.6,571.4,289.8,571.4,289.8z"/>
	</g>
	<path id="XMLID_63_" class="st14" d="M628.4,289.8l2.1-43.9c0,0,2.4-9.2,5.8-11.3c4.1-2.5,9.7,2.1,9.7,2.1s2.9,6.9,0.9,39.2
		c-1.3,21.7-3.3,32.9-13.6,31.3c-9.6-1.5-20.4-3.6-20.4-3.6l-3.8-14.8L628.4,289.8z"/>
</g>
<g id="XMLID_368_">
	<path id="XMLID_62_" class="st37" d="M591.5,300.7C591.5,300.7,591.5,300.7,591.5,300.7v-2.2h-90.2v2.2c0,0,0,0,0,0.1l0.2,0.4
		c1.2,1.9,3.2,2.2,5.6,2.2h78.5c2.4,0,4.5-0.3,5.6-2.2L591.5,300.7z"/>
	<path id="XMLID_61_" class="st38" d="M569.7,301.1C569.7,301.1,569.7,301.1,569.7,301.1l0.2,0.4c0.4,0.5,0.8,0.8,1.3,1.1H585
		c2.3,0,4.3-0.3,5.4-1.8l0.2-0.3c0,0,0,0,0-0.1l0-1.1h-20.9V301.1z"/>
	<g id="XMLID_372_">
		<rect id="XMLID_60_" x="512.5" y="299" class="st38" width="45.1" height="1.5"/>
	</g>
	<g id="XMLID_369_">
		<path id="XMLID_59_" class="st33" d="M569.2,298.4l-11.7-44.3c-0.3-1.2-1.5-2.1-2.7-2.1h-63.3c-1.2,0-1.9,0.9-1.6,2.1l11.7,44.3
			H569.2z"/>
		<path id="XMLID_58_" class="st38" d="M533.5,275.2c0.6,2.3-0.8,4.1-3,4.1c-2.3,0-4.6-1.8-5.2-4.1c-0.6-2.3,0.8-4.1,3-4.1
			C530.5,271.1,532.9,272.9,533.5,275.2z"/>
	</g>
</g>
<g id="XMLID_356_">
	<g id="XMLID_365_">
		<polygon id="XMLID_57_" class="st4" points="215.2,455.6 224.4,455.6 209.2,308.1 195.8,308.1 		"/>
		<polygon id="XMLID_56_" class="st39" points="196.7,314.9 214.6,360.4 209.5,311.4 209.2,308.1 197.5,308.1 		"/>
	</g>
	<polygon id="XMLID_55_" class="st4" points="118.2,455.6 109,455.6 124.2,308.1 137.6,308.1 	"/>
	<polygon id="XMLID_54_" class="st39" points="136.7,314.9 130.9,359.6 123.9,311.4 124.2,308.1 135.9,308.1 	"/>
	<polygon id="XMLID_53_" class="st4" points="511.2,455.6 502,455.6 517.2,308.1 530.6,308.1 	"/>
	<polygon id="XMLID_52_" class="st39" points="529.7,314.9 523.8,359.6 516.8,311.4 517.2,308.1 528.9,308.1 	"/>
	<polygon id="XMLID_51_" class="st4" points="608.1,455.6 617.3,455.6 602.1,308.1 588.7,308.1 	"/>
	<polygon id="XMLID_50_" class="st39" points="589.6,314.9 607.5,360.4 602.5,311.4 602.1,308.1 590.4,308.1 	"/>
	<rect id="XMLID_49_" x="331.4" y="303.3" class="st24" width="283.6" height="8.6"/>
	<radialGradient id="XMLID_298_" cx="131.9712" cy="183.024" r="352.6488" gradientUnits="userSpaceOnUse">
		<stop  offset="1.574020e-003" style="stop-color:#D1E9E9"/>
		<stop  offset="1" style="stop-color:#69C3C3"/>
	</radialGradient>
	<rect id="XMLID_48_" x="113.2" y="303.3" class="st40" width="395.6" height="8.6"/>
</g>
<g id="XMLID_318_">
	<path id="XMLID_47_" class="st12" d="M405.9,458.4l-1.5,7.7h-7.9c0,0-0.4-1.1-1.1-1.1c-0.6,0-1.3,1.1-2.1,1.1c-1.7,0-3.5,0-4.2,0
		c-1.5,0-15.8,0-15.8,0s-0.4-1.6,0.1-2.2c0.2-0.3,1.5-0.8,2.4-1c4.1-1.1,15.7-4.7,17.8-8.6C396,449.5,405.9,458.4,405.9,458.4z"/>
	<path id="XMLID_46_" class="st13" d="M403.6,361.4c0,0,2.3,12.6,4.1,28.8c1.4,11.9,1.4,45.7-0.8,69.3c-0.1,1.4-15.1-2.9-15.1-2.9
		s-5.5-65.9-6.7-80.6C383.9,361.2,394.6,352.2,403.6,361.4z"/>
	<path id="XMLID_45_" class="st12" d="M428.8,444.4c-0.6-0.7-0.2-2.6-0.2-2.6s10.4-1.2,13.7-0.4c0.9,0.2,2.3,0.9,3.7,1.7
		c0.2,0.1,0.6,0.9,0.9,1.1c0.4,0.2,0.6-0.2,1,0.1c0.9,0.6,1.6,1,1.6,1.1c0.9,4.8-0.3,6.7-0.3,6.7s-8.6,2.7-10.5,0.9
		C433.8,448.5,430.1,446,428.8,444.4z"/>
	<path id="XMLID_44_" class="st13" d="M429.6,372.5c0,0-8.3-4.8-6.2,8.1c5.1,31.3,9.8,54.2,12,64.6c0.9,4,2.2,3.4,2.2,3.4l9.5,1.5
		l4.8-3.3l-8.9-70.7L429.6,372.5z"/>
	<g id="XMLID_343_">
		<path id="XMLID_43_" class="st10" d="M391.8,374.5c1.2,1.6,43.8,23.2,45.8,23.2h35c2,0,16.2-2.1,19.3-11.4c3.3-9.9,0-27.5,0-27.5
			c0-2-1.6-3.7-3.6-3.7h-43.6c-2,0-5.9,1.7-5.9,3.7l-42.4-1.4C396.5,357.3,382.6,362.4,391.8,374.5z"/>
		<path id="XMLID_42_" class="st13" d="M472.5,385h-40.1c-0.4,0-35-9.4-35.4-9.6l4.2,13.4c0,2,34.6,8.8,36.5,8.8h35
			c2,0,16.2-2.1,19.3-11.4c1-3,1.4-6.8,1.4-10.5C488.4,383.2,474.5,385,472.5,385z"/>
		<path id="XMLID_41_" class="st9" d="M457.6,258.7l-1.9-8.5c0,0-6.7,0.5-8-2.8c-2.6-6.6-0.4-17,1.1-20c4.5-8.4,6.4-23,27.4-11.4
			c8,4.4-4.3,25.9-5.3,30.5c-0.9,4.6,1.8,10,1.8,10l-4.9,3.4L457.6,258.7z"/>
		<path id="XMLID_40_" class="st9" d="M422.9,317.4l36,12.8c0,0-42.5,3.1-42.6,0.6C415.4,317.2,422.9,317.4,422.9,317.4z"/>
		<path id="XMLID_39_" class="st41" d="M495.1,267c0,0,7.2,3.4,12.3,31c5.2,27.6,1.9,26.5,1.9,26.5l-0.9,6.3l-13.4,1.1l-7.2-23.8
			L495.1,267z"/>
		<path id="XMLID_38_" class="st35" d="M495.6,267l-17.6-7.3l-4.9-4.2l-18.8-0.4l-3.3,4.9l-14.5,5.7c0,0-3.6,5.1-0.5,24.2
			c3.5,21.1-0.1,75.9-0.1,75.9l59.4,0.8C495.3,366.7,490.4,277.3,495.6,267z"/>
		<path id="XMLID_37_" class="st35" d="M441.2,265.9c0,0-3.3-3.3-11.2,5.7c-13.6,15.4-20.2,34.5-21.6,38.2c-1.4,3.7-3,12.8,2.6,19
			c4.2,4.7,8.3,3,8.3,3l13-10.1l-4.2-2.1l-2.8-0.2c0,0,6.6-13.1,13.6-25C445.9,282.2,441.2,265.9,441.2,265.9z"/>
		<path id="XMLID_36_" class="st10" d="M454.8,229.8c0,0,2.4-1.3,2.7,0.3c0.4,1.7-0.9,5.3-2,5.7c-1.1,0.3-1.5,4.8-1.5,4.8l2.9,5
			h14.8c0,0,4.6-1.8,4.9-4.8c0.4-3,4-24.1,4-24.1l-10.4-5c0,0-5.5-2.5-9.3-3.5c-5.9-1.5-7.1,1.3-6.9,2.8c0.2,1.5-1.6,1.7-4,1.7
			c-2.4,0-5.3,1.7-4,2.7c0.5,0.4-1.8,1.7-0.9,3.3c1.3,2.3,5.8,3,6.2,6.7C451.5,226.9,452.3,232.4,454.8,229.8z"/>
	</g>
	<g id="XMLID_324_">
		<path id="XMLID_35_" class="st42" d="M411.5,410.9c-0.1-0.7-0.2-4.9-0.2-5.6c0-4.6,3-8.3,6.6-8.3h74c3.7,0,6.6,3.7,6.6,8.3
			c0,0.7-0.1,4.9-0.2,5.6H411.5z"/>
		<path id="XMLID_34_" class="st43" d="M499.2,413.2c0,1.4-0.8,2.5-1.8,2.5h-84.9c-1,0-1.8-1.1-1.8-2.5l0,0c0-1.4,0.8-2.5,1.8-2.5
			h84.9C498.3,410.6,499.2,411.8,499.2,413.2L499.2,413.2z"/>
		<g id="XMLID_329_">
			<g id="XMLID_338_">
				<path id="XMLID_33_" class="st25" d="M464.6,452.6l-4.5,6.9l38.2,12.2c0,0,2.6-2.4-6.8-7.3C480.6,458.7,464.6,452.6,464.6,452.6
					z"/>
				<path id="XMLID_32_" class="st25" d="M457.9,452.6l4.5,6.9l-38.2,12.2c0,0-2.6-2.4,6.8-7.3C441.9,458.7,457.9,452.6,457.9,452.6
					z"/>
			</g>
			<rect id="XMLID_31_" x="457.3" y="431.9" class="st25" width="8" height="28.4"/>
			<g id="XMLID_334_">
				<path id="XMLID_30_" class="st2" d="M465.2,454l-3.9,6.6l32.7,11.7c0,0,2.2-2.3-5.8-7C478.8,459.9,465.2,454,465.2,454z"/>
				<path id="XMLID_29_" class="st2" d="M457.3,454l3.9,6.6l-32.7,11.7c0,0-2.2-2.3,5.8-7C443.7,459.9,457.3,454,457.3,454z"/>
			</g>
			<circle id="XMLID_28_" class="st26" cx="493" cy="474.9" r="2.8"/>
			<circle id="XMLID_27_" class="st26" cx="429.7" cy="474.9" r="2.8"/>
			<circle id="XMLID_26_" class="st24" cx="499.7" cy="474.9" r="2.8"/>
			<path id="XMLID_25_" class="st24" d="M420.2,474.9c0,1.5,1.2,2.8,2.8,2.8c1.5,0,2.8-1.2,2.8-2.8c0-1.5-1.2-2.8-2.8-2.8
				C421.4,472.2,420.2,473.4,420.2,474.9z"/>
		</g>
		<rect id="XMLID_24_" x="458.4" y="421.5" class="st43" width="5.8" height="10.2"/>
		<path id="XMLID_23_" class="st43" d="M454.1,416.1c0,3.1,2.5,5.7,5.7,5.7h3.2c3.1,0,5.7-2.5,5.7-5.7l0,0c0-3.1-2.6-5.7-5.7-5.7
			h-3.2C456.6,410.4,454.1,413,454.1,416.1L454.1,416.1z"/>
		<path id="XMLID_22_" class="st27" d="M423.5,410.9c-0.1-0.7-0.2-4.9-0.2-5.6c0-4.6,3-8.3,6.6-8.3h74c3.7,0,6.6,3.7,6.6,8.3
			c0,0.7-0.1,4.9-0.2,5.6H423.5z"/>
		<path id="XMLID_21_" class="st24" d="M511.2,413.2c0,1.4-0.8,2.5-1.8,2.5h-84.9c-1,0-1.8-1.1-1.8-2.5l0,0c0-1.4,0.8-2.5,1.8-2.5
			h84.9C510.4,410.6,511.2,411.8,511.2,413.2L511.2,413.2z"/>
	</g>
	<g id="XMLID_321_">
		<path id="XMLID_20_" class="st28" d="M502.1,342.9c0,2-1.6,3.7-3.7,3.7c-23.3,0-46.6,0-69.9,0c-2,0-4.1-1.6-4.4-3.7
			c-2.7-15.1-2.7-30.6,0-45.7c0.4-2,2.4-3.7,4.4-3.7c23.3,0,46.6,0,69.9,0c2,0,3.7,1.7,3.7,3.7C501.9,312.5,501.9,327.7,502.1,342.9
			z"/>
		<path id="XMLID_19_" class="st27" d="M506.1,342.9c0,2.1-1.7,3.7-3.7,3.7c-23.3,0-46.6,0-69.9,0c-2,0-4-1.6-4.4-3.7
			c-2.5-15.1-2.5-30.6,0-45.7c0.3-2,2.3-3.7,4.4-3.7c23.3,0,46.6,0,69.9,0c2,0,3.7,1.7,3.7,3.7C506.1,312.5,506.1,327.7,506.1,342.9
			z"/>
	</g>
	<path id="XMLID_18_" class="st24" d="M442.4,415.9c10.8-38.7-9.8-77.4-0.9-116.1c0.5-2.1-0.7-3.7-2.8-3.7c-0.4,0-0.8,0-1.3,0
		c-2,0-4.2,1.7-4.6,3.7c-8.8,38.7,11.7,77.4,0.9,116.1C436.7,415.9,439.6,415.9,442.4,415.9z"/>
	<path id="XMLID_17_" class="st24" d="M503.7,415.9c10.8-38.7-9.8-77.4-0.9-116.1c0.5-2.1-0.7-3.7-2.8-3.7c-0.4,0-0.8,0-1.3,0
		c-2,0-4.2,1.7-4.6,3.7c-8.8,38.7,11.7,77.4,0.9,116.1C497.9,415.9,500.8,415.9,503.7,415.9z"/>
</g>
<g id="XMLID_309_">
	<rect id="XMLID_16_" x="704.8" y="419.4" class="st14" width="62.6" height="8.4"/>
	<rect id="XMLID_15_" x="697.2" y="348.9" class="st14" width="77.9" height="72.3"/>
	<rect id="XMLID_14_" x="697.2" y="355.4" class="st1" width="77.9" height="64"/>
	<rect id="XMLID_13_" x="709.7" y="357.3" class="st0" width="52.9" height="22.3"/>
	<rect id="XMLID_12_" x="728.1" y="361" class="st44" width="16" height="3.8"/>
	<rect id="XMLID_11_" x="709.7" y="386" class="st0" width="52.9" height="22.3"/>
	<rect id="XMLID_10_" x="728.1" y="389.7" class="st44" width="16" height="3.8"/>
	<rect id="XMLID_9_" x="693" y="340.6" class="st1" width="86.2" height="8.3"/>
</g>
<g id="XMLID_297_">
	<g id="XMLID_306_">
		<path id="XMLID_8_" class="st11" d="M733.5,320c0,0,3.8-13.7,9.8-18.3c6-4.6,10.4-11.2,18.3-14.2c7.9-3,9.8-8.5,6.8-10.4
			c-3-1.9-12.9-7.4-24.9,5.2c-12,12.6-15,22.4-14.8,34.2C729.2,328.3,733,326.9,733.5,320z"/>
		<path id="XMLID_7_" class="st45" d="M764.2,279.2c0,0-12,3.6-17.5,7.7c-5.5,4.1-15.6,15.6-16.1,26.8"/>
	</g>
	<g id="XMLID_303_">
		<path id="XMLID_6_" class="st41" d="M730.2,324.4c0,0-6.2-17.5-8.8-23c-2.6-5.5-2.2-18.6,1.8-23.7c4-5.1,10.6-12.8,7.7-24.1
			c-2.9-11.3-1.5-18.2,4-13.9c5.5,4.4,15.1,14,15.3,29.5c0.2,11.9-3.3,18.8-9.8,27.4C735.2,303.6,729.9,316.4,730.2,324.4z"/>
		<path id="XMLID_5_" class="st46" d="M728.3,320.2c0,0-3.3-17.5,0-24.6c3.3-7.1,11.1-20.3,11.8-29c0.8-10.9-6-21.3-6-21.3"/>
	</g>
	<g id="XMLID_300_">
		<path id="XMLID_4_" class="st10" d="M705.9,298.4c-7.1-1.4-7.7-9.6-2.2-11.2c5.5-1.6,14.5-1.4,18.9,4.4c5.1,6.7,7.1,18.6,5.5,27.1
			c-1.6,8.5,0-3.3-3.6-9C720.9,303.9,711.8,299.6,705.9,298.4z"/>
		<path id="XMLID_3_" class="st47" d="M702.6,291.8c0,0,9.8-1.9,16.7,4.6c5.9,5.7,8.5,12.8,9.6,20.1"/>
	</g>
	<polygon id="XMLID_2_" class="st14" points="742,341 722.3,341 719,309.3 745.3,309.3 	"/>
	<polygon id="XMLID_1_" class="st1" points="721,309.3 722.8,334.5 737,334.5 738.9,309.3 	"/>
</g>
</svg>
