<?xml version="1.0" encoding="utf-8"?>
<!-- Generator: Adobe Illustrator 19.0.0, SVG Export Plug-In . SVG Version: 6.00 Build 0)  -->
<svg version="1.1" id="Calque_1" xmlns="http://www.w3.org/2000/svg" xmlns:xlink="http://www.w3.org/1999/xlink" x="0px" y="0px"
	 viewBox="0 0 841.9 595.3" style="enable-background:new 0 0 841.9 595.3;" xml:space="preserve">
<style type="text/css">
	.st0{fill:#E2D2B3;}
	.st1{fill:#3C2C5B;}
	.st2{fill:#F295A6;}
	.st3{fill:#7A65AA;}
	.st4{fill:#AACBE8;}
	.st5{fill:#9BB6DD;}
	.st6{fill:#FFF0D3;}
	.st7{fill:#30193B;}
	.st8{fill:#2E6E52;}
	.st9{fill:#EC6053;}
	.st10{fill:#B6316E;}
	.st11{fill:#F49835;}
	.st12{fill:#EE711D;}
	.st13{fill:#FECB4B;}
	.st14{fill:#CA5E78;}
	.st15{fill:#2B5B6F;}
	.st16{fill:#377B60;}
	.st17{fill:none;stroke:#3C2C5B;stroke-miterlimit:10;}
	.st18{fill:#C53C73;}
	.st19{fill:#D1548D;}
	.st20{fill:#F08182;}
	.st21{fill:#E9494A;}
	.st22{fill:#F08120;}
	.st23{fill:#28674C;}
	.st24{fill:#FCD683;}
	.st25{fill:#F18982;}
	.st26{fill:#215261;}
	.st27{fill:#6757A1;}
	.st28{fill:#3F8869;}
</style>
<g id="XMLID_408_">
	<g id="XMLID_409_">
		<ellipse id="XMLID_410_" class="st0" cx="419.9" cy="510.5" rx="327.8" ry="16.6"/>
	</g>
</g>
<g id="XMLID_403_">
	<g id="XMLID_406_">
		<path id="XMLID_407_" class="st1" d="M619.6,504.4c-0.8-3.2,3.8-2.6,6.4-3.5c-0.8,0.5-1.5,1.3-0.3,1.6c1.8,0.4,5.7-0.3,6.8-1.6
			c0.5,0.9,0.6,2.3,0.7,3.2C633.2,505.2,620.1,506.6,619.6,504.4z"/>
	</g>
	<g id="XMLID_404_">
		<path id="XMLID_405_" class="st2" d="M625.7,502.4c-1.2-0.3-0.5-1,0.3-1.6c1.6-0.6,2.9-1,3.2-1.1c0.8-0.4,1-1.1,1-1.1l0.8-0.2
			c0,0,1.4,2.1,1.6,2.4C631.4,502.1,627.5,502.9,625.7,502.4z"/>
	</g>
</g>
<g id="XMLID_398_">
	<g id="XMLID_401_">
		<path id="XMLID_402_" class="st1" d="M692.9,506.2c1-3.1-3.6-2.8-6.2-3.9c0.7,0.6,1.4,1.3,0.2,1.6c-1.8,0.3-5.7-0.6-6.7-2
			c-0.5,0.9-0.8,2.2-0.9,3.2C679.2,506.2,692.2,508.4,692.9,506.2z"/>
	</g>
	<g id="XMLID_399_">
		<path id="XMLID_400_" class="st2" d="M686.9,503.9c1.3-0.2,0.6-1-0.2-1.6c-1.6-0.7-2.9-1.1-3.2-1.3c-0.7-0.4-0.9-1.2-0.9-1.2
			l-0.8-0.3c0,0-1.5,2-1.7,2.3C681.2,503.3,685.1,504.2,686.9,503.9z"/>
	</g>
</g>
<g id="XMLID_396_">
	<path id="XMLID_397_" class="st3" d="M664.8,350.4c0.1,0.4,6.1,6.7,9.8,16.6c8.7,23.3,10.3,117.2,9.4,133.8
		c-0.1,2.2-5.2,0.4-5.5-2.4c-2-17.3-25.6-113.4-25.6-113.4l-15.1,44l-5.4,70.2l-5.1,0.4c0,0-7.3-48.7-7.1-72
		c0.1-19,11.2-64.7,13.3-69C638.2,357,657.4,350.3,664.8,350.4z"/>
</g>
<g id="XMLID_394_">
	<path id="XMLID_395_" class="st1" d="M664.8,350.4c0.1,0.4,6.1,6.7,9.8,16.6c8.7,23.3,10.3,117.2,9.4,133.8c0,0.8-0.8,1.1-1.7,1
		c-1-0.2-2.4-39-7.2-73c-2.5-18-3.8-31.7-6.8-42.9c-1-3.7-3.5-12-7.8-20c-2-3.8-11-12.3-11-12.3S661.4,350.3,664.8,350.4z"/>
</g>
<g id="XMLID_378_">
	<g id="XMLID_381_">
		<g id="XMLID_390_">
			<path id="XMLID_391_" class="st4" d="M627.4,270.2c0-1.1,0.7-2,1.7-2.4l7.2-2.9c1.1-0.4,1.8-1.5,1.7-2.7
				c-0.4-4.9-1.2-9.8-2.4-14.5c-0.3-1.1-1.3-1.9-2.5-2l-7.7-0.4c-1.1-0.1-2-0.7-2.4-1.8c-0.6-1.7-1.3-3.4-2.1-5
				c-0.4-1-0.3-2.1,0.4-2.9l5.2-5.7c0.8-0.9,0.9-2.1,0.4-3.1c-2.5-4.2-5.3-8.2-8.5-12c-0.8-0.9-2-1.2-3.1-0.7l-7.1,3
				c-1,0.4-2.1,0.2-2.9-0.6c-1.3-1.3-2.6-2.5-4-3.6c-0.8-0.7-1.2-1.8-0.9-2.8l2.2-7.4c0.3-1.1-0.1-2.3-1-3c-4-2.7-8.3-5.1-12.9-7.1
				c-1.1-0.5-2.3-0.2-3.1,0.7l-5.1,5.8c-0.7,0.8-1.8,1.1-2.8,0.8c-1.7-0.6-3.4-1.1-5.2-1.5c-1-0.3-1.8-1.1-2-2.2l-1.2-7.7
				c-0.2-1.1-1.1-2.1-2.2-2.2c-4.9-0.7-9.8-1-14.7-0.9c-1.2,0-2.2,0.8-2.5,2l-2.1,7.5c-0.3,1-1.2,1.8-2.2,1.9
				c-1.8,0.2-3.6,0.5-5.3,0.9c-1,0.2-2.1-0.2-2.7-1.1l-4.4-6.4c-0.7-1-1.9-1.4-3-1c-4.7,1.5-9.2,3.3-13.6,5.6
				c-1,0.5-1.6,1.7-1.4,2.8l1.4,7.6c0.2,1.1-0.3,2.1-1.2,2.7c-1.5,1-3,2-4.4,3.1c-0.9,0.7-2,0.7-2.9,0.2l-6.7-3.8
				c-1-0.6-2.3-0.4-3.1,0.3c-3.6,3.3-6.9,7-9.8,10.9c-0.7,0.9-0.7,2.2,0,3.2l4.5,6.3c0.6,0.9,0.7,2,0.1,2.9
				c-0.9,1.5-1.8,3.1-2.6,4.7c-0.5,1-1.5,1.5-2.5,1.5l-7.7-0.5c-1.2-0.1-2.2,0.6-2.7,1.7c-0.9,2.3-1.7,4.6-2.4,7
				c-0.7,2.4-1.3,4.8-1.7,7.2c-0.2,1.1,0.3,2.3,1.4,2.8l8.4,4.5c-0.1,0.7-0.2,1.4-0.2,2.1c-0.2,1.7-0.2,3.3-0.3,5
				c0,1.1-0.7,2-1.7,2.4l-7.2,2.9c-1.1,0.4-1.8,1.5-1.7,2.7c0.4,4.9,1.2,9.8,2.4,14.5c0.3,1.1,1.3,1.9,2.5,2l7.7,0.4
				c1.1,0.1,2,0.7,2.4,1.8c0.6,1.7,1.3,3.4,2.1,5c0.4,1,0.3,2.1-0.4,2.9l-5.2,5.7c-0.8,0.9-0.9,2.1-0.4,3.1c2.5,4.2,5.3,8.2,8.5,12
				c0.8,0.9,2,1.2,3.1,0.7l7.1-3c1-0.4,2.1-0.2,2.9,0.6c1.3,1.3,2.6,2.5,4,3.6c0.8,0.7,1.2,1.8,0.9,2.8l-2.2,7.4
				c-0.3,1.1,0.1,2.3,1,3c4,2.7,8.3,5.1,12.9,7.1c1.1,0.5,2.3,0.2,3.1-0.7l5.1-5.8c0.7-0.8,1.8-1.1,2.8-0.8c1.7,0.6,3.4,1.1,5.2,1.5
				c1,0.3,1.8,1.1,2,2.2l1.2,7.7c0.2,1.1,1.1,2.1,2.2,2.2c4.9,0.7,9.8,1,14.7,0.9c1.2,0,2.2-0.8,2.5-2l2.1-7.5
				c0.3-1,1.2-1.8,2.2-1.9c1.8-0.2,3.6-0.5,5.3-0.9c1-0.2,2.1,0.2,2.7,1.1l4.4,6.4c0.7,1,1.9,1.4,3,1c4.7-1.5,9.2-3.3,13.6-5.6
				c1-0.5,1.6-1.7,1.4-2.8l-1.4-7.6c-0.2-1.1,0.3-2.1,1.2-2.7c1.5-1,3-2,4.4-3.1c0.9-0.7,2-0.7,2.9-0.2l6.7,3.8
				c1,0.6,2.3,0.4,3.1-0.3c3.6-3.3,6.9-7,9.8-10.9c0.7-0.9,0.7-2.2,0-3.2l-4.5-6.3c-0.6-0.9-0.7-2-0.1-2.9c0.9-1.5,1.8-3.1,2.6-4.7
				c0.5-1,1.5-1.5,2.5-1.5l7.7,0.5c1.2,0.1,2.2-0.6,2.7-1.7c0.9-2.3,1.7-4.6,2.4-7c0.7-2.4,1.3-4.8,1.7-7.2c0.2-1.1-0.3-2.3-1.4-2.8
				l-8.4-4.5c0.1-0.7,0.2-1.4,0.2-2.1C627.3,273.5,627.3,271.8,627.4,270.2z M619.3,276.4c-4.3,35.5-36.6,60.9-72.1,56.6
				c-35.5-4.3-60.9-36.6-56.6-72.1c4.3-35.5,36.6-60.9,72.1-56.6C598.3,208.6,623.6,240.9,619.3,276.4z"/>
		</g>
		<g id="XMLID_386_">
			<path id="XMLID_387_" class="st4" d="M585.5,218.7c-6.9-4.2-14.9-7.1-23.5-8.1c-2.4-0.3-4.7-0.4-7.1-0.4c-11,0-21.5,3.1-30.4,8.6
				c-17.3,10.2-29,28.7-29,50c0,21.2,11.6,39.8,29,50c6.9,4.2,14.9,7.1,23.5,8.1c2.4,0.3,4.7,0.4,7.1,0.4c11,0,21.5-3.1,30.4-8.6
				c17.3-10.2,29-28.7,29-50C614.5,247.4,602.8,228.9,585.5,218.7z M554.9,210.1v0.3l0,0V210.1z"/>
		</g>
		<g id="XMLID_384_">
			<path id="XMLID_385_" class="st5" d="M627.4,270.2c0-1.1,0.7-2,1.7-2.4l7.2-2.9c1.1-0.4,1.8-1.5,1.7-2.7
				c-0.4-4.9-1.2-9.8-2.4-14.5c-0.3-1.1-1.3-1.9-2.5-2l-7.7-0.4c-1.1-0.1-2-0.7-2.4-1.8c-0.6-1.7-1.3-3.4-2.1-5
				c-0.4-1-0.3-2.1,0.4-2.9l5.2-5.7c0.8-0.9,0.9-2.1,0.4-3.1c-2.5-4.2-5.3-8.2-8.5-12c-0.8-0.9-2-1.2-3.1-0.7l-7.1,3
				c-1,0.4-2.1,0.2-2.9-0.6c-1.3-1.3-2.6-2.5-4-3.6c-0.8-0.7-1.2-1.8-0.9-2.8l2.2-7.4c0.3-1.1-0.1-2.3-1-3c-4-2.7-8.3-5.1-12.9-7.1
				c-1.1-0.5-2.3-0.2-3.1,0.7l-5.1,5.8c-0.7,0.8-1.8,1.1-2.8,0.8c-1.7-0.6-3.4-1.1-5.2-1.5c-1-0.3-1.8-1.1-2-2.2l-1.2-7.7
				c-0.2-1.1-1.1-2.1-2.2-2.2c-4.1-0.6-8.2-0.9-12.2-0.9v18.4c2.6,0,5.2,0.1,7.8,0.5c35.5,4.3,60.9,36.6,56.6,72.1
				c-4,32.9-32,57.1-64.4,57v18.4c0.9,0,1.7,0,2.6,0c1.2,0,2.2-0.8,2.5-2l2.1-7.5c0.3-1,1.2-1.8,2.2-1.9c1.8-0.2,3.6-0.5,5.3-0.9
				c1-0.2,2.1,0.2,2.7,1.1l4.4,6.4c0.7,1,1.9,1.4,3,1c4.7-1.5,9.2-3.3,13.6-5.6c1-0.5,1.6-1.7,1.4-2.8l-1.4-7.6
				c-0.2-1.1,0.3-2.1,1.2-2.7c1.5-1,3-2,4.4-3.1c0.9-0.7,2-0.7,2.9-0.2l6.7,3.8c1,0.6,2.3,0.4,3.1-0.3c3.6-3.3,6.9-7,9.8-10.9
				c0.7-0.9,0.7-2.2,0-3.2l-4.5-6.3c-0.6-0.9-0.7-2-0.1-2.9c0.9-1.5,1.8-3.1,2.6-4.7c0.5-1,1.5-1.5,2.5-1.5l7.7,0.5
				c1.2,0.1,2.2-0.6,2.7-1.7c0.9-2.3,1.7-4.6,2.4-7c0.7-2.4,1.3-4.8,1.7-7.2c0.2-1.1-0.3-2.3-1.4-2.8l-8.4-4.5
				c0.1-0.7,0.2-1.4,0.2-2.1C627.3,273.5,627.3,271.8,627.4,270.2z"/>
		</g>
		<g id="XMLID_382_">
			<path id="XMLID_383_" class="st5" d="M585.5,218.7c-6.9-4.2-14.9-7.1-23.5-8.1c-2.4-0.3-4.7-0.4-7.1-0.4l0,0v0.3v116.7
				c0,0,0.1,0,0.1,0c11,0,21.5-3.1,30.4-8.6c17.3-10.2,29-28.7,29-50C614.5,247.4,602.8,228.9,585.5,218.7z"/>
		</g>
	</g>
	<g id="XMLID_379_">
		<circle id="XMLID_380_" class="st6" cx="555.4" cy="268.7" r="25"/>
	</g>
</g>
<g id="XMLID_371_">
	<g id="XMLID_375_">
		<g id="XMLID_376_">
			<path id="XMLID_377_" class="st7" d="M301,209.6c2.5,1.5,3.8-2,5.1-3.8c-0.6,0.4-1.4,0.8-1.2-0.1c0.2-1.4,1.9-3.9,3.1-4.3
				c-0.5-0.6-1.4-1.1-2.1-1.4C305.1,199.6,300.3,209.2,301,209.6z"/>
		</g>
	</g>
	<g id="XMLID_372_">
		<g id="XMLID_373_">
			<path id="XMLID_374_" class="st2" d="M304.9,205.7c-0.1,1,0.3,1.5,1.1,0.3c0.7-1.1,1.6-1.8,1.8-2c0.5-0.4,1.4-0.2,1.4-0.2l0.5-1
				c0,0-1.6-1.2-1.7-1.4C306.7,201.8,305.1,204.3,304.9,205.7z"/>
		</g>
	</g>
</g>
<g id="XMLID_369_">
	<path id="XMLID_370_" class="st1" d="M360.2,198.5c0,0-42,1.1-47.8,1.5c-4.8,0.4-5.6,1.9-3.2,3.9c0.2,0.2,51.1,9.4,58.9,6.6
		C375.5,207.9,360.2,198.5,360.2,198.5z"/>
</g>
<g id="XMLID_367_">
	<path id="XMLID_368_" class="st7" d="M360.2,198.5c0,0-42,1.1-47.8,1.5c-4.8,0.4-5.6,1.9-3.2,3.9c0.2,0.2,51.1,9.4,58.9,6.6
		C375.5,207.9,360.2,198.5,360.2,198.5z"/>
</g>
<g id="XMLID_360_">
	<g id="XMLID_363_">
		<path id="XMLID_364_" class="st4" d="M578.9,410.7c0-1,0-2.1-0.1-3.1l6.1-1.9c-0.2-2.1-0.5-4.1-0.9-6.2l-6.3-0.1
			c-0.5-2-1.1-4-1.8-5.9l5.2-3.7c-0.8-1.9-1.7-3.8-2.8-5.6l-6.1,1.9c-1.1-1.8-2.3-3.4-3.6-5l3.8-5.1c-1.4-1.6-2.8-3.1-4.3-4.5
			l-5.2,3.7c-1.6-1.3-3.2-2.6-4.9-3.7l2.1-6c-1.8-1.1-3.6-2-5.5-2.9l-3.8,5.1c-1.9-0.8-3.8-1.4-5.8-2l0.1-6.3c-2-0.5-4-0.8-6.1-1
			l-2,6c-1-0.1-2-0.1-3.1-0.2c-1,0-2.1,0-3.1,0.1l-1.9-6.1c-2.1,0.2-4.1,0.5-6.2,0.9l-0.1,6.3c-2,0.5-4,1.1-5.9,1.8l-3.7-5.2
			c-1.9,0.8-3.8,1.7-5.6,2.8l1.9,6.1c-1.8,1.1-3.4,2.3-5,3.6l-5.1-3.8c-1.6,1.4-3.1,2.8-4.5,4.3l3.7,5.2c-1.3,1.6-2.6,3.2-3.7,4.9
			l-6-2.1c-1.1,1.8-2,3.6-2.9,5.5l5.1,3.8c-0.8,1.9-1.4,3.8-2,5.8l-6.3-0.1c-0.5,2-0.8,4-1,6.1l6,2c-0.1,1-0.1,2-0.2,3.1
			c0,1,0,2.1,0.1,3.1l-6.1,1.9c0.2,2.1,0.5,4.1,0.9,6.2l6.3,0.1c0.5,2,1.1,4,1.8,5.9l-5.2,3.7c0.8,1.9,1.7,3.8,2.8,5.6l6.1-1.9
			c1.1,1.8,2.3,3.4,3.6,5l-3.8,5.1c1.4,1.6,2.8,3.1,4.3,4.5l5.2-3.7c1.6,1.3,3.2,2.6,4.9,3.7l-2.1,6c1.8,1.1,3.6,2,5.5,2.9l3.8-5.1
			c1.9,0.8,3.8,1.4,5.8,2l-0.1,6.3c2,0.5,4,0.8,6.1,1l2-6c1,0.1,2,0.1,3.1,0.2c1,0,2.1,0,3.1-0.1l1.9,6.1c2.1-0.2,4.1-0.5,6.2-0.9
			l0.1-6.3c2-0.5,4-1.1,5.9-1.8l3.7,5.2c1.9-0.8,3.8-1.7,5.6-2.8l-1.9-6.1c1.8-1.1,3.4-2.3,5-3.6l5.1,3.8c1.6-1.4,3.1-2.8,4.5-4.3
			l-3.7-5.2c1.3-1.6,2.6-3.2,3.7-4.9l6,2.1c1.1-1.8,2-3.6,2.9-5.5l-5.1-3.8c0.8-1.9,1.4-3.8,2-5.8l6.3,0.1c0.5-2,0.8-4,1-6.1l-6-2
			C578.9,412.8,578.9,411.8,578.9,410.7z M533.3,421.9c-6.5,0-11.8-5.3-11.8-11.8c0-6.5,5.3-11.8,11.8-11.8s11.8,5.3,11.8,11.8
			C545.1,416.7,539.9,421.9,533.3,421.9z"/>
	</g>
	<g id="XMLID_361_">
		<path id="XMLID_362_" class="st5" d="M578.9,410.7c0-1,0-2.1-0.1-3.1l6.1-1.9c-0.2-2.1-0.5-4.1-0.9-6.2l-6.3-0.1
			c-0.5-2-1.1-4-1.8-5.9l5.2-3.7c-0.8-1.9-1.7-3.8-2.8-5.6l-6.1,1.9c-1.1-1.8-2.3-3.4-3.6-5l3.8-5.1c-1.4-1.6-2.8-3.1-4.3-4.5
			l-5.2,3.7c-1.6-1.3-3.2-2.6-4.9-3.7l2.1-6c-1.8-1.1-3.6-2-5.5-2.9l-3.8,5.1c-1.9-0.8-3.8-1.4-5.8-2l0.1-6.3c-2-0.5-4-0.8-6.1-1
			l-2,6c-1-0.1-2-0.1-3.1-0.2c-0.2,0-0.4,0-0.6,0v33.8c6.5,0,11.8,5.3,11.8,11.8c0,6.5-5.3,11.8-11.8,11.8v33.8c0.8,0,1.7,0,2.5-0.1
			l1.9,6.1c2.1-0.2,4.1-0.5,6.2-0.9l0.1-6.3c2-0.5,4-1.1,5.9-1.8l3.7,5.2c1.9-0.8,3.8-1.7,5.6-2.8l-1.9-6.1c1.8-1.1,3.4-2.3,5-3.6
			l5.1,3.8c1.6-1.4,3.1-2.8,4.5-4.3l-3.7-5.2c1.3-1.6,2.6-3.2,3.7-4.9l6,2.1c1.1-1.8,2-3.6,2.9-5.5l-5.1-3.8c0.8-1.9,1.4-3.8,2-5.8
			l6.3,0.1c0.5-2,0.8-4,1-6.1l-6-2C578.9,412.8,578.9,411.8,578.9,410.7z"/>
	</g>
</g>
<g id="XMLID_353_">
	<g id="XMLID_356_">
		<path id="XMLID_357_" class="st4" d="M499.9,335.7c-0.2-2.7-2.1-5-4.7-6l-14.7-5.2c-2.3-0.8-4-2.7-4.6-4.9
			c-1.3-5.2-3-10.5-5.2-15.6c-2.2-5.2-4.7-10.1-7.5-14.7c-1.2-2-1.3-4.5-0.2-6.6l6.9-13.6c1.2-2.4,0.9-5.4-0.9-7.5
			c-5.6-6.6-11.7-12.7-18.4-18.1c-2.2-1.8-5.2-2.1-7.7-1l-14.2,6.4c-2.2,1-4.8,0.8-6.8-0.4c-9.7-5.7-20.2-10-31.2-12.8
			c-2.3-0.6-4.2-2.3-5-4.5l-5.1-14.3c-0.9-2.6-3.3-4.4-6.1-4.7c-8.6-0.9-17.4-1-26.2-0.3c-2.8,0.2-5.2,2-6.2,4.6l-5.4,14.2
			c-0.8,2.2-2.8,3.8-5.1,4.4c-5.4,1.3-10.9,2.9-16.2,5c-5.3,2.1-10.4,4.5-15.3,7.2c-2.1,1.2-4.7,1.3-6.8,0.2l-14.1-6.6
			c-2.5-1.2-5.6-0.9-7.8,0.8c-6.9,5.4-13.1,11.3-18.7,17.7c-1.8,2.1-2.2,5-1,7.5l6.6,13.7c1,2.1,0.9,4.6-0.4,6.6
			c-5.9,9.4-10.4,19.5-13.3,30.1c-0.6,2.3-2.4,4.1-4.7,4.8l-14.8,4.9c-2.7,0.9-4.6,3.2-4.9,5.9c-0.9,8.3-1,16.8-0.3,25.3
			c0.2,2.7,2.1,5,4.7,6l14.7,5.2c2.3,0.8,4,2.7,4.6,4.9c1.3,5.2,3,10.5,5.2,15.6c2.2,5.2,4.7,10.1,7.5,14.7c1.2,2,1.3,4.5,0.2,6.6
			l-6.9,13.6c-1.2,2.4-0.9,5.4,0.9,7.5c5.6,6.6,11.7,12.7,18.4,18.1c2.2,1.8,5.2,2.1,7.7,1l14.2-6.4c2.2-1,4.8-0.8,6.8,0.4
			c9.7,5.7,20.2,10,31.2,12.8c2.3,0.6,4.2,2.3,5,4.5l5.1,14.3c0.9,2.6,3.3,4.4,6.1,4.7c8.6,0.9,17.4,1,26.2,0.3
			c2.8-0.2,5.2-2,6.2-4.6l5.4-14.2c0.8-2.2,2.8-3.8,5.1-4.4c5.4-1.3,10.9-2.9,16.2-5c5.3-2.1,10.4-4.5,15.3-7.2
			c2.1-1.2,4.7-1.3,6.8-0.2l14.1,6.6c2.5,1.2,5.6,0.9,7.8-0.8c6.9-5.4,13.1-11.3,18.7-17.7c1.8-2.1,2.2-5,1-7.5l-6.6-13.7
			c-1-2.1-0.9-4.6,0.4-6.6c5.9-9.4,10.4-19.5,13.3-30.1c0.6-2.3,2.4-4.1,4.7-4.8l14.8-4.9c2.7-0.9,4.6-3.2,4.9-5.9
			C500.5,352.7,500.6,344.2,499.9,335.7z M360.8,414.3c-37.4,0-67.7-29.2-67.7-65.3s30.3-65.3,67.7-65.3s67.7,29.2,67.7,65.3
			S398.2,414.3,360.8,414.3z"/>
	</g>
	<g id="XMLID_354_">
		<path id="XMLID_355_" class="st5" d="M499.9,335.7c-0.2-2.7-2.1-5-4.7-6l-14.7-5.2c-2.3-0.8-4-2.7-4.6-4.9
			c-1.3-5.2-3-10.5-5.2-15.6c-2.2-5.2-4.7-10.1-7.5-14.7c-1.2-2-1.3-4.5-0.2-6.6l6.9-13.6c1.2-2.4,0.9-5.4-0.9-7.5
			c-5.6-6.6-11.7-12.7-18.4-18.1c-2.2-1.8-5.2-2.1-7.7-1l-14.2,6.4c-2.2,1-4.8,0.8-6.8-0.4c-9.7-5.7-20.2-10-31.2-12.8
			c-2.3-0.6-4.2-2.3-5-4.5l-5.1-14.3c-0.9-2.6-3.3-4.4-6.1-4.7c-4.5-0.5-9-0.7-13.6-0.7v72.3c37.4,0,67.7,29.2,67.7,65.3
			s-30.3,65.3-67.7,65.3v68.3c3.6,0,7.1-0.2,10.7-0.5c2.8-0.2,5.2-2,6.2-4.6l5.4-14.2c0.8-2.2,2.8-3.8,5.1-4.4
			c5.4-1.3,10.9-2.9,16.2-5c5.3-2.1,10.4-4.5,15.3-7.2c2.1-1.2,4.7-1.3,6.8-0.2l14.1,6.6c2.5,1.2,5.6,0.9,7.8-0.8
			c6.9-5.4,13.1-11.3,18.7-17.7c1.8-2.1,2.2-5,1-7.5l-6.6-13.7c-1-2.1-0.9-4.6,0.4-6.6c5.9-9.4,10.4-19.5,13.3-30.1
			c0.6-2.3,2.4-4.1,4.7-4.8l14.8-4.9c2.7-0.9,4.6-3.2,4.9-5.9C500.5,352.7,500.6,344.2,499.9,335.7z"/>
	</g>
</g>
<g id="XMLID_346_">
	<g id="XMLID_350_">
		<g id="XMLID_351_">
			<path id="XMLID_352_" class="st7" d="M452.6,520.7c-0.6-2.9,3.3-2.9,5.5-3.5c-0.6,0.4-1.3,1-0.3,1.2c1.4,0.3,4.4-0.4,5.3-1.4
				c0.4,0.7,0.6,1.8,0.6,2.5C463.8,520.3,452.8,521.5,452.6,520.7z"/>
		</g>
	</g>
	<g id="XMLID_347_">
		<g id="XMLID_348_">
			<path id="XMLID_349_" class="st2" d="M457.9,518.4c-1-0.2-1.3-0.8,0.1-1.2c1.3-0.3,2.3-0.9,2.5-1c0.6-0.3,0.7-1.3,0.7-1.3
				l1.2-0.1c0,0,0.6,1.9,0.7,2.1C462.3,518,459.3,518.7,457.9,518.4z"/>
		</g>
	</g>
</g>
<g id="XMLID_339_">
	<g id="XMLID_343_">
		<g id="XMLID_344_">
			<path id="XMLID_345_" class="st7" d="M530,521.2c-3-0.3-1.8-4-1.8-6.3c0.2,0.7,0.6,1.5,1.1,0.6c0.7-1.3,0.9-4.4,0.1-5.5
				c0.8-0.2,1.8,0,2.5,0.1C532.9,510.5,530.8,521.3,530,521.2z"/>
		</g>
	</g>
	<g id="XMLID_340_">
		<g id="XMLID_341_">
			<path id="XMLID_342_" class="st2" d="M529.3,515.6c-0.5,0.9-1.2,1-1.1-0.5c0.1-1.3-0.2-2.5-0.2-2.7c-0.1-0.7-1-1.1-1-1.1l0.2-1.2
				c0,0,2,0,2.3-0.1C530.2,511.2,530,514.3,529.3,515.6z"/>
		</g>
	</g>
</g>
<g id="XMLID_336_">
	<g id="XMLID_337_">
		<path id="XMLID_338_" class="st1" d="M434.7,458.1c10.1-43.2,38-56.8,38-56.8c13.5,1.6,12.3,0.8,12.3,0.8c23.1,25.2,8.6,72,8.6,72
			s34.3,35.6,34.7,36c0.4,0.4,1.8,2.9-1.4,2.5c-0.3,0-0.9-0.4-1.1-0.5c-3.8-2.5-37.6-24.9-43.2-30.8c-7.3-7.6-9.3-53.5-9.3-53.5
			l-20.6,33c0,0,10.2,54.1,10.4,54.5c0.2,0.4-2.7,0.3-2.8,0.3C460.3,514.6,432.5,467.3,434.7,458.1z"/>
	</g>
</g>
<g id="XMLID_333_">
	<g id="XMLID_334_">
		<path id="XMLID_335_" class="st7" d="M472.7,401.3c13.5,1.6,12.3,0.8,12.3,0.8c23.1,25.2,8.6,72,8.6,72s34.3,35.6,34.7,36
			c0.4,0.4,1.8,2.9-1.4,2.5c-0.3,0-0.9-0.4-1.1-0.5c-3.8-2.5-37.6-24.9-43.2-30.8c-7.3-7.6-9.3-53.5-9.3-53.5L472.7,401.3z"/>
	</g>
</g>
<g id="XMLID_331_">
	<path id="XMLID_332_" class="st8" d="M374.3,141.3l26.5,7.8c0,0,35-12.1,41-5.8c5.1,5.3,2.5,13.8-1.6,15
		c-4.1,1.2-39.9,4.4-39.9,4.4l-27.2-11.4L374.3,141.3z"/>
</g>
<g id="XMLID_329_">
	<path id="XMLID_330_" class="st9" d="M206.7,270.1c0,0,3.5-5.9,8.5-1.9c0,0,2.2,1.1,0.7,5.7c-1.6,4.6,0,7.4,2.1,6.6
		c0,0,0,2.3-5,1.4c-5.1-1-6.4-6.3-6.4-6.3l-4.9,6.3c0,0-7.6-1.9-3.8-9.3c0.8-1.5,2.8-4.2,5.4-3.9C205.7,269,206.7,270.1,206.7,270.1
		z"/>
</g>
<g id="XMLID_327_">
	<path id="XMLID_328_" class="st10" d="M207.5,288.3c0,0,5.1,1.6,20.1-0.8c0,0,9.6-27.1,16.5-27.1c13.5,0.1,6.2,16,6.2,16
		s-6.2,17.5-18.3,19.1c-15.6,2-24.6-1.8-24.9-2.7C205.9,288.3,207.5,288.3,207.5,288.3z"/>
</g>
<g id="XMLID_325_">
	<path id="XMLID_326_" class="st11" d="M210.1,395.3l-5.3,0.1c-0.4,0-0.7,0.4-0.7,0.8l18.7,107.4c0.1,0.3,0.4,0.6,0.7,0.6l7.1-0.2
		c0.4,0,0.7-0.4,0.7-0.8l-20.5-107.4C210.7,395.5,210.4,395.3,210.1,395.3z"/>
</g>
<g id="XMLID_323_">
	<path id="XMLID_324_" class="st12" d="M179.9,395.7l-5.3,0.2c-0.4,0-0.7,0.4-0.7,0.8L193,504c0.1,0.3,0.4,0.6,0.7,0.6l7.1-0.2
		c0.4,0,0.7-0.4,0.7-0.8l-20.9-107.3C180.5,395.9,180.2,395.7,179.9,395.7z"/>
</g>
<g id="XMLID_321_">
	<path id="XMLID_322_" class="st13" d="M348.1,153.5c0,0-4.5-14.2,3-21.6c7.5-7.4,17.9-2.2,17.9-2.6c0-0.4,8.4-8.4,16.2-6.3
		c5.5,1.5,5.1,8.5,2.9,9.6c0,0,0.7,9.6-5,14C377.3,150.7,348.1,153.5,348.1,153.5z"/>
</g>
<g id="XMLID_319_">
	<path id="XMLID_320_" class="st1" d="M333,360.8c0,0-8.4-13.2,2.4-14.5c0,0,1.8-10.3,10.1-9.1c0,0,5.2,1.2,3.7,8.1
		c0,0,4.9,1.8,2.1,8.1c0,0,6.8-4.4,11,3.8c4.2,8.2-3.3,16.1-3.3,16.1s4.8,0.8,3.2,8.4c-1.7,7.6-8.8,5.5-8.8,5.5L333,360.8z"/>
</g>
<g id="XMLID_314_">
	<g id="XMLID_317_">
		<path id="XMLID_318_" class="st7" d="M230.5,515.1c-0.4-1.3,4.5-5.1,6.3-5.8c-0.6,0.5-1.4,1.4-0.6,1.8c1.2,0.6,3.7-0.2,4.5-1.4
			c0.2,1,0.2,2.4,0.2,3.3C240.9,514.2,231.4,518.1,230.5,515.1z"/>
	</g>
	<g id="XMLID_315_">
		<path id="XMLID_316_" class="st2" d="M234.8,512.2c-0.8-0.4,1.2-2.3,1.7-2.7c1.5-0.9,1.8-1,2.1-1.1c0.6-0.3,0.8-1,0.8-1l0.9-0.1
			c0,0-0.3,0.8,0.2,1.7c0.1,0.2,0.2,0.5,0.3,0.8C239.9,510.9,236,512.8,234.8,512.2z"/>
	</g>
</g>
<g id="XMLID_307_">
	<g id="XMLID_311_">
		<g id="XMLID_312_">
			<path id="XMLID_313_" class="st7" d="M308,514.2c0.6-3.4-3.9-3.2-6.4-3.9c0.7,0.5,1.5,1.1,0.4,1.4c-1.6,0.4-5.1-0.3-6.1-1.5
				c-0.4,0.8-0.6,2-0.6,2.8C295.3,514.1,307.9,515.1,308,514.2z"/>
		</g>
	</g>
	<g id="XMLID_308_">
		<g id="XMLID_309_">
			<path id="XMLID_310_" class="st2" d="M302,511.7c1.1-0.3,1.5-1-0.2-1.4c-1.5-0.3-2.7-0.9-2.9-1.1c-0.7-0.3-0.9-1.5-0.9-1.5
				l-1.3-0.1c0,0-0.6,2.2-0.8,2.5C296.9,511.4,300.4,512.1,302,511.7z"/>
		</g>
	</g>
</g>
<g id="XMLID_305_">
	<path id="XMLID_306_" class="st1" d="M232.4,379.8C232.4,379.8,232.4,379.8,232.4,379.8C232.4,379.8,232.4,379.8,232.4,379.8z"/>
</g>
<g id="XMLID_298_">
	<g id="XMLID_302_">
		<g id="XMLID_303_">
			<path id="XMLID_304_" class="st7" d="M266.1,265.9c2.9,0.4,2.7-3.4,3.2-5.5c-0.4,0.6-0.9,1.3-1.2,0.4c-0.4-1.4,0.1-4.3,1.1-5.2
				c-0.7-0.3-1.7-0.5-2.4-0.5C265.9,255.1,265.4,265.8,266.1,265.9z"/>
		</g>
	</g>
	<g id="XMLID_299_">
		<g id="XMLID_300_">
			<path id="XMLID_301_" class="st2" d="M268.1,260.7c0.2,0.9,0.9,1.2,1.1-0.2c0.2-1.3,0.7-2.3,0.8-2.5c0.3-0.6,1.2-0.8,1.2-0.8
				l0.1-1.1c0,0-1.9-0.5-2.1-0.6C268.2,256.4,267.7,259.4,268.1,260.7z"/>
		</g>
	</g>
</g>
<g id="XMLID_295_">
	<g id="XMLID_296_">
		<path id="XMLID_297_" class="st2" d="M644.6,322.1c-0.4-3.3,8.1-33,8.1-33s-4.5-11.6-8.7-18.3c-1.3-2-4.5-7.1-5.7-7.1
			c-1.9-0.1-1.2-3-2.3-4.7c-0.5-0.8-1.9-3.2-0.1-4.2c0.6-0.3,4.2,3.4,3.9,7.1c0,0,1.6,1,3.2,2.2c5.2,4.1,15.3,12.4,17.9,22.9
			c2.7,10.7-7.8,42-9.5,38.2C650.4,323,644.9,324.2,644.6,322.1z"/>
	</g>
</g>
<g id="XMLID_293_">
	<path id="XMLID_294_" class="st1" d="M306.6,388.7c-0.1,0.3-9.4,5.9-15.9,14.3c-8.9,11.5-53.5,89.7-53.4,104.4c0,2,3.7,1,4.9-1.2
		c0.6-1.1,17.2-25,31-41.7c17.4-21,38.4-43.6,38.4-43.6l8.5,33.5l-24.2,54.2l4.8,0.6c0,0,36-40.3,37.2-56.3
		c1.2-16.7-3.5-51.8-5.3-55.7C328.1,395.7,313.7,389,306.6,388.7z"/>
</g>
<g id="XMLID_290_">
	<g id="XMLID_291_">
		<path id="XMLID_292_" class="st2" d="M617,330c-3.4,1.9-11.3,23.7-11.3,23.7s-15,0-19.6-2.6c-1.7-1-3.5-2.3-4.2-2.8
			c-1.3-1.1-1-0.9-3.2-0.5c-1,0.2-2.3-2.8-3-2.4c-1.4,0.8,0.4,6.1,5.4,4.3c0,0,2.1,3,3.2,4.3c3.7,4.1,17.4,12.6,26.2,8.4
			c10.7-5.1,17.3-34.6,13-33.3C621.1,329.7,619.2,328.7,617,330z"/>
	</g>
</g>
<g id="XMLID_288_">
	<polygon id="XMLID_289_" class="st1" points="630.4,341.6 630.4,341.6 630.4,341.6 	"/>
</g>
<g id="XMLID_286_">
	<path id="XMLID_287_" class="st9" d="M340.7,366.6c3.9-5.3,18.3,12.6,22.1,31.1c0,0,14.5,5.1,17.6,9.4c0.2,0.3,0.3,0.7,0.3,1.1
		c-0.2,2.7-1.5,14.4-11.4,8.9c-11.2-6.2-15.8-16.4-15.8-16.4S341.9,371.5,340.7,366.6z"/>
</g>
<g id="XMLID_284_">
	<path id="XMLID_285_" class="st9" d="M324.7,356.3c0,0,0.8-0.1,3,0.7c5.3,1.9,16,6.3,20,11.9c0,0,1.2,20-15.2,28.3l-22.1-8.3
		C310.4,388.9,313.3,364.9,324.7,356.3z"/>
</g>
<g id="XMLID_282_">
	<path id="XMLID_283_" class="st2" d="M246.7,263.4c0,0,1.4-4.3,2.4-5.4c1.4-1.6,5.8-1,5.3-0.5c-0.5,0.5-2.2,1.1-2.2,1.1
		s0.6-0.5,1,0c0.4,0.5-1.4,1.4-1.9,1.9C250.9,261,249.4,265.9,246.7,263.4z"/>
</g>
<g id="XMLID_280_">
	<path id="XMLID_281_" class="st2" d="M246,304.1c0,0,0.7-4.4,1.5-5.7c1.1-1.8,5.6-1.9,5.2-1.4c-0.4,0.6-2,1.4-2,1.4s0.5-0.6,1-0.1
		c0.5,0.5-1.2,1.6-1.5,2.2C249.8,301.1,249.1,306.2,246,304.1z"/>
</g>
<g id="XMLID_277_">
	<g id="XMLID_278_">
		<path id="XMLID_279_" class="st2" d="M339.5,354.9c0,0-3.8,6.8-3.8,7.8c0,1,0.9,2.6,2.5,1.1c1.6-1.4,3.4-8,3.4-8L339.5,354.9z"/>
	</g>
</g>
<g id="XMLID_274_">
	<g id="XMLID_275_">
		<path id="XMLID_276_" class="st14" d="M340.5,352.4c0,0-3.8,6.8-3.8,7.8c0,1,0.9,2.6,2.5,1.1c1.6-1.4,3.4-8,3.4-8L340.5,352.4z"/>
	</g>
</g>
<g id="XMLID_271_">
	<g id="XMLID_272_">
		<path id="XMLID_273_" class="st2" d="M347.7,356.7c0.2-0.7-0.3-3-0.7-4.9c-0.4-1.6-2-2.6-3.6-2.2c-2.5,0.6-5.2,1.5-5.8,2.2
			c-1,1-0.7,2.7-0.5,3.9c0.2,1.3,1,3.4,2,4.3c0.9,0.8,3.1,1.3,4.2,1C346.7,360.4,347.5,359.3,347.7,356.7z"/>
	</g>
</g>
<g id="XMLID_268_">
	<g id="XMLID_269_">
		<path id="XMLID_270_" class="st11" d="M463.1,326.5c-2.7,0.5-4.9,3.6-5.1,5.6c-0.1,0.9,0.3,1.7,1.1,2.2l32.4,25.3
			c0,0-2.4,4.7-18.9,11.6c-9.3,3.9-5.8,3.8-31.8,14.1c-6.2,2.5-16.8,5.2-20.2,3.3l-17.5-31.8c-0.4-0.8-1.1-1.3-2-1.4
			c-3.6-0.6-10.6-1.6-9.1,12.9c0.5,4.7,11.9,25.3,21.8,28.4c6.4,2,7.4,1.8,28.5-3c0,0,6.6,7.7,17.9,16.2c14.3-0.6,23.8-7.4,24.8-7.9
			c-0.5-3.4-1.8-3.9-6.8-24.3c0,0,18.9-5.7,20.4-15C500.9,348.4,481.5,323.5,463.1,326.5z"/>
	</g>
</g>
<g id="XMLID_263_">
	<g id="XMLID_266_">
		<path id="XMLID_267_" class="st2" d="M451.7,374.8c0,0,1.8,6.5,2.8,6.9c0.9,0.3,3.6,0,4.1-2.1c0.5-2.1-3.4-6.6-3.4-6.6
			L451.7,374.8z"/>
	</g>
	<g id="XMLID_264_">
		<path id="XMLID_265_" class="st14" d="M453.2,379.5c1.6-0.2,3.5-0.9,4.8-2.3c-0.5-1.1-1.3-2.2-1.9-3l-3.9,2.1
			C452.4,377.2,452.8,378.4,453.2,379.5z"/>
	</g>
</g>
<g id="XMLID_261_">
	<path id="XMLID_262_" class="st1" d="M455.9,362.3c0,0,6.8-1.8,6.4,4.9c-0.4,6.7-4.8,8.1-5.6,8.1
		C455.9,375.4,455.9,362.3,455.9,362.3z"/>
</g>
<g id="XMLID_258_">
	<g id="XMLID_259_">
		<path id="XMLID_260_" class="st2" d="M447.6,372c-0.1-0.7,0.8-3,1.5-4.9c0.6-1.6,2.4-2.3,4-1.6c2.4,1,5,2.4,5.5,3.1
			c0.9,1.2,0.3,2.8-0.1,4.1c-0.4,1.2-1.6,3.3-2.7,4.1c-1,0.7-3.3,0.8-4.4,0.4C448.1,375.9,447.4,374.6,447.6,372z"/>
	</g>
</g>
<g id="XMLID_256_">
	<path id="XMLID_257_" class="st1" d="M447.3,356.4c0.2-0.2,0.5,0.1,0.4,0.3c-0.4,0.9-0.3,1.5,0.2,2c1,1,2,1.2,3.1,0.2
		c3.3-2.7,13.2-0.2,6.8,8.3c-0.5,0.7-2.8,0-3.6,0c-2.7-0.1-9.1-2.2-9.6-5.8C444.3,358.9,446.2,357.2,447.3,356.4z"/>
</g>
<g id="XMLID_254_">
	<path id="XMLID_255_" class="st15" d="M655,321.9c1.1-2.4,3-11.2,3-11.2s-3.9-1.6-4.8-1.8c-1.6-0.4-5.6-1.2-5.6-1.2
		c-3.2,7.5-4.4,8-19.6,15.7c-2.3,1.1-6.7,2.8-10.6,5.6c-2.1,1.5-6.4,10.6-7.6,14.1c0,0,4.1,3.5,10.4,6.5c0,0,0.9-1.9,1.8-4
		c0.4-1,1-3.9,1-3.9c6.9,10.1,10.2,15,10.4,16.7c6.3,1.4,28.7-6,31.3-8.1c-0.3-1.9-0.8-7.5-3.8-16.5
		C658.5,326.5,658.2,327,655,321.9z"/>
</g>
<g id="XMLID_249_">
	<g id="XMLID_252_">
		<path id="XMLID_253_" class="st2" d="M630.2,315.4c0,0,4.7,4.6,4.6,5.6c-0.2,1-1.7,3.1-3.7,2.5c-2.1-0.6-4-6-4-6L630.2,315.4z"/>
	</g>
	<g id="XMLID_250_">
		<path id="XMLID_251_" class="st14" d="M633.5,318.9c-0.9,1.2-2.4,2.6-4.2,3c-0.7-1-1.3-2.2-1.7-3.1l3.7-2.3
			C632,317.2,632.8,318.1,633.5,318.9z"/>
	</g>
</g>
<g id="XMLID_247_">
	<path id="XMLID_248_" class="st9" d="M625.3,318.9c0,0-5.5-1-7.3-3.7c-0.5-0.9-0.5-1.9-0.1-2.8c0.2-0.4,0.5-0.8,0.7-1
		c0,0-6.4-2.7-4.1-6.7c2.3-4,6.9-0.7,8.7-3.7c0.7-1.2-0.8-2.8-0.7-3c0.5-0.8,3.3,1.9,3.2,4.1c-0.3,3.2-1.3,3.4-1.3,3.4
		s3.1-2.4,5.3,0.7c2.2,3.2,2.4,8.6,2,8.7C631.3,315.1,625.3,318.9,625.3,318.9z"/>
</g>
<g id="XMLID_245_">
	<path id="XMLID_246_" class="st2" d="M624.1,318.2c-1-0.6-3.2-4.2-3.2-4.2c0-3.1,5.1-5.7,6.3-5.8c1.3,0,2.3,1.3,3,2.2
		c0.7,0.9,3.5,6.2,0.3,8.3C626.9,321,625.9,319.7,624.1,318.2z"/>
</g>
<g id="XMLID_243_">
	<path id="XMLID_244_" class="st1" d="M372.6,206c-0.8-5.6-10.9-32.7-10.9-32.7l0,0l-0.7-4.5c-12.5,1-21.7,0.3-21.7,0.3
		C309,182.6,316,232.1,316,232.1s-38.1,17.8-43.2,20.5c-4.2,2.3-4.4,4-1.4,4.9c0.3,0.1,50.6-11.7,56.6-17.4
		c5.8-5.5,20.5-44.3,21.6-47.8c0.3-0.8,1.7,4.1,3.6,8.1C360.7,216.9,373.3,210.8,372.6,206z"/>
</g>
<g id="XMLID_241_">
	<path id="XMLID_242_" class="st16" d="M339.4,169c0,0,8-25,21.2-27.8c16.6-3.4,23.7,5.3,24.7,9.2c1,3.9-16,24.6-16,24.6L339.4,169z
		"/>
</g>
<g id="XMLID_239_">
	<path id="XMLID_240_" class="st13" d="M169.5,395.4h5.3c0.4,0,0.7,0.4,0.7,0.8l-15.7,112.3c0,0.3-0.3,0.6-0.7,0.6H152
		c-0.4,0-0.7-0.4-0.7-0.8L168.8,396C168.9,395.7,169.1,395.4,169.5,395.4z"/>
</g>
<g id="XMLID_237_">
	<path id="XMLID_238_" class="st17" d="M170.7,410.8"/>
</g>
<g id="XMLID_235_">
	<path id="XMLID_236_" class="st11" d="M199.1,410.8h-27.7c-0.4,0-0.7,0.3-0.7,0.7v3.8c0,0.4,0.3,0.7,0.7,0.7h27.7
		c0.4,0,0.7-0.3,0.7-0.7v-3.8C199.8,411.1,199.5,410.8,199.1,410.8z"/>
</g>
<g id="XMLID_233_">
	<path id="XMLID_234_" class="st11" d="M195,437.1h-27.7c-0.4,0-0.7,0.3-0.7,0.7v3.8c0,0.4,0.3,0.7,0.7,0.7H195
		c0.4,0,0.7-0.3,0.7-0.7v-3.8C195.7,437.4,195.4,437.1,195,437.1z"/>
</g>
<g id="XMLID_231_">
	<path id="XMLID_232_" class="st11" d="M191,460.4h-27.7c-0.4,0-0.7,0.3-0.7,0.7v3.8c0,0.4,0.3,0.7,0.7,0.7H191
		c0.4,0,0.7-0.3,0.7-0.7v-3.8C191.7,460.7,191.4,460.4,191,460.4z"/>
</g>
<g id="XMLID_229_">
	<path id="XMLID_230_" class="st11" d="M187.6,486.8h-27.7c-0.4,0-0.7,0.3-0.7,0.7v3.8c0,0.4,0.3,0.7,0.7,0.7h27.7
		c0.4,0,0.7-0.3,0.7-0.7v-3.8C188.3,487.1,187.9,486.8,187.6,486.8z"/>
</g>
<g id="XMLID_224_">
	<g id="XMLID_227_">
		<path id="XMLID_228_" class="st1" d="M179.6,437.8c-0.5-1-3.2-1.9-5.3-2.5c0.6,0.4,1.3,0.9,0.3,1.2c-1.4,0.4-4.6,0.1-5.6-0.9
			c-0.3,0.8-0.4,1.9-0.4,2.6C168.7,439.2,180.5,439.4,179.6,437.8z"/>
	</g>
	<g id="XMLID_225_">
		<path id="XMLID_226_" class="st2" d="M174.6,436.6c1-0.3,0.3-0.9-0.3-1.2c-1.3-0.4-2.4-0.6-2.7-0.7c-0.6-0.3-0.8-0.8-0.8-0.8
			l-0.7-0.1c0,0-1,1.7-1.1,2C170,436.6,173.2,437,174.6,436.6z"/>
	</g>
</g>
<g id="XMLID_219_">
	<g id="XMLID_222_">
		<path id="XMLID_223_" class="st1" d="M196.8,437.8c-0.5-1-3.2-1.9-5.3-2.5c0.6,0.4,1.3,0.9,0.3,1.2c-1.4,0.4-4.6,0.1-5.6-0.9
			c-0.3,0.8-0.4,1.9-0.4,2.6C185.9,439.2,197.7,439.4,196.8,437.8z"/>
	</g>
	<g id="XMLID_220_">
		<path id="XMLID_221_" class="st2" d="M191.8,436.6c1-0.3,0.3-0.9-0.3-1.2c-1.3-0.4-2.4-0.6-2.7-0.7c-0.6-0.3-0.8-0.8-0.8-0.8
			l-0.7-0.1c0,0-1,1.7-1.1,2C187.2,436.6,190.4,437,191.8,436.6z"/>
	</g>
</g>
<g id="XMLID_217_">
	<path id="XMLID_218_" class="st2" d="M176.8,321.6c0,0.3-1.6,7.8-7.1,14.5c-12.8,15.6,0.3,98.3,0.3,98.3h1l16.7-86.2l3.5,26.6
		l-4.1,60l1-0.2c0,0,19.8-49.3,20.1-62.4c1.1-53.3-6.9-46.7-7.7-50.9C197.8,322.6,182.1,324,176.8,321.6z"/>
</g>
<g id="XMLID_215_">
	<path id="XMLID_216_" class="st18" d="M212.4,290.6c-9.6-5.1-20.7-6.7-26-0.5c-3.3,4-5.2,21.1-5.2,21.1s0.2,0.1,0,0l0,0h0
		c-5.2,3.9-10.2,8.6-12.7,15.9c-4.9,14.3-4.2,32.6-4.2,32.6c6.8,2.8,13.4,4.3,19.3,4.9c3.9,0.4,7.2,0.9,10.5,0.8
		c10.3-0.5,12.8-1.2,14.5-1.7c2.7-32.6-3.7-40.4-4.5-44.3C205.9,317,221.4,295.4,212.4,290.6z"/>
</g>
<g id="XMLID_212_">
	<g id="XMLID_213_">
		<path id="XMLID_214_" class="st2" d="M204.3,280c0,0-3.4,7.1-3.3,8c0.1,1,1.1,2.5,2.6,1c1.5-1.6,2.9-8.2,2.9-8.2L204.3,280z"/>
	</g>
</g>
<g id="XMLID_209_">
	<g id="XMLID_210_">
		<path id="XMLID_211_" class="st14" d="M205.2,277.3c0,0-3.1,7.1-3.4,8.2c-0.2,0.9,1.2,2.4,2.7,0.8c1.5-1.6,2.9-8.2,2.9-8.2
			L205.2,277.3z"/>
	</g>
</g>
<g id="XMLID_206_">
	<g id="XMLID_207_">
		<path id="XMLID_208_" class="st2" d="M210.8,281.7c0.4-0.6,0.8-2.9,1-4.9c0.2-1.6-1-3.1-2.6-3.3c-2.5-0.2-5.4-0.4-6.2,0
			c-1.3,0.6-1.6,2.3-1.8,3.5c-0.2,1.3-0.2,3.6,0.4,4.7c0.5,1.1,2.4,2.2,3.6,2.4C208.6,284.7,209.7,284,210.8,281.7z"/>
	</g>
</g>
<g id="XMLID_204_">
	<path id="XMLID_205_" class="st13" d="M199.5,395.4h5.3c0.4,0,0.7,0.4,0.7,0.8l-15.7,113.6c0,0.3-0.3,0.6-0.7,0.6H182
		c-0.4,0-0.7-0.4-0.7-0.8L198.8,396C198.8,395.7,199.1,395.4,199.5,395.4z"/>
</g>
<g id="XMLID_202_">
	<path id="XMLID_203_" class="st9" d="M199.7,278.9c-0.1-0.1,6.9-2.3,8.8-5.9s-5.3-1.1-5.3-1.1L199.7,278.9z"/>
</g>
<g id="XMLID_193_">
	<path id="XMLID_194_" class="st1" d="M453.9,322.3c0-0.8,0-1.5-0.1-2.3l4.5-1.4c-0.1-1.5-0.4-3-0.7-4.5l-4.7,0
		c-0.4-1.5-0.8-2.9-1.4-4.3l3.8-2.7c-0.6-1.4-1.3-2.8-2-4.1l-4.5,1.4c-0.8-1.3-1.7-2.5-2.6-3.7l2.8-3.7c-1-1.2-2.1-2.2-3.2-3.3
		l-3.8,2.7c-1.1-1-2.4-1.9-3.6-2.7l1.5-4.4c-1.3-0.8-2.6-1.5-4-2.1l-2.8,3.8c-1.4-0.6-2.8-1.1-4.3-1.5l0.1-4.7
		c-1.5-0.3-3-0.6-4.5-0.8l-1.5,4.4c-0.7-0.1-1.5-0.1-2.3-0.1c-0.8,0-1.5,0-2.3,0.1l-1.4-4.5c-1.5,0.1-3,0.4-4.5,0.7l0,4.7
		c-1.5,0.4-2.9,0.8-4.3,1.3l-2.7-3.8c-1.4,0.6-2.8,1.3-4.1,2l1.4,4.5c-1.3,0.8-2.5,1.7-3.7,2.6l-3.7-2.8c-1.2,1-2.2,2.1-3.3,3.2
		l2.7,3.8c-1,1.1-1.9,2.4-2.7,3.6l-4.4-1.5c-0.8,1.3-1.5,2.6-2.1,4l3.8,2.8c-0.6,1.4-1.1,2.8-1.5,4.3l-4.7-0.1
		c-0.3,1.5-0.6,3-0.8,4.5l4.4,1.5c-0.1,0.7-0.1,1.5-0.1,2.3c0,0.8,0,1.5,0.1,2.3l-4.5,1.4c0.1,1.5,0.4,3,0.7,4.5l4.7,0
		c0.4,1.5,0.8,2.9,1.3,4.3l-3.8,2.7c0.6,1.4,1.3,2.8,2,4.1l4.5-1.4c0.8,1.3,1.7,2.5,2.6,3.7l-2.8,3.7c1,1.2,2.1,2.2,3.2,3.3l3.8-2.7
		c1.1,1,2.4,1.9,3.6,2.7l-1.5,4.4c1.3,0.8,2.7,1.5,4,2.1l2.8-3.8c1.4,0.6,2.8,1.1,4.3,1.5l-0.1,4.7c1.5,0.3,3,0.6,4.5,0.8l1.5-4.4
		c0.7,0.1,1.5,0.1,2.3,0.1c0.8,0,1.5,0,2.3-0.1l1.4,4.5c1.5-0.1,3-0.4,4.5-0.7l0-4.7c1.5-0.4,2.9-0.8,4.3-1.3l2.7,3.8
		c1.4-0.6,2.8-1.3,4.1-2l-1.4-4.5c1.3-0.8,2.5-1.7,3.7-2.6l3.7,2.8c1.2-1,2.2-2.1,3.3-3.2l-2.7-3.8c1-1.1,1.9-2.4,2.7-3.6l4.4,1.5
		c0.8-1.3,1.5-2.7,2.1-4l-3.8-2.8c0.6-1.4,1.1-2.8,1.5-4.3l4.7,0.1c0.3-1.5,0.6-3,0.8-4.5l-4.4-1.5
		C453.8,323.8,453.9,323.1,453.9,322.3z M449.5,322.3c0,2.5-0.4,4.9-1,7.2l-16.9-5.7c0.1-0.5,0.2-1.1,0.2-1.7c0-3.1-1.2-5.8-3.1-7.9
		l10.7-14.4C445.7,305.2,449.6,313.3,449.5,322.3z M420.5,330.6c-4.8-0.1-8.6-4-8.5-8.7s4-8.6,8.7-8.5c4.8,0.1,8.6,4,8.5,8.7
		C429.1,326.8,425.2,330.7,420.5,330.6z M420.7,292.7c5.5,0.1,10.7,1.7,15.1,4.4l-10.7,14.5c-1.3-0.6-2.8-0.9-4.3-0.9
		c-1.6,0-3.2,0.3-4.5,0.9l-10.7-14.8C409.9,294.2,415.2,292.7,420.7,292.7z M401.9,299.4l10.7,14.8c-1.9,2-3.1,4.7-3.2,7.7
		c0,0.3,0,0.6,0,0.8l-17.4,5.9c-0.5-2.2-0.8-4.6-0.8-7C391.3,312.6,395.5,304.6,401.9,299.4z M393.3,332.7l17.2-5.8
		c1.5,3.1,4.5,5.4,8,6l0.1,18C407,350.3,397.4,342.9,393.3,332.7z M423,351l-0.1-18c3-0.6,5.6-2.5,7.2-5l17,5.7
		C442.9,343.2,433.8,350,423,351z"/>
</g>
<g id="XMLID_191_">
	<path id="XMLID_192_" class="st2" d="M402.6,356.8c-0.4,0.3-0.9,0.4-1.2,0.2c-1-0.5-2.9-1.7-3.1-2.6c-0.3-1.2,0.4-4.6,1-4.8
		c0.6-0.2,1.2,3.4,1.5,3.9C400.9,354,404.6,355.2,402.6,356.8z"/>
</g>
<g id="XMLID_189_">
	<path id="XMLID_190_" class="st2" d="M458.5,331.4c0.5,0,0.9-0.4,1-0.8c0.3-1.2,0.9-3.7,0.3-4.6c-0.7-1.2-2.8-3.4-3.3-3.1
		c-0.6,0.3,0.4,3.1,0.6,3.7C457.3,327.3,455.9,331.6,458.5,331.4z"/>
</g>
<g id="XMLID_169_">
	<g id="XMLID_2_">
		<g id="XMLID_171_">
			<path id="XMLID_188_" class="st0" d="M656.8,136.2c6.5,2.1,10.6,8.9,10,15.6c0,0.1,0,0.1,0,0.2c-0.1,0.8,1.2,1,1.4,0.2
				c0-0.1,0-0.1,0-0.2c2.6-10.8,2.9-25.9,14.3-31.8c5.3-2.8,11.4-1.9,15.4,2.6c4.4,5,4.9,12,5.4,18.4c0.1,0.7,0.9,1,1.3,0.4
				c0.1-0.1,0.1-0.2,0.2-0.3c2-3,6.6-2.5,9-0.2c3,2.7,3.5,7.3,3.8,11.1c0,0.4,0.3,0.7,0.7,0.7c5.6-0.6,10.8,4.1,10.6,9.8
				c0,0.2,0,0.3,0.1,0.4c-9.6-0.4-19.4-0.1-29-0.1c-10.3,0-20.6,0-30.9,0c-20.6,0-41.2,0-61.9,0c-11.4,0-22.9-0.5-34.3,0.2
				c-2.9-8,5.3-15.6,12.9-11.2c0.5,0.3,1.2-0.2,1-0.8c-0.1-0.2-0.1-0.3-0.2-0.5c-4.4-13.3-2.8-28.3,4.7-40.2
				c3.6-5.6,9.4-11.5,16.6-11.2c6.9,0.3,11.8,6.5,14,12.5c3.1,8.5,1.7,18,2.9,26.9c0.1,0.9,1.3,0.9,1.4,0c0.1-3.3,3.8-5.5,6.9-4.6
				c3.2,1,4.9,4.3,5.2,7.5c0,0.1,0,0.2,0,0.4c0,0.7,0.9,1,1.3,0.4C643.2,136.8,650.5,134.1,656.8,136.2z"/>
			<path id="XMLID_187_" class="st0" d="M729,163c0.4,0,0.8,0,1.2,0C729.9,163.4,729.3,163.4,729,163z"/>
			<path id="XMLID_186_" class="st0" d="M718.9,151.4c0,0.3,0,0.5,0.1,0.8c-0.2-0.2-0.5-0.5-0.7-0.7
				C718.5,151.4,718.7,151.4,718.9,151.4z"/>
			<path id="XMLID_185_" class="st0" d="M718.9,151.4c6.1-0.2,11.5,5.1,11.4,11.2c0,0.2-0.1,0.3-0.2,0.4c-0.4,0-0.8,0-1.2,0
				c-0.1-0.1-0.1-0.2-0.1-0.4c0.1-5.7-5-10.3-10.6-9.8c-0.4,0-0.7-0.4-0.7-0.7c-0.2-3.8-0.7-8.4-3.8-11.1c-2.4-2.3-7-2.7-9,0.2
				l-0.1-0.1c0-0.6-0.1-1.2-0.1-1.8c2.3-2.1,6.1-2,8.8-0.4C717.6,141.4,718.6,146.8,718.9,151.4c-0.2,0-0.4,0-0.6,0
				c0.2,0.2,0.5,0.5,0.7,0.7C719,151.9,719,151.7,718.9,151.4z"/>
			<path id="XMLID_184_" class="st0" d="M704.7,141.2c-0.4-0.1-0.9-0.2-1.3-0.4c0.3-0.6,0.7-1.1,1.2-1.4
				C704.6,140,704.6,140.6,704.7,141.2z"/>
			<path id="XMLID_183_" class="st0" d="M703.3,141.2c-0.5-6.4-1-13.3-5.4-18.4c-4-4.6-10.1-5.4-15.4-2.6
				c-11.3,5.9-11.6,20.9-14.3,31.8h0c0.2-1.7,0-3.5-0.4-5.1c2.3-11.3,4.3-25,16.6-29c5.6-1.8,11.2,0,14.9,4.5
				c3.9,4.8,4.7,11,5.2,17.1c-0.5,0.4-0.9,0.9-1.2,1.4c0.4,0.1,0.9,0.2,1.3,0.4l0.1,0.1c-0.1,0.1-0.1,0.2-0.2,0.3
				C704.2,142.2,703.3,141.9,703.3,141.2z"/>
			<path id="XMLID_182_" class="st0" d="M667.9,146.8c0.4,1.7,0.5,3.4,0.4,5.1c-0.5-0.1-1-0.1-1.4-0.2
				C667.2,150.2,667.5,148.5,667.9,146.8z"/>
			<path id="XMLID_181_" class="st0" d="M668.2,152L668.2,152c0,0.1,0,0.1,0,0.2c-0.2,0.8-1.5,0.6-1.4-0.2c0-0.1,0-0.1,0-0.2h0
				C667.3,151.8,667.7,151.9,668.2,152z"/>
			<path id="XMLID_180_" class="st0" d="M639.7,141.9c-0.5-0.1-0.9-0.2-1.3-0.4c0.3-0.5,0.7-1,1.1-1.4
				C639.6,140.7,639.7,141.3,639.7,141.9z"/>
			<path id="XMLID_179_" class="st0" d="M656.8,136.2c-6.3-2.1-13.5,0.7-17.1,6.1c-0.4,0.6-1.3,0.4-1.3-0.4c0-0.1,0-0.2,0-0.4l0.1,0
				c0.5,0.1,0.9,0.2,1.3,0.4c0-0.6-0.1-1.2-0.3-1.8c4.2-5,11.3-7.5,17.7-5.4c5.5,1.8,9.4,6.6,10.7,12.1c-0.3,1.7-0.7,3.4-1.1,5h0
				C667.3,145.1,663.3,138.3,656.8,136.2z"/>
			<path id="XMLID_178_" class="st0" d="M632.4,132.6c3.9,0.5,6.3,4,7.1,7.6c-0.4,0.5-0.7,0.9-1.1,1.4l-0.1,0
				c-0.3-3.1-2-6.5-5.2-7.5c-3.1-0.9-6.8,1.2-6.9,4.6c0,0.9-1.3,0.9-1.4,0c0.5-0.1,0.9-0.1,1.4-0.2c-0.1-1-0.2-2-0.3-3
				C627.2,133.5,629.8,132.3,632.4,132.6z"/>
			<path id="XMLID_177_" class="st0" d="M625.9,135.5c0.1,1,0.2,2,0.3,3c-0.5,0.1-0.9,0.1-1.4,0.2
				C624.9,137.5,625.2,136.4,625.9,135.5z"/>
			<path id="XMLID_176_" class="st0" d="M586.5,150.7c-0.3,0.3-0.7,0.5-1,0.8c-0.2-0.5-0.3-1-0.5-1.4
				C585.5,150.2,586,150.5,586.5,150.7z"/>
			<path id="XMLID_175_" class="st0" d="M623.3,111.4c2.8,7.7,1.9,16,2.6,24.1c-0.6,0.9-1,2-1,3.2c-1.2-8.8,0.3-18.4-2.9-26.9
				c-2.2-6-7.1-12.2-14-12.5c-7.2-0.3-13,5.6-16.6,11.2c-7.6,11.9-9.1,26.9-4.7,40.2l-0.2,0.1c-0.5-0.3-1-0.5-1.5-0.7
				c-2.5-7.7-2.9-16-1.3-24c1.4-7.3,4.6-14.6,9.4-20.3c4.2-5,10.6-9.1,17.4-7.4C616.9,99.9,621.2,105.6,623.3,111.4z"/>
			<path id="XMLID_174_" class="st0" d="M572.9,163.1c0.2,0.6-0.7,0.8-0.9,0.2c0,0,0-0.1,0-0.1c0.1-0.1,0.2-0.1,0.3-0.1
				C572.5,163.1,572.7,163.1,572.9,163.1C572.9,163.1,572.9,163.1,572.9,163.1z"/>
			<path id="XMLID_173_" class="st0" d="M586.8,151.1c0.2,0.6-0.5,1-1,0.8c-7.6-4.4-15.8,3.2-12.9,11.2c-0.2,0-0.4,0-0.7,0
				c-0.1,0-0.2,0.1-0.3,0.1c-3.5-8.5,5.1-16.2,13.1-13.2c0.2,0.5,0.3,1,0.5,1.4c0.3-0.3,0.7-0.5,1-0.8l0.2-0.1
				C586.7,150.8,586.8,151,586.8,151.1z"/>
			<path id="XMLID_172_" class="st0" d="M607.2,162.9c20.6,0,41.2,0,61.9,0c10.3,0,20.6,0,30.9,0c9.7,0,19.4-0.3,29,0.1
				c0.2,0.4,0.9,0.4,1.2,0c0.3,0,0.5,0,0.8,0c0.6,0,0.6,0.9,0,0.9c-11.6,0.6-23.3,0.2-35,0.2c-20.6,0-41.2,0-61.9,0
				c-10.3,0-20.6,0-30.9,0c-10.3,0-20.7,0.4-30.9-0.2c-0.4,0-0.5-0.5-0.3-0.7c0,0,0,0.1,0,0.1c0.2,0.5,1.1,0.3,0.9-0.2c0,0,0,0,0,0
				C584.3,162.4,595.8,162.9,607.2,162.9z"/>
		</g>
	</g>
</g>
<g id="XMLID_157_">
	<g id="XMLID_3_">
		<g id="XMLID_159_">
			<path id="XMLID_168_" class="st0" d="M230,206.8c0,0.5,0.3,0.7,0.7,0.7l0,0.7c-16.6-0.6-33.2-0.4-49.8-0.4c-8.3,0-16.7,0-25,0
				c-4.2,0-8.3,0-12.5,0.1c-3.3,0-6.7-0.2-10,0.2l0-0.2c0.2,0,0.4-0.1,0.4-0.3c0-4.9,2.3-9.8,6.9-12.1c4.5-2.2,9.9-1.3,13.7,1.9
				c0.1,0.1,0.2,0.2,0.3,0.3c0.4,0.4,1.1,0.1,1.1-0.5c1.5-14.1,8.3-29.7,23.2-34c6.9-2,15-0.8,20.4,4.2c4.9,4.5,7.1,11.7,5.1,18.1
				c-0.2,0.5,0.5,1.1,1,0.8c0.1-0.1,0.3-0.2,0.4-0.3c4.9-3.2,11.3,0.8,10.1,6.8c-0.1,0.4,0.2,0.9,0.7,0.9c0.2,0,0.4,0,0.7,0
				C224.5,193.6,230.2,199.4,230,206.8z"/>
			<path id="XMLID_167_" class="st0" d="M217.4,192.2c7.9,0,14.2,6.5,14,14.5c0,0.5-0.4,0.7-0.7,0.7s-0.7-0.2-0.7-0.7
				c0.2-7.3-5.5-13.1-12.7-13.1l0-0.5C217.3,192.8,217.4,192.5,217.4,192.2z"/>
			<path id="XMLID_166_" class="st0" d="M216.6,192.3c0.3,0,0.5,0,0.8,0c0,0.3-0.1,0.6-0.1,0.9C217.1,192.8,216.8,192.6,216.6,192.3
				z"/>
			<path id="XMLID_165_" class="st0" d="M206.2,184.2c5.5-2.7,11.8,1.9,11.2,8c-0.3,0-0.5,0-0.8,0c0.2,0.3,0.4,0.6,0.7,0.9l0,0.5
				c-0.2,0-0.4,0-0.7,0c-0.5,0-0.8-0.5-0.7-0.9c1.2-6-5.2-10-10.1-6.8l-0.1-0.1C205.9,185.3,206.1,184.7,206.2,184.2z"/>
			<path id="XMLID_164_" class="st0" d="M206.2,184.2c-0.1,0.5-0.3,1.1-0.4,1.7c-0.3-0.3-0.7-0.5-1-0.8
				C205.2,184.7,205.7,184.4,206.2,184.2z"/>
			<path id="XMLID_163_" class="st0" d="M155.6,196.7c-0.4,0.2-0.8,0.3-1.1,0.5c0-0.4,0.1-0.9,0.1-1.3
				C154.9,196.2,155.2,196.4,155.6,196.7z"/>
			<path id="XMLID_162_" class="st0" d="M190.1,161.4c10.5,2.1,18.4,12.2,16,22.8c-0.5,0.2-1,0.5-1.5,0.9c0.3,0.3,0.7,0.5,1,0.8
				l0.1,0.1c-0.1,0.1-0.3,0.2-0.4,0.3c-0.5,0.4-1.2-0.2-1-0.8c2.1-6.4-0.1-13.6-5.1-18.1c-5.4-5-13.6-6.1-20.4-4.2
				c-14.9,4.3-21.6,19.8-23.2,34c-0.1,0.6-0.7,0.9-1.1,0.5c-0.1-0.1-0.2-0.2-0.3-0.3l0.1-0.2c0.4-0.2,0.8-0.3,1.1-0.5
				c-0.3-0.3-0.7-0.6-1-0.8c0.8-7.1,2.7-14.1,6.5-20.1C167.2,165.9,178.3,159.1,190.1,161.4z"/>
			<path id="XMLID_161_" class="st0" d="M154.6,195.9c-0.1,0.4-0.1,0.9-0.1,1.3l-0.1,0.2c-3.7-3.2-9.2-4.1-13.7-1.9
				c-4.6,2.3-6.8,7.2-6.9,12.1c0,0.2-0.2,0.3-0.4,0.3c-0.1,0-0.3-0.1-0.3-0.2c-0.7-5.4,2.4-11,7.3-13.3
				C145,192.1,150.5,192.9,154.6,195.9z"/>
			<path id="XMLID_160_" class="st0" d="M180.9,207.8c16.6,0,33.2-0.3,49.8,0.4c0.1,0,0.2,0,0.2,0c0.3,0,0.3,0.4,0,0.4
				c-16.6,0.6-33.3,0.4-50,0.4c-8.3,0-16.7,0-25,0c-4.2,0-8.3,0-12.5-0.1c-3.8,0-7.8,0.2-11.6-0.4c0,0,0-0.1,0-0.1
				c0.5-0.1,1.1-0.2,1.6-0.2c3.3-0.4,6.7-0.2,10-0.2c4.2,0,8.3,0,12.5-0.1C164.2,207.8,172.6,207.8,180.9,207.8z"/>
		</g>
	</g>
</g>
<g id="XMLID_146_">
	<g id="XMLID_155_">
		<path id="XMLID_156_" class="st0" d="M747,239.7c0-4.4-2.9-7.9-8.6-7.9c-5.7,0-11.4,0-17.2,0c-6.7-0.3-13.4,0-20,0
			c-11.7,0-23.4,0-35.1,0c-5.7,0-8.9,5.9-8.9,10.3c0,4.4,3.1,9.5,8.9,9.5c4.3,0,8.6,0,12.9,0c1.2,0-2.6,5.4-4.1,7.1
			c-0.3,0.2-0.6,0.4-0.9,0.7c0,0,0,0,0,0c-0.1,0-0.1,0.1-0.2,0.1c-0.2,0.2-0.1,0.6,0.2,0.5c5.1-1.4,9.9-4.1,14.7-6.3
			c1.1-0.5,2.1-0.9,3.2-1.4c1.2-0.5,2.5-0.8,3.8-0.8c1.8,0,3.6,0,5.3,0c6.6,0,13.3,0.3,20,0c5.7,0,11.4,0,17.2,0
			C744,251.5,747,244,747,239.7z"/>
	</g>
	<g id="XMLID_153_">
		<path id="XMLID_154_" class="st3" d="M690.8,240c-0.3-0.4-0.8-0.6-1.2-0.3c-0.2,0.1-0.4,0.3-0.5,0.4c-0.2-0.1-0.4-0.2-0.6,0
			c-1.4,1.6-0.7,4.1,0.8,5.4c0.3,0.3,0.8,0.3,1.1,0C691.7,244,691.9,241.7,690.8,240z"/>
	</g>
	<g id="XMLID_151_">
		<path id="XMLID_152_" class="st3" d="M705.2,240.9c-0.2-0.8-0.6-1.8-1.6-1.8c-0.9,0-1.5,0.9-1.7,1.7c-0.2,0.8-0.1,2.2,0.5,3
			c0,0.1,0,0.2,0.1,0.3c0.3,0.7,0.8,1.5,1.7,1.5C706.3,245.3,705.5,242.2,705.2,240.9z"/>
	</g>
	<g id="XMLID_147_">
		<path id="XMLID_148_" class="st3" d="M717.9,239.7c-0.6,0-1.1,0.4-1.3,1c-1.1,0.7-1.2,2.7-0.4,3.6c1.2,1.2,3.1,0.7,3.5-0.9
			C720,242.1,719.6,239.6,717.9,239.7z M717.9,243.3c-0.3,0.2-0.6-0.4-0.6-0.7c0-0.2,0-0.3,0.1-0.4c0.1,0,0.3,0,0.5-0.1
			c0,0,0.1-0.1,0.1-0.1C718,242.3,718.2,243.1,717.9,243.3z"/>
	</g>
</g>
<g id="XMLID_144_">
	<path id="XMLID_145_" class="st13" d="M512.2,127.2c-1.5,5.4-2.3,11-3.4,16.5c-0.5,2.3-1,4.7-1.5,7c-0.5-0.7-0.9-1.3-1.4-1.9
		c-2-2.8-4.2-7-8-7.5c-0.8-0.1-1.4,0.6-1.6,1.3c-1.2,3.4,1.9,7.6,3.4,10.4c1.9,3.5,4,7,6.1,10.5c1.8,2.9,6.8,2.6,7.6-1
		c1.2-5.6,2.4-11.3,3.6-16.9c1.2-5.7,2.7-11.4,3.5-17.2C521,123.6,513.4,122.8,512.2,127.2z"/>
</g>
<g id="XMLID_142_">
	<path id="XMLID_143_" class="st0" d="M289.3,118.6c-2.8-2.5-6.8-2.5-10.7-2.4c-0.1-3.5-0.2-13.2-4.8-12.3c-2.5,0.5-3.2,3.4-3.5,5.5
		c-0.3,2.4-0.5,4.8-0.7,7.1c-0.7,0-1.4,0.1-2,0.1c-2.5,0.1-5,0.1-7.3,0.8c-4.2,1.4-4.2,7.2,0,8.6c2.4,0.8,4.9,0.7,7.3,0.8
		c0.5,0,1.1,0,1.6,0.1c-0.2,2.7-0.5,6.1,1.1,8.3c2.1,2.8,5.4,2.8,7.5,0c1.6-2.1,1.3-5.3,1.1-8c3.7,0.1,7.5,0,10.3-2.4
		C291.1,123.4,291.1,120.1,289.3,118.6z"/>
</g>
<g id="XMLID_140_">
	<path id="XMLID_141_" class="st13" d="M736.1,338.4c0-0.3,0-0.6-0.1-0.9c0.1-1.5,0.2-3,0-4.6c-0.2-2.8-0.7-6.4-2.9-8.4
		c-1.5-1.4-3.6-2-5.6-2.6c-0.4-0.4-0.8-0.9-1.2-1.3c-1-1.5-1.8-3.2-2.3-5.1c-0.4-1.4-0.5-2.7-0.5-4c0.1-1.5,0.3-2.9,0.6-4.4
		c0.1-0.6,0.5-2.7,0.6-4.6c0.3-1.1,0.5-2.1,0-3.3c-0.3-0.3-0.7-0.6-1.2-0.8c-5.4-2-10.7,1.3-12.6,6.2c-0.2,0.6-0.2,1.2-0.2,1.8
		c0,2.1,1,4,1.8,5.9c0.5,1.1,0.9,2.1,1,3.1c0,0.2,0.1,0.3,0.1,0.5c0.3,1.7-5.7,2.2-6.8,2.8c-3.4,0-6.9,0.6-10.1,1.4
		c-2.8,0.7-6.6,1.5-8.5,3.9c-2.3,2.9-0.7,5.4,1.9,7.2c-1.4,1-1.5,3.5-0.6,5.2c0.6,1.1,1.6,2,2.7,2.6c-0.6,0.8-0.9,1.9-0.8,2.9
		c0.2,1.8,1.5,3.1,3.1,3.7c0.2,0.1,0.3,0.3,0.5,0.4c-0.1,0.2-0.1,0.3-0.2,0.5c-0.6,1.5-0.7,3,1.1,3.8c0.7,0.7,1.6,1.2,2.5,1.3
		c0.6,0.3,1.1,0.5,1.7,0.7c0.3,0.1,0.7,0.1,1,0.2c2.1,0.9,4.7,1,7,1.1c5,0.1,10.1-0.4,15-1.7c2.7-0.7,5.5-1.5,7.9-2.9
		c0.9-0.4,1.6-0.9,2.3-1.5c1.9-1.8,2.6-4.2,2.7-6.6C736.1,340,736.1,339.2,736.1,338.4z"/>
</g>
<g id="XMLID_136_">
	<path id="XMLID_137_" class="st3" d="M733.8,329.4c0.3,2.8,0.6,5.5,0.7,8.3c0.1,2,0,4,0.1,6c0,0.5-0.1,0.9,0,1.3
		c0,0.4,0,0.8,0.1,1.2c0,0,0,0.1,0,0.1c0,0.1,0.1,0.2,0.1,0.2c0.1,0.3,0.4,0.6,0.7,0.8c0.9,0.7,2.2,0.7,3.2,0.8
		c1.4,0.1,2.7,0.1,4.1,0c2-0.1,5-0.3,6.2-2.2c0.8-1.2,0.9-3.1,0.7-4.9c0.1-1,0.1-2,0.1-3c0.1-2.9-0.2-5.8-0.6-8.4
		c-0.3-1.6-0.7-3.3-2.1-4.2c-0.7-0.5-1.7-0.7-2.7-0.9c-0.8-0.2-1.7-0.3-2.4-0.4c-1.3-0.2-3-0.4-4.5-0.2c-1.2-0.1-2.4,0.1-3.1,0.8
		c-0.1,0.1-0.2,0.2-0.2,0.3c0,0,0,0,0,0.1C733.3,326.4,733.6,328.1,733.8,329.4z M735.9,341.2c0.1-1.7,0.2-3.4,0.1-5.1
		c-0.1-2.6-0.1-5.6-0.8-8.2c0.1-2.8,4.9-2.6,6.9-2.3c2,0.3,4.1,1.2,5.3,2.8c0.6,1.9,0.9,4,1.1,6c0,0,0,0,0,0c0,1.2-0.1,2.4-0.1,3.6
		c0,1.6-0.1,3.2,0,4.8c-0.1,0.8-0.1,1.6-0.1,2.4c-1,1.8-3.5,1.9-5.4,2c-1.2,0.1-2.3,0.1-3.5,0c-0.8-0.1-2.7,0-3.3-0.7
		c-0.5-0.5-0.5-1.2-0.5-2C735.9,343.4,735.8,342.2,735.9,341.2z"/>
</g>
<g id="XMLID_132_">
	<path id="XMLID_133_" class="st3" d="M739.7,344.8c1.9,0.2,2.6-1.6,2.3-3.2c-0.1-0.6-0.6-1.2-1.1-1.6c-0.1-0.7-0.9-1-1.5-0.8
		c-0.8,0.2-1.4,0.9-1.6,1.7C737.1,342.4,737.9,344.5,739.7,344.8z M738.5,341.5c0.1-0.4,0.3-0.8,0.6-1c0,0.1,0.2,0.2,0.3,0.1
		c1.6-1.3,3.2,3.7,0.3,3.2C738.7,343.7,738.2,342.5,738.5,341.5z"/>
</g>
<g id="XMLID_130_">
	<path id="XMLID_131_" class="st13" d="M131.2,250c-1.8-1.7-3.9-3.2-6.3-3.9c-1-0.2-2.1-0.4-3.2-0.2c-2.5-0.8-5.3-0.8-7.8-0.1
		c-5.3,1.3-10.1,4.7-13.4,8.9c-3.4,4.5-5.1,10.3-4.1,15.9c0.2,1.3,0.6,2.6,1.1,3.9c1.5,5.4,6.3,9.7,10.3,12.9c0.5,0.6,1,1.2,1.5,1.8
		c0.2,0.3,0.4,0.5,0.6,0.8c0.3,1.5,0.7,2.9,1,4.4c0.5,2,0.9,4.4,2.8,5.2c1.8,0.8,4.5,0.6,6.4,0.1c3.4-1,4-4.6,4.4-8.1
		c0.3-0.8,0.7-1.5,1.2-2.2c0.2-0.3,0.4-0.6,0.6-0.8c0.2-0.1,0.4-0.2,0.6-0.3c1.5-0.8,2.9-1.9,4.2-3c0.2-0.2,0.4-0.3,0.6-0.5
		c0.7-0.6,1.3-1.4,1.9-2.2c2-2.5,3.5-5.3,4.4-8.4C140.4,265.6,137.5,256,131.2,250z"/>
</g>
<g id="XMLID_4_">
	<g id="XMLID_121_">
		<path id="XMLID_129_" class="st0" d="M119.9,302.3c-1.1,0.3-2.4,0.3-3.5,0.2c-1.4-0.1-1.9-0.6-2.3-1.4c0.7-0.2,2.5-0.2,2.7-0.1
			c0.6,0,1.3,0,1.9,0c0.6,0,1.3,0,1.9,0c0.6,0,0.8,0,0.8,0.2C121.1,301.7,120.9,302,119.9,302.3z"/>
		<path id="XMLID_128_" class="st0" d="M118.5,304.1c-0.2,0.3-0.8,0.8-1.3,0.4c-0.3-0.2-0.5-0.6-0.6-0.9c0,0,0-0.1,0-0.2
			c0.7,0,1.4,0,2.2,0C118.8,303.7,118.7,303.9,118.5,304.1z"/>
		<path id="XMLID_127_" class="st0" d="M114.1,298.3c0.9,0.2,1.9,0.2,2.8,0.2c0.1,0,0.3,0,0.4,0c0.9,0,1.7,0,2.6,0
			c0.5,0,0.9,0,1.3,0.1c0.8,0.2,0.7,0.9,0.6,1.4c-0.4,0-0.9,0-1.2,0c-1.2,0-2.3,0-3.5,0.1c-0.8,0-2.2-0.1-3.2,0.2
			c-0.3-0.1-0.5-0.2-0.7-0.3c-0.2-0.2-0.4-0.4-0.5-0.7c0.1-0.6,0.4-0.9,1-1C113.8,298.3,114,298.3,114.1,298.3z"/>
		<path id="XMLID_122_" class="st0" d="M117.3,304.6c0.5,0.4,1-0.1,1.3-0.4c0.2-0.2,0.2-0.5,0.3-0.7c-0.7,0.1-1.5,0.1-2.2,0
			c0,0.1,0,0.1,0,0.2C116.8,304,117,304.4,117.3,304.6z M116.4,302.5c1.1,0.1,2.5,0.1,3.5-0.2c1-0.3,1.1-0.6,1.5-1.1
			c-0.1-0.1-0.3-0.1-0.8-0.2c-0.6,0-1.3,0-1.9,0c-0.6,0-1.3,0-1.9,0c-0.2,0-2-0.1-2.7,0.1C114.5,302,115,302.4,116.4,302.5z
			 M117.2,305.5c-0.8-0.2-1.2-0.8-1.4-1.4c-0.1-0.2-0.1-0.5,0-0.7c-1-0.1-2-0.5-2.5-1.2c-0.3-0.4-0.4-0.9-0.2-1.3c0,0,0,0,0,0
			c-1.6-0.2-2.5-2.4-1-3.2c0.2-0.1,0.3-0.1,0.5-0.1c0.1,0,0.2-0.1,0.3-0.1c0.6-0.1,1.3-0.1,2,0c0.8,0,1.7,0.1,2.4,0.1
			c1.5,0,3.2-0.1,4.6,0.2c0.7,0.1,1.1,0.4,1.2,0.8c0.3,0.6,0.2,1.5-0.4,2c0.1,0.1,0.1,0.2,0.1,0.3c0,1.4-1.4,2.2-3.1,2.5
			C120.1,304.3,118.7,305.8,117.2,305.5z M116.9,298.5c-0.9,0-1.9,0-2.8-0.2c-0.1,0-0.2,0-0.3,0c-0.6,0.1-0.9,0.4-1,1
			c0.1,0.3,0.3,0.5,0.5,0.7c0.2,0.1,0.4,0.2,0.7,0.3c0.9-0.3,2.4-0.2,3.2-0.2c1.2,0,2.3,0,3.5-0.1c0.3,0,0.8-0.1,1.2,0
			c0.1-0.6,0.2-1.2-0.6-1.4c-0.3-0.1-0.8-0.1-1.3-0.1c-0.9,0.1-1.7,0.1-2.6,0C117.2,298.5,117,298.5,116.9,298.5z"/>
	</g>
</g>
<g id="XMLID_118_">
	<path id="XMLID_119_" class="st6" d="M113.5,250.5c-1.9-0.4-3.7,0.5-5.1,1.8c-2.9,1.8-5.2,5.4-5.3,8.3c-0.1,2.4,1.7,4.6,4.2,4.5
		c2.1-0.1,4.2-1.8,5.5-3.4C115.1,259.2,119.2,251.7,113.5,250.5z"/>
</g>
<g id="XMLID_116_">
	<path id="XMLID_117_" class="st6" d="M105.6,270.7C105.6,270.7,105.6,270.7,105.6,270.7c0,0,0-0.1,0-0.1c-0.1-0.2-0.2-0.4-0.3-0.6
		c-0.1-0.2-0.2-0.3-0.3-0.4c-0.4-0.2-0.4-0.3-0.2-0.2c-0.3-0.4-1.1-0.5-1.4-0.2c-0.5,0.3-0.8,0.6-0.9,1.1c-0.1,0.3-0.2,0.7-0.1,1.1
		c0.1,0.9,0.4,1.6,1,2.4c0.4,0.5,1.2,0.6,1.8,0.5c0.3-0.1,0.5-0.2,0.7-0.3c0.4-0.2,0.7-0.7,0.8-1.2c0-0.1,0.1-0.1,0.1-0.2
		C107,271.7,106.4,270.9,105.6,270.7z"/>
</g>
<g id="XMLID_114_">
	<path id="XMLID_115_" class="st10" d="M212.4,290.6c-2.8-1.5-6.5-2.8-6.5-2.8s2.9,8.9-0.1,16.9c-2,5.4-10.5,11.8-10.5,11.8
		s4.6,11.6,4.5,20.3c-0.2,13.2-5.6,28.8-5.6,28.8s4.5-0.1,8.5-0.6c2.8-0.3,5.3-0.9,6-1.1c2.7-32.6-3.7-40.4-4.5-44.3
		C205.9,317,221.4,295.4,212.4,290.6z"/>
</g>
<g id="XMLID_112_">
	<path id="XMLID_113_" class="st18" d="M187.9,291.7c0,0,10.6,20.6,25.6,24.6c15,4,27.1,2.8,32.3-3.9c5.2-6.7,0-12.3,0-12.3
		l-32.4,8.6C213.4,308.8,194,284.9,187.9,291.7z"/>
</g>
<g id="XMLID_110_">
	<path id="XMLID_111_" class="st19" d="M192.3,298.9c-1.7-2.2-3.3-4.5-4.7-7l-0.1-0.2l0.1-0.2c0.9-1,2.3-1.5,3.6-1.4
		c1.3,0.1,2.5,0.6,3.7,1.2c2.3,1.1,4.3,2.7,6.2,4.3c1.9,1.7,3.6,3.5,5.3,5.2c1.7,1.8,3.4,3.6,4.9,5.6c-1.7-1.8-3.5-3.5-5.3-5.2
		l-2.7-2.5c-0.9-0.8-1.8-1.7-2.7-2.5c-1.9-1.6-3.9-3-6-4.2c-1.1-0.5-2.2-1-3.3-1.1c-1.1-0.1-2.3,0.2-3.1,1l0-0.4
		c0.6,1.2,1.3,2.5,2,3.7C190.8,296.5,191.6,297.7,192.3,298.9z"/>
</g>
<g id="XMLID_108_">
	<path id="XMLID_109_" class="st9" d="M202.2,271.3c0,0,1.2-7.1-3.6-9.2c-2.8-1.3-7.4-1-8.4,4.9c0,0-10.4-2-12.9,6.4
		c-2.5,8.4,4.9,10.3,4.9,10.3s-2.7,0.8,0.3,5.5c2.6,4.2-0.8,4.8-1.5,5.3c-0.1,0.1-0.1,0.3,0.1,0.3c1.1,0.4,10.4,1,12.4-4.3
		c1.5-4.2-0.3-6.3-0.8-7.4c-0.5-1.4,0-3.1,1.2-4c0.6-0.4,2.1-1.2,2.5-2.4c0.4-1.3-0.3-2.8-1.5-5c-1.1-2.2,3.6-3.3,5.5-0.2
		C202.2,274.5,202.2,271.3,202.2,271.3z"/>
</g>
<g id="XMLID_106_">
	<path id="XMLID_107_" class="st20" d="M197.8,272.6c0.3-0.9,0.8-1.6,1.4-2.3c0.6-0.7,1.3-1.3,2.3-1.7c0.5-0.2,1-0.3,1.5-0.3
		c0.5,0,0.9,0.1,1.4,0.2c0.9,0.2,1.8,0.5,2.6,1.4l-0.7,0.1c0.5-0.8,1.1-1.4,1.8-2c0.7-0.6,1.5-1,2.4-1.2c0.9-0.2,1.8-0.2,2.6,0.2
		c0.8,0.3,1.5,0.8,2.2,1.4c-0.4-0.2-0.7-0.4-1.1-0.6c-0.4-0.1-0.8-0.3-1.2-0.4c-0.8-0.2-1.6-0.2-2.3,0.1c-0.7,0.2-1.4,0.7-2,1.2
		c-0.6,0.5-1.1,1.2-1.5,1.8l-0.3,0.5l-0.4-0.4c-0.5-0.5-1.3-0.9-2.1-1.1c-0.8-0.2-1.7-0.4-2.4-0.1c-0.8,0.2-1.5,0.7-2.2,1.3
		C198.9,271.1,198.3,271.8,197.8,272.6z"/>
</g>
<g id="XMLID_104_">
	<path id="XMLID_105_" class="st20" d="M198.6,262.1c-0.9-0.3-1.9-0.5-2.8-0.5c-0.9,0-1.9,0.3-2.6,0.8c-0.8,0.5-1.4,1.2-1.8,2
		c-0.4,0.8-0.6,1.7-0.8,2.7l-0.1,0.3l-0.3,0c-2.3-0.3-4.7-0.2-6.9,0.5c-2.2,0.7-4,2.3-5,4.3c-0.2,0.5-0.5,1-0.6,1.6
		c-0.1,0.6-0.3,1.1-0.4,1.7c-0.2,1.1-0.1,2.3,0.2,3.4c0.6,2.2,2.5,3.9,4.7,4.6l0.7,0.2l-0.6,0.2c-0.4,0.1-0.8,0.5-0.9,1
		c-0.2,0.5-0.1,1-0.1,1.5c0.2,1,0.7,2,1.2,2.9c-0.3-0.4-0.6-0.9-0.8-1.3c-0.2-0.5-0.4-1-0.6-1.5c-0.1-0.5-0.2-1.1,0-1.6
		c0.1-0.6,0.5-1.1,1.1-1.3l0,0.4c-1.2-0.3-2.3-0.9-3.2-1.7c-0.9-0.8-1.7-1.9-2.1-3.1c-0.4-1.2-0.5-2.5-0.3-3.7
		c0.1-1.2,0.5-2.4,1-3.6c1.1-2.3,3.2-4,5.6-4.7c1.2-0.4,2.4-0.6,3.6-0.6c1.2-0.1,2.4,0,3.7,0.2l-0.4,0.3c0.2-1,0.5-1.9,1-2.8
		c0.5-0.9,1.2-1.6,2.1-2.1c0.9-0.5,1.9-0.7,2.9-0.6C196.8,261.4,197.7,261.6,198.6,262.1z"/>
</g>
<g id="XMLID_102_">
	<path id="XMLID_103_" class="st21" d="M380.5,407.1c-3.1-4.3-17.6-9.4-17.6-9.4c-2.7-13-10.6-25.7-16.4-30.2
		c-1-1.1-2.3-2.1-3.7-3.1c-0.8-0.5,2,6.8-8,19.6c-5.1,6.5-10.3,10.2-10.3,10.2l8,3c7.7-3.9,11.5-10.4,13.4-16.1
		c3.6,9.3,7.6,19.6,7.6,19.6s4.7,10.2,15.8,16.4c9.9,5.5,11.3-6.1,11.4-8.9C380.8,407.8,380.7,407.4,380.5,407.1z"/>
</g>
<g id="XMLID_100_">
	<path id="XMLID_101_" class="st7" d="M239,508.4c1.1-0.2,2.5-1,3.2-2.2c0.6-1.1,17.2-25,31-41.7c17.4-21,38.4-43.6,38.4-43.6
		l8.5,33.5l-24.2,54.2l4.8,0.6c0,0,36-40.3,37.2-56.3c1.2-16.7-3.5-51.8-5.3-55.7c-1.4-0.5-4-1.6-7-2.8
		C319.4,391.9,238,508.6,239,508.4z"/>
</g>
<g id="XMLID_98_">
	<path id="XMLID_99_" class="st3" d="M330.6,355.8c-0.4-1-0.7-2-0.8-3.1c-0.1-1.1-0.1-2.2,0.3-3.2c0.4-1,1.1-2,2.1-2.5
		c1-0.6,2.1-0.8,3.1-1l-0.3,0.3c0.2-1.3,0.6-2.5,1.2-3.7c0.5-1.2,1.2-2.3,2.1-3.3c0.9-1,2-1.7,3.3-2.2l1-0.3l1-0.1
		c0.3-0.1,0.7,0,1,0l1,0.1l0,0l0,0c0.9,0.3,1.7,0.7,2.3,1.3c0.7,0.6,1.2,1.4,1.5,2.2c0.3,0.8,0.4,1.7,0.4,2.6c0,0.4-0.1,0.9-0.1,1.3
		l-0.2,1.3l-0.3-0.5c0.8,0.4,1.5,0.9,2,1.5c0.5,0.7,0.9,1.5,1.1,2.3c0.2,0.8,0.1,1.7-0.1,2.5c-0.1,0.4-0.2,0.8-0.3,1.2l-0.5,1.1
		l-0.5-0.4c1-0.6,2.1-0.9,3.2-1.1c1.1-0.2,2.3,0,3.4,0.4c1,0.4,2,1.1,2.7,2c0.4,0.4,0.7,0.9,1,1.3l0.8,1.5l-0.9-1.4
		c-0.4-0.4-0.7-0.9-1.1-1.2c-0.8-0.8-1.7-1.4-2.7-1.7c-1-0.3-2.1-0.4-3.2-0.2c-1,0.2-2.1,0.6-3,1.1l-0.8,0.5l0.3-0.9l0.4-1.1
		c0.1-0.4,0.2-0.7,0.3-1.1c0.1-0.7,0.2-1.5,0-2.2c-0.1-0.7-0.5-1.4-0.9-1.9c-0.5-0.6-1.1-1-1.7-1.3l-0.3-0.1l0.1-0.3l0.2-1.2
		c0-0.4,0.1-0.8,0.1-1.2c0-0.8-0.1-1.5-0.4-2.3c-0.3-0.7-0.7-1.3-1.3-1.8c-0.5-0.5-1.3-0.9-1.9-1.1l0,0c-1.2-0.1-2.4-0.2-3.5,0.3
		c-1.1,0.4-2.1,1.1-3,1.9c-0.8,0.9-1.5,1.9-2,3c-0.5,1.1-1,2.3-1.2,3.5l0,0.2l-0.2,0c-1,0.1-2,0.3-2.9,0.8c-0.9,0.5-1.6,1.2-2,2.2
		c-0.4,0.9-0.5,2-0.4,3.1C330.1,353.7,330.3,354.8,330.6,355.8z"/>
</g>
<g id="XMLID_96_">
	<path id="XMLID_97_" class="st3" d="M444.7,361.5c-0.2-0.9-0.2-1.8,0.2-2.7c0.3-0.9,0.9-1.6,1.6-2.2c0.2-0.2,0.4-0.3,0.5-0.4
		l0.1-0.1c0.1,0,0.1-0.1,0.2-0.1c0.1,0,0.3,0,0.4,0c0.3,0.1,0.4,0.3,0.5,0.6c0,0.1,0,0.3-0.1,0.3l-0.1,0.1c0,0.1-0.1,0.2-0.1,0.3
		c0,0.2-0.1,0.4,0,0.5c0,0.3,0.2,0.5,0.5,0.8c0.3,0.3,0.6,0.5,1,0.5c0.3,0.1,0.6,0,1-0.2c0.2-0.1,0.3-0.2,0.5-0.3
		c0.2-0.1,0.4-0.3,0.6-0.4c0.9-0.4,1.8-0.6,2.8-0.6c1.8,0,3.8,0.7,4.8,2.2c-1.3-1.2-3.1-1.6-4.8-1.5c-0.8,0.1-1.7,0.2-2.4,0.6
		c-0.2,0.1-0.3,0.2-0.5,0.3c-0.2,0.1-0.4,0.3-0.6,0.4c-0.4,0.3-1,0.4-1.6,0.3c-0.6-0.1-1-0.4-1.4-0.7c-0.3-0.3-0.8-0.8-0.8-1.4
		c0-0.3,0-0.6,0.1-0.8c0-0.1,0.1-0.2,0.1-0.4l0.1-0.2c0-0.1,0,0,0,0c0,0.1,0,0.1,0.1,0.1c0,0,0,0,0.1,0c0,0,0,0,0,0l-0.1,0
		c-0.2,0.1-0.4,0.2-0.5,0.4c-0.7,0.5-1.3,1.1-1.7,1.9C444.9,359.8,444.7,360.7,444.7,361.5z"/>
</g>
<g id="XMLID_93_">
	<g id="XMLID_94_">
		<path id="XMLID_95_" class="st22" d="M463.1,326.5c-2.7,0.5-4.9,3.6-5.1,5.6c-0.1,0.9,0.3,1.7,1.1,2.2l32.4,25.3
			c0,0-2.4,4.7-18.9,11.6c-4.6,1.9-6.1,2.9-9.6,4.6c-1.5,0.8,6.5,8.3,9.6,16.6c4.7,12.8-1.6,15.9,0.3,15.2c6-2.1,11.5-5.4,12.1-5.7
			c-0.5-3.4-1.8-3.9-6.8-24.3c0,0,18.9-5.7,20.4-15C500.9,348.4,481.5,323.5,463.1,326.5z"/>
	</g>
</g>
<g id="XMLID_91_">
	<path id="XMLID_92_" class="st23" d="M441.8,143.3c-6-6.2-41,5.8-41,5.8l-25.6-7.6c-0.3-0.1-0.5-0.2-0.8-0.2l-0.1,0l0,0
		c-1.9-0.5,1.7,8.8-1.7,17.5c-2.8,7.3-12.9,14.3-12.9,14.3l9.6,1.9c0,0,9.9-12,14.2-19.5l16.8,7.1c0,0,35.7-3.2,39.9-4.4
		C444.3,157.1,446.9,148.5,441.8,143.3z"/>
</g>
<g id="XMLID_88_">
	<g id="XMLID_89_">
		<path id="XMLID_90_" class="st2" d="M377.3,135.6c0,0-4.4,6.5-4.4,7.4c-0.1,1,0.7,2.7,2.4,1.4c1.7-1.3,4.1-7.7,4.1-7.7
			L377.3,135.6z"/>
	</g>
</g>
<g id="XMLID_85_">
	<g id="XMLID_86_">
		<path id="XMLID_87_" class="st14" d="M379.2,132.5c0,0-4.4,6.5-4.4,7.4c-0.1,1,0.7,2.7,2.4,1.4c1.7-1.3,4.1-7.7,4.1-7.7
			L379.2,132.5z"/>
	</g>
</g>
<g id="XMLID_82_">
	<g id="XMLID_83_">
		<path id="XMLID_84_" class="st2" d="M385.4,138.1c0.2-0.7,0-3-0.3-5c-0.2-1.6-1.8-2.7-3.4-2.4c-2.5,0.4-5.3,1.1-6,1.7
			c-1.1,0.9-0.9,2.6-0.8,3.9c0.1,1.3,0.7,3.5,1.6,4.5c0.8,0.9,2.9,1.5,4.1,1.4C384,141.6,384.9,140.6,385.4,138.1z"/>
	</g>
</g>
<g id="XMLID_80_">
	<path id="XMLID_81_" class="st24" d="M346.8,145.8c-0.2-2.2-0.2-4.4,0.2-6.5c0.4-2.2,1.2-4.3,2.5-6.1c1.3-1.8,3.1-3.3,5.1-4.3
		c2-1,4.3-1.4,6.5-1.5c2.2,0,4.4,0.4,6.5,1.1l0.8,0.2c0.2,0.1,0.7,0.1,0.3,0.1c0.2-0.3,0.4-0.5,0.6-0.7c0.2-0.2,0.4-0.4,0.6-0.6
		c0.8-0.7,1.7-1.4,2.7-2c1.9-1.2,3.9-2.2,6-2.7c2.1-0.5,4.4-0.7,6.5,0c-2.1-0.5-4.3-0.2-6.4,0.4c-2,0.6-4,1.7-5.7,2.9
		c-0.9,0.6-1.7,1.3-2.5,2c-0.4,0.3-0.8,0.8-1.1,1.1c0,0,0,0,0,0c0,0,0,0,0,0c0-0.1,0,0.2-0.2,0.3c-0.1,0.1-0.1,0.1-0.2,0.1
		c-0.2,0-0.3,0-0.3,0l-0.4-0.1l-0.8-0.2c-2.1-0.6-4.2-1-6.3-1c-2.1,0-4.2,0.4-6.2,1.3c-1.9,0.9-3.6,2.3-4.9,4
		c-1.3,1.7-2.1,3.7-2.6,5.8C346.9,141.4,346.7,143.6,346.8,145.8z"/>
</g>
<g id="XMLID_78_">
	<path id="XMLID_79_" class="st7" d="M372.6,206c-0.8-5.6-10.9-32.7-10.9-32.7l0,0l-0.7-4.5c-3.4,0.3,2.2,0.5-0.6,0.5
		c-4,0.1-2.1,7.8-5.6,11.6c-3.4,3.6-5.4,10-5.3,11c0.1,0.8,1.8,4.4,3.6,8.5C360.7,216.9,373.3,210.8,372.6,206z"/>
</g>
<g id="XMLID_76_">
	<path id="XMLID_77_" class="st25" d="M618,315.1c-0.4-0.6-0.6-1.3-0.5-2.1c0-0.4,0.2-0.7,0.4-1c0.2-0.3,0.4-0.6,0.6-0.9l0.1,0.4
		c-0.9-0.4-1.7-0.8-2.5-1.4c-0.8-0.6-1.5-1.2-2-2.1c-0.5-0.9-0.6-2.1-0.2-3c0.4-1,1-1.8,1.9-2.3c0.9-0.5,1.9-0.6,2.9-0.7
		c0.9,0,1.9,0,2.7-0.1c0.4-0.1,0.8-0.2,1.1-0.5c0.2-0.1,0.3-0.3,0.4-0.5c0.1-0.2,0.2-0.3,0.3-0.5c0.1-0.4,0-0.8-0.2-1.3
		c-0.1-0.4-0.5-0.8-0.5-1.3c0.4,0.8,1.2,1.5,1,2.6c-0.2,1-1.1,1.7-2.1,2c-1,0.3-1.9,0.3-2.8,0.3c-0.9,0.1-1.8,0.2-2.5,0.6
		c-0.7,0.4-1.2,1.1-1.5,1.9c-0.3,0.7-0.3,1.6,0.1,2.3c0.4,0.7,1,1.4,1.7,2c0.7,0.6,1.5,1.1,2.3,1.5l0.4,0.2l-0.3,0.2
		c-0.2,0.2-0.4,0.5-0.6,0.8c-0.2,0.3-0.3,0.6-0.4,0.9C617.7,313.8,617.7,314.5,618,315.1z"/>
</g>
<g id="XMLID_74_">
	<path id="XMLID_75_" class="st26" d="M655,321.9c1.1-2.4,3-11.2,3-11.2s-3.9-1.6-4.8-1.8c-1.6-0.4-5.6-1.2-5.6-1.2
		c-2.4,5.5-10.4,11-10.4,11s10.3,6.5,13.6,16.4c2.9,8.5,0.5,20.4,0.5,20.4s11.2-3,13.5-5.1c-0.3-1.9-0.8-7.5-3.8-16.5
		C658.5,326.5,658.2,327,655,321.9z"/>
</g>
<g id="XMLID_72_">
	<path id="XMLID_73_" class="st2" d="M378.6,411.9c-0.2-0.4-0.1-0.9,0.3-1.2c1-0.8,3.2-2.6,4.4-2.6c1.5,0,3.7,2.3,3.7,2.9
		c0,0.7-2.3-0.4-3-0.3C383.2,410.8,379.6,414.1,378.6,411.9z"/>
</g>
<g id="XMLID_65_">
	<g id="XMLID_68_">
		<path id="XMLID_69_" class="st3" d="M403.7,448c-0.2-1.2-1-2.1-2.2-2.4l-7.5-2c-1-0.3-1.8-1.1-2.1-2.1c-0.7-2.6-1.7-5.2-2.8-7.7
			c-0.4-1-0.3-2.1,0.3-2.9l4.6-6.3c0.7-1,0.8-2.3,0.1-3.3c-2.2-3.5-4.7-6.7-7.5-9.7c-0.8-0.9-2.1-1.1-3.2-0.7l-7.2,2.8
			c-1,0.4-2.1,0.2-2.9-0.5c-2.1-1.7-4.4-3.2-6.8-4.6c-0.9-0.5-1.5-1.5-1.5-2.5l0-7.8c0-1.2-0.7-2.3-1.8-2.7
			c-3.8-1.5-7.7-2.6-11.8-3.4c-1.2-0.2-2.4,0.3-3,1.3l-4.2,6.6c-0.6,0.9-1.6,1.4-2.6,1.3c-1.4-0.1-2.7-0.1-4.1,0
			c-1.4,0-2.7,0.1-4.1,0.3c-1.1,0.1-2.1-0.3-2.7-1.2l-4.6-6.3c-0.7-1-1.9-1.4-3.1-1.1c-4,1-7.9,2.4-11.5,4.1
			c-1.1,0.5-1.7,1.6-1.7,2.8l0.5,7.8c0.1,1.1-0.5,2-1.3,2.6c-2.3,1.5-4.4,3.2-6.5,5c-0.8,0.7-1.9,1-2.9,0.6l-7.4-2.4
			c-1.1-0.4-2.4,0-3.2,0.9c-2.6,3.1-4.9,6.5-6.9,10.1c-0.6,1-0.4,2.3,0.3,3.3l4.9,6c0.7,0.8,0.8,1.9,0.5,2.9
			c-0.9,2.5-1.7,5.1-2.3,7.8c-0.2,1.1-1,1.9-2,2.3l-7.4,2.4c-1.1,0.4-1.9,1.4-2,2.6c-0.1,2-0.2,4.1-0.1,6.1c0.1,2.1,0.2,4.1,0.5,6.1
			c0.2,1.2,1,2.1,2.2,2.4l7.5,2c1,0.3,1.8,1.1,2.1,2.1c0.7,2.6,1.7,5.2,2.8,7.7c0.4,1,0.3,2.1-0.3,2.9l-4.6,6.3
			c-0.7,1-0.8,2.3-0.1,3.3c2.2,3.5,4.7,6.7,7.5,9.7c0.8,0.9,2.1,1.1,3.2,0.7l7.2-2.8c1-0.4,2.1-0.2,2.9,0.5c2.1,1.7,4.4,3.2,6.8,4.6
			c0.9,0.5,1.5,1.5,1.5,2.5l0,7.8c0,1.2,0.7,2.3,1.8,2.7c3.8,1.5,7.7,2.6,11.8,3.4c1.2,0.2,2.4-0.3,3-1.3l4.2-6.6
			c0.6-0.9,1.6-1.4,2.6-1.3c1.4,0.1,2.7,0.1,4.1,0c1.4,0,2.7-0.1,4.1-0.3c1.1-0.1,2.1,0.3,2.7,1.2l4.6,6.3c0.7,1,1.9,1.4,3.1,1.1
			c4-1,7.9-2.4,11.5-4.1c1.1-0.5,1.7-1.6,1.7-2.8l-0.5-7.8c-0.1-1.1,0.5-2.1,1.3-2.6c2.3-1.5,4.4-3.2,6.5-5c0.8-0.7,1.9-1,2.9-0.6
			l7.4,2.4c1.1,0.4,2.4,0,3.2-0.9c2.6-3.1,4.9-6.5,6.9-10.1c0.6-1,0.4-2.3-0.3-3.3l-4.9-6c-0.7-0.8-0.8-1.9-0.5-2.9
			c0.9-2.5,1.7-5.1,2.3-7.8c0.2-1.1,1-1.9,2-2.3l7.4-2.4c1.1-0.4,1.9-1.4,2-2.6c0.1-2,0.2-4.1,0.1-6.1S403.9,450,403.7,448z
			 M340.4,498.6c-23.4,0.7-43-17.7-43.8-41.1c-0.7-23.4,17.7-43,41.1-43.8c23.4-0.7,43,17.7,43.8,41.1
			C382.2,478.3,363.8,497.9,340.4,498.6z"/>
	</g>
	<g id="XMLID_66_">
		<path id="XMLID_67_" class="st27" d="M404.2,454.1c-0.1-2.1-0.2-4.1-0.5-6.1c-0.2-1.2-1-2.1-2.2-2.4l-7.5-2
			c-1-0.3-1.8-1.1-2.1-2.1c-0.7-2.6-1.7-5.2-2.8-7.7c-0.4-1-0.3-2.1,0.3-2.9l4.6-6.3c0.7-1,0.8-2.3,0.1-3.3
			c-2.2-3.5-4.7-6.7-7.5-9.7c-0.8-0.9-2.1-1.1-3.2-0.7l-7.2,2.8c-1,0.4-2.1,0.2-2.9-0.5c-2.1-1.7-4.4-3.2-6.8-4.6
			c-0.9-0.5-1.5-1.5-1.5-2.5l0-7.8c0-1.2-0.7-2.3-1.8-2.7c-3.8-1.5-7.7-2.6-11.8-3.4c-1.2-0.2-2.4,0.3-3,1.3l-4.2,6.6
			c-0.6,0.9-1.6,1.4-2.6,1.3c-0.8,0-1.6,0-2.4,0v12.4c22.9,0,41.7,18.1,42.5,41.1c0.7,23.4-17.7,43-41.1,43.8c-0.4,0-0.9,0-1.3,0
			V511c0.6,0,1.1,0,1.7,0c1.4,0,2.7-0.1,4.1-0.3c1.1-0.1,2.1,0.3,2.7,1.2l4.6,6.3c0.7,1,1.9,1.4,3.1,1.1c4-1,7.9-2.4,11.5-4.1
			c1.1-0.5,1.7-1.6,1.7-2.8l-0.5-7.8c-0.1-1.1,0.5-2.1,1.3-2.6c2.3-1.5,4.4-3.2,6.5-5c0.8-0.7,1.9-1,2.9-0.6l7.4,2.4
			c1.1,0.4,2.4,0,3.2-0.9c2.6-3.1,4.9-6.5,6.9-10.1c0.6-1,0.4-2.3-0.3-3.3l-4.9-6c-0.7-0.8-0.8-1.9-0.5-2.9c0.9-2.5,1.7-5.1,2.3-7.8
			c0.2-1.1,1-1.9,2-2.3l7.4-2.4c1.1-0.4,1.9-1.4,2-2.6C404.2,458.2,404.2,456.2,404.2,454.1z"/>
	</g>
</g>
<g id="XMLID_63_">
	<path id="XMLID_64_" class="st2" d="M318.8,392.3c0,0,4.4-0.9,5.9-0.6c2.1,0.4,3.8,4.5,3.1,4.3c-0.7-0.2-2-1.3-2-1.3
		s0.7,0.3,0.5,0.9c-0.2,0.6-1.9-0.5-2.6-0.6C323,394.8,318,396,318.8,392.3z"/>
</g>
<g id="XMLID_61_">
	<path id="XMLID_62_" class="st9" d="M330.6,359.6c0.7,1.2-9.9,2.3-14.2,3.9c-3.5,1.2-16.8,6.6-16.8,6.6s23.4,19.6,21,23.1
		c-2.5,3.5-10.9,6.9-16.7,3.4c-2.9-1.8-19.1-20.4-14.7-30.6C293.3,356.4,325.5,350.9,330.6,359.6z"/>
</g>
<g id="XMLID_54_">
	<g id="XMLID_57_">
		<path id="XMLID_58_" class="st3" d="M471.4,196c0-0.5,0-1.1,0-1.6c0-0.5,0.3-0.9,0.8-1l2.9-0.8c0.9-0.3,1.6-1.1,1.5-2.1
			c-0.1-1.3-0.2-2.7-0.4-4c-0.1-1-1-1.7-2-1.7l-3-0.1c-0.5,0-0.9-0.4-1-0.8c-0.2-1.1-0.5-2.1-0.9-3.1c-0.1-0.5,0-1,0.4-1.2l2.5-1.6
			c0.8-0.5,1.2-1.6,0.8-2.5c-0.5-1.2-1-2.4-1.6-3.6c-0.4-0.9-1.5-1.3-2.4-1l-2.9,0.8c-0.5,0.1-0.9-0.1-1.2-0.5
			c-0.6-0.9-1.2-1.8-1.8-2.7c-0.3-0.4-0.3-0.9,0-1.3l1.9-2.3c0.6-0.8,0.6-1.9,0-2.6c-0.9-1-1.7-2-2.7-3c-0.7-0.7-1.8-0.8-2.6-0.3
			l-2.5,1.6c-0.4,0.3-0.9,0.2-1.3-0.1c-0.8-0.7-1.7-1.4-2.5-2c-0.4-0.3-0.5-0.8-0.4-1.2l1.1-2.8c0.4-0.9,0-2-0.8-2.5
			c-1.1-0.7-2.3-1.4-3.5-2c-0.9-0.5-1.9-0.2-2.6,0.6l-1.9,2.3c-0.3,0.4-0.8,0.5-1.2,0.3c-1-0.4-2-0.8-3-1.2
			c-0.5-0.2-0.8-0.6-0.7-1.1l0.2-3c0.1-1-0.6-1.9-1.5-2.1c-1.3-0.3-2.6-0.6-3.9-0.8c-1-0.2-1.9,0.4-2.3,1.3l-1,2.8
			c-0.2,0.5-0.6,0.7-1.1,0.7c-0.5,0-1.1-0.1-1.6-0.1c-0.5,0-1.1,0-1.6,0c-0.5,0-0.9-0.3-1-0.8l-0.8-2.9c-0.3-0.9-1.1-1.6-2.1-1.5
			c-1.3,0.1-2.7,0.2-4,0.4c-1,0.1-1.7,1-1.7,2l-0.1,3c0,0.5-0.4,0.9-0.8,1c-1.1,0.2-2.1,0.5-3.1,0.9c-0.5,0.1-1,0-1.2-0.4l-1.6-2.5
			c-0.5-0.8-1.6-1.2-2.5-0.8c-1.2,0.5-2.4,1-3.6,1.6c-0.9,0.4-1.3,1.5-1,2.4l0.8,2.9c0.1,0.5-0.1,0.9-0.5,1.2
			c-0.9,0.6-1.8,1.1-2.7,1.8c-0.4,0.3-1,0.3-1.3-0.1l-2.1-1.9c-1-0.9-2.1-0.9-2.9-0.3c-1,0.8-2,1.7-2.9,2.7
			c-0.7,0.7-0.8,1.7-0.3,2.5l1.8,2.9c0.2,0.4,0.2,0.9-0.1,1.2c-0.7,0.8-1.4,1.7-2,2.5c-0.3,0.4-0.8,0.5-1.3,0.3l-2.7-1.2
			c-0.9-0.4-2.1-0.1-2.6,0.8c-0.7,1.1-1.4,2.3-2,3.4c-0.4,0.8-0.2,1.9,0.5,2.5l2.5,2.2c0.3,0.3,0.4,0.8,0.3,1.2c-0.4,1-0.8,2-1.2,3
			c-0.2,0.5-0.6,0.8-1.1,0.7l-2.8-0.3c-1-0.1-2,0.5-2.3,1.5c-0.3,1.3-0.6,2.6-0.8,3.9c-0.1,0.9,0.4,1.8,1.2,2.2l3,1.3
			c0.4,0.2,0.7,0.6,0.6,1.1c0,0.6-0.1,1.1-0.1,1.7c0,0.5,0,1,0,1.6c0,0.5-0.4,0.9-0.9,1l-2.6,0.5c-1,0.2-1.7,1.1-1.7,2.1
			c0.1,1.3,0.2,2.7,0.4,4c0.1,0.9,0.9,1.6,1.8,1.7l3.2,0.4c0.4,0.1,0.8,0.4,0.9,0.8c0.2,1.1,0.5,2.1,0.9,3.1c0.1,0.5,0,1-0.5,1.2
			l-2.1,1.2c-1.1,0.6-1.5,1.7-1.1,2.7c0.5,1.2,1,2.4,1.6,3.6c0.4,0.8,1.4,1.3,2.3,1.1l3-0.6c0.4-0.1,0.9,0.1,1.1,0.5
			c0.6,0.9,1.2,1.8,1.8,2.7c0.3,0.4,0.3,0.9-0.1,1.3l-1.7,1.9c-0.7,0.8-0.7,1.9-0.1,2.7c0.9,1,1.8,2,2.7,3c0.7,0.7,1.7,0.8,2.5,0.3
			l2.5-1.5c0.4-0.2,0.9-0.2,1.2,0.1c0.8,0.7,1.7,1.4,2.6,2.1c0.4,0.3,0.5,0.8,0.4,1.3l-1,2.4c-0.4,0.9-0.1,2,0.8,2.5
			c1.1,0.7,2.3,1.4,3.5,2c0.8,0.4,1.9,0.2,2.5-0.5l1.8-2.1c0.3-0.3,0.8-0.5,1.2-0.3c1,0.4,2,0.8,3.1,1.2c0.5,0.2,0.8,0.6,0.7,1.1
			l-0.1,2.6c-0.1,1,0.6,1.8,1.5,2.1c1.2,0.4,2.5,0.8,3.7,1.1c1.1,0.3,2.2-0.3,2.6-1.4l1-2.6c0.2-0.5,0.6-0.7,1.1-0.7
			c0.5,0,1.1,0.1,1.6,0.1c0.5,0,1.1,0,1.6,0c0.5,0,0.9,0.3,1,0.8l0.8,2.6c0.3,0.9,1.1,1.6,2.1,1.5c1.3-0.1,2.7-0.2,4-0.4
			c1-0.1,1.7-1,1.7-2l0.1-2.6c0-0.5,0.4-0.9,0.8-1c1.1-0.3,2.1-0.5,3.2-0.9c0.4-0.1,0.9,0,1.2,0.4l1.5,2.1c0.7,1,1.7,1.3,2.5,1
			c1.2-0.4,2.4-0.8,3.6-1.3c1-0.4,1.5-1.5,1.2-2.5l-0.8-2.8c-0.1-0.5,0.1-0.9,0.5-1.2c0.9-0.6,1.8-1.2,2.7-1.8
			c0.4-0.3,0.9-0.3,1.3,0l2.3,1.9c0.8,0.6,1.9,0.6,2.6,0c1-0.9,2-1.7,3-2.7c0.7-0.7,0.8-1.8,0.3-2.6l-1.6-2.5
			c-0.3-0.4-0.2-0.9,0.1-1.3c0.7-0.8,1.4-1.7,2-2.5c0.3-0.4,0.8-0.5,1.2-0.4l2.8,1.1c0.9,0.4,2,0,2.5-0.8c0.7-1.1,1.4-2.3,2-3.5
			c0.5-0.9,0.2-1.9-0.6-2.6l-2.3-1.9c-0.4-0.3-0.5-0.8-0.3-1.2c0.4-1,0.8-2,1.2-3c0.2-0.5,0.6-0.8,1.1-0.7l3,0.2
			c1,0.1,1.9-0.6,2.1-1.5c0.3-1.3,0.6-2.6,0.8-3.9c0.2-1-0.4-1.9-1.3-2.3l-2.8-1c-0.5-0.2-0.7-0.6-0.7-1.1
			C471.3,197.1,471.4,196.6,471.4,196z M426.2,214.3c-11.3-0.6-20-10.2-19.5-21.5c0.6-11.3,10.2-20,21.5-19.5
			c11.3,0.6,20,10.2,19.5,21.5C447.1,206.2,437.5,214.9,426.2,214.3z"/>
	</g>
	<g id="XMLID_55_">
		<path id="XMLID_56_" class="st27" d="M474.8,199.8l-2.8-1c-0.5-0.2-0.7-0.6-0.7-1.1c0-0.5,0.1-1.1,0.1-1.6c0-0.5,0-1.1,0-1.6
			c0-0.5,0.3-0.9,0.8-1l2.9-0.8c0.9-0.3,1.6-1.1,1.5-2.1c-0.1-1.3-0.2-2.7-0.4-4c-0.1-1-1-1.7-2-1.7l-3-0.1c-0.5,0-0.9-0.4-1-0.8
			c-0.2-1.1-0.5-2.1-0.9-3.1c-0.1-0.5,0-1,0.4-1.2l2.5-1.6c0.8-0.5,1.2-1.6,0.8-2.5c-0.5-1.2-1-2.4-1.6-3.6c-0.4-0.9-1.5-1.3-2.4-1
			l-2.9,0.8c-0.5,0.1-0.9-0.1-1.2-0.5c-0.6-0.9-1.2-1.8-1.8-2.7c-0.3-0.4-0.3-0.9,0-1.3l1.9-2.3c0.6-0.8,0.6-1.9,0-2.6
			c-0.9-1-1.7-2-2.7-3c-0.7-0.7-1.8-0.8-2.6-0.3l-2.5,1.6c-0.4,0.3-0.9,0.2-1.3-0.1c-0.8-0.7-1.7-1.4-2.5-2
			c-0.4-0.3-0.5-0.8-0.4-1.2l1.1-2.8c0.4-0.9,0-2-0.8-2.5c-1.1-0.7-2.3-1.4-3.5-2c-0.9-0.5-1.9-0.2-2.6,0.6l-1.9,2.3
			c-0.3,0.4-0.8,0.5-1.2,0.3c-1-0.4-2-0.8-3-1.2c-0.5-0.2-0.8-0.6-0.7-1.1l0.2-3c0.1-1-0.6-1.9-1.5-2.1c-1.3-0.3-2.6-0.6-3.9-0.8
			c-1-0.2-1.9,0.4-2.3,1.3l-1,2.8c-0.2,0.4-0.6,0.7-1.1,0.7c-0.5,0-1.1-0.1-1.6-0.1c-0.5,0-1.1,0-1.6,0c-0.2,0-0.4-0.1-0.5-0.2v23.9
			c0.3,0,0.7,0,1,0c11.3,0.6,20,10.2,19.5,21.5c-0.5,11-9.6,19.5-20.5,19.5v23.9c0.2,0.1,0.4,0.3,0.5,0.6l0.8,2.6
			c0.3,0.9,1.1,1.6,2.1,1.5c1.3-0.1,2.7-0.2,4-0.4c1-0.1,1.7-1,1.7-2l0.1-2.6c0-0.5,0.4-0.9,0.8-1c1.1-0.3,2.1-0.5,3.2-0.9
			c0.4-0.1,0.9,0,1.2,0.4l1.5,2.1c0.7,1,1.7,1.3,2.5,1c1.2-0.4,2.4-0.8,3.6-1.3c1-0.4,1.5-1.5,1.2-2.5l-0.8-2.8
			c-0.1-0.5,0.1-0.9,0.5-1.2c0.9-0.6,1.8-1.2,2.7-1.8c0.4-0.3,0.9-0.3,1.3,0l2.3,1.9c0.8,0.6,1.9,0.6,2.6,0c1-0.9,2-1.7,3-2.7
			c0.7-0.7,0.8-1.8,0.3-2.6l-1.6-2.5c-0.3-0.4-0.2-0.9,0.1-1.3c0.7-0.8,1.4-1.7,2-2.5c0.3-0.4,0.8-0.5,1.2-0.4l2.8,1.1
			c0.9,0.4,2,0,2.5-0.8c0.7-1.1,1.4-2.3,2-3.5c0.5-0.9,0.2-1.9-0.6-2.6l-2.3-1.9c-0.4-0.3-0.5-0.8-0.3-1.2c0.4-1,0.8-2,1.2-3
			c0.2-0.5,0.6-0.8,1.1-0.7l3,0.2c1,0.1,1.9-0.6,2.1-1.5c0.3-1.3,0.6-2.6,0.8-3.9C476.3,201.1,475.7,200.1,474.8,199.8z"/>
	</g>
</g>
<g id="XMLID_52_">
	<path id="XMLID_53_" class="st2" d="M391.3,162.1c0,0-0.7-4.7-0.1-6.3c0.7-1.6,5.2-2.2,5.6-1.6c0.5,0.8-2.2,1.6-2.4,2.5
		C394.3,157.4,395.4,163.2,391.3,162.1z"/>
</g>
<g id="XMLID_50_">
	<path id="XMLID_51_" class="st16" d="M359.2,142.7c2.7-1.4,8.8,28.1,8.8,28.1s19.5-13.7,23.7-11.3c3.5,2,6.8,5.2,3.5,10.6
		c-2,3.3-20.9,17.8-32.3,12.3C352.2,177.4,349,147.9,359.2,142.7z"/>
</g>
<g id="XMLID_48_">
	<path id="XMLID_49_" class="st28" d="M362.9,182.5c-1.3-0.6-2.4-1.5-3.3-2.5c-0.9-1-1.8-2.2-2.5-3.4c-1.4-2.4-2.4-5.1-3.2-7.8
		c-0.8-2.7-1.3-5.5-1.5-8.2c-0.2-2.8-0.3-5.6,0.1-8.4c0.2-1.4,0.5-2.8,1-4.1c0.5-1.3,1.2-2.6,2.2-3.7c0.5-0.5,1.1-1,1.7-1.4
		c0.3-0.2,0.7-0.3,1-0.5c0.2-0.1,0.4-0.1,0.5-0.2c0.1-0.1,0.5-0.1,0.7,0c0.5,0.1,0.8,0.4,1,0.7c0.2,0.3,0.4,0.6,0.6,0.9
		c0.3,0.6,0.6,1.3,0.9,2c1.8,5.3,2.8,10.8,3.9,16.2l-2.1-8.1c-0.7-2.7-1.4-5.4-2.4-7.9c-0.3-0.6-0.5-1.3-0.9-1.8
		c-0.3-0.6-0.7-1.2-1.2-1.3c-0.1,0-0.1,0-0.3,0c-0.2,0-0.3,0.1-0.5,0.1c-0.3,0.1-0.6,0.2-0.9,0.4c-0.6,0.3-1.1,0.7-1.5,1.2
		c-1.8,2-2.5,4.7-2.9,7.4c-0.8,5.4-0.2,11,1.2,16.3c0.7,2.7,1.6,5.3,2.9,7.7C358.7,178.8,360.4,181.1,362.9,182.5z"/>
</g>
<g id="XMLID_46_">
	<path id="XMLID_47_" class="st2" d="M442.9,151.8c0,0,3.3-3.4,5-3.9c1.7-0.5,4.9,2.8,4.7,3.5c-0.3,0.9-2.6-0.7-3.4-0.4
		C448.4,151.4,444.5,155.8,442.9,151.8z"/>
</g>
<g id="XMLID_41_">
	<path id="XMLID_42_" class="st6" d="M120.2,270.5c0.5-1.5,1.2-5.8-0.8-6.7c-2.2-0.9-2.4,3.8-2.5,5c-0.1,1.4-0.1,2.8-0.1,4.1
		c0-0.3,0-0.6-0.1-0.9c-0.2-1.7-0.5-3.3-1-4.9c-0.3-0.8-0.7-2.5-1.7-2.8c-2.1-0.6-2.3,3.4-2.2,4.6c0.2,2.2,1.3,5.6,3.9,6
		c0,0,0.1,0,0.1,0c0,0.9,0,1.9,0,2.8c0,3.4,0,6.7,0.2,10.1c0.1,3.2,0,6.7,0.9,9.9c0.1,0.3,0.4,0.2,0.4-0.1c0.5-4.3-0.3-9-0.4-13.4
		c-0.1-3.1,0.1-6.2,0-9.3c0.2,2.6,0.5,5.1,0.8,7.7c0.5,5,0.9,9.9,0.6,14.9c0,0.8,1.1,0.7,1.2,0c0.6-6.5-0.4-13.1-1.1-19.6
		c-0.1-1.2-0.3-2.5-0.4-3.8C119.1,273.2,119.8,271.7,120.2,270.5z M113.7,271.7c-0.5-0.9-0.7-2-0.8-3.1c0-0.5-0.1-2.8,0.9-2.7
		c0.3,0,1,2.4,1,2.6c0.5,1.6,0.7,3.2,0.8,4.9C114.7,273.4,114.2,272.8,113.7,271.7z M118.2,267.4c0.1-0.7,0.3-2.8,1.3-0.7
		c0.2,0.5,0,1.4-0.1,1.9c-0.2,1.3-0.6,2.7-1.5,3.7C117.9,270.7,117.9,269,118.2,267.4z"/>
</g>
<g id="XMLID_5_">
	<g id="XMLID_37_">
		<g id="XMLID_38_">
			<path id="XMLID_39_" class="st3" d="M340.5,63c0,0-0.2,0-0.6,0c-0.4,0-0.9,0.1-1.4,0.1c-1.5,0.1-3,0.2-4.5,0.3c0,1.2,0,2.5,0,3.8
				l0,5.3c0,4.7,0,9,0,13.1c0,11.6,0,19.8,0,24.5h-3.6c0-4.7,0-12.8,0-24.2c0-4,0-8.4,0-13c0-1.8,0-3.5,0-5.3c0-1.3,0-2.6,0-3.9
				c-3,0.3-5,0.5-6.1,0.6l-0.6-3.5c1.4-0.2,4.5-0.5,9.3-0.9c1.5-0.1,3.2-0.2,4.8-0.3c0.6,0,1.1-0.1,1.6-0.1c0.4,0,0.6,0,0.7,0
				L340.5,63z"/>
		</g>
	</g>
	<g id="XMLID_33_">
		<g id="XMLID_34_">
			<path id="XMLID_35_" class="st3" d="M359.8,110.7c-2.1,0.1-4,0.2-5.5,0.2c-2.5,0-4.3-0.2-5.3-0.4c-0.4-0.1-0.7-0.3-1-0.4
				c-0.1-0.1-0.2-0.1-0.2-0.2l-0.2-0.2c-0.3-0.4-0.5-1.6-0.7-3.7c-0.2-3.2-0.3-10.2-0.4-20.9c0-5-0.1-10.4-0.1-16.4
				c0-1.8,0-3.6,0-5.4v-2.1c0-0.6,0.2-1.1,0.7-1.6c0.5-0.5,1.4-0.9,2.7-1c1-0.1,3-0.1,5.9,0c1.7,0.1,2.9,0.1,3.7,0.1v3.5
				c-0.8,0-2.1,0-3.8-0.1c-0.6,0-1.1,0-1.5,0c-0.6,0-1.1,0-1.6,0c-1.2,0-2.1,0-2.6,0.1c0,2.1,0,4.7,0,7.7c0,3.4,0,6.8,0.1,10.2h0.7
				h0.7c0.6,0,1.1,0,1.5,0c1.2,0,2.2,0,2.9,0.1l-0.2,3.5c-0.7,0-1.6-0.1-2.8-0.1h-1.5l-0.7,0H350c0.1,13,0.3,20.9,0.5,23.5
				c1.8,0.2,4.8,0.2,9.1,0L359.8,110.7z"/>
		</g>
	</g>
	<g id="XMLID_28_">
		<g id="XMLID_29_">
			<path id="XMLID_30_" class="st3" d="M381.1,110.8c0.1-3.8-0.1-8.2-0.4-13.3c-2-0.1-5.2-0.1-9.7,0.1c-0.7,6.9-1,11.1-1,12.7h-3.5
				c0-1.1,0.2-4.3,0.7-9.4c0.5-5.8,1.1-11.3,1.8-16.6c0.9-7,1.7-12.4,2.5-16.2c0.6-3.3,1.3-5.5,1.9-6.7c0.6-1.2,1.4-1.9,2.4-1.9
				c0.3,0,0.6,0,0.9,0.1c0.4,0.1,0.7,0.4,1,0.7c1.9,1.9,3.6,9.1,5.2,21.6c1.4,11.3,2,20.9,1.8,29L381.1,110.8z M371.5,94.1
				c4.2-0.1,7.2-0.2,9-0.1c-1.1-14.6-2.6-24.5-4.5-29.6c-0.7,2.3-1.5,6.4-2.4,12.5C372.9,81.9,372.2,87.6,371.5,94.1z"/>
		</g>
	</g>
	<g id="XMLID_24_">
		<g id="XMLID_25_">
			<path id="XMLID_26_" class="st3" d="M414,110.9h-3.6c0-6.7,0-13.6,0-20.7c0-8.1-0.1-14.6-0.1-19.5c-2.1,6.8-3.5,11-4.2,12.7
				c-0.4,0.9-0.7,1.5-1,1.8c-0.2,0.2-0.6,0.4-1,0.5c-0.9,0.2-1.6-0.1-2.2-1.1c-0.4-0.6-0.9-1.8-1.6-3.6c-0.6-1.6-1.4-4.3-2.6-8.1
				l-0.3-1.1l-0.3-1.2c-0.3-0.9-0.6-1.7-0.8-2.4c0,4.1,0.1,9.9,0.2,17.3c0,2.7,0.1,5.7,0.2,9c0,1.2,0.1,2.5,0.1,4
				c0,0.5,0,1.1,0.1,1.8l0,0.8v0.8c0.2,5.3,0.2,8.2,0.2,8.7h-3.6c0-0.7-0.1-3.6-0.2-8.6l0-1.4l0-1.5c0-1.3,0-2.4-0.1-3.1
				c-0.1-2.5-0.1-4.7-0.2-6.6c-0.1-5.3-0.2-9.8-0.2-13.5c-0.1-4.6-0.1-8.2,0-10.9c0.1-2.4,0.2-3.9,0.4-4.6c0.3-1,0.8-1.6,1.7-1.7
				c0.5,0,1,0.1,1.3,0.3c0.4,0.3,0.7,0.8,1.1,1.7c0.6,1.4,1.9,5.1,3.8,11.3l0.3,1l0.3,1l0.7,2.1c0.5,1.6,0.9,2.9,1.3,3.9
				c0.4-1.2,1-2.9,1.6-5.1c0.2-0.7,0.5-1.6,0.8-2.7l0.4-1.3c0.1-0.5,0.3-0.9,0.3-1.2c0.9-2.8,1.5-4.9,2-6.3c0.5-1.6,0.9-2.6,1.2-3
				c0.4-0.6,0.9-0.9,1.6-0.9h0.8l0.5,0.6c0.4,0.4,0.6,1.7,0.8,3.9c0.1,3.1,0.2,10.6,0.3,22.5c0,5.1,0.1,10.7,0.1,16.9v5.6
				c0,0.3,0,0.6,0,0.9V110.9z"/>
		</g>
	</g>
	<g id="XMLID_20_">
		<g id="XMLID_21_">
			<path id="XMLID_22_" class="st3" d="M424.2,110.1c-0.7-0.6-1.1-2.3-1.2-5.1c-0.1-3.2,0-10.5,0.3-22.2l0.1-3.2l0.1-3.3
				c0.1-2.4,0.1-4.5,0.1-6.3c0.1-4.6,0.1-8.3,0.1-11.1l3.6-0.1c0,2.9,0,6.6-0.1,11.2c0,1.8-0.1,3.9-0.1,6.3l-0.1,3.3l-0.1,3.3
				l-0.1,1.9l0,1.9l-0.1,3.9c-0.1,3-0.1,5.5-0.1,7.5c0.3-1.2,0.5-2.6,0.9-4.3l0.4-2.1l0.2-1l0.2-1l0.3-1.6l0.3-1.6
				c0.3-1.2,0.4-2.3,0.6-3c0.4-2.2,0.8-4,1.1-5.4c0.6-2.7,1.1-4.4,1.5-5.2c0.5-0.9,1.1-1.4,2-1.4c0.9,0,1.5,0.5,2,1.5
				c0.4,0.9,0.9,2.8,1.6,5.8c0.3,1.5,0.8,3.5,1.3,6c0.2,0.9,0.4,2.1,0.7,3.3l0.7,3.4l0.5,2.5l0.5,2.5c0.1-4.8,0.1-11,0-18.5
				c0-6.2-0.1-12.6-0.2-19.1l3.5-0.1c0,0,0,0.8,0,2.1c0,1.6,0,3.4,0.1,5.5c0.1,5.9,0.1,11.4,0.1,16.5c0,11.3-0.1,18.7-0.3,22.2
				c-0.1,2.2-0.4,3.6-0.9,4l-1.3,0.6c-0.8,0-1.4-0.5-1.9-1.4c-0.3-0.7-0.8-2.4-1.4-4.9c-0.6-2.5-1.3-6.2-2.3-11.1
				c-0.3-1.4-0.5-2.5-0.7-3.3c-0.3-1.3-0.5-2.4-0.7-3.4c-0.5-2.6-1-4.7-1.4-6.3c-0.3,1.5-0.7,3.3-1.2,5.5c-0.2,0.9-0.4,1.9-0.6,2.9
				c-0.1,0.7-0.3,1.7-0.5,2.8c-1.7,8.8-2.9,14.4-3.6,16.5c-0.4,1.2-0.7,2.1-1.1,2.6c-0.3,0.4-0.7,0.6-1.1,0.7
				c-0.1,0-0.3,0.1-0.4,0.1C425,110.6,424.6,110.4,424.2,110.1z"/>
		</g>
	</g>
	<g id="XMLID_15_">
		<g id="XMLID_16_">
			<path id="XMLID_17_" class="st3" d="M459.6,110.6c-0.7-0.3-1.3-0.7-1.9-1.2c-1.8-1.8-3.2-5.3-4.1-10.4c-0.8-4.3-1.1-9.2-1.1-14.5
				c0.2-16.9,3-25.3,8.7-25.3c3.2,0,5.5,2.6,6.9,7.9c1,3.8,1.5,9.2,1.6,16.4c0.1,5.8-0.2,10.7-0.8,14.8c-0.8,5.4-2.1,9-4,10.9
				c-1.1,1.1-2.4,1.7-3.8,1.7C460.6,110.9,460.1,110.8,459.6,110.6z M457.9,67.9c-1.1,4-1.7,9.5-1.7,16.5
				c-0.1,5.3,0.3,10.1,1.1,14.3c0.8,4.2,1.8,6.9,3,8.2c0.2,0.2,0.4,0.4,0.6,0.4c0.1,0,0.1,0,0.2,0h0.1c0.2,0,0.4,0,0.6-0.1
				c0.3-0.1,0.5-0.3,0.8-0.5c1.2-1.3,2.2-4,2.9-8.1c0.6-4.1,0.9-9.1,0.8-15.1c-0.1-8.3-0.9-14.2-2.2-17.7c-0.5-1.2-1-2.1-1.6-2.6
				c-0.2-0.2-0.4-0.4-0.7-0.4c-0.2-0.1-0.4-0.1-0.5-0.1C459.9,62.6,458.8,64.4,457.9,67.9z"/>
		</g>
	</g>
	<g id="XMLID_10_">
		<g id="XMLID_11_">
			<path id="XMLID_12_" class="st3" d="M489.7,110.2c0,0,0-0.1-0.1-0.2l-0.1-0.2l-0.1-0.2c-0.2-0.5-0.4-1.1-0.7-1.6
				c-0.7-1.7-1.4-3.5-2-5.2c-2.1-5.6-3.9-10.5-5.2-14.6c0,2.5,0.1,4.5,0.1,6.2c0.2,8.1,0.3,13.6,0.3,16.4h-3.5
				c0-3.1-0.1-8.6-0.3-16.3l-0.1-2.8l-0.1-2.8c0-2.2-0.1-4.1-0.1-5.7c-0.1-4.3-0.2-7.9-0.2-10.7c0-5.5,0.1-9,0.4-10.6
				c0.3-1.4,0.9-2.1,1.8-2.2c0.9-0.1,1.9,0,3.1,0.4c1.4,0.4,2.6,1.1,3.8,1.9c2.5,1.9,3.9,4.4,4.3,7.5c0.5,3.5-0.2,6.5-1.8,9
				c-1.3,1.9-3.2,3.5-5.6,4.7c1.2,4.4,3.1,10,5.7,16.8c0.8,2.1,1.6,4.3,2.5,6.4c0.3,0.7,0.5,1.3,0.8,1.9c0.1,0.2,0.2,0.4,0.2,0.5
				c0.1,0.1,0.1,0.2,0.1,0.2L489.7,110.2z M481.4,63.1c-0.3,2.3-0.3,8-0.1,17.2c0.8-0.3,1.6-0.7,2.2-1.2c0.9-0.6,1.6-1.2,2.2-2
				c1.6-2,2.2-4.4,1.8-7.3c-0.3-2-1.1-3.6-2.6-4.8c-0.6-0.5-1.2-0.9-1.9-1.2C482.6,63.4,482,63.2,481.4,63.1z"/>
		</g>
	</g>
	<g id="XMLID_6_">
		<g id="XMLID_7_">
			<path id="XMLID_8_" class="st3" d="M514.7,111.9l-9.9-25.2c0,13.1-0.2,20.9-0.6,23.5l-3.5-0.5c0.3-2.4,0.5-10.6,0.5-24.5
				c0-13.9-0.2-22.3-0.5-25.2l3.5-0.4c0.3,2.1,0.4,8,0.5,17.8c1.9-3.6,3.9-7.2,5.7-10.7c2.1-4,3.6-6.6,4.2-7.8l3.1,1.7
				c-0.7,1.2-2.3,4.2-5,9.2c-0.5,0.9-1.1,1.9-1.7,3.1c-0.4,0.7-0.9,1.8-1.7,3.1c-1.4,2.7-2.4,4.5-2.9,5.5l11.4,29.1L514.7,111.9z"/>
		</g>
	</g>
</g>
</svg>
