<?xml version="1.0" encoding="utf-8"?>
<!-- Generator: Adobe Illustrator 19.0.0, SVG Export Plug-In . SVG Version: 6.00 Build 0)  -->
<svg version="1.1" id="Calque_1" xmlns="http://www.w3.org/2000/svg" xmlns:xlink="http://www.w3.org/1999/xlink" x="0px" y="0px"
	 viewBox="0 0 841.9 595.3" style="enable-background:new 0 0 841.9 595.3;" xml:space="preserve">
<style type="text/css">
	.st0{fill:#D1DBEA;}
	.st1{fill:none;stroke:#FFFFFF;stroke-width:1.5643;stroke-miterlimit:10;}
	.st2{fill:#B0BEDE;}
	.st3{fill:#3E7BAA;}
	.st4{fill:none;stroke:#22254C;stroke-width:1.2623;stroke-miterlimit:10;}
	.st5{enable-background:new    ;}
	.st6{fill:#FEC815;}
	.st7{fill:#F8AA16;}
	.st8{fill:#F59A1A;}
	.st9{fill:#FECA14;}
	.st10{fill:#3BB7D5;}
	.st11{fill:none;stroke:#3BB7D5;stroke-width:1.4676;stroke-miterlimit:10;}
	.st12{fill:#22254C;}
	.st13{fill:none;stroke:#F4DA80;stroke-width:5.5219;stroke-miterlimit:10;}
	.st14{fill:#FCC031;}
	.st15{fill:#366990;}
	.st16{fill:none;stroke:#F4DA80;stroke-width:6.9087;stroke-miterlimit:10;}
	.st17{fill:#173F59;}
	.st18{fill:#593446;}
	.st19{fill:#1B4966;}
	.st20{fill:#151B31;}
	.st21{fill:#E3C59C;}
	.st22{fill:#E9D6B8;}
	.st23{fill:#171813;}
	.st24{fill:#3D473C;}
	.st25{fill:#864739;}
	.st26{fill:#AE5D49;}
	.st27{fill:#323B31;}
	.st28{fill:#B7C2C9;}
	.st29{fill:#889BA6;}
	.st30{fill:#E4EEF3;}
	.st31{fill:#E5E8EC;}
	.st32{fill:#CDD5D7;}
	.st33{fill:#E77B62;}
	.st34{fill:#B7BEC0;}
	.st35{fill:none;stroke:#3BB7D5;stroke-width:1.322;stroke-miterlimit:10;}
	.st36{fill:none;stroke:#3BB7D5;stroke-width:1.322;stroke-miterlimit:10;stroke-dasharray:7.8277,7.8277;}
	.st37{fill:#282824;}
	.st38{fill:#B5D1DE;}
	.st39{fill:#FCBF19;}
</style>
<g id="XMLID_978_">
	<defs>
		<rect id="SVGID_5_" x="-453.2" y="-82.7" width="1246.2" height="714"/>
	</defs>
	<clipPath id="SVGID_1_">
		<use xlink:href="#SVGID_5_"  style="overflow:visible;"/>
	</clipPath>
</g>
<g id="XMLID_977_">
	<defs>
		<rect id="SVGID_7_" x="-453.2" y="-82.7" width="1246.2" height="714"/>
	</defs>
	<clipPath id="SVGID_2_">
		<use xlink:href="#SVGID_7_"  style="overflow:visible;"/>
	</clipPath>
</g>
<g id="XMLID_399_">
	<g id="XMLID_969_">
		<path id="XMLID_397_" class="st0" d="M165.1,451.5c-2.2,0.8-21.7,3.4-27,16.5c-4.2,10.4-9,7.3-11.9,3.2c-2.9-4.1-3.9-9.2-9.3-5.9
			c-17.7,10.8-38.2,7.7-30.3-4c4.3-6.3-4.1-10.5-8.6-7.9c-9.6,5.6-18.7,5-16.3-3c2.3-7.8,0.5-12.9-4.3-12.1
			c-4.8,0.9-12.3,7.1-15.2-1.9c-1.2-3.6,4.2-11.3,11.8-12.7c4.3-0.8,18.3,0.4,11.5-8.5c-7-9.2,2.2-11.1,7.6-7.7
			c2,1.3,21.5,11.4,19.6,4.4c-2.1-8.3,4.9-10.7,12.9-3.2c3.6,3.4,9.3,13.1,11.9,9.8c2.7-3.3,7.4-7.1,12.9-1.8
			C139.9,425.7,160.5,453.2,165.1,451.5z"/>
		<path id="XMLID_396_" class="st1" d="M47.3,431.9c0,0,30-9.4,63.9,2.2c34,11.6,47.3,18.1,69.3,19.9"/>
		<path id="XMLID_395_" class="st1" d="M70.6,445.9c0,0,10-14,21.8-16.4"/>
		<path id="XMLID_394_" class="st1" d="M70.2,411.5c0,0,10.2,13.4,25.1,18.5"/>
		<path id="XMLID_393_" class="st1" d="M94,463.2c0,0,7.8-2.6,30-24.5"/>
		<path id="XMLID_392_" class="st1" d="M97.1,407.8c0,0,12.1,23.1,16.8,27.3"/>
		<path id="XMLID_391_" class="st1" d="M125.1,418.5c0,0,7.6,20,19.1,27.1"/>
	</g>
	<g id="XMLID_958_">
		<g id="XMLID_961_">
			<path id="XMLID_390_" class="st2" d="M56.9,400.8c0,0-4.1-1.8-6-5.5c-0.7-1.4-0.7-4.3,0.7-5c1.4-0.7,3.4,0.5,4.4,2.4
				C58,396.5,56.9,400.8,56.9,400.8z"/>
			<path id="XMLID_389_" class="st2" d="M60.5,406.9c0,0-1.3-3.7,0.1-7c0.5-1.2,2.4-2.9,3.7-2.4c1.3,0.5,1.8,2.5,1,4.3
				C63.9,405.1,60.5,406.9,60.5,406.9z"/>
			<path id="XMLID_388_" class="st2" d="M63.2,414.6c0,0,0.3-3.9,2.9-6.4c0.9-0.9,3.4-1.7,4.3-0.7c1,1,0.6,3-0.8,4.3
				C67.1,414.4,63.2,414.6,63.2,414.6z"/>
			<path id="XMLID_387_" class="st2" d="M60.5,407.1c0,0-3.2,1.6-6.8,1c-1.3-0.2-3.4-1.5-3.2-2.6c0.2-1.1,2-1.8,3.9-1.5
				C57.9,404.6,60.5,407.1,60.5,407.1z"/>
			<path id="XMLID_386_" class="st2" d="M63.7,414.4c0,0-3.3,1.7-6.8,1.1c-1.3-0.2-3.4-1.6-3.2-2.8c0.2-1.2,2-1.9,3.9-1.6
				C61.2,411.7,63.7,414.4,63.7,414.4z"/>
			<path id="XMLID_385_" class="st2" d="M66.2,425.1c0,0-2.6,1.8-5.3,1.4c-1-0.2-2.5-1.4-2.3-2.6c0.2-1.2,1.6-2,3.1-1.7
				C64.4,422.6,66.2,425.1,66.2,425.1z"/>
			<path id="XMLID_384_" class="st2" d="M66.7,425c0,0,0-3,1.8-5.3c0.6-0.8,2.4-1.8,3.2-1.2c0.8,0.6,0.6,2.2-0.3,3.4
				C69.6,424.2,66.7,425,66.7,425z"/>
		</g>
		<g id="XMLID_959_">
			<path id="XMLID_383_" class="st2" d="M85.6,465.1c0.9-0.1,1.5-0.4,1.5-0.4l-0.4-0.6l0.2,0.3l-0.2-0.3c-0.1,0-1.5,0.8-3.8-0.2
				c-2.5-1.2-5-4.1-7.4-8.7c-3.2-6.4-6-15.7-8.4-27.9c-2.7-14.1-6.7-20.9-9.3-25.4c-0.7-1.1-1.3-2.1-1.7-3l-0.7,0.3
				c0.4,0.9,1,1.9,1.7,3.1c2.6,4.4,6.5,11.1,9.3,25.1c5.3,27.1,11.7,35.2,16.2,37.2C83.9,465.1,84.9,465.2,85.6,465.1z"/>
		</g>
	</g>
	<g id="XMLID_937_">
		<g id="XMLID_956_">
			<path id="XMLID_382_" class="st0" d="M710.6,394c13.1-24.8,15.4-48.1,15-63.4c-0.4-16.5-3.9-27.3-4-27.4l-1,0.3
				c0,0.1,3.5,10.8,3.9,27.2c0.4,15.1-1.9,38.3-14.9,62.8L710.6,394z"/>
		</g>
		<path id="XMLID_381_" class="st0" d="M721.8,304.6c0,0,0.9-3.2-0.2-6.2c-0.4-1.1-2-2.7-3-2.3c-1,0.4-1.3,2.1-0.7,3.7
			C719,302.8,721.8,304.6,721.8,304.6z"/>
		<path id="XMLID_380_" class="st0" d="M722.9,310.1c0,0-1-2.8-3.4-4.5c-0.9-0.6-2.8-1-3.4-0.3c-0.5,0.8,0.1,2.2,1.4,3.1
			C719.9,310.1,722.9,310.1,722.9,310.1z"/>
		<path id="XMLID_379_" class="st0" d="M723.9,319.6c0,0-1.1-2.5-3.3-3.6c-0.8-0.4-2.6-0.3-3,0.5c-0.4,0.9,0.3,2.1,1.5,2.7
			C721.3,320.4,723.9,319.6,723.9,319.6z"/>
		<path id="XMLID_378_" class="st0" d="M722.5,309.8c0,0,2.7-0.1,4.5-1.7c0.7-0.6,1.3-2.2,0.6-3c-0.7-0.7-2-0.5-3,0.4
			C722.8,307.2,722.5,309.8,722.5,309.8z"/>
		<path id="XMLID_377_" class="st0" d="M720.1,369.7c0,0,2.6,0.9,5.2,0c0.9-0.3,2.3-1.6,2-2.4c-0.3-0.9-1.7-1.2-3.1-0.7
			C721.7,367.4,720.1,369.7,720.1,369.7z"/>
		<path id="XMLID_376_" class="st0" d="M724.5,319.5c0,0,3.1-0.3,5.3-2.4c0.8-0.7,1.6-2.6,1-3.4c-0.7-0.7-2.3-0.4-3.5,0.7
			C725.1,316.5,724.5,319.5,724.5,319.5z"/>
		<path id="XMLID_375_" class="st0" d="M725.5,329.7c0,0,3.1,0.2,5-1.6c0.7-0.7,1.3-2.5,0.4-3.4c-0.8-0.9-2.4-0.8-3.4,0.2
			C725.6,326.6,725.5,329.7,725.5,329.7z"/>
		<path id="XMLID_374_" class="st0" d="M724.8,329.6c0,0-0.6-3-2.9-4.5c-0.8-0.6-2.7-0.8-3.4,0.2c-0.7,0.9-0.1,2.4,1,3.2
			C721.8,330,724.8,329.6,724.8,329.6z"/>
		<path id="XMLID_373_" class="st0" d="M719.8,370c0,0,0.5-2.5-1-5.1c-0.5-0.9-2.1-2.3-3.1-2.1c-0.9,0.2-1,1.6-0.2,3
			C717,368.4,719.8,370,719.8,370z"/>
		<path id="XMLID_372_" class="st0" d="M724.3,349.4c0,0-0.9-1.8-3.3-2.8c-0.9-0.4-2.8-0.6-3.4-0.1c-0.6,0.5,0.1,1.4,1.3,1.9
			C721.4,349.5,724.3,349.4,724.3,349.4z"/>
		<path id="XMLID_371_" class="st0" d="M725.4,340.2c0,0,1.9-0.2,3.4-1.9c0.6-0.6,1.3-2.2,0.9-2.9c-0.3-0.7-1.3-0.4-2.1,0.5
			C726.1,337.6,725.4,340.2,725.4,340.2z"/>
		<path id="XMLID_370_" class="st0" d="M722.1,360.3c0,0,0.4-3.2-0.6-5.3c-0.4-0.8-1.5-1.5-2.2-0.7c-0.7,0.8-0.8,2.4-0.3,3.6
			C720.1,360,722.1,360.3,722.1,360.3z"/>
		<path id="XMLID_369_" class="st0" d="M724,349.8c0,0,3.7,0,6.4-1.5c1-0.5,1.9-2,1-2.6c-0.9-0.7-2.8-0.5-4.2,0.3
			C724.6,347.4,724,349.8,724,349.8z"/>
		<path id="XMLID_368_" class="st0" d="M722.4,360.8c0,0,3.5,0,5.9-1.4c0.8-0.5,1.6-1.9,0.7-2.5c-0.9-0.6-2.7-0.5-4,0.3
			C722.7,358.5,722.4,360.8,722.4,360.8z"/>
		<path id="XMLID_367_" class="st0" d="M691.9,314.4c0,0,2.6,0.9,5.2,0c0.9-0.3,2.3-1.6,2-2.4c-0.3-0.9-1.7-1.2-3.1-0.7
			C693.4,312.2,691.9,314.4,691.9,314.4z"/>
		<path id="XMLID_366_" class="st0" d="M716.9,378.9c0,0,0.1-2-1.4-4.1c-0.5-0.8-2.1-2-2.9-1.8c-0.7,0.2-0.7,1.3,0.1,2.4
			C714.3,377.4,716.9,378.9,716.9,378.9z"/>
		<path id="XMLID_365_" class="st0" d="M713.8,337.8c0,0-0.7-2.9-2.4-4.6c-0.6-0.6-1.9-1-2.2-0.2c-0.3,0.8,0.2,2.3,1,3.2
			C711.9,337.9,713.8,337.8,713.8,337.8z"/>
		<path id="XMLID_364_" class="st0" d="M725.1,340.8c0,0-0.6-2.5-2.9-4.6c-0.8-0.8-2.9-1.8-3.6-1.4c-0.7,0.4-0.2,1.7,1,2.8
			C721.9,339.8,725.1,340.8,725.1,340.8z"/>
	</g>
	<g id="XMLID_933_">
		<g id="XMLID_934_">
			<path id="XMLID_363_" class="st2" d="M704.7,427.5c-0.7-1.2-1.2-2.5-1.5-3.8c3,3.3,6.9,6.2,11.6,8.5c2.6,1.3,5.3,2.3,8.1,3
				c0.5-0.7,1-1.4,1.5-2.1c0.9-1.4,2.1-3,3.6-4.9c-4.1-0.9-7.7-2.7-10.4-5.3c3.6,1.9,7.9,2.8,12.5,2.7c5.7-6.9,13.5-15.4,18.5-21.4
				c-5.4-1.3-10-4.3-12.4-8.8c-0.2-0.4-0.4-0.8-0.6-1.2c3.6,4.1,9.3,6.4,15.7,6.7c0.1-0.1,0.2-0.3,0.3-0.4c2-2.7,4.9-6.2,8-9.9
				c-0.7-1.1-1.5-2-2.3-2.9c1.1,0.6,2.2,1.3,3.1,2c2.4-2.9,4.9-5.9,7-8.8c-6.7-0.7-12.4-3.7-15.5-8.6c5.1,3.3,12.1,4.4,19.5,3.1
				c0.8-1.3,1.5-2.5,2-3.6c3.4-7.5,1.7-26.5,0.3-26.2c-3.5,0.9-6.2-2.2-22.7-1.7c-3.7,0.1-7.2,0.6-10.7,1.3
				c-1.3,4.9-0.9,10.7,1.7,16.1c-1.8-1.8-3.3-3.8-4.6-6.1c-1.5-2.8-2.5-5.7-3-8.5c-5.1,1.5-10,3.6-14.7,6.1
				c-0.2,3.4,0.6,7.1,2.6,10.7c0.3,0.6,0.6,1.1,1,1.6c-2.7-1.8-5.2-4.4-7-7.6c-0.4-0.7-0.8-1.5-1.1-2.3c-3.1,1.8-6.1,3.7-9.1,5.7
				c-2.6,1.7-5.4,4.3-8.4,7.3c0.2,0.1,0.4,0.3,0.6,0.4c1.1,0.8,2.2,1.7,3.2,2.6c-1.8-0.7-3.5-1.3-5.1-1.6c-2.5,2.6-5,5.5-7.6,8.6
				c1.5,2.9,4.2,6.2,7.9,9.4c-3.4-1.4-7.1-3.4-10.6-6c-3.1,3.9-6.2,8-9.3,12.2c3,2,6.1,3.6,8.9,4.7c-2.7,0.3-6.5-0.5-10.7-2.3
				c-4.5,6.2-8.8,12.5-12.8,18.4c3.8,2,7.4,3.3,10.4,3.8c-2.4,1.4-6.9,0.9-12.1-1.2c-0.7,1.1-1.4,2.1-2.1,3.1
				c-13.8,20.9,8.1,34.5,8.1,34.5s24.8,3.1,32.8,1c4.6-1.2,15.9-11.2,22.2-18.9C714.1,436.4,707.8,433.1,704.7,427.5z"/>
			<path id="XMLID_362_" class="st0" d="M666.4,454.9c0,0,24.8,3.1,32.8,1c4.6-1.2,15.9-11.2,22.2-18.9c-7.4-0.6-13.7-3.8-16.8-9.5
				c-0.7-1.2-1.2-2.5-1.5-3.8c3,3.3,6.9,6.2,11.6,8.5c2.6,1.3,5.3,2.3,8.1,3c0.5-0.7,1-1.4,1.5-2.1c0.9-1.4,2.1-3,3.6-4.9
				c-4.1-0.9-7.7-2.7-10.4-5.3c3.6,1.9,7.9,2.8,12.5,2.7c5.7-6.9,13.5-15.4,18.5-21.4c-5.4-1.3-10-4.3-12.4-8.8
				c-0.2-0.4-0.4-0.8-0.6-1.2c3.6,4.1,9.3,6.4,15.7,6.7c0.1-0.1,0.2-0.3,0.3-0.4c2-2.7,4.9-6.2,8-9.9c-0.7-1.1-1.5-2-2.3-2.9
				c1.1,0.6,2.2,1.3,3.1,2c2.4-2.9,4.9-5.9,7-8.8c-6.7-0.7-12.4-3.7-15.5-8.6c5.1,3.3,12.1,4.4,19.5,3.1c0.8-1.3,1.5-2.5,2-3.6
				c3.2-7.1,1.8-24.5,0.5-26.1c-50.2,33.6-87.9,72.4-107.8,109.1C666.2,454.8,666.4,454.9,666.4,454.9z"/>
		</g>
	</g>
	<g id="XMLID_919_">
		<path id="XMLID_361_" class="st3" d="M725.9,424.7c-11.6,17.2-29.4,27.3-47,28.6c-5.3-16.9-2.6-37.1,9.1-54.3
			c11.6-17.2,29.4-27.3,47-28.6C740.3,387.3,737.5,407.6,725.9,424.7z"/>
		<g id="XMLID_920_">
			<line id="XMLID_360_" class="st4" x1="730.8" y1="377.1" x2="681.2" y2="450.4"/>
			<line id="XMLID_359_" class="st4" x1="720.5" y1="392.2" x2="717.9" y2="378.6"/>
			<line id="XMLID_358_" class="st4" x1="712" y1="404.7" x2="708.8" y2="387.9"/>
			<line id="XMLID_357_" class="st4" x1="703.6" y1="417.2" x2="698.2" y2="389.1"/>
			<line id="XMLID_356_" class="st4" x1="695.1" y1="429.7" x2="689.9" y2="402.3"/>
			<line id="XMLID_355_" class="st4" x1="686.7" y1="442.1" x2="683.8" y2="426.9"/>
			<line id="XMLID_354_" class="st4" x1="721.7" y1="390.8" x2="735.3" y2="388.2"/>
			<line id="XMLID_353_" class="st4" x1="713.2" y1="403.3" x2="734.5" y2="399.2"/>
			<line id="XMLID_352_" class="st4" x1="704.8" y1="415.8" x2="731.4" y2="410.6"/>
			<line id="XMLID_351_" class="st4" x1="696.4" y1="428.3" x2="723.7" y2="423"/>
			<line id="XMLID_350_" class="st4" x1="687.9" y1="440.8" x2="711.4" y2="436.2"/>
		</g>
	</g>
	<g id="XMLID_905_">
		<path id="XMLID_349_" class="st2" d="M728.9,456.4c-19.1,8.2-39.4,7-55-1.4c4.7-17.1,17.9-32.6,37-40.8c19.1-8.2,39.4-7,55,1.4
			C761.3,432.7,748,448.2,728.9,456.4z"/>
		<g id="XMLID_906_">
			<line id="XMLID_348_" class="st4" x1="758.8" y1="419" x2="677.5" y2="453.7"/>
			<line id="XMLID_347_" class="st4" x1="742" y1="426" x2="747.2" y2="413.1"/>
			<line id="XMLID_346_" class="st4" x1="728.1" y1="432" x2="734.5" y2="416.1"/>
			<line id="XMLID_345_" class="st4" x1="714.3" y1="437.9" x2="724.9" y2="411.3"/>
			<line id="XMLID_344_" class="st4" x1="700.4" y1="443.8" x2="710.8" y2="418"/>
			<line id="XMLID_343_" class="st4" x1="686.6" y1="449.8" x2="692.3" y2="435.4"/>
			<line id="XMLID_342_" class="st4" x1="743.8" y1="425.5" x2="756.6" y2="430.7"/>
			<line id="XMLID_341_" class="st4" x1="729.9" y1="431.5" x2="750" y2="439.5"/>
			<line id="XMLID_340_" class="st4" x1="716" y1="437.4" x2="741.2" y2="447.5"/>
			<line id="XMLID_339_" class="st4" x1="702.2" y1="443.3" x2="728" y2="453.7"/>
			<line id="XMLID_338_" class="st4" x1="688.3" y1="449.3" x2="710.5" y2="458.2"/>
		</g>
	</g>
	<g id="XMLID_734_">
		<g id="XMLID_820_">
			<g id="XMLID_858_">
				<g id="XMLID_882_">
					<g id="XMLID_883_" class="st5">
						<g id="XMLID_903_">
							<path id="XMLID_337_" class="st6" d="M611.3,463.6c-0.1-3.2-0.3-7.5-0.4-10.8c0.1,2.2,0.3,8.2,0.4,10.5
								C611.3,463.4,611.3,463.5,611.3,463.6z"/>
						</g>
						<g id="XMLID_901_">
							<path id="XMLID_336_" class="st7" d="M700.3,448.3c0.2,4,0.3,7.9,0.5,11.9c0.1,3-3.9,6.2-12.1,9c-17.8,6-48.7,7.6-69,3.6
								c-10.9-2.1-16.6-5.4-16.7-8.9l-0.4-11.9c0.1,3.5,5.8,6.8,16.7,8.9c20.3,3.9,51.2,2.3,69-3.6
								C696.4,454.5,700.4,451.3,700.3,448.3z"/>
						</g>
						<g id="XMLID_897_">
							<path id="XMLID_898_" class="st6" d="M683.6,439.3c20.3,4,22.4,12,4.6,17.9c-17.8,6-48.7,7.6-69,3.6
								c-20.3-4-22.4-12-4.6-17.9C632.4,437,663.3,435.4,683.6,439.3z M624.7,459.1c16.8,3.3,42.4,1.9,57.1-3
								c14.7-4.9,13-11.6-3.8-14.9c-16.8-3.3-42.4-1.9-57.1,3C606.2,449.1,607.9,455.8,624.7,459.1"/>
						</g>
						<path id="XMLID_333_" class="st7" d="M678,441.2c16.8,3.3,18.5,9.9,3.8,14.9c-14.7,4.9-40.3,6.3-57.1,3
							c-16.8-3.3-18.5-9.9-3.8-14.9C635.6,439.3,661.2,437.9,678,441.2z"/>
						<path id="XMLID_332_" class="st8" d="M620.9,445.7c14.7-4.9,40.3-6.3,57.1-3c8.4,1.6,13,4.1,13.7,6.8
							c0.8-3.2-3.8-6.3-13.7-8.2c-16.8-3.3-42.4-1.9-57.1,3c-7.4,2.5-10.6,5.4-9.9,8.1C611.6,450,614.8,447.7,620.9,445.7z"/>
						<g id="XMLID_890_">
							<path id="XMLID_891_" class="st8" d="M661.8,452.6c1.3,1.1,0.3,2.5-3,3.6c-3.9,1.3-9.8,1.9-15.1,1.7
								c-1.9-0.1-3.7-0.3-5.3-0.6l-0.9-0.2l-0.3,0.1l-1.3,0.4l-0.7-0.1l-3.8-0.7l1.6-0.5l-2.7-0.5l-0.3,0.1l-1.3,0.4l-0.7-0.1
								l-3.8-0.7l1.6-0.5l-2.7-0.5l3.6-1.2l0.3-0.1l2,0.4l0.7,0.1l11.1-3.7l4-1.3l9.5-3.2l-2.7-0.5l3.6-1.2l0.3-0.1l2,0.4l0.7,0.1
								l1.3-0.4l0.3-0.1l4.5,0.9l-1.6,0.5l2,0.4l0.7,0.1l1.3-0.4l0.3-0.1l4.5,0.9l-1.6,0.5c5.5,1.1,6.1,3.2,1.2,4.9
								C668.8,452,665.3,452.5,661.8,452.6z M645.3,456.3c3.1,0.2,6.7-0.2,9-1c3.1-1,2.7-2.4-0.8-3.1l-8.2-1.6l-0.3,0.1l-10.8,3.6
								l8.1,1.6C643.2,456.2,644.2,456.3,645.3,456.3 M658.5,446.3l-9.2,3.1l7.2,1.4c0.7,0.1,1.5,0.2,2.4,0.3
								c2.7,0.1,5.8-0.1,7.8-0.8c2.6-0.9,2.3-2.1-0.7-2.7l-7.2-1.4L658.5,446.3"/>
						</g>
						<g id="XMLID_885_">
							<path id="XMLID_886_" class="st9" d="M661.8,451.2c1.3,1.1,0.3,2.5-3,3.6c-3.9,1.3-9.8,1.9-15.1,1.7
								c-1.9-0.1-3.7-0.3-5.3-0.6l-0.9-0.2l-0.3,0.1l-1.3,0.4l-0.7-0.1l-3.8-0.7l1.6-0.5l-2.7-0.5l-0.3,0.1l-1.3,0.4l-0.7-0.1
								l-3.8-0.7l1.6-0.5l-2.7-0.5l3.6-1.2l0.3-0.1l2,0.4l0.7,0.1l11.1-3.7l4-1.3l9.5-3.2l-2.7-0.5l3.6-1.2l0.3-0.1l2,0.4l0.7,0.1
								l1.3-0.4l0.3-0.1l4.5,0.9l-1.6,0.5l2,0.4l0.7,0.1l1.3-0.4l0.3-0.1l4.5,0.9l-1.6,0.5c5.5,1.1,6.1,3.2,1.2,4.9
								C668.8,450.5,665.3,451,661.8,451.2z M645.3,454.9c3.1,0.2,6.7-0.2,9-1c3.1-1,2.7-2.4-0.8-3.1l-8.2-1.6l-0.3,0.1l-10.8,3.6
								l8.1,1.6C643.2,454.7,644.2,454.8,645.3,454.9 M658.5,444.8l-9.2,3.1l7.2,1.4c0.7,0.1,1.5,0.2,2.4,0.3
								c2.7,0.2,5.8-0.1,7.8-0.8c2.6-0.9,2.3-2.1-0.7-2.7l-7.2-1.4L658.5,444.8"/>
						</g>
						<path id="XMLID_325_" class="st8" d="M607.2,457.2v11.7c2.8,1.5,7,2.9,12.5,4c5.5,1.1,11.7,1.7,18.2,2v-11.9
							c-6.7-0.3-13-0.9-18.6-2C614,459.9,609.9,458.6,607.2,457.2z"/>
					</g>
				</g>
				<g id="XMLID_859_">
					<g id="XMLID_860_" class="st5">
						<g id="XMLID_880_">
							<path id="XMLID_324_" class="st6" d="M615.8,449.5c-0.1-3.2-0.3-7.5-0.4-10.8c0.1,2.2,0.3,8.2,0.4,10.5
								C615.8,449.4,615.8,449.5,615.8,449.5z"/>
						</g>
						<g id="XMLID_878_">
							<path id="XMLID_323_" class="st7" d="M704.8,434.2c0.2,4,0.3,7.9,0.5,11.9c0.1,3-3.9,6.2-12.1,9c-17.8,6-48.7,7.6-69,3.6
								c-10.9-2.1-16.6-5.4-16.7-8.9l-0.5-11.9c0.1,3.5,5.8,6.8,16.7,8.9c20.3,4,51.2,2.3,69-3.6
								C700.9,440.5,704.9,437.3,704.8,434.2z"/>
						</g>
						<g id="XMLID_874_">
							<path id="XMLID_875_" class="st6" d="M688.1,425.3c20.3,4,22.4,12,4.6,17.9c-17.8,6-48.7,7.6-69,3.6
								c-20.3-4-22.4-12-4.6-17.9C636.9,423,667.8,421.4,688.1,425.3z M629.2,445c16.8,3.3,42.4,1.9,57.1-3
								c14.7-4.9,13-11.6-3.8-14.9c-16.8-3.3-42.4-1.9-57.1,3C610.7,435.1,612.4,441.8,629.2,445"/>
						</g>
						<path id="XMLID_320_" class="st7" d="M682.6,427.2c16.8,3.3,18.5,9.9,3.8,14.9c-14.7,4.9-40.3,6.3-57.1,3
							c-16.8-3.3-18.5-9.9-3.8-14.9C640.1,425.2,665.7,423.9,682.6,427.2z"/>
						<path id="XMLID_319_" class="st8" d="M625.4,431.6c14.7-4.9,40.3-6.3,57.1-3c8.4,1.6,13,4.1,13.7,6.8
							c0.8-3.2-3.8-6.3-13.7-8.2c-16.8-3.3-42.4-1.9-57.1,3c-7.4,2.5-10.6,5.4-9.9,8.1C616.1,436,619.4,433.7,625.4,431.6z"/>
						<g id="XMLID_867_">
							<path id="XMLID_868_" class="st8" d="M666.3,438.6c1.3,1.1,0.3,2.5-3,3.6c-3.9,1.3-9.8,1.9-15.1,1.7
								c-1.9-0.1-3.7-0.3-5.3-0.6l-0.9-0.2l-0.3,0.1l-1.3,0.4l-0.7-0.1l-3.8-0.7l1.6-0.5l-2.7-0.5l-0.3,0.1l-1.3,0.4l-0.7-0.1
								l-3.8-0.7l1.6-0.5l-2.7-0.5l3.6-1.2l0.3-0.1l2,0.4l0.7,0.1l11.1-3.7l4-1.3l9.5-3.2l-2.7-0.5l3.6-1.2l0.3-0.1l2,0.4l0.7,0.1
								l1.3-0.4l0.3-0.1l4.5,0.9l-1.6,0.5l2,0.4l0.7,0.1l1.3-0.4l0.3-0.1l4.5,0.9l-1.6,0.5c5.5,1.1,6.1,3.2,1.2,4.9
								C673.3,437.9,669.8,438.5,666.3,438.6z M649.8,442.3c3.1,0.2,6.7-0.2,9-1c3.1-1,2.7-2.4-0.8-3.1l-8.1-1.6l-0.3,0.1l-10.8,3.6
								l8.2,1.6C647.7,442.2,648.7,442.3,649.8,442.3 M663,432.3l-9.2,3.1l7.2,1.4c0.7,0.1,1.5,0.2,2.4,0.3c2.7,0.1,5.8-0.2,7.8-0.8
								c2.6-0.9,2.3-2.1-0.7-2.7l-7.2-1.4L663,432.3"/>
						</g>
						<g id="XMLID_862_">
							<path id="XMLID_863_" class="st9" d="M666.3,437.1c1.3,1.1,0.3,2.5-3,3.6c-3.9,1.3-9.8,1.9-15.1,1.7
								c-1.9-0.1-3.7-0.3-5.3-0.6l-0.9-0.2l-0.3,0.1l-1.3,0.4l-0.7-0.1l-3.8-0.7l1.6-0.5l-2.7-0.5l-0.3,0.1l-1.3,0.4l-0.7-0.1
								l-3.8-0.7l1.6-0.5l-2.7-0.5l3.6-1.2l0.3-0.1l2,0.4l0.7,0.1l11.1-3.7l4-1.3l9.5-3.2l-2.7-0.5l3.6-1.2l0.3-0.1l2,0.4l0.7,0.1
								l1.3-0.4l0.3-0.1l4.5,0.9l-1.6,0.5l2,0.4l0.7,0.1l1.3-0.4l0.3-0.1l4.5,0.9l-1.6,0.5c5.5,1.1,6.1,3.2,1.2,4.9
								C673.3,436.5,669.8,437,666.3,437.1z M649.8,440.8c3.1,0.2,6.7-0.2,9-1c3.1-1,2.7-2.4-0.8-3.1l-8.1-1.6l-0.3,0.1l-10.8,3.6
								l8.2,1.6C647.7,440.7,648.7,440.8,649.8,440.8 M663,430.8l-9.2,3.1l7.2,1.4c0.7,0.1,1.5,0.2,2.4,0.3c2.7,0.1,5.8-0.1,7.8-0.8
								c2.6-0.9,2.3-2.1-0.7-2.7l-7.2-1.4L663,430.8"/>
						</g>
						<path id="XMLID_312_" class="st8" d="M611.7,443.1v11.7c2.8,1.5,7,2.9,12.5,4c5.5,1.1,11.7,1.7,18.2,2v-11.9
							c-6.7-0.3-13-0.9-18.6-2C618.5,445.9,614.4,444.6,611.7,443.1z"/>
					</g>
				</g>
			</g>
			<g id="XMLID_821_">
				<g id="XMLID_835_">
					<g id="XMLID_836_" class="st5">
						<g id="XMLID_856_">
							<path id="XMLID_311_" class="st6" d="M611.3,433.1c-0.1-3.2-0.3-7.5-0.4-10.8c0.1,2.2,0.3,8.2,0.4,10.5
								C611.3,432.9,611.3,433,611.3,433.1z"/>
						</g>
						<g id="XMLID_854_">
							<path id="XMLID_310_" class="st7" d="M700.3,417.8c0.2,4,0.3,7.9,0.5,11.9c0.1,3-3.9,6.2-12.1,9c-17.8,6-48.7,7.6-69,3.6
								c-10.9-2.1-16.6-5.4-16.7-8.9l-0.4-11.9c0.1,3.5,5.8,6.8,16.7,8.9c20.3,4,51.2,2.3,69-3.6C696.4,424,700.4,420.8,700.3,417.8
								z"/>
						</g>
						<g id="XMLID_850_">
							<path id="XMLID_851_" class="st6" d="M683.6,408.9c20.3,4,22.4,12,4.6,17.9c-17.8,6-48.7,7.6-69,3.6
								c-20.3-3.9-22.4-12-4.6-17.9C632.4,406.5,663.3,404.9,683.6,408.9z M624.7,428.6c16.8,3.3,42.4,1.9,57.1-3
								c14.7-4.9,13-11.6-3.8-14.9c-16.8-3.3-42.4-1.9-57.1,3C606.2,418.7,607.9,425.3,624.7,428.6"/>
						</g>
						<path id="XMLID_307_" class="st7" d="M678,410.7c16.8,3.3,18.5,9.9,3.8,14.9c-14.7,4.9-40.3,6.3-57.1,3
							c-16.8-3.3-18.5-9.9-3.8-14.9C635.6,408.8,661.2,407.4,678,410.7z"/>
						<path id="XMLID_306_" class="st8" d="M620.9,415.2c14.7-4.9,40.3-6.3,57.1-3c8.4,1.6,13,4.1,13.7,6.8
							c0.8-3.2-3.8-6.3-13.7-8.3c-16.8-3.3-42.4-1.9-57.1,3c-7.4,2.5-10.6,5.4-9.9,8.1C611.6,419.6,614.8,417.2,620.9,415.2z"/>
						<g id="XMLID_843_">
							<path id="XMLID_844_" class="st8" d="M661.8,422.2c1.3,1.1,0.3,2.5-3,3.6c-3.9,1.3-9.8,1.9-15.1,1.7
								c-1.9-0.1-3.7-0.3-5.3-0.6l-0.9-0.2l-0.3,0.1l-1.3,0.4l-0.7-0.1l-3.8-0.7l1.6-0.5l-2.7-0.5l-0.3,0.1l-1.3,0.4l-0.7-0.1
								l-3.8-0.7l1.6-0.5l-2.7-0.5l3.6-1.2l0.3-0.1l2,0.4l0.7,0.1l11.1-3.7l4-1.3l9.5-3.2l-2.7-0.5l3.6-1.2l0.3-0.1l2,0.4l0.7,0.1
								l1.3-0.4l0.3-0.1l4.5,0.9l-1.6,0.5l2,0.4l0.7,0.1l1.3-0.4l0.3-0.1l4.5,0.9l-1.6,0.5c5.5,1.1,6.1,3.2,1.2,4.9
								C668.8,421.5,665.3,422,661.8,422.2z M645.3,425.9c3.1,0.2,6.7-0.2,9-1c3.1-1,2.7-2.4-0.8-3.1l-8.2-1.6l-0.3,0.1l-10.8,3.6
								l8.1,1.6C643.2,425.7,644.2,425.8,645.3,425.9 M658.5,415.8l-9.2,3.1l7.2,1.4c0.7,0.1,1.5,0.2,2.4,0.3
								c2.7,0.1,5.8-0.2,7.8-0.8c2.6-0.9,2.3-2.1-0.7-2.7l-7.2-1.4L658.5,415.8"/>
						</g>
						<g id="XMLID_838_">
							<path id="XMLID_839_" class="st9" d="M661.8,420.7c1.3,1.1,0.3,2.5-3,3.6c-3.9,1.3-9.8,1.9-15.1,1.7
								c-1.9-0.1-3.7-0.3-5.3-0.6l-0.9-0.2l-0.3,0.1l-1.3,0.4l-0.7-0.1l-3.8-0.7l1.6-0.5l-2.7-0.5l-0.3,0.1l-1.3,0.4l-0.7-0.1
								l-3.8-0.7l1.6-0.5l-2.7-0.5l3.6-1.2l0.3-0.1l2,0.4l0.7,0.1l11.1-3.7l4-1.3l9.5-3.2l-2.7-0.5l3.6-1.2l0.3-0.1l2,0.4l0.7,0.1
								l1.3-0.4l0.3-0.1l4.5,0.9l-1.6,0.5l2,0.4l0.7,0.1l1.3-0.4l0.3-0.1l4.5,0.9l-1.6,0.5c5.5,1.1,6.1,3.2,1.2,4.9
								C668.8,420,665.3,420.5,661.8,420.7z M645.3,424.4c3.1,0.2,6.7-0.2,9-1c3.1-1,2.7-2.4-0.8-3.1l-8.2-1.6l-0.3,0.1l-10.8,3.6
								l8.1,1.6C643.2,424.2,644.2,424.3,645.3,424.4 M658.5,414.3l-9.2,3.1l7.2,1.4c0.7,0.1,1.5,0.2,2.4,0.3
								c2.7,0.2,5.8-0.1,7.8-0.8c2.6-0.9,2.3-2.1-0.7-2.7l-7.2-1.4L658.5,414.3"/>
						</g>
						<path id="XMLID_299_" class="st8" d="M607.2,426.7v11.7c2.8,1.5,7,2.9,12.5,4c5.5,1.1,11.7,1.7,18.2,2v-11.9
							c-6.7-0.3-13-0.9-18.6-2C614,429.4,609.9,428.1,607.2,426.7z"/>
					</g>
				</g>
				<g id="XMLID_822_">
					<g id="XMLID_823_" class="st5">
						<g id="XMLID_833_">
							<path id="XMLID_298_" class="st6" d="M615.8,419.1c-0.1-3.2-0.3-7.5-0.4-10.8c0.1,2.2,0.3,8.2,0.4,10.5
								C615.8,418.9,615.8,419,615.8,419.1z"/>
						</g>
						<g id="XMLID_831_">
							<path id="XMLID_297_" class="st7" d="M704.8,403.8c0.2,4,0.3,7.9,0.5,11.9c0.1,3-3.9,6.2-12.1,9c-17.8,6-48.7,7.6-69,3.6
								c-10.9-2.1-16.6-5.4-16.7-8.9l-0.5-11.9c0.1,3.5,5.8,6.8,16.7,8.9c20.3,3.9,51.2,2.3,69-3.6
								C700.9,410,704.9,406.8,704.8,403.8z"/>
						</g>
						<g id="XMLID_827_">
							<path id="XMLID_828_" class="st6" d="M688.1,394.8c20.3,4,22.4,12,4.6,17.9c-17.8,6-48.7,7.6-69,3.6
								c-20.3-4-22.4-12-4.6-17.9C636.9,392.5,667.8,390.9,688.1,394.8z M629.2,414.5c16.8,3.3,42.4,1.9,57.1-3
								c14.7-4.9,13-11.6-3.8-14.9c-16.8-3.3-42.4-1.9-57.1,3C610.7,404.6,612.4,411.3,629.2,414.5"/>
						</g>
						<path id="XMLID_294_" class="st7" d="M682.6,396.7c16.8,3.3,18.5,9.9,3.8,14.9c-14.7,4.9-40.3,6.3-57.1,3
							c-16.8-3.3-18.5-9.9-3.8-14.9C640.1,394.8,665.7,393.4,682.6,396.7z"/>
						<path id="XMLID_293_" class="st8" d="M625.4,401.2c14.7-4.9,40.3-6.3,57.1-3c8.4,1.6,13,4.1,13.7,6.8
							c0.8-3.2-3.8-6.3-13.7-8.3c-16.8-3.3-42.4-1.9-57.1,3c-7.4,2.5-10.6,5.4-9.9,8.1C616.1,405.5,619.4,403.2,625.4,401.2z"/>
						<path id="XMLID_292_" class="st8" d="M611.7,412.6v11.7c2.8,1.5,7,2.9,12.5,4c5.5,1.1,11.7,1.7,18.2,2v-11.9
							c-6.7-0.3-13-0.9-18.6-2C618.5,415.4,614.4,414.1,611.7,412.6z"/>
					</g>
				</g>
			</g>
		</g>
		<g id="XMLID_735_">
			<g id="XMLID_773_">
				<g id="XMLID_797_">
					<g id="XMLID_798_" class="st5">
						<g id="XMLID_818_">
							<path id="XMLID_291_" class="st6" d="M611.3,403.8c-0.1-3.2-0.3-7.5-0.4-10.8c0.1,2.2,0.3,8.2,0.4,10.5
								C611.3,403.7,611.3,403.8,611.3,403.8z"/>
						</g>
						<g id="XMLID_816_">
							<path id="XMLID_290_" class="st7" d="M700.3,388.6c0.2,4,0.3,7.9,0.5,11.9c0.1,3-3.9,6.2-12.1,9c-17.8,6-48.7,7.6-69,3.6
								c-10.9-2.1-16.6-5.4-16.7-8.9l-0.4-11.9c0.1,3.5,5.8,6.8,16.7,8.9c20.3,3.9,51.2,2.3,69-3.6
								C696.4,394.8,700.4,391.6,700.3,388.6z"/>
						</g>
						<g id="XMLID_812_">
							<path id="XMLID_813_" class="st6" d="M683.6,379.6c20.3,4,22.4,12,4.6,17.9c-17.8,6-48.7,7.6-69,3.6
								c-20.3-3.9-22.4-12-4.6-17.9C632.4,377.3,663.3,375.7,683.6,379.6z M624.7,399.3c16.8,3.3,42.4,1.9,57.1-3
								c14.7-4.9,13-11.6-3.8-14.9c-16.8-3.3-42.4-1.9-57.1,3C606.2,389.4,607.9,396.1,624.7,399.3"/>
						</g>
						<path id="XMLID_287_" class="st7" d="M678,381.5c16.8,3.3,18.5,9.9,3.8,14.9c-14.7,4.9-40.3,6.3-57.1,3
							c-16.8-3.3-18.5-9.9-3.8-14.9C635.6,379.5,661.2,378.2,678,381.5z"/>
						<path id="XMLID_286_" class="st8" d="M620.9,386c14.7-4.9,40.3-6.3,57.1-3c8.4,1.6,13,4.1,13.7,6.8c0.8-3.2-3.8-6.3-13.7-8.2
							c-16.8-3.3-42.4-1.9-57.1,3c-7.4,2.5-10.6,5.4-9.9,8.1C611.6,390.3,614.8,388,620.9,386z"/>
						<g id="XMLID_805_">
							<path id="XMLID_806_" class="st8" d="M661.8,392.9c1.3,1.1,0.3,2.5-3,3.6c-3.9,1.3-9.8,1.9-15.1,1.7
								c-1.9-0.1-3.7-0.3-5.3-0.6l-0.9-0.2l-0.3,0.1l-1.3,0.4l-0.7-0.1l-3.8-0.7l1.6-0.5l-2.7-0.5l-0.3,0.1l-1.3,0.4l-0.7-0.1
								l-3.8-0.7l1.6-0.5l-2.7-0.5l3.6-1.2l0.3-0.1l2,0.4l0.7,0.1l11.1-3.7l4-1.3l9.5-3.2l-2.7-0.5l3.6-1.2l0.3-0.1l2,0.4l0.7,0.1
								l1.3-0.4l0.3-0.1l4.5,0.9l-1.6,0.5l2,0.4l0.7,0.1l1.3-0.4l0.3-0.1l4.5,0.9l-1.6,0.5c5.5,1.1,6.1,3.2,1.2,4.9
								C668.8,392.2,665.3,392.8,661.8,392.9z M645.3,396.6c3.1,0.2,6.7-0.2,9-1c3.1-1,2.7-2.4-0.8-3.1l-8.2-1.6l-0.3,0.1l-10.8,3.6
								l8.1,1.6C643.2,396.5,644.2,396.6,645.3,396.6 M658.5,386.6l-9.2,3.1l7.2,1.4c0.7,0.1,1.5,0.2,2.4,0.3
								c2.7,0.1,5.8-0.1,7.8-0.8c2.6-0.9,2.3-2.1-0.7-2.7l-7.2-1.4L658.5,386.6"/>
						</g>
						<g id="XMLID_800_">
							<path id="XMLID_801_" class="st9" d="M661.8,391.4c1.3,1.1,0.3,2.5-3,3.6c-3.9,1.3-9.8,1.9-15.1,1.7
								c-1.9-0.1-3.7-0.3-5.3-0.6l-0.9-0.2l-0.3,0.1l-1.3,0.4l-0.7-0.1l-3.8-0.7l1.6-0.5l-2.7-0.5l-0.3,0.1l-1.3,0.4l-0.7-0.1
								l-3.8-0.7l1.6-0.5l-2.7-0.5l3.6-1.2l0.3-0.1l2,0.4l0.7,0.1l11.1-3.7l4-1.3l9.5-3.2l-2.7-0.5l3.6-1.2l0.3-0.1l2,0.4l0.7,0.1
								l1.3-0.4l0.3-0.1l4.5,0.9l-1.6,0.5l2,0.4l0.7,0.1l1.3-0.4l0.3-0.1l4.5,0.9l-1.6,0.5c5.5,1.1,6.1,3.2,1.2,4.9
								C668.8,390.8,665.3,391.3,661.8,391.4z M645.3,395.1c3.1,0.2,6.7-0.2,9-1c3.1-1,2.7-2.4-0.8-3.1l-8.2-1.6l-0.3,0.1l-10.8,3.6
								l8.1,1.6C643.2,395,644.2,395.1,645.3,395.1 M658.5,385.1l-9.2,3.1l7.2,1.4c0.7,0.1,1.5,0.2,2.4,0.3c2.7,0.2,5.8-0.1,7.8-0.8
								c2.6-0.9,2.3-2.1-0.7-2.7l-7.2-1.4L658.5,385.1"/>
						</g>
						<path id="XMLID_279_" class="st8" d="M607.2,397.4v11.7c2.8,1.5,7,2.9,12.5,4c5.5,1.1,11.7,1.7,18.2,2v-11.9
							c-6.7-0.3-13-0.9-18.6-2C614,400.2,609.9,398.9,607.2,397.4z"/>
					</g>
				</g>
				<g id="XMLID_774_">
					<g id="XMLID_775_" class="st5">
						<g id="XMLID_795_">
							<path id="XMLID_278_" class="st6" d="M615.8,389.8c-0.1-3.2-0.3-7.5-0.4-10.8c0.1,2.2,0.3,8.2,0.4,10.5
								C615.8,389.7,615.8,389.7,615.8,389.8z"/>
						</g>
						<g id="XMLID_793_">
							<path id="XMLID_277_" class="st7" d="M704.8,374.5c0.2,4,0.3,7.9,0.5,11.9c0.1,3-3.9,6.2-12.1,9c-17.8,6-48.7,7.6-69,3.6
								c-10.9-2.1-16.6-5.4-16.7-8.9l-0.5-11.9c0.1,3.5,5.8,6.8,16.7,8.9c20.3,4,51.2,2.3,69-3.6
								C700.9,380.8,704.9,377.6,704.8,374.5z"/>
						</g>
						<g id="XMLID_789_">
							<path id="XMLID_790_" class="st6" d="M688.1,365.6c20.3,4,22.4,12,4.6,17.9c-17.8,6-48.7,7.6-69,3.6
								c-20.3-4-22.4-12-4.6-17.9C636.9,363.3,667.8,361.6,688.1,365.6z M629.2,385.3c16.8,3.3,42.4,1.9,57.1-3
								c14.7-4.9,13-11.6-3.8-14.9c-16.8-3.3-42.4-1.9-57.1,3C610.7,375.4,612.4,382,629.2,385.3"/>
						</g>
						<path id="XMLID_274_" class="st7" d="M682.6,367.4c16.8,3.3,18.5,9.9,3.8,14.9c-14.7,4.9-40.3,6.3-57.1,3
							c-16.8-3.3-18.5-9.9-3.8-14.9C640.1,365.5,665.7,364.2,682.6,367.4z"/>
						<path id="XMLID_273_" class="st8" d="M625.4,371.9c14.7-4.9,40.3-6.3,57.1-3c8.4,1.6,13,4.1,13.7,6.8
							c0.8-3.2-3.8-6.3-13.7-8.2c-16.8-3.3-42.4-1.9-57.1,3c-7.4,2.5-10.6,5.4-9.9,8.1C616.1,376.3,619.4,374,625.4,371.9z"/>
						<g id="XMLID_782_">
							<path id="XMLID_783_" class="st8" d="M666.3,378.9c1.3,1.1,0.3,2.5-3,3.6c-3.9,1.3-9.8,1.9-15.1,1.7
								c-1.9-0.1-3.7-0.3-5.3-0.6l-0.9-0.2l-0.3,0.1l-1.3,0.4l-0.7-0.1l-3.8-0.7l1.6-0.5l-2.7-0.5l-0.3,0.1l-1.3,0.4l-0.7-0.1
								l-3.8-0.7l1.6-0.5l-2.7-0.5l3.6-1.2l0.3-0.1l2,0.4l0.7,0.1l11.1-3.7l4-1.3l9.5-3.2l-2.7-0.5l3.6-1.2l0.3-0.1l2,0.4l0.7,0.1
								l1.3-0.4l0.3-0.1l4.5,0.9l-1.6,0.5l2,0.4l0.7,0.1l1.3-0.4l0.3-0.1l4.5,0.9l-1.6,0.5c5.5,1.1,6.1,3.2,1.2,4.9
								C673.3,378.2,669.8,378.7,666.3,378.9z M649.8,382.6c3.1,0.2,6.7-0.2,9-1c3.1-1,2.7-2.4-0.8-3.1l-8.1-1.6l-0.3,0.1l-10.8,3.6
								l8.2,1.6C647.7,382.4,648.7,382.5,649.8,382.6 M663,372.6l-9.2,3.1l7.2,1.4c0.7,0.1,1.5,0.2,2.4,0.3c2.7,0.1,5.8-0.2,7.8-0.8
								c2.6-0.9,2.3-2.1-0.7-2.7l-7.2-1.4L663,372.6"/>
						</g>
						<g id="XMLID_777_">
							<path id="XMLID_778_" class="st9" d="M666.3,377.4c1.3,1.1,0.3,2.5-3,3.6c-3.9,1.3-9.8,1.9-15.1,1.7
								c-1.9-0.1-3.7-0.3-5.3-0.6l-0.9-0.2l-0.3,0.1l-1.3,0.4l-0.7-0.1l-3.8-0.7l1.6-0.5l-2.7-0.5l-0.3,0.1l-1.3,0.4l-0.7-0.1
								l-3.8-0.7l1.6-0.5l-2.7-0.5l3.6-1.2l0.3-0.1l2,0.4l0.7,0.1l11.1-3.7l4-1.3l9.5-3.2l-2.7-0.5l3.6-1.2l0.3-0.1l2,0.4l0.7,0.1
								l1.3-0.4l0.3-0.1l4.5,0.9l-1.6,0.5l2,0.4l0.7,0.1l1.3-0.4l0.3-0.1l4.5,0.9l-1.6,0.5c5.5,1.1,6.1,3.2,1.2,4.9
								C673.3,376.7,669.8,377.3,666.3,377.4z M649.8,381.1c3.1,0.2,6.7-0.2,9-1c3.1-1,2.7-2.4-0.8-3.1l-8.1-1.6l-0.3,0.1l-10.8,3.6
								l8.2,1.6C647.7,381,648.7,381.1,649.8,381.1 M663,371.1l-9.2,3.1l7.2,1.4c0.7,0.1,1.5,0.2,2.4,0.3c2.7,0.1,5.8-0.1,7.8-0.8
								c2.6-0.9,2.3-2.1-0.7-2.7l-7.2-1.4L663,371.1"/>
						</g>
						<path id="XMLID_266_" class="st8" d="M611.7,383.4v11.7c2.8,1.5,7,2.9,12.5,4c5.5,1.1,11.7,1.7,18.2,2v-11.9
							c-6.7-0.3-13-0.9-18.6-2C618.5,386.1,614.4,384.9,611.7,383.4z"/>
					</g>
				</g>
			</g>
			<g id="XMLID_736_">
				<g id="XMLID_750_">
					<g id="XMLID_751_" class="st5">
						<g id="XMLID_771_">
							<path id="XMLID_265_" class="st6" d="M611.3,373.4c-0.1-3.2-0.3-7.5-0.4-10.8c0.1,2.2,0.3,8.2,0.4,10.5
								C611.3,373.2,611.3,373.3,611.3,373.4z"/>
						</g>
						<g id="XMLID_769_">
							<path id="XMLID_264_" class="st7" d="M700.3,358.1c0.2,4,0.3,7.9,0.5,11.9c0.1,3-3.9,6.2-12.1,9c-17.8,6-48.7,7.6-69,3.6
								c-10.9-2.1-16.6-5.4-16.7-8.9l-0.4-11.9c0.1,3.5,5.8,6.8,16.7,8.9c20.3,4,51.2,2.3,69-3.6
								C696.4,364.3,700.4,361.1,700.3,358.1z"/>
						</g>
						<g id="XMLID_765_">
							<path id="XMLID_766_" class="st6" d="M683.6,349.1c20.3,4,22.4,12,4.6,17.9c-17.8,6-48.7,7.6-69,3.6
								c-20.3-3.9-22.4-12-4.6-17.9C632.4,346.8,663.3,345.2,683.6,349.1z M624.7,368.9c16.8,3.3,42.4,1.9,57.1-3
								c14.7-4.9,13-11.6-3.8-14.9c-16.8-3.3-42.4-1.9-57.1,3C606.2,358.9,607.9,365.6,624.7,368.9"/>
						</g>
						<path id="XMLID_261_" class="st7" d="M678,351c16.8,3.3,18.5,9.9,3.8,14.9c-14.7,4.9-40.3,6.3-57.1,3
							c-16.8-3.3-18.5-9.9-3.8-14.9C635.6,349.1,661.2,347.7,678,351z"/>
						<path id="XMLID_260_" class="st8" d="M620.9,355.5c14.7-4.9,40.3-6.3,57.1-3c8.4,1.6,13,4.1,13.7,6.8
							c0.8-3.2-3.8-6.3-13.7-8.3c-16.8-3.3-42.4-1.9-57.1,3c-7.4,2.5-10.6,5.4-9.9,8.1C611.6,359.8,614.8,357.5,620.9,355.5z"/>
						<g id="XMLID_758_">
							<path id="XMLID_759_" class="st8" d="M661.8,362.4c1.3,1.1,0.3,2.5-3,3.6c-3.9,1.3-9.8,1.9-15.1,1.7
								c-1.9-0.1-3.7-0.3-5.3-0.6l-0.9-0.2l-0.3,0.1l-1.3,0.4l-0.7-0.1l-3.8-0.7l1.6-0.5l-2.7-0.5l-0.3,0.1l-1.3,0.4l-0.7-0.1
								l-3.8-0.7l1.6-0.5l-2.7-0.5l3.6-1.2l0.3-0.1l2,0.4l0.7,0.1l11.1-3.7l4-1.3l9.5-3.2l-2.7-0.5l3.6-1.2l0.3-0.1l2,0.4l0.7,0.1
								l1.3-0.4l0.3-0.1l4.5,0.9l-1.6,0.5l2,0.4l0.7,0.1l1.3-0.4l0.3-0.1l4.5,0.9l-1.6,0.5c5.5,1.1,6.1,3.2,1.2,4.9
								C668.8,361.8,665.3,362.3,661.8,362.4z M645.3,366.1c3.1,0.2,6.7-0.2,9-1c3.1-1,2.7-2.4-0.8-3.1l-8.2-1.6l-0.3,0.1l-10.8,3.6
								l8.1,1.6C643.2,366,644.2,366.1,645.3,366.1 M658.5,356.1l-9.2,3.1l7.2,1.4c0.7,0.1,1.5,0.2,2.4,0.3c2.7,0.1,5.8-0.2,7.8-0.8
								c2.6-0.9,2.3-2.1-0.7-2.7l-7.2-1.4L658.5,356.1"/>
						</g>
						<g id="XMLID_753_">
							<path id="XMLID_754_" class="st9" d="M661.8,361c1.3,1.1,0.3,2.5-3,3.6c-3.9,1.3-9.8,1.9-15.1,1.7c-1.9-0.1-3.7-0.3-5.3-0.6
								l-0.9-0.2l-0.3,0.1l-1.3,0.4l-0.7-0.1l-3.8-0.7l1.6-0.5l-2.7-0.5l-0.3,0.1l-1.3,0.4l-0.7-0.1l-3.8-0.7l1.6-0.5l-2.7-0.5
								l3.6-1.2l0.3-0.1l2,0.4l0.7,0.1l11.1-3.7l4-1.3l9.5-3.2l-2.7-0.5l3.6-1.2l0.3-0.1l2,0.4l0.7,0.1l1.3-0.4l0.3-0.1l4.5,0.9
								l-1.6,0.5l2,0.4l0.7,0.1l1.3-0.4l0.3-0.1l4.5,0.9l-1.6,0.5c5.5,1.1,6.1,3.2,1.2,4.9C668.8,360.3,665.3,360.8,661.8,361z
								 M645.3,364.7c3.1,0.2,6.7-0.2,9-1c3.1-1,2.7-2.4-0.8-3.1l-8.2-1.6l-0.3,0.1l-10.8,3.6l8.1,1.6
								C643.2,364.5,644.2,364.6,645.3,364.7 M658.5,354.6l-9.2,3.1l7.2,1.4c0.7,0.1,1.5,0.2,2.4,0.3c2.7,0.2,5.8-0.1,7.8-0.8
								c2.6-0.9,2.3-2.1-0.7-2.7l-7.2-1.4L658.5,354.6"/>
						</g>
						<path id="XMLID_253_" class="st8" d="M607.2,367v11.7c2.8,1.5,7,2.9,12.5,4c5.5,1.1,11.7,1.7,18.2,2v-11.9
							c-6.7-0.3-13-0.9-18.6-2C614,369.7,609.9,368.4,607.2,367z"/>
					</g>
				</g>
				<g id="XMLID_737_">
					<g id="XMLID_738_" class="st5">
						<g id="XMLID_748_">
							<path id="XMLID_252_" class="st6" d="M615.8,359.3c-0.1-3.2-0.3-7.5-0.4-10.8c0.1,2.2,0.3,8.2,0.4,10.5
								C615.8,359.2,615.8,359.3,615.8,359.3z"/>
						</g>
						<g id="XMLID_746_">
							<path id="XMLID_251_" class="st7" d="M704.8,344c0.2,4,0.3,7.9,0.5,11.9c0.1,3-3.9,6.2-12.1,9c-17.8,6-48.7,7.6-69,3.6
								c-10.9-2.1-16.6-5.4-16.7-8.9l-0.5-11.9c0.1,3.5,5.8,6.8,16.7,8.9c20.3,3.9,51.2,2.3,69-3.6
								C700.9,350.3,704.9,347.1,704.8,344z"/>
						</g>
						<g id="XMLID_742_">
							<path id="XMLID_743_" class="st6" d="M688.1,335.1c20.3,4,22.4,12,4.6,17.9c-17.8,6-48.7,7.6-69,3.6
								c-20.3-4-22.4-12-4.6-17.9C636.9,332.8,667.8,331.2,688.1,335.1z M629.2,354.8c16.8,3.3,42.4,1.9,57.1-3
								c14.7-4.9,13-11.6-3.8-14.9c-16.8-3.3-42.4-1.9-57.1,3C610.7,344.9,612.4,351.6,629.2,354.8"/>
						</g>
						<path id="XMLID_248_" class="st7" d="M682.6,337c16.8,3.3,18.5,9.9,3.8,14.9c-14.7,4.9-40.3,6.3-57.1,3
							c-16.8-3.3-18.5-9.9-3.8-14.9C640.1,335,665.7,333.7,682.6,337z"/>
						<path id="XMLID_247_" class="st8" d="M625.4,341.4c14.7-4.9,40.3-6.3,57.1-3c8.4,1.6,13,4.1,13.7,6.8
							c0.8-3.2-3.8-6.3-13.7-8.3c-16.8-3.3-42.4-1.9-57.1,3c-7.4,2.5-10.6,5.4-9.9,8.1C616.1,345.8,619.4,343.5,625.4,341.4z"/>
						<path id="XMLID_246_" class="st8" d="M611.7,352.9v11.7c2.8,1.5,7,2.9,12.5,4c5.5,1.1,11.7,1.7,18.2,2v-11.9
							c-6.7-0.3-13-0.9-18.6-2C618.5,355.7,614.4,354.4,611.7,352.9z"/>
					</g>
				</g>
			</g>
		</g>
	</g>
	<g id="XMLID_730_">
		<polygon id="XMLID_245_" class="st10" points="736.5,238.5 651.9,323.1 576.5,247.6 435.9,388.3 397.2,349.6 310,436.8 
			247.1,373.9 138.7,482.3 156.9,482.3 247.1,392.1 310,455 397.2,367.9 435.9,406.5 576.5,265.9 651.9,341.3 745.6,247.6 		"/>
		<g id="XMLID_731_">
			<polygon id="XMLID_244_" class="st10" points="750.2,273 737.3,273 737.3,246.8 711.1,246.8 711.1,233.9 750.2,233.9 			"/>
		</g>
	</g>
	<g id="XMLID_727_">
		<path id="XMLID_243_" class="st0" d="M469.3,135.3c-26.5-1.1-50.9,6.4-67.6,16.3c-16.8,10.1-25.9,22.5-25.4,35.6
			c0.5,13.2,5.5,38.4,19.1,50.5c13.7,11.9,134.8,28.5,146.3-20.4C551.4,176,523.7,136.3,469.3,135.3z"/>
		<path id="XMLID_242_" class="st0" d="M409,230.3c0,0,5.6,25.3,38.7,36c0,0-21.5-33.4-9.9-52.7C444.7,202.1,409,230.3,409,230.3z"
			/>
	</g>
	<g id="XMLID_717_">
		<path id="XMLID_241_" class="st11" d="M84.7,372.3c0,0,35.1,25.2,63.2,96.2"/>
		<path id="XMLID_240_" class="st11" d="M119.4,381.5c0,0,25.2,35.1,32.5,78.6"/>
		<path id="XMLID_239_" class="st11" d="M98.8,416.2c0,0,30.2,9.7,37,49.4"/>
		
			<ellipse id="XMLID_238_" transform="matrix(-0.6436 -0.7654 0.7654 -0.6436 -146.4579 673.7488)" class="st10" cx="83.6" cy="371" rx="5.4" ry="13.3"/>
		
			<ellipse id="XMLID_237_" transform="matrix(-0.6436 -0.7653 0.7653 -0.6436 -146.4403 673.7604)" class="st12" cx="83.6" cy="371" rx="1.7" ry="4.2"/>
		
			<ellipse id="XMLID_236_" transform="matrix(-0.6437 -0.7653 0.7653 -0.6437 -96.1236 717.2406)" class="st10" cx="118.9" cy="381" rx="2.2" ry="5.5"/>
		
			<ellipse id="XMLID_235_" transform="matrix(-0.6436 -0.7653 0.7653 -0.6436 -96.1288 717.2366)" class="st12" cx="118.9" cy="381" rx="0.7" ry="1.8"/>
		
			<ellipse id="XMLID_234_" transform="matrix(-0.8211 -0.5708 0.5708 -0.8211 -57.6219 814.2388)" class="st10" cx="98.8" cy="416.2" rx="2.9" ry="7.1"/>
		
			<ellipse id="XMLID_233_" transform="matrix(-0.8213 -0.5705 0.5705 -0.8213 -57.4628 814.304)" class="st12" cx="98.8" cy="416.2" rx="0.9" ry="2.3"/>
	</g>
	<path id="XMLID_232_" class="st2" d="M198.6,471.2V428c-9.2-4.3-20.7-5.1-32,2.8c-7.6,5.3-9.6,13.1-19.4,17.7
		c-10.2,4.8-29-8.7-53.8-0.4c-10.3,3.4-24.7,11.4-35.5,23.2H198.6z"/>
	<g id="XMLID_713_">
		<path id="XMLID_231_" class="st10" d="M301.7,239.8c27.6,0.9,72.9-1.8,91.3-8.4c18.6-6.7,21.5-57.3,9.1-70.2
			c-12.6-12.8-47.8-16.7-65.4-17.8c-43.7-2.8-82.9,0.6-76,39.4C267.8,223.1,271.9,238.7,301.7,239.8z"/>
		<path id="XMLID_230_" class="st10" d="M384.2,227.4c0,0,0.8,15.3-18.8,26.5c0,0,8.1-22.4-2.7-31.6
			C356.1,216.8,384.2,227.4,384.2,227.4z"/>
	</g>
	<line id="XMLID_229_" class="st13" x1="254" y1="115.5" x2="276.8" y2="122.9"/>
	<line id="XMLID_228_" class="st13" x1="250.7" y1="137.8" x2="274.7" y2="137.3"/>
	<line id="XMLID_227_" class="st13" x1="398.6" y1="123.6" x2="375.1" y2="128.4"/>
	<line id="XMLID_226_" class="st13" x1="390.6" y1="102.6" x2="369.9" y2="114.8"/>
	<line id="XMLID_225_" class="st13" x1="358.1" y1="100.2" x2="364.7" y2="94"/>
	<g id="XMLID_700_">
		<path id="XMLID_224_" class="st14" d="M365.6,142.7c0-24.4-14.7-44.1-41.3-44.1c-26.6,0-41.3,19.8-41.3,44.1
			c0,19,13.3,25.6,24.6,41.4c2.2,3.1,0,15.4,0,15.4H341c0,0-2.2-12.2,0-15.4C352.3,168.3,365.6,161.7,365.6,142.7z"/>
		<path id="XMLID_223_" class="st3" d="M307.1,199.5v4.6c0,7.6,6.2,13.8,13.8,13.8h6.9c7.6,0,13.8-6.2,13.8-13.8v-4.6H307.1z"/>
		<polyline id="XMLID_222_" class="st13" points="306.1,141.3 311.4,134.4 316.6,141.3 321.9,134.4 327.2,141.3 332.5,134.4 
			337.7,141.3 343,134.4 348.3,141.3 		"/>
		<polyline id="XMLID_221_" class="st13" points="312.2,147.3 319.8,170.1 319.8,198.9 		"/>
		<polyline id="XMLID_220_" class="st13" points="338,147.3 330.4,170.1 330.4,198.9 		"/>
		<rect id="XMLID_219_" x="316.5" y="201.9" class="st15" width="21.5" height="3.6"/>
		<rect id="XMLID_218_" x="316.5" y="208.3" class="st15" width="15.5" height="3.6"/>
	</g>
	<g id="XMLID_691_">
		<path id="XMLID_217_" class="st14" d="M220.7,407.7c-28.6-10.6-58.2-2.1-69.8,29.1c-11.6,31.2,5.1,57,33.7,67.7
			c22.3,8.3,35.9-4.4,59.3-10.8c4.6-1.3,18,6.7,18,6.7l14.5-39c0,0-15.3-2.7-18-6.7C244.9,434.6,243,416.1,220.7,407.7z"/>
		<path id="XMLID_216_" class="st7" d="M258.5,480.6c-32.4,8.8-51.1,26.4-81.9,14.9c-6.6-2.5-12.8-5.5-18.4-9.1
			c6.5,7.9,15.7,14.1,26.5,18.1c22.3,8.3,35.9-4.4,59.3-10.8c4.6-1.3,18,6.7,18,6.7l6.7-17.9C264.6,481,260.8,480,258.5,480.6z"/>
		<path id="XMLID_215_" class="st3" d="M261.7,501.1l5.4,2c8.9,3.3,18.8-1.2,22.1-10.1l3-8.1c3.3-8.9-1.2-18.8-10.1-22.1l-5.4-2
			L261.7,501.1z"/>
		<polyline id="XMLID_214_" class="st16" points="193.1,476.9 187.3,467.7 197.7,464.5 191.9,455.3 202.3,452.2 196.5,443 
			206.9,439.8 201.1,430.6 211.5,427.4 		"/>
		<polyline id="XMLID_213_" class="st16" points="202.8,472.4 232.8,473.4 266.6,486 		"/>
		<polyline id="XMLID_212_" class="st16" points="214,442.1 237.4,461 271.2,473.6 		"/>
		
			<rect id="XMLID_211_" x="261.9" y="477.1" transform="matrix(0.3492 -0.937 0.937 0.3492 -269.9427 569.9835)" class="st15" width="26.9" height="4.5"/>
		
			<rect id="XMLID_210_" x="271.9" y="483.4" transform="matrix(0.3492 -0.937 0.937 0.3492 -271.8263 579.9572)" class="st15" width="19.4" height="4.5"/>
	</g>
	<path id="XMLID_209_" class="st15" d="M312.3,214.8c2.4,1.9,5.3,3.1,8.6,3.1h6.9c3.3,0,6.2-1.2,8.6-3.1H312.3z"/>
	<g id="XMLID_625_">
		<g id="XMLID_677_">
			<path id="XMLID_208_" class="st17" d="M313.7,356.5l23.3,94.9c0,0,18.5,9.6,18.3-14.6c-0.2-24.3-5.2-78.3-5.2-78.3L313.7,356.5z"
				/>
			<rect id="XMLID_207_" x="342.1" y="513.2" class="st18" width="11.3" height="20"/>
			<polygon id="XMLID_206_" class="st18" points="295.6,517.8 294.4,532.9 305.2,534.3 306.1,516.1 			"/>
			<path id="XMLID_205_" class="st19" d="M302,359.9l0.6,101.4c0,0,7.2,16.3,12,10.9c3.7-4.2,15.7-51.6,20-83.4
				c1.3-9.2,12.9-23.1,12.2-31.4C346.4,353.5,302,359.9,302,359.9z"/>
			<path id="XMLID_204_" class="st20" d="M342.6,539h8.3v-2.9l3.6,2.9h20.8c0,0-0.4-4-14.4-4.6c-3.6-0.2-6.1-5.8-6.1-5.8
				s-1.8-1.9-4.5,2.5c-0.7,1.1-8.3-1-8.3-1S341.3,535.9,342.6,539z"/>
			<path id="XMLID_203_" class="st20" d="M294.3,539.1l8.3,0.4l0.1-3l3.5,3.1l20.8,1.1c0,0-0.2-4-14.2-5.4c-3.6-0.4-5.9-6.2-5.9-6.2
				s-1.7-2-4.6,2.3c-0.7,1.1-8.2-1.5-8.2-1.5S293.1,535.9,294.3,539.1z"/>
			<rect id="XMLID_202_" x="302" y="354.7" class="st19" width="49" height="5"/>
			<rect id="XMLID_201_" x="345.5" y="354" class="st17" width="1.8" height="6.7"/>
			<rect id="XMLID_200_" x="329.2" y="354" class="st17" width="1.8" height="6.7"/>
			<rect id="XMLID_199_" x="309" y="354" class="st17" width="1.8" height="6.7"/>
			<path id="XMLID_198_" class="st19" d="M303.2,437.4L292.9,530l14.9,1c0,0,15-94.8,13.5-98.3C317.2,423.4,303.7,434.3,303.2,437.4
				z"/>
			<path id="XMLID_197_" class="st17" d="M336.8,438.4l3.9,93.8l13.7-1.3c0,0,4-95.1-1.1-98.5C348.3,428.8,336.8,434.1,336.8,438.4z
				"/>
		</g>
		<path id="XMLID_196_" class="st2" d="M334.3,281.8c0,0-10,4.2,2.2,34.2c12.2,30,18.5,26.1,18.5,26.1l8.1-1.1l14.2-19.7l-9-7.3
			l-1.6,0.8c0,0-2.2-0.8-2.7-2.9c-0.4-2.1-5.8-10.9-11.3-28.3C348.7,270.6,336.3,281,334.3,281.8z"/>
		<path id="XMLID_195_" class="st21" d="M375.1,321.7c0,0,17,9.3,27.4,10.5c6.9,0.8-7.4,8.5-21.6,10c-14.2,1.5-19.8,0.9-22.8-4.1
			C354.9,333.1,375.1,321.7,375.1,321.7z"/>
		<path id="XMLID_194_" class="st0" d="M357.3,317.5l4.9-3.6l2-1.3c0.7,1.6,2.4,2.2,2.4,2.2l-4.1,2l-4.4,3.3l-4.4,6.2L357.3,317.5z"
			/>
		<path id="XMLID_193_" class="st0" d="M350.4,369.8l-50.4-0.6l-5.4-62.5c0,0-10.6-37.5,9.7-38c20.4-0.5,46,7.7,46,7.7
			S361.9,281.7,350.4,369.8z"/>
		<path id="XMLID_192_" class="st22" d="M345.3,234c0,0,2.7,27-3.4,30.2c-0.3,0.1-4.6,0.3-6.9,2.4c-2.1,1.9-2.2,4.1-3,4.9
			c-0.2,0.3-1.1,2.1-1.7,2.6c-2.3,2-4.2-0.6-5.5-1.2c-3.2-1.4-4,2.4-4.5,1c-0.3-0.9-3.3-2.3-2.5-3.5c1.6-2.5,5.5-12.6,5.3-14.6
			c-0.5-5.9-6.9-16.8,3.5-23.5C329.7,230.4,344.6,232.3,345.3,234z"/>
		<polygon id="XMLID_191_" class="st2" points="329,274.9 328.1,281.4 316.1,271.5 317.5,269 		"/>
		<polygon id="XMLID_190_" class="st2" points="332.5,270.7 334.4,272.3 334.5,279.2 329.8,275.1 		"/>
		<path id="XMLID_189_" class="st21" d="M341.9,263.8c0,0-0.8-0.5-2.4-1.5c-0.5-0.3-2-1.3-2.8-1.5c-3.7-1.1-3.6-0.8-5.6-1.9
			c-2.4-1.3-6.8-5-6.8-5s1.5,2.8,2,3.9c1,2.1,2.7,3.1,4.1,3.7c6.2,2.6,5.8,3.1,6.7,3.1C337.1,264.6,337.6,264.3,341.9,263.8z"/>
		<path id="XMLID_188_" class="st22" d="M344.9,245.1c0,0.5,1.7,4.8,2,5.6c0.3,0.8,0.8,1.8,0.6,2.1c-0.1,0.3-1,1.1-1.3,1.4
			c-0.4,0.3-1.8,1.5-2-0.5C344,251.6,344.9,245.1,344.9,245.1z"/>
		<path id="XMLID_187_" class="st17" d="M326.2,231.2c5-3.9,15.1-2.9,22,3.7c0,0-0.3,1.6-2.7,2.9c0,0-4-5.2-10.5-4.4
			c-6.8,0.8-2.1,4.1-3.7,5.7c-1.3,1.4-2.6,2.6-2.6,2.6l-1,3.8l-1.8,0.2c0,0-1-4.1-1.9-2.9c-1.1,1.5-0.6,4.5-0.6,5
			c0,0.4,0.1,1.2-0.1,1.3c-0.2,0.1,0.3,2.4-0.2,6.4c-0.8,0-1.9-1.2-2.4-3.7C319.5,246.1,320.1,236,326.2,231.2z"/>
		<path id="XMLID_186_" class="st22" d="M324.3,242.6c-1.5-0.1-2.8,1.1-2.9,2.6c-0.1,1.5,1.1,2.8,2.7,2.9"/>
		<path id="XMLID_185_" class="st21" d="M342.7,252.7c0,0,3.2-0.8,3.6-0.7c0.3,0.1,1.2,0.2,1.2,0.5c0,0.3-0.5,1.2-2.1,2.1
			C344.9,254.8,345.2,254,342.7,252.7z"/>
		<path id="XMLID_184_" class="st22" d="M321,342.5l43.1,24.1c0,0-1.7,3.3-4.5,3.5c-7.5,0.5-24.1-2-31.8-4.7
			c-10.6-3.8-20.2-9.6-20.2-9.6L321,342.5z"/>
		<path id="XMLID_183_" class="st21" d="M400.6,333.3l11.4-6.6l7.3,0.8c0,0,0.8,1.7-1.7,3c-2.5,1.3-5.7,1.6-5.7,1.6l-4.9,7.3
			c0,0,4.8,2.8,6,2.2c1.3-0.6,6.2-3,6.2-3s-2.9,6.1-5.9,6.1c-3.1,0-6.3,0-8.6-0.4c-2.3-0.4-3.1-6.9-5.4-8.1
			C397.1,335.2,400.6,333.3,400.6,333.3z"/>
		<g id="XMLID_631_">
			<polygon id="XMLID_182_" class="st22" points="407.9,340.9 411.3,342.1 425.3,337.5 419.8,327.6 418,330.5 413.1,330.3 
				407,338.9 			"/>
			<g id="XMLID_650_">
				<path id="XMLID_181_" class="st22" d="M423.3,291.2L395,265.2c0,0-1.9,2.3-1.2,4.4c1.9,5.6,8.9,17,13.3,21.7
					c6,6.5,13.3,11.8,13.3,11.8L423.3,291.2z"/>
				<g id="XMLID_653_">
					<g id="XMLID_655_">
						<path id="XMLID_180_" class="st22" d="M394.9,272.2l-3.6-3c0,0-1.8-1.4-3.2-3.6c-1.5-2.3-0.6-4.5,1.3-6.3c1.9-1.8,3.4-2,3.4-2
							s3.1,1.4,2.7,4.1c-0.4,2.8,2.4,8.8,1.3,9.3C395.7,271.1,394.9,272.2,394.9,272.2z"/>
						<polygon id="XMLID_179_" class="st22" points="394.1,257.8 390.5,253.9 387,250.5 386.6,251.5 388.7,254.3 389.8,260.1 
							391.3,259.3 						"/>
						<polygon id="XMLID_178_" class="st22" points="387.5,255.7 383.7,253.7 383,254.5 386.4,257.2 388.9,261.1 391.3,259.3 						
							"/>
						<polygon id="XMLID_177_" class="st22" points="382.2,256.3 385.4,257.7 387.6,258.3 389.1,260.4 387.7,262.4 386.1,260.1 
							382.3,257.6 						"/>
						<polygon id="XMLID_176_" class="st22" points="381.5,259.7 387.6,261.2 388.6,262.7 387.7,264.2 385.2,262.5 382,260.7 						
							"/>
					</g>
					<path id="XMLID_175_" class="st22" d="M398.5,272.2c-2-2-1.5-4.9-1.5-4.9s0.9-7.4-0.2-8.6c-1.1-1.2-1.8-4.4-1.8-4.4
						s-0.9-1.2-1.3,1.8c-0.3,1.9,0.1,3.7,0.1,3.7s-2,4-1.8,5.3c0.3,2.7,5.1,7.4,5.1,7.4S398.8,272.4,398.5,272.2z"/>
				</g>
				<path id="XMLID_174_" class="st2" d="M457.3,283.8l-31.5,5.8l-1.2,2.1l-1.8-1.5l-4,12.1l9.1,6.8l42.9-8.7c0,0,9.4-4.4,12.6-16.7
					C485.6,274.8,459.9,283.4,457.3,283.8z"/>
				<path id="XMLID_173_" class="st0" d="M425.6,304c0,0-0.5-8.7-0.5-13.2l-0.5,0.9l-1.8-1.5l-1.3,4.2l-1,6.2l2.3,1.3l0.7-1.8
					L425.6,304z"/>
			</g>
			<g id="XMLID_632_">
				<path id="XMLID_172_" class="st21" d="M472.4,275.2c-0.1,4,1.7,7.7,3.9,8.1c2.1,0.2,4.3,0.4,6.4,0.7c2.3,0.1,4.8-3.2,5.5-7.1
					c1.2-6.5,2.4-13,3.7-19.5c0.8-3.9,0.1-12-3.1-14.7c-2.9-2.4-6.5-2.8-9.8-1c-3.6,2-6,9.7-6.1,13.7
					C472.8,262,472.6,268.6,472.4,275.2z"/>
				<path id="XMLID_171_" class="st22" d="M454.5,333.9l-35.5,1.1c0,0,26.3,15.8,35.9,7.9C464.4,334.8,454.5,333.9,454.5,333.9z"/>
				<path id="XMLID_170_" class="st23" d="M470.9,545.7l0.1,3.6l20.1-0.4l0.3-9.7l-12.1-0.1C479.2,539.1,472.8,545.2,470.9,545.7z"
					/>
				<path id="XMLID_169_" class="st17" d="M485.7,375.3c0,0-9.1,59.7-19.4,86c-9.1,23.3-20.9-6.5-20.9-6.5l15.4-100.1l28.8-2.8
					C489.6,351.9,491.6,352.6,485.7,375.3z"/>
				<path id="XMLID_168_" class="st19" d="M466.8,357.1l-2.7,38.4l5.1,2.8c0,0,4.1,56.9,5.1,59.7c5.8,16.4,19.6,6.2,21.4,0.6
					c1.8-5.5,4.1-46.3,2.8-75.9c-1.3-29.7-1.3-29.7-1.3-29.7L466.8,357.1z"/>
				<path id="XMLID_167_" class="st19" d="M475.2,442.8c0,0-2.1,10.2-1.4,29.4c0.5,12.1,2.3,44.3,5.1,68.2
					c0.2,1.5,12.1,0.1,12.1,0.1s5.6-77.9,6-93C497.1,442.9,484.5,431.8,475.2,442.8z"/>
				<path id="XMLID_166_" class="st0" d="M471.3,277.8l18.8-4.2l9.6,10.8c0,0,7.1,9.6,7.3,31.1c0.2,21.6-7.1,61.5-7.1,61.5l-43-13.8
					C456.9,363.2,458.9,287.5,471.3,277.8z"/>
				<path id="XMLID_165_" class="st2" d="M494.4,283.6c0,0,8.3,4.3,4.3,16.6c-6.8,21-20.9,38.3-23.6,41.8c-2.7,3.5-12,11.9-18.2,9.1
					c-6.2-2.8-6.2-2.8-6.2-2.8l-0.4-14l4.1-0.4l2.4-0.5c0,0,8.6-13.6,15.8-26.9C479.9,293.2,494.4,283.6,494.4,283.6z"/>
				<polygon id="XMLID_164_" class="st2" points="473.1,277.1 476.4,286.2 493.3,277.3 491.5,272.3 				"/>
				<polygon id="XMLID_163_" class="st2" points="472.3,274.9 472.7,276.9 468.9,282.4 469,277.9 				"/>
				<path id="XMLID_162_" class="st17" d="M450.2,453.3c0,0,3.4,1,14,1.2c10.6,0.2-11.9,86.1-11.9,86.1l-15.2-5.2l9-86.3
					L450.2,453.3z"/>
				<path id="XMLID_161_" class="st23" d="M451.2,539.7l-1.3,7.5l-7.6,0.2c0,0-5.7,0.1-7.2,0.2c-1.4,0-10,0.2-10,0.2L425,545
					c0,0,11.8-4.4,14.1-9C441.5,531.4,451.2,539.7,451.2,539.7z"/>
				<g id="XMLID_633_">
					<path id="XMLID_160_" class="st17" d="M478.4,237.2l-0.4-4.6l-1.9,0.2l-5,0.5l-3,0.3c-3.3,0.3-5.7,3.3-5.4,6.6l0.4,4.5l1.9-0.2
						l5-0.5l3-0.3C476.3,243.5,478.8,240.5,478.4,237.2z"/>
					<path id="XMLID_159_" class="st22" d="M490.5,264c0.3,2.9-1.9,5.6-4.8,5.8l-12.1,1.2c-2.9,0.3-5.6-1.9-5.8-4.8l-2.3-24.2
						c-0.3-2.9,1.9-5.6,4.8-5.8l12.1-1.2c2.9-0.3,5.6,1.9,5.8,4.8L490.5,264z"/>
					<path id="XMLID_158_" class="st17" d="M478.4,232.6c2.1-0.2,4,0.7,5.3,2.2l2.1-0.2c2.6-0.2,4.8,1.6,5.1,4.2l1.1,11.5l-3.3,0.3
						l-0.4-4.7c-0.2-1.8-1.8-3.1-3.6-3l-1.9,0.2l-5,0.5l-3,0.3c-3.3,0.3-6.2-2.1-6.6-5.4l-0.5-4.9L478.4,232.6z"/>
					<path id="XMLID_157_" class="st22" d="M487.9,253.7c-0.2-1.6,1-3,2.6-3.1l0.2,0c1.6-0.2,3,1,3.1,2.6l0.3,3.5
						c0.2,1.6-1,3-2.6,3.1l-0.2,0c-1.2,0.1-2.2-0.5-2.8-1.4"/>
				</g>
			</g>
		</g>
		<g id="XMLID_628_">
			<path id="XMLID_156_" class="st22" d="M359.2,369.5c0,0,2.4-5.9,3.8-6.7c1.4-0.9,6.9-3.7,6.9-3.7l1.5-0.6c0,0,1.5,1.3-2.2,3.1
				c-3.7,1.9-1.4,1.9-1.4,1.9l4-0.4l4.9-0.1l2.2-0.3c0,0,1.2-0.3,1.6-0.1c1,0.5,0.2,1.1,0.2,1.1l-8.3,2l8.1,0.3c0,0,1,0.2,1.1,0.8
				c0.1,0.5-0.3,0.5-0.3,0.5l-9.3,1.9l4.2,0.6c0,0,1,0.2,1.1,0.8c0.1,0.6,0.2,0.7,0.2,0.7l-15,0.1L359.2,369.5z"/>
			<path id="XMLID_155_" class="st22" d="M372.6,367.2l5.7,0.5c0,0,1.3,0,1.9,0.3c0.7,0.4,0.3,1.1,0.3,1.1l-8.7,0.1L372.6,367.2z"/>
		</g>
		<path id="XMLID_154_" class="st2" d="M311.8,301.9l7.8,37l3.5,3.5l2.6,3.1l-16.3,11.8l-12.8-7.4l-9.5-55.3c0,0-3.3-13.4,9.7-23.4
			C306.4,263.9,311,298.6,311.8,301.9z"/>
		<path id="XMLID_153_" class="st0" d="M303.8,347.6c0,0,10.3-3.8,15.6-5.9l-0.8,1.1l2.6,1.4l-4.2,3.6l-6.7,4.3l-2.6-2l1.7-1.7
			L303.8,347.6z"/>
	</g>
	<g id="XMLID_618_">
		<path id="XMLID_622_" class="st15" d="M498.7,202.5l2.7-10.7l-5.4-2.7c0-1.6-0.1-3.1-0.3-4.7l5.3-2.8l-3-10.6l-6.7,0.4
			c-0.7-1.2-1.5-2.4-2.3-3.5l3.5-5.6l-7.9-7.7l-5.9,4c-1.1-0.6-2.2-1.2-3.4-1.8l0.2-7l-10.7-2.7l-3.2,6.5c-1.2,0-2.5,0-3.7,0.1
			l-3.3-6.2l-10.6,3l0.5,7c-1.2,0.6-2.3,1.3-3.4,2l-5.7-3.6l-7.7,7.9l3.6,5.4c-0.8,1.2-1.6,2.5-2.2,3.8l-6.2-0.2l-2.7,10.7l5.3,2.6
			c-0.1,1.7-0.1,3.3,0,5l-4.9,2.6l3,10.6l5.2-0.3c0.8,1.7,1.8,3.3,2.8,4.8l-2.6,4.2l7.9,7.7l4-2.7c1.7,1.1,3.4,2.1,5.2,2.9l-0.2,4.5
			l10.7,2.7l2-4.2c2,0.1,4,0,6.1-0.2l2.1,4l10.6-3l-0.3-4.8c1.7-0.9,3.4-2,4.9-3.1l4.1,2.5l7.7-7.9l-3-4.5c0.9-1.5,1.7-3.1,2.4-4.8
			L498.7,202.5z M465,204.1c-8.4,2.4-17.1-2.5-19.5-10.8c-2.4-8.4,2.5-17.1,10.8-19.5c8.4-2.4,17.1,2.5,19.5,10.8
			C478.3,193,473.4,201.8,465,204.1z"/>
		<path id="XMLID_619_" class="st3" d="M453.5,163.4c-14.1,4-22.3,18.7-18.3,32.8c4,14.1,18.7,22.3,32.8,18.3
			c14.1-4,22.3-18.7,18.3-32.8C482.3,167.6,467.6,159.4,453.5,163.4z M466.5,209.2c-11.2,3.2-22.8-3.3-26-14.5
			c-3.2-11.2,3.3-22.8,14.5-26c11.2-3.2,22.8,3.3,26,14.5C484.1,194.4,477.7,206,466.5,209.2z"/>
	</g>
	<g id="XMLID_533_">
		<g id="XMLID_571_">
			<g id="XMLID_595_">
				<g id="XMLID_596_" class="st5">
					<g id="XMLID_616_">
						<path id="XMLID_148_" class="st6" d="M535.8,487.5c-0.1-3.2-0.3-7.5-0.4-10.8c0.1,2.2,0.3,8.2,0.4,10.5
							C535.8,487.3,535.8,487.4,535.8,487.5z"/>
					</g>
					<g id="XMLID_614_">
						<path id="XMLID_147_" class="st7" d="M624.7,472.2c0.2,4,0.3,7.9,0.5,11.9c0.1,3-3.9,6.2-12.1,9c-17.8,6-48.7,7.6-69,3.6
							c-10.9-2.1-16.6-5.4-16.7-8.9l-0.4-11.9c0.1,3.5,5.8,6.8,16.7,8.9c20.3,3.9,51.2,2.3,69-3.6
							C620.8,478.4,624.8,475.2,624.7,472.2z"/>
					</g>
					<g id="XMLID_610_">
						<path id="XMLID_611_" class="st6" d="M608,463.3c20.3,4,22.4,12,4.6,17.9c-17.8,6-48.7,7.6-69,3.6c-20.3-3.9-22.4-12-4.6-17.9
							C556.8,460.9,587.7,459.3,608,463.3z M549.1,483c16.8,3.3,42.4,1.9,57.1-3c14.7-4.9,13-11.6-3.8-14.9
							c-16.8-3.3-42.4-1.9-57.1,3C530.6,473.1,532.3,479.7,549.1,483"/>
					</g>
					<path id="XMLID_144_" class="st7" d="M602.5,465.1c16.8,3.3,18.5,9.9,3.8,14.9c-14.7,4.9-40.3,6.3-57.1,3
						c-16.8-3.3-18.5-9.9-3.8-14.9C560.1,463.2,585.6,461.8,602.5,465.1z"/>
					<path id="XMLID_143_" class="st8" d="M545.3,469.6c14.7-4.9,40.3-6.3,57.1-3c8.4,1.6,13,4.1,13.7,6.8c0.8-3.2-3.8-6.3-13.7-8.2
						c-16.8-3.3-42.4-1.9-57.1,3c-7.4,2.5-10.7,5.4-9.9,8.1C536,474,539.3,471.6,545.3,469.6z"/>
					<g id="XMLID_603_">
						<path id="XMLID_604_" class="st8" d="M586.3,476.6c1.3,1.1,0.3,2.5-3,3.6c-3.9,1.3-9.8,1.9-15.1,1.7c-1.9-0.1-3.7-0.3-5.3-0.6
							l-0.9-0.2l-0.3,0.1l-1.3,0.4l-0.7-0.1l-3.8-0.7l1.6-0.5l-2.7-0.5l-0.3,0.1l-1.3,0.4l-0.7-0.1l-3.8-0.7l1.6-0.5l-2.7-0.5
							l3.6-1.2l0.3-0.1l2,0.4l0.7,0.1l11.1-3.7l4-1.3l9.5-3.2l-2.7-0.5l3.6-1.2l0.3-0.1l2,0.4l0.7,0.1l1.3-0.4l0.3-0.1l4.5,0.9
							l-1.6,0.5l2,0.4l0.7,0.1l1.3-0.4l0.3-0.1l4.5,0.9l-1.6,0.5c5.5,1.1,6.1,3.2,1.2,4.9C593.2,475.9,589.8,476.4,586.3,476.6z
							 M569.7,480.3c3.1,0.2,6.7-0.2,9-1c3.1-1,2.7-2.4-0.8-3.1l-8.2-1.6l-0.3,0.1l-10.8,3.6l8.1,1.6
							C567.7,480.1,568.7,480.2,569.7,480.3 M582.9,470.2l-9.2,3.1l7.2,1.4c0.7,0.1,1.5,0.2,2.4,0.3c2.7,0.1,5.8-0.1,7.8-0.8
							c2.6-0.9,2.3-2.1-0.7-2.7l-7.2-1.4L582.9,470.2"/>
					</g>
					<g id="XMLID_598_">
						<path id="XMLID_599_" class="st9" d="M586.3,475.1c1.3,1.1,0.3,2.5-3,3.6c-3.9,1.3-9.8,1.9-15.1,1.7c-1.9-0.1-3.7-0.3-5.3-0.6
							l-0.9-0.2l-0.3,0.1l-1.3,0.4l-0.7-0.1l-3.8-0.7l1.6-0.5l-2.7-0.5l-0.3,0.1l-1.3,0.4l-0.7-0.1l-3.8-0.7l1.6-0.5l-2.7-0.5
							l3.6-1.2l0.3-0.1l2,0.4l0.7,0.1l11.1-3.7l4-1.3l9.5-3.2l-2.7-0.5l3.6-1.2l0.3-0.1l2,0.4l0.7,0.1l1.3-0.4l0.3-0.1l4.5,0.9
							l-1.6,0.5l2,0.4l0.7,0.1l1.3-0.4l0.3-0.1l4.5,0.9l-1.6,0.5c5.5,1.1,6.1,3.2,1.2,4.9C593.2,474.4,589.8,474.9,586.3,475.1z
							 M569.7,478.8c3.1,0.2,6.7-0.2,9-1c3.1-1,2.7-2.4-0.8-3.1l-8.2-1.6l-0.3,0.1l-10.8,3.6l8.1,1.6
							C567.7,478.6,568.7,478.7,569.7,478.8 M582.9,468.8l-9.2,3.1l7.2,1.4c0.7,0.1,1.5,0.2,2.4,0.3c2.7,0.2,5.8-0.1,7.8-0.8
							c2.6-0.9,2.3-2.1-0.7-2.7l-7.2-1.4L582.9,468.8"/>
					</g>
					<path id="XMLID_136_" class="st8" d="M531.6,481.1v11.7c2.8,1.5,7,2.9,12.5,4c5.5,1.1,11.7,1.7,18.2,2v-11.9
						c-6.7-0.3-13-0.9-18.6-2C538.4,483.8,534.4,482.5,531.6,481.1z"/>
				</g>
			</g>
			<g id="XMLID_572_">
				<g id="XMLID_573_" class="st5">
					<g id="XMLID_593_">
						<path id="XMLID_135_" class="st6" d="M540.3,473.5c-0.1-3.2-0.3-7.5-0.4-10.8c0.1,2.2,0.3,8.2,0.4,10.5
							C540.3,473.3,540.3,473.4,540.3,473.5z"/>
					</g>
					<g id="XMLID_591_">
						<path id="XMLID_134_" class="st7" d="M629.2,458.2c0.2,4,0.3,7.9,0.5,11.9c0.1,3-3.9,6.2-12.1,9c-17.8,6-48.7,7.6-69,3.6
							c-10.9-2.1-16.6-5.4-16.7-8.9l-0.5-11.9c0.1,3.5,5.8,6.8,16.7,8.9c20.3,4,51.2,2.3,69-3.6
							C625.3,464.4,629.3,461.2,629.2,458.2z"/>
					</g>
					<g id="XMLID_587_">
						<path id="XMLID_588_" class="st6" d="M612.5,449.2c20.3,4,22.4,12,4.6,17.9c-17.8,6-48.7,7.6-69,3.6c-20.3-4-22.4-12-4.6-17.9
							C561.3,446.9,592.2,445.3,612.5,449.2z M553.6,469c16.8,3.3,42.4,1.9,57.1-3c14.7-4.9,13-11.6-3.8-14.9
							c-16.8-3.3-42.4-1.9-57.1,3C535.1,459,536.8,465.7,553.6,469"/>
					</g>
					<path id="XMLID_131_" class="st7" d="M607,451.1c16.8,3.3,18.5,9.9,3.8,14.9c-14.7,4.9-40.3,6.3-57.1,3
						c-16.8-3.3-18.5-9.9-3.8-14.9C564.6,449.2,590.2,447.8,607,451.1z"/>
					<path id="XMLID_130_" class="st8" d="M549.8,455.6c14.7-4.9,40.3-6.3,57.1-3c8.4,1.6,13,4.1,13.7,6.8c0.8-3.2-3.8-6.3-13.7-8.2
						c-16.8-3.3-42.4-1.9-57.1,3c-7.4,2.5-10.7,5.4-9.9,8.1C540.5,459.9,543.8,457.6,549.8,455.6z"/>
					<g id="XMLID_580_">
						<path id="XMLID_581_" class="st8" d="M590.8,462.5c1.3,1.1,0.3,2.5-3,3.6c-3.9,1.3-9.8,1.9-15.1,1.7c-1.9-0.1-3.7-0.3-5.3-0.6
							l-0.9-0.2l-0.3,0.1l-1.3,0.4l-0.7-0.1l-3.8-0.7l1.6-0.5l-2.7-0.5l-0.3,0.1l-1.3,0.4l-0.7-0.1l-3.8-0.7l1.6-0.5l-2.7-0.5
							l3.6-1.2l0.3-0.1l2,0.4l0.7,0.1l11.1-3.7l4-1.3l9.5-3.2l-2.7-0.5l3.6-1.2l0.3-0.1l2,0.4l0.7,0.1l1.3-0.4l0.3-0.1l4.5,0.9
							l-1.6,0.5l2,0.4l0.7,0.1l1.3-0.4l0.3-0.1l4.5,0.9l-1.6,0.5c5.5,1.1,6.1,3.2,1.2,4.9C597.7,461.9,594.3,462.4,590.8,462.5z
							 M574.2,466.2c3.1,0.2,6.7-0.2,9-1c3.1-1,2.7-2.4-0.8-3.1l-8.1-1.6l-0.3,0.1l-10.8,3.6l8.2,1.6
							C572.2,466.1,573.2,466.2,574.2,466.2 M587.4,456.2l-9.2,3.1l7.2,1.4c0.7,0.1,1.5,0.2,2.4,0.3c2.7,0.1,5.8-0.2,7.8-0.8
							c2.6-0.9,2.3-2.1-0.7-2.6l-7.2-1.4L587.4,456.2"/>
					</g>
					<g id="XMLID_575_">
						<path id="XMLID_576_" class="st9" d="M590.8,461.1c1.3,1.1,0.3,2.5-3,3.6c-3.9,1.3-9.8,1.9-15.1,1.7c-1.9-0.1-3.7-0.3-5.3-0.6
							l-0.9-0.2l-0.3,0.1l-1.3,0.4l-0.7-0.1l-3.8-0.7l1.6-0.5l-2.7-0.5l-0.3,0.1l-1.3,0.4l-0.7-0.1l-3.8-0.7l1.6-0.5l-2.7-0.5
							l3.6-1.2l0.3-0.1l2,0.4l0.7,0.1l11.1-3.7l4-1.3l9.5-3.2l-2.7-0.5l3.6-1.2l0.3-0.1l2,0.4l0.7,0.1l1.3-0.4l0.3-0.1l4.5,0.9
							l-1.6,0.5l2,0.4l0.7,0.1l1.3-0.4l0.3-0.1l4.5,0.9l-1.6,0.5c5.5,1.1,6.1,3.2,1.2,4.9C597.7,460.4,594.3,460.9,590.8,461.1z
							 M574.2,464.8c3.1,0.2,6.7-0.2,9-1c3.1-1,2.7-2.4-0.8-3.1l-8.1-1.6l-0.3,0.1l-10.8,3.6l8.2,1.6
							C572.2,464.6,573.2,464.7,574.2,464.8 M587.4,454.7l-9.2,3.1l7.2,1.4c0.7,0.1,1.5,0.2,2.4,0.3c2.7,0.1,5.8-0.1,7.8-0.8
							c2.6-0.9,2.3-2.1-0.7-2.7l-7.2-1.4L587.4,454.7"/>
					</g>
					<path id="XMLID_123_" class="st8" d="M536.1,467.1v11.7c2.8,1.5,7,2.9,12.5,4c5.5,1.1,11.7,1.7,18.2,2v-11.9
						c-6.7-0.3-13-0.9-18.6-2C542.9,469.8,538.9,468.5,536.1,467.1z"/>
				</g>
			</g>
		</g>
		<g id="XMLID_534_">
			<g id="XMLID_548_">
				<g id="XMLID_549_" class="st5">
					<g id="XMLID_569_">
						<path id="XMLID_122_" class="st6" d="M535.8,457c-0.1-3.2-0.3-7.5-0.4-10.8c0.1,2.2,0.3,8.2,0.4,10.5
							C535.8,456.9,535.8,456.9,535.8,457z"/>
					</g>
					<g id="XMLID_567_">
						<path id="XMLID_121_" class="st7" d="M624.7,441.7c0.2,4,0.3,7.9,0.5,11.9c0.1,3-3.9,6.2-12.1,9c-17.8,6-48.7,7.6-69,3.6
							c-10.9-2.1-16.6-5.4-16.7-8.9l-0.4-11.9c0.1,3.5,5.8,6.8,16.7,8.9c20.3,4,51.2,2.3,69-3.6C620.8,448,624.8,444.8,624.7,441.7z
							"/>
					</g>
					<g id="XMLID_563_">
						<path id="XMLID_564_" class="st6" d="M608,432.8c20.3,4,22.4,12,4.6,17.9c-17.8,6-48.7,7.6-69,3.6c-20.3-3.9-22.4-12-4.6-17.9
							C556.8,430.5,587.7,428.8,608,432.8z M549.1,452.5c16.8,3.3,42.4,1.9,57.1-3c14.7-4.9,13-11.6-3.8-14.9
							c-16.8-3.3-42.4-1.9-57.1,3C530.6,442.6,532.3,449.2,549.1,452.5"/>
					</g>
					<path id="XMLID_118_" class="st7" d="M602.5,434.6c16.8,3.3,18.5,9.9,3.8,14.9c-14.7,4.9-40.3,6.3-57.1,3
						c-16.8-3.3-18.5-9.9-3.8-14.9C560.1,432.7,585.6,431.4,602.5,434.6z"/>
					<path id="XMLID_117_" class="st8" d="M545.3,439.1c14.7-4.9,40.3-6.3,57.1-3c8.4,1.6,13,4.1,13.7,6.8c0.8-3.2-3.8-6.3-13.7-8.3
						c-16.8-3.3-42.4-1.9-57.1,3c-7.4,2.5-10.7,5.4-9.9,8.1C536,443.5,539.3,441.2,545.3,439.1z"/>
					<g id="XMLID_556_">
						<path id="XMLID_557_" class="st8" d="M586.3,446.1c1.3,1.1,0.3,2.5-3,3.6c-3.9,1.3-9.8,1.9-15.1,1.7c-1.9-0.1-3.7-0.3-5.3-0.6
							l-0.9-0.2l-0.3,0.1l-1.3,0.4l-0.7-0.1l-3.8-0.7l1.6-0.5l-2.7-0.5l-0.3,0.1l-1.3,0.4l-0.7-0.1l-3.8-0.7l1.6-0.5l-2.7-0.5
							l3.6-1.2l0.3-0.1l2,0.4l0.7,0.1l11.1-3.7l4-1.3l9.5-3.2l-2.7-0.5l3.6-1.2l0.3-0.1l2,0.4l0.7,0.1l1.3-0.4l0.3-0.1l4.5,0.9
							l-1.6,0.5l2,0.4l0.7,0.1l1.3-0.4l0.3-0.1l4.5,0.9l-1.6,0.5c5.5,1.1,6.1,3.2,1.2,4.9C593.2,445.4,589.8,445.9,586.3,446.1z
							 M569.7,449.8c3.1,0.2,6.7-0.2,9-1c3.1-1,2.7-2.4-0.8-3.1l-8.2-1.6l-0.3,0.1l-10.8,3.6l8.1,1.6
							C567.7,449.6,568.7,449.7,569.7,449.8 M582.9,439.8l-9.2,3.1l7.2,1.4c0.7,0.1,1.5,0.2,2.4,0.3c2.7,0.1,5.8-0.2,7.8-0.8
							c2.6-0.9,2.3-2.1-0.7-2.7l-7.2-1.4L582.9,439.8"/>
					</g>
					<g id="XMLID_551_">
						<path id="XMLID_552_" class="st9" d="M586.3,444.6c1.3,1.1,0.3,2.5-3,3.6c-3.9,1.3-9.8,1.9-15.1,1.7c-1.9-0.1-3.7-0.3-5.3-0.6
							l-0.9-0.2l-0.3,0.1l-1.3,0.4l-0.7-0.1l-3.8-0.7l1.6-0.5l-2.7-0.5l-0.3,0.1l-1.3,0.4l-0.7-0.1l-3.8-0.7l1.6-0.5l-2.7-0.5
							l3.6-1.2l0.3-0.1l2,0.4l0.7,0.1l11.1-3.7l4-1.3l9.5-3.2l-2.7-0.5l3.6-1.2l0.3-0.1l2,0.4l0.7,0.1l1.3-0.4l0.3-0.1l4.5,0.9
							l-1.6,0.5l2,0.4l0.7,0.1l1.3-0.4l0.3-0.1l4.5,0.9l-1.6,0.5c5.5,1.1,6.1,3.2,1.2,4.9C593.2,443.9,589.8,444.4,586.3,444.6z
							 M569.7,448.3c3.1,0.2,6.7-0.2,9-1c3.1-1,2.7-2.4-0.8-3.1l-8.2-1.6l-0.3,0.1l-10.8,3.6l8.1,1.6
							C567.7,448.1,568.7,448.3,569.7,448.3 M582.9,438.3l-9.2,3.1l7.2,1.4c0.7,0.1,1.5,0.2,2.4,0.3c2.7,0.1,5.8-0.1,7.8-0.8
							c2.6-0.9,2.3-2.1-0.7-2.7l-7.2-1.4L582.9,438.3"/>
					</g>
					<path id="XMLID_110_" class="st8" d="M531.6,450.6v11.7c2.8,1.5,7,2.9,12.5,4c5.5,1.1,11.7,1.7,18.2,2v-11.9
						c-6.7-0.3-13-0.9-18.6-2C538.4,453.3,534.4,452.1,531.6,450.6z"/>
				</g>
			</g>
			<g id="XMLID_535_">
				<g id="XMLID_536_" class="st5">
					<g id="XMLID_546_">
						<path id="XMLID_109_" class="st6" d="M540.3,443c-0.1-3.2-0.3-7.5-0.4-10.8c0.1,2.2,0.3,8.2,0.4,10.5
							C540.3,442.8,540.3,442.9,540.3,443z"/>
					</g>
					<g id="XMLID_544_">
						<path id="XMLID_108_" class="st7" d="M629.2,427.7c0.2,4,0.3,7.9,0.5,11.9c0.1,3-3.9,6.2-12.1,9c-17.8,6-48.7,7.6-69,3.6
							c-10.9-2.1-16.6-5.4-16.7-8.9l-0.5-11.9c0.1,3.5,5.8,6.8,16.7,8.9c20.3,3.9,51.2,2.3,69-3.6
							C625.3,433.9,629.3,430.7,629.2,427.7z"/>
					</g>
					<g id="XMLID_540_">
						<path id="XMLID_541_" class="st6" d="M612.5,418.7c20.3,4,22.4,12,4.6,17.9c-17.8,6-48.7,7.6-69,3.6c-20.3-4-22.4-12-4.6-17.9
							C561.3,416.4,592.2,414.8,612.5,418.7z M553.6,438.5c16.8,3.3,42.4,1.9,57.1-3c14.7-4.9,13-11.6-3.8-14.9
							c-16.8-3.3-42.4-1.9-57.1,3C535.1,428.5,536.8,435.2,553.6,438.5"/>
					</g>
					<path id="XMLID_105_" class="st7" d="M607,420.6c16.8,3.3,18.5,9.9,3.8,14.9c-14.7,4.9-40.3,6.3-57.1,3
						c-16.8-3.3-18.5-9.9-3.8-14.9C564.6,418.7,590.2,417.3,607,420.6z"/>
					<path id="XMLID_104_" class="st8" d="M549.8,425.1c14.7-4.9,40.3-6.3,57.1-3c8.4,1.6,13,4.1,13.7,6.8c0.8-3.2-3.8-6.3-13.7-8.3
						c-16.8-3.3-42.4-1.9-57.1,3c-7.4,2.5-10.7,5.4-9.9,8.1C540.5,429.4,543.8,427.1,549.8,425.1z"/>
					<path id="XMLID_103_" class="st8" d="M536.1,436.6v11.7c2.8,1.5,7,2.9,12.5,4c5.5,1.1,11.7,1.7,18.2,2v-11.9
						c-6.7-0.3-13-0.9-18.6-2C542.9,439.3,538.9,438,536.1,436.6z"/>
				</g>
			</g>
		</g>
	</g>
	<g id="XMLID_491_">
		<path id="XMLID_102_" class="st24" d="M566.9,426.1c0,0,34.8,0.1,48.2,0.3c9.3,0.1,10.1-13.1,6.5-15.1
			c-11.1-6.1-45.9-9.2-45.9-9.2l-23.6,21.7C552.1,423.8,553.4,423.7,566.9,426.1z"/>
		<path id="XMLID_101_" class="st25" d="M599.7,355c0,0,8.9-2.5,12.8,9.2c6,17.9,5.4,34.4,4.6,37.9c-0.4,1.6-1.5,7.2-11.5,7.4
			c-4.1,0.1-2.4-8.6-2.4-8.6s-2.6-7.4-5.4-19.9C595,368.6,599.7,355,599.7,355z"/>
		<path id="XMLID_100_" class="st26" d="M606.8,356.1l-22.9-7.4l-17.4-1.2l-19,5.8c0,0-6.2,4.3-0.4,18.1c5.8,13.8,3.6,35.4,3.6,35.4
			l49.1,1.6c0,0,0.9-20,4.2-40C604.5,363.9,604.6,358.6,606.8,356.1z"/>
		<path id="XMLID_99_" class="st25" d="M573.1,407.3h2.5c2.6-19.3,2.5-39.2-0.4-58.4c-0.8,0.4-1.5,0.9-2.3,1.3
			C573.6,369.9,572.5,389.6,573.1,407.3z"/>
		<g id="XMLID_527_">
			<path id="XMLID_98_" class="st21" d="M582.8,354c-0.3,2.7-2.5,5-4.8,5.1c-2.2,0-4.3,0-6.5,0c-2.3-0.1-4.4-2.4-4.8-5.1
				c-0.5-4.4-1.1-8.8-1.6-13.1c-0.4-2.6,1.2-7.9,4.7-9.5c3.2-1.4,6.8-1.4,9.9,0c3.5,1.6,5,6.8,4.7,9.5
				C583.9,345.3,583.4,349.7,582.8,354z"/>
		</g>
		<polygon id="XMLID_97_" class="st25" points="574.5,359.4 570.4,366.2 562.9,356.7 564.1,351.8 566.5,349.8 566.5,353.5 		"/>
		<polygon id="XMLID_96_" class="st25" points="575,359.4 579.2,366.2 586.2,357.4 585,352 583.3,349.7 582.6,354.1 		"/>
		<g id="XMLID_517_">
			<path id="XMLID_95_" class="st17" d="M573.8,323.1c-1.8,0-3.4,0.9-4.3,2.3h-1.8c-2.2,0-4,1.8-4,4v9.9h2.8v-4
				c0-1.6,1.3-2.8,2.8-2.8h1.7h-2.6h1.7c2.9,0,5.2-2.3,5.2-5.2v-4.2H573.8z"/>
			<path id="XMLID_94_" class="st21" d="M568.8,343.1c0,1.4-1.1,2.5-2.5,2.5h-0.2c-1.4,0-2.5-1.1-2.5-2.5v-3c0-1.4,1.1-2.5,2.5-2.5
				h0.2c1,0,1.9,0.6,2.3,1.5"/>
			<path id="XMLID_93_" class="st17" d="M571.6,327.1v-3.9h1.6h4.3h2.6c2.9,0,5.2,2.3,5.2,5.2v3.9h-1.6h-4.3h-2.6
				C573.9,332.3,571.6,330,571.6,327.1z"/>
			<path id="XMLID_92_" class="st22" d="M584.6,346.9c0,2.1-1.6,5.6-4.2,6.7c-3.6,1.5-7.8,1.5-11.3,0c-2.6-1.1-4.2-4.6-4.2-6.7
				c0-5.9,0-11.7,0-17.6c0-2.1,2.1-3.8,4.6-3.9c3.5,0,7,0,10.5,0c2.6,0,4.6,1.8,4.6,3.9C584.6,335.2,584.6,341.1,584.6,346.9z"/>
			<path id="XMLID_91_" class="st17" d="M576.8,323.1c1.8,0,3.4,0.9,4.3,2.3h1.8c2.2,0,4,1.8,4,4v9.9h-2.8v-4c0-1.6-1.3-2.8-2.8-2.8
				h0h1h-4.6c-2.9,0-5.2-2.3-5.2-5.2v-4.2H576.8z"/>
			<path id="XMLID_90_" class="st22" d="M581.8,340.2c0-1.4,1.1-2.5,2.5-2.5h0.2c1.4,0,2.5,1.1,2.5,2.5v3c0,1.4-1.1,2.5-2.5,2.5
				h-0.2c-1,0-1.9-0.6-2.3-1.5"/>
			<path id="XMLID_89_" class="st17" d="M572.4,328.1c0.1-0.3,0.1-0.7,0.1-1v-3.9h-1.6h-2c-2.9,0-5.2,2.3-5.2,5.2v3.9h1.1h0.6h2
				c0.4,0,0.7,0,1.1-0.1C568.8,330.1,570.4,328.5,572.4,328.1z"/>
		</g>
		<path id="XMLID_88_" class="st23" d="M526.9,492.6c-0.5,0.6-0.1,2.4-0.1,2.4s9.4,1,12.4,0.3c0.8-0.2,2.1-0.9,3.4-1.6
			c0.2-0.1,0.6-0.8,0.8-1c0.4-0.2,0.6,0.2,0.9-0.1c0.8-0.5,1.4-0.9,1.4-1c0.8-4.3-0.3-6-0.3-6s-8-2.6-9.5-0.8
			C532.3,489.2,528.1,491.2,526.9,492.6z"/>
		<path id="XMLID_87_" class="st23" d="M614.4,487.9l0.6,7.1l7.1,0.7c0,0,0.5-0.9,1.1-0.9c0.5,0.1,1.1,1.1,1.7,1.2
			c1.5,0.1,3.1,0.3,3.8,0.4c1.3,0.1,14.2,1.4,14.2,1.4s0.5-1.4,0.1-2c-0.2-0.3-1.3-0.8-2.1-1.1c-3.6-1.4-13.7-5.6-15.2-9.3
			C624.1,480.9,614.4,487.9,614.4,487.9z"/>
		<g id="XMLID_513_">
			<path id="XMLID_86_" class="st22" d="M603.7,398.3l-24,9.8c0,0,17,2.4,27.6,0.3C614.6,406.9,604,398,603.7,398.3z"/>
		</g>
		<path id="XMLID_85_" class="st24" d="M549.3,413.2c0,0-2.3,21.9-2,33.4c0.2,8.7,0.3,25.4-1.8,39.7c-0.1,0.9-11.3,0.2-11.3,0.2
			s-4-54.2-5.2-63.2C527.9,414.5,531.4,408.1,549.3,413.2z"/>
		<path id="XMLID_84_" class="st27" d="M619.4,418.5c0,0-3.6,5.7-13.4,7c-3.6,0.5,5.7,63.5,5.7,63.5l14.5-4.7l-2.8-69.7L619.4,418.5
			z"/>
		<path id="XMLID_83_" class="st27" d="M579.3,425.5c0,0-19,2.7-31.7,4c-4.7,0.5-8.7-12.5-9.2-13.1c-3.4-3.6-6.8-3.1-6.6-3.2
			c2.8-3,17-5.7,31.9-9.2c14.9-3.5,17.2-1.3,17.2-1.3L579.3,425.5z"/>
		<path id="XMLID_82_" class="st24" d="M563.6,404c-14.9,3.5-29.1,6.3-31.9,9.2c-0.1,0.1,3.2-0.3,6.6,3.2c0.1,0.2,1,4.3,1.6,5.8
			c-2.4-4.4,32.6-16.7,40.1-19.9C578.7,401.9,574.5,401.4,563.6,404z"/>
		<polygon id="XMLID_81_" class="st27" points="547.2,425.4 545.8,467.9 544.3,477.8 544.2,467.9 544.5,461.8 541.1,452.2 
			539.3,430.1 541.9,431 541.6,421.3 		"/>
		<path id="XMLID_80_" class="st24" d="M618.9,413.2l3.6,1l1.3,51.1l-7.5,18.3l3.6-12.5l-1.5-25.7c0,0-5.2,12.5-5.2,11.8
			c0-0.6,4.4-27,4.4-27s-4.9,4-4.4,3.9C613.8,433.9,616.2,415.7,618.9,413.2z"/>
		<path id="XMLID_79_" class="st26" d="M557.9,353.4c0,0-7.6-6-15.1,5.1c-11,16.3-15.7,33.6-17.5,38.6c-1.3,3.8-0.6,14.7,3.9,19.2
			c1.1,1.1,7.6,0.2,7.6,0.2l4.2-2.9l-1.8-3.4l-0.1-2.7c0,0,5.4-13.1,12.1-25.5C557.9,369.7,557.9,353.4,557.9,353.4z"/>
		<g id="XMLID_501_">
			<path id="XMLID_78_" class="st22" d="M539.2,403.3l24.8,1.3c0,0-23.9,11-24.7,9.1C534.9,402.9,539.2,403.3,539.2,403.3z"/>
			<g id="XMLID_502_">
				<path id="XMLID_77_" class="st22" d="M552.9,402.5c1.4-0.7,1.3-0.7,1.3-0.7s1.3,1.6,3.2,1.9c1,0.1,4,0.2,4,0.2l4.6,0.1l2.1-0.1
					c0,0,1.2-0.2,1.5,0c0.9,0.6,0.1,1.1,0.1,1.1l-8.2,1.2l7.9,1c0,0,1,0.3,1,0.8c0,0.5-0.3,0.5-0.3,0.5l-9.1,1l4,1c0,0,1,0.3,1,0.8
					c0.1,0.6,0.1,0.7,0.1,0.7l-8.4-0.8C557.9,411.1,551.4,403.2,552.9,402.5z"/>
				<path id="XMLID_76_" class="st22" d="M562,407.6l5.5,1c0,0,1.3,0.1,1.8,0.5c0.6,0.5,0.3,1,0.3,1l-8.4-0.7L562,407.6z"/>
			</g>
		</g>
		<g id="XMLID_494_">
			<path id="XMLID_75_" class="st28" d="M596.5,411.9C596.5,411.9,596.5,411.8,596.5,411.9v-1.6h-48.9v1.6c0,0,0,0,0,0.1l0.2,0.3
				c0.8,1.4,2.3,1.6,4,1.6h40.5c1.7,0,3.2-0.2,4-1.6L596.5,411.9z"/>
			<g id="XMLID_498_">
				<rect id="XMLID_74_" x="555.9" y="410.6" class="st29" width="32.4" height="1.1"/>
			</g>
			<g id="XMLID_495_">
				<path id="XMLID_73_" class="st30" d="M596.5,410.4l0.1-32.1c0-0.8-0.7-1.5-1.5-1.5h-45.8c-0.8,0-1.5,0.7-1.5,1.5l-0.1,32.1
					H596.5z"/>
				<path id="XMLID_72_" class="st28" d="M575.1,393.6c0,1.6-1.3,3-3,3c-1.6,0-3-1.3-3-3c0-1.6,1.3-3,3-3
					C573.8,390.7,575.1,392,575.1,393.6z"/>
			</g>
		</g>
		<polygon id="XMLID_71_" class="st25" points="536,415.7 534.3,404.8 537.1,401.9 543.4,402.9 542.1,414.9 		"/>
		<polygon id="XMLID_70_" class="st26" points="612.1,407.8 612.8,403.8 604.8,396.7 600.6,398.7 606.2,409.4 		"/>
	</g>
	<g id="XMLID_480_">
		<g id="XMLID_481_">
			<polygon id="XMLID_69_" class="st31" points="223.5,214 272.2,194.5 234.3,215.2 			"/>
			<polygon id="XMLID_68_" class="st32" points="237.8,224.6 272.2,194.5 234.3,215.2 			"/>
			<polygon id="XMLID_67_" class="st33" points="223.6,214 245.4,209.1 234.9,214.9 			"/>
			<polygon id="XMLID_66_" class="st14" points="223.5,214 244.9,209.4 234.3,215.2 			"/>
			<polygon id="XMLID_65_" class="st7" points="237.8,224.6 246,217 245.4,209.1 234.3,215.2 			"/>
			<polygon id="XMLID_64_" class="st34" points="237.8,224.6 272.2,194.5 242.2,217.2 			"/>
			<polygon id="XMLID_63_" class="st31" points="257.5,228.5 272.2,194.5 242.2,217.2 			"/>
			<polygon id="XMLID_62_" class="st33" points="257.5,228.5 249.5,211.7 242.5,216.9 			"/>
			<polygon id="XMLID_61_" class="st14" points="257.5,228.5 249.3,211.9 242.2,217.2 			"/>
		</g>
	</g>
	<g id="XMLID_476_">
		<path id="XMLID_60_" class="st35" d="M139.1,359.5c0,0-0.8-0.2-2.3-0.7"/>
		<path id="XMLID_59_" class="st36" d="M132.2,357.1c-15.5-6.2-52.4-25.6-62.7-74.1c-4.4-20.9-6.5-39.5,0.5-60.5
			c33.1-99.3,144.8-71.3,116.3,8.9c-28.5,80.3-76.6,65-65.4,40.8c10.8-23.3,71.2-13.6,104-37.1"/>
		<path id="XMLID_58_" class="st35" d="M226.9,233.6c0.6-0.5,1.3-1,1.9-1.6"/>
	</g>
	<g id="XMLID_440_">
		<g id="XMLID_445_">
			<path id="XMLID_57_" class="st37" d="M196.3,345.6c3.5,7.1,12.2,10,19.5,6.5c7.3-3.5,10.4-12.2,6.9-19.3
				c-3.5-7.1-12.2-10-19.5-6.5C195.9,329.8,192.8,338.4,196.3,345.6z"/>
			<path id="XMLID_56_" class="st37" d="M188.9,363.9c4.4,9,15.4,12.7,24.6,8.2c9.2-4.5,13.1-15.4,8.7-24.4
				c-4.4-9-15.4-12.7-24.6-8.2C188.4,343.9,184.6,354.9,188.9,363.9z"/>
			<g id="XMLID_466_">
				<g id="XMLID_468_">
					<g id="XMLID_470_">
						<path id="XMLID_55_" class="st21" d="M204.4,383.8c0,0,0.5,2.4-11,5.3c-11.6,2.9-29.3,4.4-29.3,4.4l26.1-9.3
							C190.1,384.2,200.2,381.2,204.4,383.8z"/>
						<path id="XMLID_54_" class="st21" d="M173.3,392c-5.5,1.6-7,5-8.9,6.4c-1.9,1.5-3.7,3.4-3.7,3.4c0.5-2.7,2.3-3.3,3-4.3
							c0.7-1,0.5-0.6-1.4-0.2c-1.1,0.2-2.5,2.7-3.6,4.2c-0.9,1.3-1.7,1.6-1.7,1.6s0.8-2.4,2.2-4.5c1.6-2.5,3.9-4.9,4.4-5.4
							c1-0.8,4.7-2,7.4-2.4C173.9,390.6,177.3,390.9,173.3,392z"/>
						<path id="XMLID_53_" class="st21" d="M163.8,393.4c0,0-3.9,2.3-4.5,3c-0.4,0.5-1.9,3.4-1.9,3.4s1.5-0.7,2.2-1.8
							C160.3,396.9,163.8,393.4,163.8,393.4z"/>
					</g>
					<path id="XMLID_52_" class="st2" d="M197.9,380.2c0,0,10.8-2.4,11.8,4.1c0.6,3.7-1.4,5.6-4.7,6.3c-6.1,1.2-13,2.3-13,2.3
						l-5.8-8.9L197.9,380.2z"/>
				</g>
				<path id="XMLID_51_" class="st2" d="M197.3,374.9l3-29.4c0,0-0.2-7.7,2.6-7.5c4,0.2,4.8,6.9,5.1,9.3c0.7,4.9,1.7,6.8,1.7,19
					c0,7.5,0.5,16.1,0,21.2c-0.3,3.5-3.7-0.4-7.3-0.7C195.7,386,197.3,374.9,197.3,374.9z"/>
			</g>
			<polygon id="XMLID_50_" class="st22" points="132.7,457.3 122.9,478.6 109.3,478.9 102.4,477.5 117.2,474 125.2,454.2 			"/>
			<path id="XMLID_49_" class="st23" d="M121.4,482l-1.8-0.4l-1-2.2l-11,0.5l-8.9-1.6c0,0,0.2-0.7,0.6-0.9c1.6-0.8,8.4-1.2,8.4-1.2
				s-0.7,1.9,0.1,2.3c0.8,0.4,9.3-0.1,11.3-0.4c3.5-0.5,5.3-1.4,5.2-0.9C124.1,477.7,121.4,482,121.4,482z"/>
			<path id="XMLID_48_" class="st25" d="M187.1,414l-32.1-0.9l-23.9,52.4l-9.9-3.9l23.3-63c0,0,1.9-4,11.6-4c9.4,0,47.5-1,51.9,0.2
				C218.2,397.6,185.4,405.3,187.1,414z"/>
			<path id="XMLID_47_" class="st37" d="M210,326.9c3.5,7.1,12.2,10,19.5,6.5c7.3-3.5,10.4-12.2,6.9-19.3c-3.5-7.1-12.2-10-19.5-6.5
				C209.6,311.1,206.5,319.8,210,326.9z"/>
			<path id="XMLID_46_" class="st37" d="M195,322.3c2.7,5.5,9.3,7.8,14.7,5.1l0.2-5.9c5.5-2.7,7.8-9.3,5.1-14.7l-1.8-3.7
				c-2.7-5.5-9.3-7.8-14.8-5.1l-2.5,1.2c-5.5,2.7-7.8,9.3-5.1,14.8L195,322.3z"/>
			<path id="XMLID_45_" class="st22" d="M191.9,305.8c0.5,0.9,1,1.8,1.6,2.7c4.1,5.9,10.3,8.8,14.9,7.4c1.5,2.8,3.4,5.1,5.1,7
				c2,2.1,6.2,3.3,6.2,3.3c2.9,4.1,1.3,15.9-9.1,17.1c-6.2,0.7-4.9-5.8-2.8-9.9c1-1.9,2-4.1,1.8-5.2c-0.8-3.8-2.2-4.3-4.4-5.6
				c-3.7-1.6-7.1,0.1-7.1,0.1c-0.3,0.2-0.7,0.2-1,0c-0.5-0.6-1-1.2-1.3-1.9l-4-8.2C190.7,310.4,190.8,307.9,191.9,305.8z"/>
			<path id="XMLID_44_" class="st19" d="M224.2,403.6c0,0-4.7,1-6,1.5c-1.7,0.7-6.9-0.2-6.9-0.2s-0.7-25.2-1.9-34
				c-1.2-8.8-3.5-11.2-3.5-14c0-4.4,0.4-5.4,1.2-8.8c0.8-3.4-1.5-8-0.7-7.1c1.2,1.4,5.9,3.6,10.3-1.2
				C217.4,338.9,224.2,403.6,224.2,403.6z"/>
			<path id="XMLID_43_" class="st0" d="M207.5,330.7c0,0-6.4,6.5-6.1,8.6c0.3,2.1-0.4,11,1.1,20.5c1.5,9.5,2.6,11.8,2.9,18.8
				c0.2,6.9-1.4,8.5-0.8,17c0.5,6.7,1.5,12.5,1.5,12.5s3,0.9,5.3-1.6c2.3-2.5,1.5-25.6,0.6-31.3c-0.8-5.7-4.2-20.7-4-24.6
				c0.2-4,1.5-13.5,2.2-14.7C211.9,332.7,208,331,207.5,330.7z"/>
			<path id="XMLID_42_" class="st2" d="M207.5,330.1c0,0,0.3,0.6,0.8,0.9c0.8,0.6,1.9,1.7,1.9,1.7s-1.3-0.6-1.8,0.5
				c-0.6,1.4-1,4.4-1,4.4s-2.4-3.9-1.8-5.2C206.6,330.2,207.5,330.1,207.5,330.1z"/>
			<path id="XMLID_41_" class="st37" d="M216.3,345.5c2.5,7.9,11,12.3,19.1,9.8c8.1-2.5,12.6-11,10.2-18.9
				c-2.5-7.9-11-12.3-19.1-9.8C218.4,329.1,213.8,337.6,216.3,345.5z"/>
			<polygon id="XMLID_40_" class="st22" points="164.4,461.9 163.9,476.9 160.9,480.4 152.8,485.1 146.8,484 157.4,476.1 
				158.2,460.5 			"/>
			<path id="XMLID_39_" class="st23" d="M163.5,480.1l-2.7,1.9l-0.8-0.7l-7.5,4.8c0,0-6.8,1.8-8.2,0.2c-0.4-0.5,0.7-1.3,2.2-2.5
				c1.2-0.9,1.9-1.2,1.9-1.2s0.3,1.2,3,1.6c0.9,0.1,6.2-3.4,8.1-4.3c3.3-1.7,4.6-4,4.8-3.8C164.7,476.8,163.5,480.1,163.5,480.1z"/>
			<path id="XMLID_38_" class="st26" d="M228,383.3l-3.9,9.2l-6.7,0.8l-53.8,3.4c0,0-4.8-1.5-7.9,6.1c-4.4,10.8,1.3,65,1.3,65l8-0.1
				l4.3-51.1c0,0,51.7,9,66.5,4.5c5.7-1.8,10.1-11.8,9.3-22c-0.6-8-6-15.3-6-15.3L228,383.3z"/>
			<path id="XMLID_37_" class="st0" d="M220.7,402.5c0,0-2.5-22.5-3.9-33.2c-1.4-10.7-1.1-28.6-1.4-31.1c-0.3-2.6-1.7-6.3-1.7-6.3
				s2.6-5.8,6-5.6c3,0.2,12.4,3.3,17,5.2c3.2,1.3,1.5,37.2,1.8,39.1c1,6.8,4.4,14.6,6.5,20c1.7,4.3,3.1,10.7,3.1,10.7
				S230.8,399.3,220.7,402.5z"/>
			<path id="XMLID_36_" class="st2" d="M219,324.5l-2.5,2.9c0,0-3.5,4.9-2.4,4.2c1.5-0.9,3.1,4.2,3.1,4.2l4.7-9.6L219,324.5z"/>
			<g id="XMLID_447_">
				<path id="XMLID_35_" class="st22" d="M239.6,379.3c0,0,3.9,2.8-10.9,4.3c-14.9,1.5-37,0.4-37,0.4l34-6.4
					C225.7,377.6,235,375.7,239.6,379.3z"/>
				<path id="XMLID_34_" class="st22" d="M203.5,383.8c-7,0.9-9.6,4.5-12.3,5.9c-2.7,1.4-5.2,3.2-5.2,3.2c1.2-2.9,3.5-3.3,4.5-4.4
					c1-1,0.8-0.5-1.8-0.4c-1.4,0.1-3.6,2.7-5.3,4.2c-1.4,1.3-2.4,1.5-2.4,1.5s1.5-2.5,3.6-4.7c2.5-2.6,5.7-4.9,6.5-5.4
					c1.4-0.7,6.1-1.5,9.5-1.5C204.5,382.3,208.6,383.1,203.5,383.8z"/>
				<path id="XMLID_33_" class="st22" d="M191.5,383.9c0,0-5.2,1.9-6.1,2.7c-0.6,0.5-3,3.5-3,3.5s2-0.6,3-1.7
					C186.5,387.3,191.5,383.9,191.5,383.9z"/>
			</g>
			<path id="XMLID_32_" class="st2" d="M230.8,375.1l-4.8-32.7c0,0,1.2-6.7,3.3-9c2.5-2.7,7.2-1.9,7.2-1.9s5.5,4.5,5.9,30.4
				c0.3,17.7,1.9,25-5.7,25.8c-7.1,0.7-15.3,1.2-15.3,1.2l-5.4-10.7L230.8,375.1z"/>
		</g>
		<g id="XMLID_441_">
			<rect id="XMLID_31_" x="143.6" y="392.8" class="st32" width="46.9" height="1"/>
			<path id="XMLID_30_" class="st32" d="M169.8,392.7c0,0.7-0.5,1.4-1.2,1.4h-24c-0.7,0-1.5-0.5-2.3-2.4L130.4,370
				c0-0.9,0.7-1.5,1.4-1.4l24.7,0.7c0.7,0.2,1.2,0.7,1.6,1.6L169.8,392.7z"/>
			<path id="XMLID_29_" class="st34" d="M166.9,393.7h0.2h23.5c-0.8,0.4-2.2,0.7-3.8,0.7h-19.6h-0.2h-19.6c-1.6,0-3-0.3-3.8-0.7
				H166.9z"/>
		</g>
	</g>
	<ellipse id="XMLID_28_" class="st0" cx="708.5" cy="490.5" rx="50" ry="11.7"/>
	<g id="XMLID_431_">
		<g id="XMLID_437_">
			<path id="XMLID_27_" class="st10" d="M699.4,400c-25.4-3.4-48.8,14.5-52.2,39.9c-3.4,25.4,14.5,48.8,39.9,52.2
				c25.4,3.4,48.8-14.5,52.2-39.9C742.7,426.9,724.8,403.4,699.4,400z"/>
		</g>
		<g id="XMLID_432_">
			<path id="XMLID_26_" class="st3" d="M739.1,439l-4.8,6.6l-8.5,12.7l-3.2-9l-6.9,3.4l-3.3-8.2l-4.2,4.1l-1.8-0.7l-5.5-3l0.3,6.2
				l4.3,2.4l-10.3,18.2l-3.7,1.7l-2.2-7.5l-0.5-12.2l-5.9-1l-1.9-4.8l4.5-8.7l5.1-0.5l2.8,2.4l7.5-0.8l-7.4-5.4l-6.5-2l-0.1-2
				l6.9-2.9l-2.2-4.6l7.3-5l6.6,3.4l12-2.1c0,0,5-1.9,10.7-4C733.9,422.2,737.7,430.3,739.1,439z"/>
			<path id="XMLID_25_" class="st3" d="M669.1,406.5l-3.2,4.2l-5.7,7.7c-0.1,0.2-0.2,0.5-0.1,0.7l2.5,5.5c0.1,0.2,0.4,0.4,0.6,0.4
				c0.2,0,0.5-0.1,0.6-0.3l3.3-4.1l4.6,7.3l-11.8,8l-6-0.2c-0.3,0-0.5,0.1-0.7,0.4l-1.8,3.5c-0.1,0.2-0.1,0.5,0,0.7l3.3,5.6l-6-3.8
				l-1.5-2.5C649.2,425.4,657.6,413.5,669.1,406.5z"/>
			<path id="XMLID_24_" class="st3" d="M660.3,462.6l-3-8.5l5.5-9l11,13l-13.4,20.3l-1.5-5.2l1.4-10.2
				C660.4,462.8,660.3,462.7,660.3,462.6z"/>
			<path id="XMLID_23_" class="st3" d="M676.7,420.6l-3.8-11.6c8-2.8,13.2-3,15.1-2.9l-3.6,9.7L676.7,420.6z"/>
		</g>
	</g>
	<g id="XMLID_400_">
		<g id="XMLID_429_">
			<rect id="XMLID_22_" x="510.8" y="207.7" class="st3" width="5.8" height="5.4"/>
		</g>
		<g id="XMLID_427_">
			<rect id="XMLID_21_" x="518.7" y="209.1" class="st38" width="27.5" height="2.7"/>
		</g>
		<g id="XMLID_425_">
			<rect id="XMLID_20_" x="554.1" y="207.7" class="st10" width="5.8" height="5.4"/>
		</g>
		<g id="XMLID_423_">
			<rect id="XMLID_19_" x="562" y="209.1" class="st38" width="23.9" height="2.7"/>
		</g>
		<g id="XMLID_421_">
			<rect id="XMLID_18_" x="594.6" y="207.7" class="st39" width="5.8" height="5.4"/>
		</g>
		<g id="XMLID_419_">
			<rect id="XMLID_17_" x="602.5" y="209.1" class="st38" width="23.9" height="2.7"/>
		</g>
		<g id="XMLID_401_">
			<g id="XMLID_402_">
				<rect id="XMLID_16_" x="638.8" y="186" class="st39" width="4.4" height="14.6"/>
				<rect id="XMLID_15_" x="630.3" y="181.3" class="st38" width="4.4" height="19.3"/>
				<rect id="XMLID_14_" x="621.7" y="188.9" class="st39" width="4.4" height="11.7"/>
				<rect id="XMLID_13_" x="613.2" y="173.5" class="st3" width="4.4" height="27.2"/>
				<rect id="XMLID_12_" x="604.7" y="178.4" class="st39" width="4.4" height="22.3"/>
				<rect id="XMLID_11_" x="596.2" y="170.5" class="st3" width="4.4" height="30.2"/>
				<rect id="XMLID_10_" x="587.7" y="188.5" class="st38" width="4.4" height="12.2"/>
				<rect id="XMLID_9_" x="579.2" y="180.9" class="st3" width="4.4" height="19.8"/>
				<rect id="XMLID_8_" x="570.7" y="174.5" class="st38" width="4.4" height="26.2"/>
				<rect id="XMLID_7_" x="562.1" y="167.5" class="st39" width="4.4" height="33.2"/>
				<rect id="XMLID_6_" x="553.6" y="172.2" class="st3" width="4.4" height="28.4"/>
				<rect id="XMLID_5_" x="545.1" y="163.5" class="st38" width="4.4" height="37.1"/>
				<rect id="XMLID_4_" x="536.6" y="177.9" class="st39" width="4.4" height="22.8"/>
				<rect id="XMLID_3_" x="528.1" y="181.6" class="st3" width="4.4" height="19.1"/>
				<rect id="XMLID_2_" x="519.6" y="171.3" class="st38" width="4.4" height="29.4"/>
				<rect id="XMLID_1_" x="511.1" y="174.9" class="st39" width="4.4" height="25.7"/>
			</g>
		</g>
	</g>
</g>
</svg>
