<svg width="521" height="368" viewBox="0 0 521 368" fill="none" xmlns="http://www.w3.org/2000/svg">
<path d="M405.53 293.34C369.695 292.873 258.624 290.828 191.218 284.576C66.2214 273.008 -35.8129 292.425 31.2816 314.433C50.0369 320.587 -3.93084 357.611 128.388 365.849C244.523 373.075 362.878 357.28 420.157 350.502C477.436 343.724 503.845 331.727 516.115 326.333C526.885 321.58 530.819 294.957 405.53 293.34Z" fill="#E9F6FF" fill-opacity="0.2"/>
<path d="M82.8505 0H0V155.827H82.8505V0Z" fill="#E6EEF4"/>
<path d="M74.6901 16.7687H12.3282V19.3396H74.6901V16.7687Z" fill="#BCD0E2"/>
<path d="M32.5247 11.296H12.3282V13.8668H32.5247V11.296Z" fill="#BCD0E2"/>
<path d="M15.6586 29.2333H12.3282V32.5637H15.6586V29.2333Z" fill="#BCD0E2"/>
<path d="M25.1044 29.2333H21.774V32.5637H25.1044V29.2333Z" fill="#BCD0E2"/>
<path d="M34.5308 29.2333H31.2004V32.5637H34.5308V29.2333Z" fill="#BCD0E2"/>
<path d="M43.9766 29.2333H40.6462V32.5637H43.9766V29.2333Z" fill="#C4D1E1"/>
<path d="M53.4029 29.2333H50.0726V32.5637H53.4029V29.2333Z" fill="#C4D1E1"/>
<path d="M62.8487 29.2333H59.5184V32.5637H62.8487V29.2333Z" fill="#B0BFDE"/>
<path d="M72.2751 29.2333H68.9447V32.5637H72.2751V29.2333Z" fill="#B0BFDE"/>
<path d="M15.6586 37.5689H12.3282V40.8993H15.6586V37.5689Z" fill="#C4D1E1"/>
<path d="M25.1044 37.5689H21.774V40.8993H25.1044V37.5689Z" fill="#C4D1E1"/>
<path d="M34.5308 37.5689H31.2004V40.8993H34.5308V37.5689Z" fill="#C4D1E1"/>
<path d="M43.9766 37.5689H40.6462V40.8993H43.9766V37.5689Z" fill="#C4D1E1"/>
<path d="M53.4029 37.5689H50.0726V40.8993H53.4029V37.5689Z" fill="#C4D1E1"/>
<path d="M62.8487 37.5689H59.5184V40.8993H62.8487V37.5689Z" fill="#B0BFDE"/>
<path d="M72.2751 37.5689H68.9447V40.8993H72.2751V37.5689Z" fill="#B0BFDE"/>
<path d="M15.6586 45.8852H12.3282V49.2155H15.6586V45.8852Z" fill="#C4D1E1"/>
<path d="M25.1044 45.8852H21.774V49.2155H25.1044V45.8852Z" fill="#C4D1E1"/>
<path d="M34.5308 45.8852H31.2004V49.2155H34.5308V45.8852Z" fill="#BDCFE8"/>
<path d="M43.9766 45.8852H40.6462V49.2155H43.9766V45.8852Z" fill="#BDCFE8"/>
<path d="M53.4029 45.8852H50.0726V49.2155H53.4029V45.8852Z" fill="#C4D1E1"/>
<path d="M62.8487 45.8852H59.5184V49.2155H62.8487V45.8852Z" fill="#B0BFDE"/>
<path d="M72.2751 45.8852H68.9447V49.2155H72.2751V45.8852Z" fill="#B0BFDE"/>
<path d="M15.6586 54.2209H12.3282V57.5512H15.6586V54.2209Z" fill="#D1DBEA"/>
<path d="M25.1044 54.2209H21.774V57.5512H25.1044V54.2209Z" fill="#C4D1E1"/>
<path d="M34.5308 54.2209H31.2004V57.5512H34.5308V54.2209Z" fill="#C4D1E1"/>
<path d="M43.9766 54.2209H40.6462V57.5512H43.9766V54.2209Z" fill="#C4D1E1"/>
<path d="M53.4029 54.2209H50.0726V57.5512H53.4029V54.2209Z" fill="#C4D1E1"/>
<path d="M62.8487 54.2209H59.5184V57.5512H62.8487V54.2209Z" fill="#B0BFDE"/>
<path d="M72.2751 54.2209H68.9447V57.5512H72.2751V54.2209Z" fill="#B0BFDE"/>
<path d="M15.6586 62.5565H12.3282V65.8869H15.6586V62.5565Z" fill="#C4D1E1"/>
<path d="M25.1044 62.5565H21.774V65.8869H25.1044V62.5565Z" fill="#C4D1E1"/>
<path d="M34.5308 62.5565H31.2004V65.8869H34.5308V62.5565Z" fill="#C4D1E1"/>
<path d="M43.9766 62.5565H40.6462V65.8869H43.9766V62.5565Z" fill="#C4D1E1"/>
<path d="M53.4029 62.5565H50.0726V65.8869H53.4029V62.5565Z" fill="#C4D1E1"/>
<path d="M62.8487 62.5565H59.5184V65.8869H62.8487V62.5565Z" fill="#B0BFDE"/>
<path d="M72.2751 62.5565H68.9447V65.8869H72.2751V62.5565Z" fill="#B0BFDE"/>
<path d="M15.6586 70.8727H12.3282V74.2031H15.6586V70.8727Z" fill="#C4D1E1"/>
<path d="M25.1044 70.8727H21.774V74.2031H25.1044V70.8727Z" fill="#C4D1E1"/>
<path d="M34.5308 70.8727H31.2004V74.2031H34.5308V70.8727Z" fill="#C4D1E1"/>
<path d="M43.9766 70.8727H40.6462V74.2031H43.9766V70.8727Z" fill="#C4D1E1"/>
<path d="M53.4029 70.8727H50.0726V74.2031H53.4029V70.8727Z" fill="#C4D1E1"/>
<path d="M62.8487 70.8727H59.5184V74.2031H62.8487V70.8727Z" fill="#BCD0E2"/>
<path d="M72.2751 70.8727H68.9447V74.2031H72.2751V70.8727Z" fill="#BCD0E2"/>
<path d="M9.11477 133.022L8.8421 133.158L8.80316 133.002L9.13424 132.827H9.30953V134.346H9.11477V133.022Z" fill="#C4D1E1"/>
<path d="M10.8871 133.585C10.8871 134.092 10.6923 134.384 10.3612 134.384C10.0691 134.384 9.87433 134.111 9.85486 133.605C9.85486 133.098 10.0691 132.826 10.3807 132.826C10.6923 132.806 10.8871 133.098 10.8871 133.585ZM10.0496 133.605C10.0496 133.994 10.1665 134.228 10.3612 134.228C10.5755 134.228 10.6728 133.975 10.6728 133.605C10.6728 133.235 10.5755 132.981 10.3612 132.981C10.1859 132.962 10.0496 133.196 10.0496 133.605Z" fill="#C4D1E1"/>
<path d="M8.68634 126.536V126.419L8.84213 126.264C9.23165 125.893 9.40694 125.699 9.40694 125.465C9.40694 125.309 9.32904 125.173 9.1148 125.173C8.97847 125.173 8.86162 125.251 8.80319 125.309L8.74475 125.173C8.84213 125.075 8.99795 125.017 9.17324 125.017C9.50433 125.017 9.64064 125.231 9.64064 125.465C9.64064 125.738 9.44589 125.971 9.1148 126.283L8.99795 126.4H9.67961V126.575H8.68634V126.536Z" fill="#C4D1E1"/>
<path d="M10.8871 125.775C10.8871 126.282 10.6924 126.574 10.3613 126.574C10.0691 126.574 9.8744 126.301 9.85492 125.795C9.85492 125.289 10.0691 125.016 10.3808 125.016C10.6924 124.996 10.8871 125.288 10.8871 125.775ZM10.0497 125.795C10.0497 126.184 10.1665 126.418 10.3613 126.418C10.5755 126.418 10.6729 126.165 10.6729 125.795C10.6729 125.425 10.5755 125.172 10.3613 125.172C10.186 125.152 10.0497 125.386 10.0497 125.795Z" fill="#C4D1E1"/>
<path d="M8.72525 118.491C8.78367 118.53 8.92 118.589 9.05633 118.589C9.30951 118.589 9.4069 118.413 9.4069 118.297C9.4069 118.082 9.21214 117.985 9.01739 117.985H8.90054V117.829H9.01739C9.17319 117.829 9.34847 117.751 9.34847 117.576C9.34847 117.459 9.27058 117.342 9.07582 117.342C8.95897 117.342 8.84209 117.401 8.76419 117.44L8.70578 117.284C8.78368 117.225 8.93949 117.167 9.09529 117.167C9.38743 117.167 9.52375 117.342 9.52375 117.537C9.52375 117.693 9.42637 117.829 9.25109 117.888C9.44585 117.927 9.58219 118.063 9.58219 118.277C9.58219 118.511 9.38742 118.725 9.03686 118.725C8.86157 118.725 8.72524 118.667 8.64734 118.628L8.72525 118.491Z" fill="#C4D1E1"/>
<path d="M10.8871 117.946C10.8871 118.452 10.6923 118.745 10.3612 118.745C10.0691 118.745 9.87433 118.472 9.85486 117.966C9.85486 117.459 10.0691 117.186 10.3807 117.186C10.6923 117.186 10.8871 117.479 10.8871 117.946ZM10.0496 117.985C10.0496 118.375 10.1665 118.608 10.3612 118.608C10.5755 118.608 10.6728 118.355 10.6728 117.985C10.6728 117.615 10.5755 117.362 10.3612 117.362C10.1859 117.342 10.0496 117.557 10.0496 117.985Z" fill="#C4D1E1"/>
<path d="M9.30953 110.916V110.507H8.6084V110.37L9.29005 109.397H9.50429V110.331H9.71852V110.487H9.50429V110.896H9.30953V110.916ZM9.30953 110.351V109.845C9.30953 109.767 9.30953 109.689 9.30953 109.611C9.27057 109.708 9.23163 109.767 9.19268 109.825L8.82263 110.331H9.30953V110.351Z" fill="#C4D1E1"/>
<path d="M10.8871 110.136C10.8871 110.643 10.6924 110.935 10.3613 110.935C10.0691 110.935 9.8744 110.662 9.85492 110.156C9.85492 109.649 10.0691 109.377 10.3808 109.377C10.6924 109.377 10.8871 109.669 10.8871 110.136ZM10.0497 110.156C10.0497 110.545 10.1665 110.779 10.3613 110.779C10.5755 110.779 10.6729 110.526 10.6729 110.156C10.6729 109.786 10.5755 109.532 10.3613 109.532C10.186 109.532 10.0497 109.747 10.0497 110.156Z" fill="#C4D1E1"/>
<path d="M9.58219 101.762H8.99791L8.93948 102.152C8.97843 102.152 8.9979 102.152 9.05633 102.152C9.17318 102.152 9.29005 102.171 9.38743 102.229C9.50429 102.288 9.60166 102.424 9.60166 102.619C9.60166 102.911 9.36795 103.125 9.03686 103.125C8.88105 103.125 8.72524 103.086 8.66681 103.028L8.72525 102.872C8.78367 102.911 8.92 102.95 9.05633 102.95C9.25109 102.95 9.4069 102.833 9.4069 102.619C9.4069 102.424 9.27058 102.288 8.97844 102.288C8.90054 102.288 8.82262 102.288 8.76419 102.307L8.86157 101.587H9.58219V101.762V101.762Z" fill="#C4D1E1"/>
<path d="M10.8871 102.326C10.8871 102.833 10.6923 103.125 10.3612 103.125C10.0691 103.125 9.87433 102.852 9.85486 102.346C9.85486 101.839 10.0691 101.567 10.3807 101.567C10.6923 101.567 10.8871 101.84 10.8871 102.326ZM10.0496 102.346C10.0496 102.735 10.1665 102.969 10.3612 102.969C10.5755 102.969 10.6728 102.735 10.6728 102.346C10.6728 101.976 10.5755 101.723 10.3612 101.723C10.1859 101.723 10.0496 101.937 10.0496 102.346Z" fill="#C4D1E1"/>
<path d="M9.54323 93.9128C9.50427 93.9128 9.44586 93.9128 9.38743 93.9128C9.07582 93.9713 8.90052 94.205 8.86157 94.4582C8.93947 94.3608 9.05633 94.2829 9.23162 94.2829C9.50428 94.2829 9.67957 94.4776 9.67957 94.7698C9.67957 95.0424 9.48482 95.2956 9.1732 95.2956C8.84211 95.2956 8.62787 95.0424 8.62787 94.6529C8.62787 94.3608 8.74473 94.1271 8.88106 93.9713C8.99792 93.8544 9.1732 93.7765 9.36796 93.757C9.42639 93.757 9.4848 93.7375 9.52376 93.7375V93.9128H9.54323ZM9.48481 94.7893C9.48481 94.575 9.36796 94.4387 9.1732 94.4387C9.05635 94.4387 8.93949 94.5166 8.88106 94.6334C8.86159 94.6529 8.86157 94.6919 8.86157 94.7308C8.86157 94.984 8.97844 95.1593 9.19267 95.1593C9.36796 95.1593 9.48481 95.0035 9.48481 94.7893Z" fill="#C4D1E1"/>
<path d="M10.8871 94.5165C10.8871 95.0229 10.6923 95.3151 10.3612 95.3151C10.0691 95.3151 9.87433 95.0424 9.85486 94.536C9.85486 94.0297 10.0691 93.757 10.3807 93.757C10.6923 93.757 10.8871 94.0296 10.8871 94.5165ZM10.0496 94.536C10.0496 94.9255 10.1665 95.1593 10.3612 95.1593C10.5755 95.1593 10.6728 94.9061 10.6728 94.536C10.6728 94.166 10.5755 93.9128 10.3612 93.9128C10.1859 93.9128 10.0496 94.127 10.0496 94.536Z" fill="#C4D1E1"/>
<path d="M18.171 139.876L17.9373 139.993L17.8984 139.856L18.1905 139.701H18.3463V141.025H18.171V139.876V139.876Z" fill="#C4D1E1"/>
<path d="M29.7982 141.025V140.908L29.9345 140.772C30.2656 140.441 30.4214 140.285 30.4214 140.071C30.4214 139.934 30.363 139.817 30.1682 139.817C30.0513 139.817 29.954 139.876 29.8955 139.934L29.8371 139.798C29.9345 139.72 30.0514 139.662 30.2072 139.662C30.4993 139.662 30.6162 139.856 30.6162 140.051C30.6162 140.304 30.4409 140.499 30.1682 140.752L30.0708 140.85H30.6746V141.006H29.7982V141.025Z" fill="#C4D1E1"/>
<path d="M41.8732 140.83C41.9316 140.869 42.0485 140.908 42.1653 140.908C42.399 140.908 42.4575 140.752 42.4575 140.655C42.4575 140.46 42.2822 140.382 42.1069 140.382H42.0095V140.246H42.1069C42.2433 140.246 42.3991 140.188 42.3991 140.032C42.3991 139.934 42.3211 139.837 42.1653 139.837C42.068 139.837 41.9511 139.876 41.8927 139.915L41.8537 139.779C41.9316 139.72 42.0485 139.681 42.2043 139.681C42.4575 139.681 42.5743 139.837 42.5743 139.993C42.5743 140.129 42.4964 140.246 42.3212 140.304C42.477 140.343 42.6133 140.46 42.6133 140.635C42.6133 140.85 42.4575 141.025 42.1264 141.025C41.9706 141.025 41.8537 140.986 41.7758 140.928L41.8732 140.83Z" fill="#C4D1E1"/>
<path d="M54.3962 141.025V140.674H53.773V140.558L54.3573 139.72H54.552V140.538H54.7468V140.674H54.552V141.025H54.3962V141.025ZM54.3962 140.538V140.09C54.3962 140.012 54.3962 139.954 54.3962 139.876C54.3573 139.954 54.3183 140.012 54.2794 140.071L53.9483 140.519H54.3962V140.538Z" fill="#C4D1E1"/>
<path d="M66.6661 139.856H66.1597L66.1013 140.188C66.1402 140.188 66.1597 140.188 66.2181 140.188C66.3155 140.188 66.4129 140.207 66.5102 140.265C66.6076 140.324 66.705 140.441 66.705 140.597C66.705 140.85 66.4908 141.044 66.2181 141.044C66.0818 141.044 65.9455 141.006 65.887 140.967L65.926 140.83C65.9844 140.869 66.0818 140.908 66.2181 140.908C66.3934 140.908 66.5297 140.791 66.5297 140.616C66.5297 140.441 66.4129 140.324 66.1402 140.324C66.0623 140.324 66.0039 140.324 65.9649 140.343L66.0428 139.701H66.6855V139.856H66.6661Z" fill="#C4D1E1"/>
<path d="M72.9568 138.162H12.0556V90.2513H72.9568V138.162ZM12.1919 138.026H72.8399V90.3682H12.1919V138.026V138.026Z" fill="#C4D1E1"/>
<path d="M72.8983 130.06H12.1335V130.177H72.8983V130.06Z" fill="#C4D1E1"/>
<path d="M72.8983 122.094H12.1335V122.211H72.8983V122.094Z" fill="#C4D1E1"/>
<path d="M72.8983 114.129H12.1335V114.246H72.8983V114.129Z" fill="#C4D1E1"/>
<path d="M72.8983 106.163H12.1335V106.28H72.8983V106.163Z" fill="#C4D1E1"/>
<path d="M72.8983 98.1975H12.1335V98.3144H72.8983V98.1975Z" fill="#C4D1E1"/>
<path d="M60.8038 90.3098H60.687V138.104H60.8038V90.3098Z" fill="#C4D1E1"/>
<path d="M48.6508 90.3098H48.534V138.104H48.6508V90.3098Z" fill="#C4D1E1"/>
<path d="M36.4978 90.3098H36.381V138.104H36.4978V90.3098Z" fill="#C4D1E1"/>
<path d="M24.3449 90.3098H24.228V138.104H24.3449V90.3098Z" fill="#C4D1E1"/>
<path d="M19.6512 117.751H16.7493V138.084H19.6512V117.751Z" fill="#D1DBEA"/>
<path d="M31.8237 117.751H28.9023V138.084H31.8237V117.751Z" fill="#B0BFDE"/>
<path d="M43.9572 117.751H41.0358V138.084H43.9572V117.751Z" fill="#BDCFE8"/>
<path d="M56.1102 117.751H53.1888V138.084H56.1102V117.751Z" fill="#D1DBEA"/>
<path d="M68.2437 117.751H65.3223V138.084H68.2437V117.751Z" fill="#BDCFE8"/>
<path d="M19.6512 114.187H16.7493V117.751H19.6512V114.187Z" fill="#D1DBEA"/>
<path d="M31.8237 102.073H28.9023V117.751H31.8237V102.073Z" fill="#B0BFDE"/>
<path d="M56.1102 103.982H53.1888V117.771H56.1102V103.982Z" fill="#D1DBEA"/>
<path d="M68.2437 92.1794H65.3223V117.751H68.2437V92.1794Z" fill="#BDCFE8"/>
<path d="M26.2146 106.241C26.2146 108.052 24.7539 109.513 22.9427 109.513C21.1314 109.513 19.6707 108.052 19.6707 106.241C19.6707 104.43 21.1314 102.969 22.9427 102.969C24.7539 102.969 26.2146 104.43 26.2146 106.241Z" fill="#B0BFDE"/>
<path d="M22.3194 107.176V106.611H21.3456V106.436L22.2805 105.112H22.5921V106.397H22.8842V106.611H22.5921V107.176H22.3194V107.176ZM22.3194 106.397V105.696C22.3194 105.579 22.3194 105.482 22.3194 105.365C22.261 105.482 22.2026 105.579 22.1441 105.676L21.6378 106.377H22.3194V106.397Z" fill="#AEC4DB"/>
<path d="M24.3254 105.345H23.5269L23.449 105.871C23.5075 105.871 23.5464 105.852 23.6243 105.852C23.7801 105.852 23.9359 105.89 24.0723 105.968C24.2281 106.066 24.3644 106.241 24.3644 106.494C24.3644 106.903 24.0333 107.195 23.5854 107.195C23.3517 107.195 23.1569 107.137 23.0595 107.059L23.1374 106.845C23.2153 106.903 23.3906 106.962 23.5854 106.962C23.858 106.962 24.0723 106.786 24.0723 106.514C24.0723 106.241 23.897 106.046 23.4685 106.046C23.3516 106.046 23.2543 106.066 23.1764 106.066L23.3127 105.072H24.306V105.345H24.3254Z" fill="#AEC4DB"/>
<path d="M28.9023 106.085H26.2146V106.377H28.9023V106.085Z" fill="#B0BFDE"/>
<path d="M62.693 98.2754C62.693 100.087 61.2323 101.547 59.4211 101.547C57.6098 101.547 56.1491 100.087 56.1491 98.2754C56.1491 96.4642 57.6098 95.0035 59.4211 95.0035C61.2323 94.984 62.693 96.4642 62.693 98.2754Z" fill="#BDCFE8"/>
<path d="M59.1484 97.38H58.3499L58.272 97.9058C58.3109 97.9058 58.3693 97.8863 58.4473 97.8863C58.6031 97.8863 58.7589 97.9253 58.8952 98.0032C59.051 98.1006 59.1873 98.2759 59.1873 98.529C59.1873 98.938 58.8562 99.2302 58.4083 99.2302C58.1746 99.2302 57.9798 99.1717 57.8824 99.0938L57.9604 98.8796C58.0383 98.938 58.2135 98.9965 58.4083 98.9965C58.6809 98.9965 58.8952 98.8212 58.8952 98.5485C58.8952 98.2759 58.7199 98.0811 58.2914 98.0811C58.1746 98.0811 58.0772 98.1006 57.9993 98.1006L58.1356 97.1073H59.1289V97.38H59.1484Z" fill="#AEC4DB"/>
<path d="M59.5379 98.6844C59.5379 98.4312 59.6937 98.2365 59.9469 98.1196V98.1002C59.7132 97.9833 59.6158 97.808 59.6158 97.6327C59.6158 97.3016 59.8885 97.0874 60.2585 97.0874C60.6675 97.0874 60.8622 97.3406 60.8622 97.5938C60.8622 97.7691 60.7844 97.9638 60.5117 98.0807C60.7649 98.1781 60.9207 98.3728 60.9207 98.626C60.9207 98.996 60.6091 99.2298 60.2196 99.2298C59.7911 99.2492 59.5379 98.996 59.5379 98.6844ZM60.648 98.6844C60.648 98.4312 60.4727 98.3144 60.1806 98.2365C59.9469 98.3144 59.8106 98.4702 59.8106 98.665C59.7911 98.8792 59.9664 99.0545 60.2196 99.0545C60.4922 99.0545 60.648 98.8987 60.648 98.6844ZM59.8885 97.6327C59.8885 97.847 60.0443 97.9443 60.278 98.0222C60.4533 97.9638 60.5896 97.8275 60.5896 97.6522C60.5896 97.4769 60.4922 97.3211 60.239 97.3211C60.0053 97.3016 59.8885 97.4574 59.8885 97.6327Z" fill="#AEC4DB"/>
<path d="M65.3807 98.1196H62.693V98.4117H65.3807V98.1196Z" fill="#DBE4E9"/>
<path d="M238.252 0.286438H104.394V156.113H238.252V0.286438Z" fill="#EDF4FC"/>
<path d="M186.719 17.0358H124.357V19.6066H186.719V17.0358Z" fill="#BCD0E2"/>
<path d="M144.553 11.5825H124.357V14.1533H144.553V11.5825Z" fill="#BCD0E2"/>
<path d="M224.249 135.43H126.752V24.904H224.268V135.43H224.249ZM126.869 135.313H224.132V25.0209H126.869V135.313Z" fill="#C4D1E1"/>
<path d="M224.21 119.537H126.811V119.654H224.21V119.537Z" fill="#C4D1E1"/>
<path d="M224.21 103.781H126.811V103.898H224.21V103.781Z" fill="#C4D1E1"/>
<path d="M224.21 88.0059H126.811V88.1228H224.21V88.0059Z" fill="#C4D1E1"/>
<path d="M224.21 72.2305H126.811V72.3473H224.21V72.2305Z" fill="#C4D1E1"/>
<path d="M224.21 56.455H126.811V56.5718H224.21V56.455Z" fill="#C4D1E1"/>
<path d="M224.21 40.6795H126.811V40.7964H224.21V40.6795Z" fill="#C4D1E1"/>
<path d="M191.782 24.9624H191.666V135.371H191.782V24.9624Z" fill="#C4D1E1"/>
<path d="M159.316 24.9624H159.199V135.371H159.316V24.9624Z" fill="#C4D1E1"/>
<path d="M121.806 30.0456L121.728 29.9677L126.752 24.9235L126.85 25.0208L121.806 30.0456Z" fill="#C4D1E1"/>
<path d="M121.806 45.8211L121.728 45.7432L126.752 40.699L126.85 40.7769L121.806 45.8211Z" fill="#C4D1E1"/>
<path d="M121.806 61.5966L121.728 61.5187L126.752 56.4744L126.85 56.5523L121.806 61.5966Z" fill="#C4D1E1"/>
<path d="M121.806 77.3721L121.728 77.2747L126.752 72.2499L126.85 72.3278L121.806 77.3721Z" fill="#C4D1E1"/>
<path d="M121.806 93.1476L121.728 93.0502L126.752 88.0254L126.85 88.1033L121.806 93.1476Z" fill="#C4D1E1"/>
<path d="M121.806 108.904L121.728 108.826L126.752 103.781L126.85 103.879L121.806 108.904Z" fill="#C4D1E1"/>
<path d="M121.806 124.679L121.728 124.601L126.752 119.557L126.85 119.654L121.806 124.679Z" fill="#C4D1E1"/>
<path d="M117.287 125.069L116.781 125.341L116.703 125.049L117.326 124.718H117.657V127.581H117.287V125.069V125.069Z" fill="#C4D1E1"/>
<path d="M120.618 126.12C120.618 127.094 120.248 127.639 119.624 127.639C119.06 127.639 118.689 127.114 118.67 126.159C118.67 125.205 119.079 124.66 119.663 124.66C120.267 124.66 120.618 125.205 120.618 126.12ZM119.06 126.159C119.06 126.899 119.293 127.328 119.644 127.328C120.033 127.328 120.228 126.86 120.228 126.14C120.228 125.439 120.053 124.971 119.644 124.971C119.313 124.971 119.06 125.38 119.06 126.159Z" fill="#C4D1E1"/>
<path d="M116.45 111.922V111.689L116.761 111.396C117.501 110.695 117.833 110.325 117.833 109.897C117.833 109.605 117.696 109.332 117.268 109.332C117.015 109.332 116.8 109.468 116.664 109.566L116.547 109.293C116.742 109.118 117.034 109.001 117.365 109.001C117.988 109.001 118.241 109.429 118.241 109.838C118.241 110.364 117.852 110.793 117.248 111.377L117.015 111.591H118.3V111.922H116.45Z" fill="#C4D1E1"/>
<path d="M120.618 110.462C120.618 111.435 120.248 111.981 119.624 111.981C119.06 111.981 118.689 111.455 118.67 110.501C118.67 109.546 119.079 109.001 119.663 109.001C120.267 109.001 120.618 109.546 120.618 110.462ZM119.06 110.501C119.06 111.241 119.293 111.669 119.644 111.669C120.033 111.669 120.228 111.202 120.228 110.481C120.228 109.78 120.053 109.313 119.644 109.313C119.313 109.313 119.06 109.722 119.06 110.501Z" fill="#C4D1E1"/>
<path d="M116.547 95.8162C116.664 95.8941 116.917 95.9915 117.19 95.9915C117.696 95.9915 117.852 95.6799 117.833 95.4267C117.833 95.0177 117.463 94.8619 117.092 94.8619H116.878V94.5697H117.092C117.365 94.5697 117.735 94.4334 117.735 94.0828C117.735 93.8491 117.599 93.6544 117.229 93.6544C116.995 93.6544 116.781 93.7517 116.664 93.8491L116.567 93.5765C116.722 93.4596 117.015 93.3622 117.326 93.3622C117.891 93.3622 118.144 93.6933 118.144 94.0439C118.144 94.336 117.969 94.5892 117.618 94.7255C117.969 94.8034 118.261 95.0566 118.261 95.4656C118.261 95.933 117.91 96.3226 117.209 96.3226C116.878 96.3226 116.606 96.2252 116.469 96.1278L116.547 95.8162Z" fill="#C4D1E1"/>
<path d="M120.618 94.803C120.618 95.7768 120.247 96.3221 119.624 96.3221C119.059 96.3221 118.689 95.7963 118.67 94.842C118.67 93.8876 119.079 93.3423 119.663 93.3423C120.267 93.3423 120.618 93.8876 120.618 94.803ZM119.059 94.842C119.059 95.582 119.293 96.0105 119.644 96.0105C120.033 96.0105 120.228 95.5431 120.228 94.8225C120.228 94.1213 120.053 93.6539 119.644 93.6539C119.313 93.6539 119.059 94.0629 119.059 94.842Z" fill="#C4D1E1"/>
<path d="M117.657 80.6052V79.8262H116.333V79.573L117.618 77.7423H118.047V79.5341H118.456V79.8457H118.047V80.6247H117.657V80.6052ZM117.657 79.5146V78.5603C117.657 78.4045 117.657 78.2681 117.677 78.1123H117.657C117.56 78.2876 117.501 78.4045 117.424 78.5408L116.722 79.5146H117.657V79.5146Z" fill="#C4D1E1"/>
<path d="M120.618 79.1444C120.618 80.1182 120.248 80.6635 119.624 80.6635C119.06 80.6635 118.689 80.1377 118.67 79.1833C118.67 78.229 119.079 77.6837 119.663 77.6837C120.267 77.6837 120.618 78.229 120.618 79.1444ZM119.06 79.1833C119.06 79.9234 119.293 80.3519 119.644 80.3519C120.033 80.3519 120.228 79.8845 120.228 79.1639C120.228 78.4627 120.053 77.9953 119.644 77.9953C119.313 77.9953 119.06 78.4043 119.06 79.1833Z" fill="#C4D1E1"/>
<path d="M118.164 62.3952H117.073L116.956 63.1353C117.015 63.1353 117.092 63.1158 117.19 63.1158C117.404 63.1158 117.638 63.1548 117.813 63.2716C118.047 63.408 118.222 63.6417 118.222 64.0117C118.222 64.5765 117.774 64.9855 117.151 64.9855C116.839 64.9855 116.567 64.8881 116.43 64.8102L116.528 64.5181C116.644 64.596 116.878 64.6739 117.131 64.6739C117.501 64.6739 117.813 64.4402 117.813 64.0507C117.813 63.6806 117.56 63.408 116.995 63.408C116.839 63.408 116.703 63.4274 116.606 63.4469L116.8 62.0641H118.164V62.3952Z" fill="#C4D1E1"/>
<path d="M120.618 63.4857C120.618 64.4595 120.247 65.0049 119.624 65.0049C119.059 65.0049 118.689 64.479 118.67 63.5247C118.67 62.5704 119.079 62.0251 119.663 62.0251C120.267 62.0251 120.618 62.5704 120.618 63.4857ZM119.059 63.5247C119.059 64.2648 119.293 64.6932 119.644 64.6932C120.033 64.6932 120.228 64.2258 120.228 63.5052C120.228 62.8041 120.053 62.3367 119.644 62.3367C119.313 62.3172 119.059 62.7457 119.059 63.5247Z" fill="#C4D1E1"/>
<path d="M118.086 46.6785C118.008 46.6785 117.91 46.6785 117.794 46.698C117.19 46.7954 116.859 47.2433 116.8 47.7108H116.82C116.956 47.5355 117.19 47.3797 117.521 47.3797C118.027 47.3797 118.378 47.7497 118.378 48.3145C118.378 48.8404 118.027 49.3273 117.424 49.3273C116.8 49.3273 116.411 48.8404 116.411 48.1003C116.411 47.5355 116.606 47.0875 116.898 46.8149C117.131 46.5812 117.462 46.4448 117.813 46.3864C117.93 46.3669 118.027 46.3669 118.086 46.3669V46.6785ZM117.969 48.334C117.969 47.925 117.735 47.6718 117.385 47.6718C117.151 47.6718 116.937 47.8081 116.82 48.0224C116.8 48.0613 116.781 48.1197 116.781 48.1977C116.8 48.6651 117.015 49.0156 117.404 49.0156C117.755 49.0351 117.969 48.743 117.969 48.334Z" fill="#C4D1E1"/>
<path d="M120.618 47.8077C120.618 48.7815 120.247 49.3268 119.624 49.3268C119.059 49.3268 118.689 48.8009 118.67 47.8466C118.67 46.8923 119.079 46.347 119.663 46.347C120.267 46.3665 120.618 46.9118 120.618 47.8077ZM119.059 47.8661C119.059 48.6062 119.293 49.0347 119.644 49.0347C120.033 49.0347 120.228 48.5672 120.228 47.8466C120.228 47.1455 120.053 46.6781 119.644 46.6781C119.313 46.6586 119.059 47.0871 119.059 47.8661Z" fill="#C4D1E1"/>
<path d="M118.3 30.7469V31.0001L117.053 33.6099H116.644L117.891 31.078H116.489V30.7469H118.3Z" fill="#C4D1E1"/>
<path d="M120.618 32.149C120.618 33.1228 120.247 33.6682 119.624 33.6682C119.059 33.6682 118.689 33.1423 118.67 32.188C118.67 31.2337 119.079 30.6884 119.663 30.6884C120.267 30.7078 120.618 31.2337 120.618 32.149ZM119.059 32.2075C119.059 32.9476 119.293 33.376 119.644 33.376C120.033 33.376 120.228 32.9086 120.228 32.188C120.228 31.4869 120.053 31.0194 119.644 31.0194C119.313 31 119.059 31.4284 119.059 32.2075Z" fill="#C4D1E1"/>
<path d="M137.055 141.214V140.961L137.367 140.669C138.107 139.968 138.438 139.598 138.438 139.169C138.438 138.877 138.302 138.604 137.873 138.604C137.62 138.604 137.406 138.741 137.269 138.838L137.153 138.565C137.347 138.39 137.64 138.273 137.971 138.273C138.594 138.273 138.847 138.702 138.847 139.111C138.847 139.637 138.457 140.065 137.854 140.649L137.62 140.864H138.905V141.195H137.055V141.214Z" fill="#C4D1E1"/>
<path d="M141.223 139.734C141.223 140.708 140.853 141.253 140.23 141.253C139.665 141.253 139.295 140.727 139.275 139.773C139.275 138.819 139.684 138.273 140.269 138.273C140.872 138.293 141.223 138.819 141.223 139.734ZM139.665 139.792C139.665 140.532 139.899 140.961 140.249 140.961C140.639 140.961 140.834 140.493 140.834 139.773C140.834 139.072 140.658 138.604 140.249 138.604C139.899 138.585 139.665 139.013 139.665 139.792Z" fill="#C4D1E1"/>
<path d="M142.411 138.702L141.905 138.974L141.827 138.682L142.45 138.351H142.781V141.214H142.411V138.702V138.702Z" fill="#C4D1E1"/>
<path d="M145.683 138.332V138.585L144.437 141.195H144.028L145.274 138.663H143.872V138.332H145.683V138.332Z" fill="#C4D1E1"/>
<path d="M170.164 141.214V140.961L170.476 140.669C171.216 139.968 171.547 139.598 171.547 139.169C171.547 138.877 171.411 138.604 170.982 138.604C170.729 138.604 170.515 138.741 170.378 138.838L170.262 138.565C170.456 138.39 170.749 138.273 171.08 138.273C171.703 138.273 171.956 138.702 171.956 139.111C171.956 139.637 171.567 140.065 170.963 140.649L170.729 140.864H172.014V141.195H170.164V141.214Z" fill="#C4D1E1"/>
<path d="M174.332 139.734C174.332 140.708 173.962 141.253 173.339 141.253C172.774 141.253 172.404 140.727 172.385 139.773C172.385 138.819 172.794 138.273 173.378 138.273C173.982 138.293 174.332 138.819 174.332 139.734ZM172.774 139.792C172.774 140.532 173.008 140.961 173.358 140.961C173.748 140.961 173.943 140.493 173.943 139.773C173.943 139.072 173.767 138.604 173.358 138.604C173.027 138.585 172.774 139.013 172.774 139.792Z" fill="#C4D1E1"/>
<path d="M175.54 138.702L175.033 138.974L174.955 138.682L175.579 138.351H175.91V141.214H175.54V138.702Z" fill="#C4D1E1"/>
<path d="M176.903 140.474C176.903 140.104 177.117 139.851 177.468 139.714V139.695C177.156 139.539 177.02 139.305 177.02 139.052C177.02 138.604 177.409 138.293 177.916 138.293C178.481 138.293 178.753 138.643 178.753 138.994C178.753 139.228 178.636 139.5 178.286 139.656V139.675C178.636 139.812 178.87 140.065 178.87 140.416C178.87 140.922 178.442 141.253 177.896 141.253C177.273 141.253 176.903 140.902 176.903 140.474ZM178.461 140.455C178.461 140.104 178.227 139.948 177.838 139.831C177.507 139.929 177.312 140.143 177.312 140.416C177.292 140.708 177.526 140.961 177.877 140.961C178.227 140.98 178.461 140.747 178.461 140.455ZM177.39 139.033C177.39 139.325 177.604 139.481 177.935 139.559C178.188 139.481 178.364 139.305 178.364 139.033C178.364 138.799 178.227 138.565 177.877 138.565C177.565 138.565 177.39 138.78 177.39 139.033Z" fill="#C4D1E1"/>
<path d="M203.293 141.214V140.961L203.604 140.669C204.344 139.968 204.676 139.598 204.676 139.169C204.676 138.877 204.539 138.604 204.111 138.604C203.858 138.604 203.643 138.741 203.507 138.838L203.39 138.565C203.585 138.39 203.877 138.273 204.208 138.273C204.831 138.273 205.085 138.702 205.085 139.111C205.085 139.637 204.695 140.065 204.091 140.649L203.858 140.864H205.143V141.195H203.293V141.214Z" fill="#C4D1E1"/>
<path d="M207.461 139.734C207.461 140.708 207.09 141.253 206.467 141.253C205.902 141.253 205.532 140.727 205.513 139.773C205.513 138.819 205.922 138.273 206.506 138.273C207.11 138.293 207.461 138.819 207.461 139.734ZM205.902 139.792C205.902 140.532 206.136 140.961 206.487 140.961C206.876 140.961 207.071 140.493 207.071 139.773C207.071 139.072 206.896 138.604 206.487 138.604C206.136 138.585 205.902 139.013 205.902 139.792Z" fill="#C4D1E1"/>
<path d="M208.649 138.702L208.142 138.974L208.064 138.682L208.688 138.351H209.019V141.214H208.649V138.702V138.702Z" fill="#C4D1E1"/>
<path d="M210.285 140.922C210.362 140.922 210.46 140.922 210.596 140.902C210.83 140.864 211.025 140.786 211.2 140.63C211.395 140.455 211.531 140.201 211.57 139.87H211.551C211.395 140.065 211.161 140.182 210.869 140.182C210.362 140.182 210.012 139.792 210.012 139.305C210.012 138.76 210.401 138.293 210.986 138.293C211.57 138.293 211.94 138.76 211.94 139.5C211.94 140.123 211.726 140.571 211.453 140.844C211.239 141.058 210.927 141.195 210.616 141.234C210.479 141.253 210.343 141.253 210.265 141.253V140.922H210.285ZM210.44 139.286C210.44 139.637 210.655 139.89 210.986 139.89C211.239 139.89 211.453 139.753 211.551 139.598C211.57 139.559 211.589 139.52 211.589 139.461C211.589 138.974 211.414 138.604 211.005 138.604C210.674 138.585 210.44 138.877 210.44 139.286Z" fill="#C4D1E1"/>
<path opacity="0.34" d="M224.21 40.7379H126.811V56.5134H224.21V40.7379Z" fill="white"/>
<path opacity="0.34" d="M224.21 72.2889H126.811V88.0644H224.21V72.2889Z" fill="white"/>
<path opacity="0.34" d="M224.21 103.84H126.811V119.615H224.21V103.84Z" fill="white"/>
<path d="M170.573 40.7379H126.811V43.2503H170.573V40.7379Z" fill="#B0BFDE"/>
<path d="M201.988 47.3597H126.811V49.8721H201.988V47.3597Z" fill="#D1DBEA"/>
<path d="M153.61 54.001H126.811V56.5134H153.61V54.001Z" fill="#BDCFE8"/>
<path d="M205.805 72.2889H126.811V74.8013H205.805V72.2889Z" fill="#B0BFDE"/>
<path d="M159.277 78.9107H126.811V81.4231H159.277V78.9107Z" fill="#D1DBEA"/>
<path d="M191.744 85.5325H126.811V88.0449H191.744V85.5325Z" fill="#BDCFE8"/>
<path d="M159.277 104.035H126.811V106.547H159.277V104.035Z" fill="#B0BFDE"/>
<path d="M191.744 110.656H126.811V113.169H191.744V110.656Z" fill="#D1DBEA"/>
<path d="M180.409 117.298H126.811V119.81H180.409V117.298Z" fill="#BDCFE8"/>
<path d="M251.905 208.055C250.639 207.276 246.315 212.087 244.484 216.352C240.881 224.707 239.946 229.343 238.564 238.555C236.343 253.181 232.604 276.396 231.358 286.271C230.247 295.171 226.664 305.708 232.02 304.227C231.942 291.997 237.57 273.572 240.823 263.893C251.944 230.823 255.8 210.431 251.905 208.055Z" fill="#E9D6B8"/>
<path d="M226.469 215.904C226.937 213.567 227.423 211.249 227.91 208.99C229.566 205.679 231.007 203.946 232.117 204.199C236.285 205.173 240.083 224.084 226.956 268.957C226.294 271.216 217.491 310.323 217.549 309.369C219.068 284.226 219.438 250.669 226.469 215.904Z" fill="#E9D6B8"/>
<path d="M217.121 312.232C214.861 316.809 212.037 320.042 210.83 319.438C209.622 318.834 210.479 314.647 212.739 310.051C214.998 305.474 217.822 302.241 219.029 302.845C220.237 303.448 219.38 307.655 217.121 312.232Z" fill="#387BFF"/>
<path d="M217.802 309.525C216.634 313.108 214.18 315.718 212.972 315.114C211.765 314.511 212.213 311.433 214.024 308.142C216.322 303.955 217.199 302.767 217.413 299.767C217.588 296.943 222.184 296.028 217.802 309.525Z" fill="#E9D6B8"/>
<path d="M241.29 302.552C241.29 302.552 240.083 302.027 236.733 301.403C234.785 301.033 233.286 301.053 232.585 300.313C231.416 299.105 232.059 296.164 231.494 296.301C228.728 296.943 227.755 303.429 229.391 304.227C231.007 305.045 240.141 303.955 240.901 303.896C241.641 303.838 241.524 302.377 241.29 302.552Z" fill="#E9D6B8"/>
<path d="M239.382 301.968C239.907 304.149 233.208 303.273 231.474 302.708C229.819 302.163 228.767 302.007 228.767 302.007C228.689 302.007 228.631 301.988 228.553 301.988C228.553 302.046 228.534 302.085 228.534 302.143C228.534 303.351 228.008 304.929 229.916 304.929H241.933C251.749 304.929 239.362 301.91 239.382 301.968Z" fill="#387BFF"/>
<path d="M258.332 48.8204L261 31.0194C258.858 26.7931 255.391 23.8328 251.126 23.1901C242.907 21.9631 234.941 29.8314 233.305 40.7963C231.669 51.7418 236.986 61.6161 245.205 62.843C250.95 63.7 256.579 60.0969 260.007 54.1178C258.702 52.6571 258.04 50.768 258.332 48.8204Z" fill="#163F59"/>
<path d="M224.132 49.2489C223.022 51.8781 225.125 55.3059 228.826 56.8834L237.298 60.4865C241.018 62.064 244.932 61.2071 246.042 58.5778L256.267 34.5446C257.397 31.9153 255.293 28.507 251.574 26.91L243.102 23.307C239.382 21.7294 235.467 22.5864 234.357 25.2156L224.132 49.2489Z" fill="#163F59"/>
<path d="M248.75 64.8296C254.183 67.1667 256.89 66.4461 252.742 68.1989C250.756 70.6334 225.281 67.2446 223.898 64.0895C223.665 63.5636 234.006 62.0445 234.065 61.6355C234.707 57.0587 234.941 53.183 233.675 48.0413C233.734 47.6324 234.026 47.3207 234.357 47.3207C236.285 47.3792 238.233 47.3986 240.18 47.4571C240.492 47.4765 244.29 48.314 243.452 50.1253C243.024 55.1306 243.024 62.3367 248.75 64.8296Z" fill="#E9D6B8"/>
<path d="M249.762 52.9103C249.899 52.7545 250.035 52.6182 250.171 52.4624C250.21 52.4039 250.249 52.365 250.288 52.326C250.444 52.1313 250.619 51.9365 250.775 51.7418C250.814 51.6833 250.853 51.6249 250.892 51.586C251.009 51.4301 251.126 51.2743 251.242 51.1185C251.301 51.0406 251.379 50.9432 251.437 50.8459C251.535 50.7095 251.632 50.5732 251.729 50.4369C251.788 50.3395 251.846 50.2421 251.924 50.1447C252.041 49.95 252.158 49.7747 252.275 49.5799C252.353 49.4436 252.45 49.2878 252.528 49.1515C252.606 49.0151 252.684 48.8788 252.762 48.7619C252.839 48.6256 252.917 48.4893 252.976 48.353C253.034 48.2361 253.112 48.1192 253.171 47.9829C253.229 47.8855 253.268 47.7882 253.326 47.6908C254.164 46.0158 256.072 37.5049 255.858 33.1033C255.839 32.5775 255.43 32.0321 254.69 31.8958C250.249 31.0778 237.376 26.5399 237.181 39.4719V39.4914C237.181 39.5304 237.064 40.6015 237.025 41.1079C237.025 41.1469 237.025 41.1858 237.025 41.2442C236.986 41.7506 236.967 42.257 236.947 42.7439C236.947 42.7828 236.947 42.8023 236.947 42.8413C236.928 43.3476 236.928 43.8345 236.947 44.3214C236.947 44.3409 236.947 44.3604 236.947 44.3799C237.122 50.5537 239.284 55.2474 242.829 56.0459C244.893 56.5134 247.114 55.5785 249.139 53.6504C249.159 53.6309 249.178 53.6114 249.178 53.6114C249.334 53.4556 249.49 53.3193 249.645 53.144C249.684 52.9882 249.723 52.9493 249.762 52.9103Z" fill="#E9D6B8"/>
<path d="M175.89 60.2138C175.89 60.2138 174.936 60.6617 174.546 59.9411C173.904 58.7531 173.65 56.0265 173.611 55.0722C173.573 53.9815 174.196 48.8593 174.196 48.8593C174.196 48.8593 175.247 50.4758 174.994 52.5403C174.644 55.5396 175.89 60.2138 175.89 60.2138Z" fill="#E9D6B8"/>
<path d="M175.793 59.4932C174.936 57.7403 175.384 55.5396 176.533 53.0466C177.624 50.7095 176.825 49.2294 176.825 49.2294C176.825 49.2294 175.949 50.6706 174.644 54.4879C174.274 55.559 173.943 56.7471 173.982 57.8767C174.118 61.285 178.033 63.9921 175.793 59.4932Z" fill="#E9D6B8"/>
<path d="M212.291 80.9946C207.344 84.6561 202.942 97.5296 199.553 105.671C197.625 110.267 198.346 113.734 198.346 113.734C198.346 113.734 200.021 124.504 212.855 95.1536C216.069 87.7917 214.16 79.6118 212.291 80.9946Z" fill="#E9D6B8"/>
<path d="M175.832 57.3704L174.994 57.8962L174.43 61.2071C174.43 61.2071 175.929 67.0888 177.292 69.0948C178.656 71.1009 184.148 86.9737 185.063 87.6943C186.68 88.9408 189.874 84.6366 189.874 84.6366C189.874 84.6366 182.882 73.5353 181.46 69.9713C180.039 66.4072 179.766 60.6423 179.279 59.2206C178.422 56.8056 178.11 55.5201 178.11 55.5201C178.11 55.5201 176.883 56.1628 178.013 60.0386C178.305 61.0708 177 60.8565 177 60.8565L175.832 57.3704Z" fill="#E9D6B8"/>
<path d="M221.581 99.5551L255.586 99.263L259.734 60.3891L219.399 64.2259L221.581 99.5551Z" fill="#387BFF"/>
<path d="M257.514 215.378C240.803 217.988 237.785 215.768 218.562 213.022C216.751 213.061 208.96 194.344 214.433 145.031C215.563 134.865 223.236 126.705 221.483 99.1267C232.916 98.9124 244.328 98.6787 255.761 98.4645C251.223 123.549 278.392 127.445 257.514 215.378Z" fill="#387BFF"/>
<path d="M258.663 109.722L253.833 75.6387L255.001 61.8887C255.8 61.0902 256.813 60.5644 257.942 60.4086L258.702 60.3112C261.682 59.9606 264.35 62.4535 264.681 65.9203L268.479 112.585L258.663 109.722Z" fill="#387BFF"/>
<path d="M204.306 113.909L219.73 84.1497L224.424 66.7577C223.82 65.9007 222.963 65.1996 221.892 64.7906L221.172 64.5179C218.367 63.4662 215.251 64.888 214.199 67.6925L197.742 101.678L204.306 113.909Z" fill="#387BFF"/>
<path d="M175.598 61.5771C175.598 61.5771 174.663 58.6168 175.131 57.1366C175.462 56.1044 177.818 51.5081 177.818 51.5081C177.818 51.5081 178.247 53.3777 177.312 55.2279C175.929 57.9351 175.598 61.5771 175.598 61.5771Z" fill="#E9D6B8"/>
<path d="M177.02 60.8565C177.02 60.8565 177.877 61.0513 178.169 60.7786C178.188 61.0707 178.11 61.3629 178.091 61.5966C178.033 62.103 178.325 65.5892 178.325 65.5892C178.325 65.5892 177.643 63.1157 177.273 62.4341C177.039 62.0056 176.806 60.9734 176.591 60.0969C176.572 59.9996 176.611 59.8048 176.591 59.5906L177.02 60.8565Z" fill="#E9D6B8"/>
<path d="M178.033 60.0385C177.273 57.4482 177.585 56.2991 177.857 55.8317C178.033 56.455 178.325 57.4288 178.812 58.7921C178.987 59.279 179.143 60.2917 179.318 61.5771C179.357 61.8108 178.442 62.0445 178.071 64.1479C178.013 64.518 177.312 62.2588 177.195 60.876C177.546 60.876 178.247 60.837 178.033 60.0385Z" fill="#E9D6B8"/>
<path d="M242.712 47.1065C241.427 45.6653 240.764 43.7761 241.057 41.8091L243.725 24.0276C243.627 23.8328 243.511 23.638 243.394 23.4433L243.102 23.3264C239.382 21.7489 235.467 22.6058 234.357 25.2351L224.132 49.2683C223.275 51.2938 224.346 53.7867 226.566 55.5396C227.014 55.6564 227.443 55.7733 227.91 55.8317C233.675 56.6886 239.304 53.0856 242.712 47.1065Z" fill="#163F59"/>
<path d="M231.104 74.217L266.667 70.6724L254.514 116.967L221.756 120.453L231.104 74.217Z" fill="#FEC00F"/>
<path d="M250.892 94.3356C246.88 88.1423 247.99 83.6628 247.289 80.644C246.588 77.6253 246.315 74.2949 246.315 74.3338C244.796 77.2552 246.023 79.3197 245.887 80.8193C245.75 82.319 245.984 81.8126 244.387 79.6897C243.491 78.4822 244.075 74.996 244.173 72.6979C244.251 70.7113 243.783 69.796 243.783 69.796C243.783 69.796 242.77 72.6979 242.459 75.7945C242.069 79.5339 242.381 83.6433 242.595 84.5392C242.985 86.1752 245.516 90.4015 247.795 93.1281C250.347 96.1858 253.794 98.815 250.892 94.3356Z" fill="#E9D6B8"/>
<path d="M264.564 109.975C255.839 99.4967 244.251 87.5385 244.251 87.5385L260.143 114.766C260.143 114.785 268.927 115.214 264.564 109.975Z" fill="#E9D6B8"/>
<path d="M266.278 107.131C266.278 107.131 271.906 114.707 266.843 117.512C263.96 119.109 261.643 118.096 259.987 115.779C256.91 111.474 253.657 106.411 253.657 106.411L259.15 99.224L266.278 107.131Z" fill="#387BFF"/>
<path d="M242.459 81.9489C242.459 81.9489 240.823 76.3983 240.92 75.1908C240.998 74.3533 241.972 70.5165 241.972 70.5165C241.972 70.5165 242.731 72.5031 242.439 74.0806C242.128 75.6582 242.459 81.9489 242.459 81.9489Z" fill="#E2C59C"/>
<path d="M189.017 81.5789C189.017 81.5789 182.025 84.6366 182.902 87.6943C183.778 90.752 192.075 114.766 197.314 116.947C202.553 119.128 205.182 112.137 205.61 110.403C206.039 108.67 189.017 81.5789 189.017 81.5789Z" fill="#387BFF"/>
<path d="M80.5362 253.98C78.686 253.98 75.7646 253.551 73.1938 251.331C69.5128 248.117 67.9158 242.43 68.4416 234.387C68.8117 228.953 70.9346 223.48 73.1938 217.657C76.9916 207.88 81.3152 196.798 79.056 182.133L83.2433 181.49C85.6778 197.266 80.9452 209.438 77.1474 219.196C74.9076 224.941 72.9795 229.888 72.6679 234.679C72.2394 241.203 73.369 245.839 75.9204 248.098C78.3549 250.24 81.3931 249.695 81.5294 249.675L82.3864 253.824C82.3085 253.843 81.6074 253.98 80.5362 253.98Z" fill="#0054DF"/>
<path d="M113.022 287.614L117.151 293.905L82.4838 305.006C82.4838 305.006 80.1661 302.786 88.6771 298.346C98.5903 293.165 113.022 287.614 113.022 287.614Z" fill="#88BDDA"/>
<path d="M119.176 287.614L115.047 293.905L149.715 305.006C149.715 305.006 152.032 302.786 143.521 298.346C133.627 293.165 119.176 287.614 119.176 287.614Z" fill="#88BDDA"/>
<path d="M119.722 268.879H112.477V294.665H119.722V268.879Z" fill="#88BDDA"/>
<path d="M112.555 288.939L116.08 294.937L86.4179 305.532C86.4179 305.532 84.4313 303.409 91.7153 299.183C100.207 294.236 112.555 288.939 112.555 288.939Z" fill="#ACD5F4"/>
<path d="M119.644 288.939L116.119 294.937L145.8 305.532C145.8 305.532 147.786 303.409 140.502 299.183C132.011 294.236 119.644 288.939 119.644 288.939Z" fill="#ACD5F4"/>
<path d="M89.7872 307.928C89.7872 309.311 88.6576 310.44 87.2748 310.44C85.892 310.44 84.7624 309.311 84.7624 307.928C84.7624 306.545 85.892 305.415 87.2748 305.415C88.6576 305.396 89.7872 306.526 89.7872 307.928Z" fill="#001F46"/>
<path d="M147.28 307.928C147.28 309.311 146.15 310.44 144.768 310.44C143.385 310.44 142.255 309.311 142.255 307.928C142.255 306.545 143.385 305.415 144.768 305.415C146.15 305.396 147.28 306.526 147.28 307.928Z" fill="#001F46"/>
<path d="M83.6912 307.928C83.6912 309.311 82.5616 310.44 81.1788 310.44C79.796 310.44 78.6664 309.311 78.6664 307.928C78.6664 306.545 79.796 305.415 81.1788 305.415C82.5616 305.396 83.6912 306.526 83.6912 307.928Z" fill="#367082"/>
<path d="M153.376 307.928C153.376 309.311 152.246 310.44 150.864 310.44C149.481 310.44 148.351 309.311 148.351 307.928C148.351 306.545 149.481 305.415 150.864 305.415C152.246 305.396 153.376 306.526 153.376 307.928Z" fill="#367082"/>
<path d="M118.65 259.433H113.353V268.703H118.65V259.433Z" fill="#0054DF"/>
<path d="M122.643 254.544C122.643 257.388 120.325 259.705 117.482 259.705H114.561C111.717 259.705 109.399 257.388 109.399 254.544C109.399 251.681 111.717 249.383 114.561 249.383H117.482C120.325 249.364 122.643 251.681 122.643 254.544Z" fill="#0054DF"/>
<path d="M155.382 249.812C155.499 249.208 155.577 245.391 155.577 244.728C155.577 240.561 152.889 237.172 149.559 237.172H82.4643C79.1339 237.172 76.4462 240.561 76.4462 244.728C76.4462 245.391 76.5241 249.188 76.641 249.812H155.382Z" fill="#8CC3FF"/>
<path d="M75.823 251.857C75.823 253.142 76.5631 254.174 77.4979 254.174H154.564C155.479 254.174 156.239 253.142 156.239 251.857C156.239 250.571 155.499 249.539 154.564 249.539H77.4784C76.5631 249.539 75.823 250.571 75.823 251.857Z" fill="#0054DF"/>
<path d="M79.5818 211.055C81.2373 211.172 91.7543 211.366 93.5655 211.386C105.076 211.522 115.008 209.36 115.554 206.536C117.832 194.753 117.93 182.659 115.846 170.876C115.359 168.052 105.29 165.89 93.5266 166.026C91.6764 166.046 80.9451 166.241 79.2507 166.357C82.8538 181.042 82.9706 196.37 79.5818 211.055Z" fill="#8CC3FF"/>
<path d="M77.9848 166.357C76.6994 166.377 75.8035 166.981 75.9788 167.721C79.1923 181.549 79.3092 195.883 76.3294 209.711C76.1736 210.451 77.05 211.055 78.3159 211.074C79.5819 211.094 80.7504 210.509 80.9062 209.75C83.9055 195.883 83.8276 181.51 80.6336 167.662C80.4777 166.922 79.2897 166.338 77.9848 166.357Z" fill="#0054DF"/>
<path d="M77.4784 211.035C77.8095 211.152 80.1077 211.23 80.4972 211.23C83.0096 211.269 85.5999 209.049 86.0868 206.264C88.1707 194.656 88.1317 182.756 85.931 171.149C85.4051 168.363 82.7564 166.143 80.2051 166.182C79.7961 166.182 77.4784 166.28 77.1279 166.377C80.7309 181.062 80.8478 196.35 77.4784 211.035Z" fill="#69ADFE"/>
<path d="M147.3 177.459C147.3 177.459 147.377 180.38 161.614 180.4C175.832 180.419 196.729 176.913 196.729 176.913L163.913 173.817C163.913 173.817 151.312 173.232 147.3 177.459Z" fill="#E2C59C"/>
<path d="M185.531 177.946C192.289 178.16 195.093 181.646 197.742 182.776C200.391 183.905 203.04 185.6 203.02 185.58C201.598 182.639 199.417 182.483 198.365 181.51C197.294 180.536 197.567 181.023 199.982 180.906C201.345 180.848 203.682 183.34 205.377 184.723C206.837 185.931 207.772 186.048 207.772 186.048C207.772 186.048 206.097 183.555 203.935 181.51C201.306 179.056 198.054 176.972 197.275 176.621C195.853 176.017 191.335 175.706 188.102 176.037C184.421 176.446 180.662 177.79 185.531 177.946Z" fill="#E2C59C"/>
<path d="M196.885 176.777C196.885 176.777 202.027 178.257 202.903 178.978C203.526 179.465 206.078 182.328 206.078 182.328C206.078 182.328 204.15 181.958 203.059 180.867C201.988 179.796 196.885 176.777 196.885 176.777Z" fill="#E2C59C"/>
<path d="M153.746 171.499C153.746 171.499 140.639 171.869 141.262 179.659C141.613 184.081 144.553 185.716 148.527 185.541C155.888 185.191 164.263 184.412 164.263 184.412L168.392 172.473L153.746 171.499Z" fill="#E8B00E"/>
<path d="M150.961 172.473L139.529 132.08C139.529 132.08 137.834 126.159 134.699 127.152C130.161 128.574 132.206 133.443 132.517 136.306C133.121 142.129 132.498 144.622 136.159 158.723C138.419 167.409 140.288 177.4 142.314 183.146C143.716 187.099 146.521 181.607 150.533 180.185C157.992 177.517 150.961 172.473 150.961 172.473Z" fill="#E8B00E"/>
<path d="M128.758 119.031C126.791 127.834 117.91 133.326 108.932 131.301C99.9536 129.295 94.2667 120.531 96.2337 111.728C98.2008 102.924 107.082 97.4322 116.06 99.4577C125.058 101.483 130.726 110.247 128.758 119.031Z" fill="#282723"/>
<path d="M144.106 110.014C142.586 116.772 135.887 121.018 129.129 119.498L127.376 113.013C120.618 111.494 116.372 104.794 117.891 98.0555L118.923 93.4786C120.442 86.7205 127.142 82.4747 133.881 83.9938L136.938 84.6755C143.697 86.1946 147.942 92.8943 146.423 99.633L144.106 110.014Z" fill="#282723"/>
<path d="M143.249 90.9273C142.976 92.0374 142.625 93.1865 142.177 94.2966C139.178 101.873 133.082 106.761 127.687 106.333C126.733 109.858 125.292 112.896 123.831 115.408C122.156 118.291 117.813 120.745 117.813 120.745C115.69 126.023 136.86 143.726 137.756 143.279C139.684 142.305 136.237 129.587 132.77 125.653C131.154 123.803 129.499 121.621 129.46 120.394C129.343 116.032 130.725 115.097 132.829 113.11C136.51 110.325 140.736 111.338 140.736 111.338C141.145 111.435 141.554 111.338 141.866 111.124C142.294 110.364 142.625 109.546 142.82 108.65L145.079 98.5618C145.722 95.7573 144.943 92.9722 143.249 90.9273Z" fill="#E9D6B8"/>
<path d="M121.299 203.401C121.299 203.401 126.713 208.309 128.252 208.756C130.297 209.341 136.003 206.867 136.003 206.867C136.003 206.867 134.426 181.412 135.01 171.324C135.595 161.235 137.971 158.314 137.698 155.198C137.25 150.212 141.301 147.68 140.113 143.882C138.925 140.084 135.926 126.432 135.711 128.34C133.959 144.467 127.765 132.041 126.519 130.074C125.857 129.003 121.299 203.401 121.299 203.401Z" fill="#387BFF"/>
<path d="M132.634 123.997C132.634 123.997 139.801 129.256 139.704 131.69C139.607 134.125 143.404 141.292 141.866 152.082C140.113 164.41 139.451 172.668 139.821 180.536C140.171 188.404 143.813 195.201 143.93 204.881C144.028 212.457 142.294 213.139 142.294 213.139C142.294 213.139 138.944 214.385 136.14 211.795C133.335 209.204 133.822 183.263 134.251 176.738C134.679 170.214 136.705 154.828 137.191 150.329C137.776 144.759 136.899 139.325 136.607 137.708C135.614 132.177 134.426 128.808 133.588 126.763C133.452 126.412 131.582 124.913 131.466 124.64C130.94 123.491 132.05 123.335 132.634 123.997Z" fill="#FEC00F"/>
<path d="M124.026 141.195C121.961 150.387 112.691 156.113 103.323 154.01C93.9355 151.906 88.0149 142.753 90.0598 133.579C92.1243 124.387 101.395 118.661 110.763 120.764C120.131 122.868 126.071 132.021 124.026 141.195Z" fill="#282723"/>
<path d="M159.823 290.477L156.57 315.426L170.632 321.892L178.442 323.528L164.594 313.186L169.132 290.672L159.823 290.477Z" fill="#E9D6B8"/>
<path d="M155.655 319.204L158.712 320.003L160.757 318.153L171.995 323.606L181.967 325.885C181.967 325.885 182.084 325.106 181.752 324.677C180.506 323.099 173.514 319.574 173.514 319.574C173.514 319.574 173.397 321.892 172.404 321.95C171.411 322.009 162.802 317.646 160.816 316.439C157.388 314.335 156.745 313.05 156.492 313.206C155.791 313.634 155.655 319.204 155.655 319.204Z" fill="#161711"/>
<path d="M193.789 255.771L204.948 277.039L220.412 276.279L228.105 274.137L211.025 271.352L201.715 253.181L193.789 255.771Z" fill="#E9D6B8"/>
<path d="M205.864 280.798L208.941 280.097L209.915 277.506L223.781 277.312L232.059 275.442C232.059 275.442 231.065 274.351 230.442 274.118C228.592 273.377 222.068 272.988 222.068 272.988C222.068 272.988 222.749 274.799 221.912 275.325C221.055 275.851 211.531 276.143 209.213 275.987C205.201 275.715 204.033 274.858 203.877 275.111C203.429 275.793 205.864 280.798 205.864 280.798Z" fill="#161711"/>
<path d="M112.126 192.163L120.462 195.786L124.084 206.653L177.721 197.83C177.721 197.83 183.194 196.156 186.66 204.783C191.607 217.073 204.208 255.265 204.208 255.265L196.223 263.601L171.196 220.461C171.196 220.461 119.936 244.514 103.031 239.314C96.5453 237.328 91.5985 225.856 92.5138 214.288C93.2344 205.231 95.0457 196.876 95.0457 196.876L112.126 192.163Z" fill="#194866"/>
<path d="M119.371 239.022L160.387 236.062L156.862 299.358L168.957 299.748L177.896 225.623C177.896 225.623 175.481 214.599 167.652 216.255C159.823 217.91 140.872 232.439 119.371 239.022Z" fill="#163F59"/>
<path d="M101.843 252.499C101.843 252.499 120.325 226.713 124.24 212.944C128.914 196.487 125.896 176.913 126.305 170.272C127.064 158.061 126.889 134.475 127.064 131.554C127.22 128.613 125 125.614 125 125.614C125 125.614 122.721 118.135 118.592 118.7C114.95 119.187 109.341 124.251 105.816 126.588C102.369 128.886 102.758 171.947 102.583 174.109C101.96 181.938 97.0128 189.534 93.7798 197.168C86.1647 215.184 86.1647 235.341 86.1647 235.341C86.1647 235.341 89.164 249.831 101.843 252.499Z" fill="#FEC00F"/>
<path d="M114.229 183.964C114.229 183.964 114.677 187.099 131.544 185.249C148.41 183.399 172.755 176.855 172.755 176.855L133.491 177.848C133.472 177.848 118.475 178.88 114.229 183.964Z" fill="#E9D6B8"/>
<path d="M159.608 179.465C167.652 178.803 171.372 182.191 174.644 183.068C177.916 183.944 181.246 185.424 181.227 185.385C179.201 182.406 176.591 182.522 175.228 181.627C173.845 180.711 174.235 181.198 177.078 180.77C178.695 180.516 181.752 182.892 183.934 184.178C185.803 185.288 186.933 185.288 186.933 185.288C186.933 185.288 184.654 182.815 181.83 180.906C178.422 178.608 174.313 176.777 173.339 176.524C171.586 176.056 166.191 176.329 162.393 177.108C158.109 177.985 153.805 179.932 159.608 179.465Z" fill="#E9D6B8"/>
<path d="M172.93 176.699C172.93 176.699 179.182 177.614 180.331 178.277C181.129 178.725 184.498 181.471 184.498 181.471C184.498 181.471 182.181 181.315 180.759 180.302C179.337 179.27 172.93 176.699 172.93 176.699Z" fill="#E9D6B8"/>
<path d="M126.791 184.801L105.329 177.108C105.329 177.108 106.829 189.553 107.316 194.266C107.822 198.999 106.575 205.952 110.549 206.458C114.522 206.965 116.528 206.205 112.788 208.951C109.049 211.678 110.295 213.918 112.048 215.67C113.801 217.404 108.075 236.821 108.075 236.821C108.075 236.821 108.64 237.113 110.315 238.068C115.612 229.693 122.195 220.169 124.24 212.944C126.889 203.576 127.064 193.215 126.791 184.801Z" fill="#E8B00E"/>
<path d="M121.163 176.68L119.293 136.832C119.293 136.832 117.151 128.477 114.015 126.568C110.295 124.289 105.193 128.516 105.193 128.516C105.193 128.516 102.583 134.729 104.336 164.118C105.504 183.769 107.316 193.955 116.644 192.514C125.331 191.17 135.166 189.222 135.166 189.222L138.652 175.823L121.163 176.68Z" fill="#FEC00F"/>
<path d="M154.681 186.593C154.661 186.573 154.661 186.554 154.642 186.534L154.681 184.548H236.519V186.534C236.519 186.534 236.538 186.573 236.519 186.593L236.304 186.963C235.253 188.677 233.364 188.988 231.202 188.988H159.998C157.836 188.988 155.947 188.677 154.895 186.963L154.681 186.593Z" fill="#D0DEE6"/>
<path d="M174.41 186.924C174.41 186.924 174.429 186.963 174.41 186.982L174.215 187.275C173.884 187.723 173.495 188.054 173.027 188.287H160.582C158.498 188.287 156.687 188.034 155.674 186.651L155.479 186.359C155.46 186.34 155.46 186.32 155.44 186.301L155.46 185.327H174.429V186.924H174.41Z" fill="#B6C2C9"/>
<path d="M226.352 185.015H185.453V186.418H226.352V185.015Z" fill="#B6C2C9"/>
<path d="M174.858 184.47L185.472 144.272C185.745 143.201 186.836 142.344 187.907 142.344H245.322C246.373 142.344 247.016 143.201 246.744 144.272L236.129 184.49H174.858V184.47Z" fill="#D7DFE2"/>
<path d="M207.324 163.417C206.779 165.462 208.006 167.136 210.07 167.136C212.135 167.136 214.219 165.462 214.764 163.417C215.309 161.352 214.082 159.697 212.018 159.697C209.973 159.697 207.87 161.352 207.324 163.417Z" fill="#B6C2C9"/>
<path d="M300.224 327.131H308.618L294.791 193.273H282.638L300.224 327.131Z" fill="#93CEF5"/>
<path d="M283.456 199.447L288.772 239.976L295.102 196.292L294.791 193.273H284.176L283.456 199.447Z" fill="#86BBD8"/>
<path d="M223.548 327.131H231.922L218.114 193.273H205.961L223.548 327.131Z" fill="#93CEF5"/>
<path d="M206.779 199.447L212.096 239.976L218.426 196.292L218.114 193.273H207.5L206.779 199.447Z" fill="#86BBD8"/>
<path d="M135.595 327.131H127.22L141.048 193.273H153.201L135.595 327.131Z" fill="#93CEF5"/>
<path d="M152.383 199.447L136.12 240.755L140.736 196.292L141.048 193.273H151.662L152.383 199.447Z" fill="#86BBD8"/>
<path d="M230.325 188.93H129.323V196.759H230.325V188.93Z" fill="#73A9FF"/>
<path d="M340.345 188.93H225.651V196.759H340.345V188.93Z" fill="#8CC3FF"/>
<path d="M121.241 116.149C121.241 116.149 126.714 123.374 127.707 130.074C128.7 136.793 125.973 173.116 125.973 173.116L124.026 141.195L125.487 136.287L122.994 135.8C122.994 135.8 120.754 123.355 119.021 121.368C117.287 119.382 117.034 118.641 117.034 118.641L121.241 116.149Z" fill="#E8B00E"/>
<path d="M129.479 120.394C129.479 120.394 136.685 136.306 136.919 144.252C137.172 152.218 134.426 172.375 134.426 172.375L139.412 140.026L137.425 136.793L138.925 136.287C138.925 136.287 133.705 124.582 133.199 124.095C130.278 121.29 129.479 120.394 129.479 120.394Z" fill="#E8B00E"/>
<path d="M299.952 318.386L298.647 325.183H291.733C291.733 325.183 291.343 324.229 290.759 324.229C290.272 324.229 289.629 325.183 288.948 325.183C287.487 325.183 285.871 325.183 285.228 325.183C283.923 325.183 271.342 325.183 271.342 325.183C271.342 325.183 271.03 323.762 271.419 323.255C271.614 323.002 272.783 322.574 273.542 322.34C277.126 321.327 287.351 318.192 289.123 314.783C291.285 310.635 299.952 318.386 299.952 318.386Z" fill="#161711"/>
<path d="M297.965 233.374C297.965 233.374 299.952 244.456 301.588 258.634C302.795 269.034 302.834 298.755 300.906 319.38C300.789 320.646 287.662 316.789 287.662 316.789C287.662 316.789 282.871 259.024 281.781 246.092C280.69 233.16 290.097 225.311 297.965 233.374Z" fill="#163F59"/>
<path d="M320.09 306.155C319.564 305.532 319.953 303.857 319.953 303.857C319.953 303.857 329.068 302.845 331.99 303.526C332.749 303.702 334.034 304.364 335.242 305.065C335.437 305.182 335.807 305.883 336.002 306C336.372 306.214 336.566 305.844 336.878 306.039C337.696 306.545 338.261 306.954 338.28 307.012C339.079 311.2 338.027 312.875 338.027 312.875C338.027 312.875 330.529 315.212 328.815 313.654C324.452 309.72 321.219 307.538 320.09 306.155Z" fill="#161711"/>
<path d="M320.732 243.054C320.732 243.054 313.468 238.808 315.318 250.182C319.778 277.643 323.888 297.761 325.816 306.876C326.556 310.421 327.705 309.856 327.705 309.856L336.04 311.219L340.247 308.356L332.457 246.306L320.732 243.054Z" fill="#163F59"/>
<path d="M287.643 244.826C288.734 246.248 326.108 265.139 327.822 265.139H358.535C360.269 265.139 372.753 263.308 375.46 255.109C378.323 246.423 375.46 230.978 375.46 230.978C375.46 229.187 374.057 227.726 372.344 227.726H334.073C332.34 227.726 328.873 229.187 328.873 230.978L291.713 229.79C291.713 229.79 279.521 234.25 287.643 244.826Z" fill="#194866"/>
<path d="M358.36 254.018H323.206C322.836 254.018 292.473 245.741 292.142 245.644L295.803 257.446C295.803 259.238 326.127 265.139 327.861 265.139H358.574C360.308 265.139 372.792 263.308 375.499 255.109C376.375 252.46 376.706 249.169 376.765 245.897C372.344 252.48 360.171 254.018 358.36 254.018Z" fill="#163F59"/>
<path d="M345.311 143.22L343.656 135.722C343.656 135.722 337.813 136.131 336.683 133.268C334.385 127.522 336.313 118.33 337.696 115.74C341.63 108.417 343.305 95.5625 361.729 105.787C368.741 109.683 357.912 128.496 357.113 132.586C356.315 136.657 358.71 141.35 358.71 141.35L354.406 144.291L345.311 143.22Z" fill="#E9D6B8"/>
<path d="M314.909 194.714L346.499 205.932C346.499 205.932 309.242 208.62 309.105 206.439C308.326 194.539 314.909 194.714 314.909 194.714Z" fill="#E9D6B8"/>
<path d="M378.245 150.524C378.245 150.524 384.536 153.503 389.054 177.692C393.572 201.881 390.69 200.966 390.69 200.966L389.872 206.478L378.128 207.452L371.779 186.554L378.245 150.524Z" fill="#0253A2"/>
<path d="M378.634 150.582L363.151 144.174L358.886 140.493L342.429 140.143L339.546 144.467L326.789 149.511C326.789 149.511 323.634 154.01 326.38 170.759C329.419 189.3 326.322 237.289 326.322 237.289L378.381 238.029C378.401 238.029 374.096 159.58 378.634 150.582Z" fill="#0253A2"/>
<path d="M330.899 149.55C330.899 149.55 328.036 146.628 321.044 154.555C309.125 168.052 303.36 184.801 302.113 188.054C300.886 191.287 299.484 199.291 304.373 204.686C308.093 208.815 311.696 207.276 311.696 207.276L323.089 198.376L319.428 196.526L316.935 196.35C316.935 196.35 324.744 186.885 330.899 176.446C337.073 165.968 330.899 149.55 330.899 149.55Z" fill="#0253A2"/>
<path d="M342.877 117.901C342.877 117.901 344.96 116.733 345.292 118.194C345.623 119.654 344.493 122.868 343.539 123.16C342.584 123.452 342.273 127.386 342.273 127.386L344.824 131.768H357.795C357.795 131.768 361.807 130.152 362.119 127.542C362.43 124.913 365.644 106.372 365.644 106.372L356.51 101.99C356.51 101.99 351.699 99.7888 348.33 98.9319C343.169 97.588 342.078 100.1 342.253 101.405C342.409 102.71 340.812 102.866 338.728 102.866C336.644 102.866 334.073 104.327 335.203 105.203C335.67 105.573 333.606 106.722 334.424 108.105C335.612 110.092 339.527 110.754 339.858 113.967C339.975 115.408 340.637 120.238 342.877 117.901Z" fill="#194866"/>
<path d="M304.86 276.766C304.743 276.182 304.665 272.501 304.665 271.858C304.665 267.827 307.275 264.555 310.488 264.555H375.362C378.576 264.555 381.186 267.827 381.186 271.858C381.186 272.501 381.108 276.182 380.991 276.766H304.86Z" fill="#8CC3FF"/>
<path d="M381.77 278.753C381.77 279.98 381.049 280.993 380.153 280.993H305.658C304.762 280.993 304.042 279.999 304.042 278.753C304.042 277.526 304.762 276.513 305.658 276.513H380.153C381.049 276.513 381.77 277.506 381.77 278.753Z" fill="#0253A2"/>
<path d="M351.504 313.303L347.512 319.38L381.01 330.111C381.01 330.111 383.25 327.968 375.031 323.664C365.469 318.678 351.504 313.303 351.504 313.303Z" fill="#88BDDA"/>
<path d="M345.545 313.303L349.537 319.38L316.039 330.111C316.039 330.111 313.799 327.968 322.018 323.664C331.581 318.678 345.545 313.303 345.545 313.303Z" fill="#88BDDA"/>
<path d="M352.011 295.21H345.019V320.139H352.011V295.21Z" fill="#88BDDA"/>
<path d="M351.952 314.589L348.544 320.392L377.232 330.637C377.232 330.637 379.141 328.592 372.11 324.482C363.911 319.711 351.952 314.589 351.952 314.589Z" fill="#ACD5F4"/>
<path d="M345.097 314.589L348.505 320.392L319.817 330.637C319.817 330.637 317.908 328.592 324.939 324.482C333.158 319.711 345.097 314.589 345.097 314.589Z" fill="#ACD5F4"/>
<path d="M373.96 332.935C373.96 334.279 375.051 335.369 376.395 335.369C377.738 335.369 378.829 334.279 378.829 332.935C378.829 331.591 377.738 330.5 376.395 330.5C375.051 330.5 373.96 331.591 373.96 332.935Z" fill="#0253A2"/>
<path d="M318.395 332.935C318.395 334.279 319.486 335.369 320.83 335.369C322.174 335.369 323.264 334.279 323.264 332.935C323.264 331.591 322.174 330.5 320.83 330.5C319.486 330.5 318.395 331.591 318.395 332.935Z" fill="#0253A2"/>
<path d="M379.861 332.935C379.861 334.279 380.952 335.369 382.296 335.369C383.64 335.369 384.73 334.279 384.73 332.935C384.73 331.591 383.64 330.5 382.296 330.5C380.952 330.5 379.861 331.591 379.861 332.935Z" fill="#0253A2"/>
<path d="M312.514 332.935C312.514 334.279 313.604 335.369 314.948 335.369C316.292 335.369 317.383 334.279 317.383 332.935C317.383 331.591 316.292 330.5 314.948 330.5C313.604 330.5 312.514 331.591 312.514 332.935Z" fill="#0253A2"/>
<path d="M351.173 286.076H346.051V295.035H351.173V286.076Z" fill="#0253A2"/>
<path d="M342.214 281.324C342.214 284.089 344.454 286.31 347.2 286.31H350.024C352.79 286.31 355.01 284.07 355.01 281.324C355.01 278.558 352.77 276.338 350.024 276.338H347.2C344.454 276.338 342.214 278.578 342.214 281.324Z" fill="#0253A2"/>
<path d="M315.435 276.766C315.318 276.182 315.24 272.501 315.24 271.858C315.24 267.827 317.85 264.555 321.064 264.555H385.938C389.151 264.555 391.761 267.827 391.761 271.858C391.761 272.501 391.683 276.182 391.566 276.766H315.435Z" fill="#69ADFE"/>
<path d="M392.345 278.753C392.345 279.98 391.625 280.993 390.729 280.993H316.234C315.338 280.993 314.617 279.999 314.617 278.753C314.617 277.526 315.338 276.513 316.234 276.513H390.748C391.625 276.513 392.345 277.506 392.345 278.753Z" fill="#0063CB"/>
<path d="M384.341 225.876C384.36 227.668 382.919 229.128 381.108 229.128C360.678 229.128 340.247 229.128 319.817 229.128C318.025 229.128 316.272 227.687 315.941 225.895C313.585 212.652 313.585 199.096 315.941 185.853C316.253 184.061 318.025 182.639 319.817 182.62C340.247 182.62 360.678 182.62 381.108 182.62C382.9 182.62 384.341 184.081 384.341 185.872C384.224 199.194 384.224 212.554 384.341 225.876Z" fill="#8CC3FF"/>
<path d="M387.905 225.876C387.905 227.668 386.444 229.128 384.652 229.128C364.222 229.128 343.792 229.128 323.362 229.128C321.57 229.128 319.817 227.687 319.525 225.895C317.285 212.652 317.285 199.096 319.525 185.853C319.837 184.061 321.57 182.62 323.362 182.62C343.792 182.62 364.222 182.62 384.652 182.62C386.444 182.62 387.905 184.081 387.905 185.872C387.905 199.213 387.905 212.535 387.905 225.876Z" fill="#69ADFE"/>
<path d="M332.028 281.148C341.455 249.559 323.459 217.969 331.21 186.379C331.619 184.704 330.568 183.34 328.776 183.34C328.406 183.34 328.036 183.34 327.685 183.34C325.894 183.34 324.024 184.704 323.615 186.379C315.883 217.969 333.879 249.559 324.433 281.148C326.965 281.148 329.497 281.148 332.028 281.148Z" fill="#0063CB"/>
<path d="M385.724 281.148C395.15 249.559 377.154 217.969 384.906 186.379C385.315 184.704 384.263 183.34 382.471 183.34C382.101 183.34 381.731 183.34 381.38 183.34C379.589 183.34 377.719 184.704 377.31 186.379C369.578 217.969 387.574 249.559 378.128 281.148C380.66 281.148 383.192 281.148 385.724 281.148Z" fill="#0063CB"/>
</svg>
