<svg width="404" height="372" viewBox="0 0 404 372" fill="none" xmlns="http://www.w3.org/2000/svg">
<path d="M170.781 361.029C170.236 369.16 140.904 373.751 105.27 371.339C69.6351 368.927 41.2364 360.368 41.781 352.237C42.3257 344.106 71.658 339.515 107.292 341.927C142.888 344.378 171.326 352.898 170.781 361.029Z" fill="#E1EEFE" fill-opacity="0.5"/>
<path d="M341.484 49.6415C338.878 45.9456 337.399 41.4717 337.438 36.6087C337.594 24.4317 347.631 14.6668 359.807 14.8613C369.61 15.0169 377.819 21.5139 380.581 30.4229L389.995 27.5051C389.956 27.4273 389.917 27.3495 389.917 27.2328C389.801 26.8438 389.645 26.4547 389.528 26.0657C389.489 25.949 389.451 25.8322 389.412 25.7155C384.938 13.6553 374.162 5.71889 361.285 5.05752C360.974 5.05752 360.663 5.01862 360.391 5.01862C360.274 5.01862 360.118 5.01862 360.002 5.01862C359.963 5.01862 359.963 5.01862 359.924 5.01862C359.496 5.01862 359.068 5.01862 358.64 5.01862C358.523 5.01862 358.368 5.01862 358.251 5.01862C357.901 5.01862 357.59 5.05752 357.239 5.09642C357.006 5.09642 356.773 5.13533 356.539 5.13533C356.345 5.13533 356.189 5.17423 355.995 5.21314C355.606 5.25204 355.217 5.29094 354.866 5.36875C354.828 5.36875 354.828 5.36875 354.789 5.36875C352.065 5.75779 349.459 6.53587 347.008 7.58628C346.697 7.70299 346.386 7.85861 346.113 7.97532C346.113 7.97532 346.113 7.97532 346.075 7.97532C336.271 12.5271 329.152 21.9418 327.829 33.1462C327.829 33.224 327.829 33.2629 327.79 33.3407C327.752 33.7298 327.713 34.0799 327.674 34.4689C327.674 34.6635 327.635 34.858 327.635 35.0525C327.635 35.3248 327.596 35.5582 327.596 35.8306C327.596 36.064 327.557 36.2585 327.557 36.4919C327.44 43.4947 329.619 50.0305 333.392 55.3215L341.484 49.6415Z" fill="#D1DBEA"/>
<path d="M379.492 61.8184C386.688 56.1385 390.812 48.2409 391.396 39.0596C391.435 38.476 391.473 37.9314 391.473 37.3478C391.512 33.8076 391.084 30.8509 390.034 27.4662C389.995 27.3884 389.956 27.2717 389.956 27.1939C389.995 27.2717 389.995 27.3495 390.034 27.4662L380.62 30.384C381.281 32.5237 381.631 34.8191 381.592 37.2311C381.476 44.584 377.819 51.0031 372.256 54.9713L377.935 63.0245C378.441 62.5965 378.986 62.2075 379.492 61.8184Z" fill="#3BB6D5"/>
<path d="M377.897 62.9856L372.217 54.9324C368.521 57.539 364.047 59.0174 359.185 58.9785C351.832 58.8617 345.413 55.2048 341.445 49.6415L333.392 55.3215C333.743 55.8272 334.132 56.333 334.521 56.7998C339.889 63.6469 347.203 67.6929 355.761 68.6266C355.839 68.6266 355.878 68.6266 355.956 68.6266C356.384 68.6655 356.85 68.7044 357.278 68.7433C357.317 68.7433 357.317 68.7433 357.356 68.7433C357.473 68.7433 357.628 68.7433 357.745 68.7433C358.173 68.7823 358.64 68.7823 359.068 68.8212C365.915 68.899 372.334 66.8371 377.585 63.219C378.247 62.791 378.441 62.5965 377.897 62.9856Z" fill="#316091"/>
<path d="M360.157 36.4919L394.858 47.7741C401.082 28.5944 390.579 8.01422 371.439 1.78958C367.626 0.544656 364.203 0 360.157 0V36.4919Z" fill="#FEC12F"/>
<path d="M390.812 151.959L398.242 142.311L393.924 137.214C394.625 135.619 395.247 133.985 395.714 132.274L402.366 131.768L404 119.669L397.036 117.179C396.881 115.623 396.609 114.105 396.258 112.627L402.288 108.503L397.659 97.2211L389.917 98.6216C389.1 97.4934 388.206 96.3652 387.272 95.3537L390.618 88.3899L380.97 80.9592L374.862 86.1334C373.617 85.5499 372.334 85.0441 371.011 84.5773L370.427 76.8354L358.329 75.2014L355.722 82.5154C354.244 82.5932 352.805 82.7877 351.365 83.06L347.164 76.9132L335.882 81.5428L337.166 88.6622C335.804 89.557 334.482 90.5296 333.198 91.58L327.012 88.6233L319.582 98.2715L323.784 103.251C322.928 104.885 322.189 106.597 321.527 108.348L315.458 108.814L313.825 120.914L319.31 122.859C319.388 124.96 319.621 127.022 320.01 129.006L315.536 132.079L320.166 143.361L325.379 142.428C326.585 144.295 327.907 146.046 329.385 147.68L327.207 152.231L336.855 159.662L340.784 156.355C342.768 157.367 344.869 158.184 347.008 158.845L347.397 163.825L359.496 165.459L361.324 160.401C363.503 160.246 365.642 159.895 367.704 159.39L370.7 163.786L381.981 159.156L380.931 153.282C382.526 152.154 384.043 150.87 385.483 149.508L390.812 151.959ZM355.528 141.688C344.324 140.171 336.427 129.862 337.944 118.657C339.461 107.453 349.77 99.5553 360.974 101.073C372.178 102.59 380.075 112.899 378.558 124.104C377.041 135.347 366.732 143.206 355.528 141.688Z" fill="#D1DBEA"/>
<path d="M362.141 92.2414C346.036 90.0628 331.214 101.384 329.074 117.49C326.896 133.596 338.216 148.419 354.322 150.558C370.427 152.737 385.249 141.416 387.389 125.31C389.567 109.204 378.247 94.3811 362.141 92.2414ZM355.139 144.489C342.379 142.778 333.431 131.029 335.143 118.268C336.855 105.508 348.603 96.5597 361.363 98.2715C374.123 99.9833 383.071 111.732 381.359 124.493C379.647 137.253 367.899 146.201 355.139 144.489Z" fill="#B0BFDE"/>
<path d="M341.134 211.132L266.908 285.361L233.569 252.02L177.472 308.12L152.964 283.649L102.041 334.574L57.8088 290.341V303.14L102.041 347.374L152.964 296.448L177.472 320.958L233.569 264.858L266.908 298.199L347.553 217.551L341.134 211.132Z" fill="#BCD0E2"/>
<path d="M350.743 235.408H341.679V217.006H323.278V207.942H350.743V235.408Z" fill="#BCD0E2"/>
<path d="M234.347 125.154L236.176 117.84L232.441 116.012C232.441 114.922 232.363 113.872 232.246 112.783L235.903 110.837L233.841 103.562L229.29 103.874C228.823 103.018 228.278 102.24 227.734 101.462L230.146 97.6101L224.738 92.3581L220.693 95.0814C219.953 94.6534 219.175 94.2255 218.358 93.8754L218.514 89.0902L211.2 87.2617L209.022 91.6967C208.166 91.6578 207.31 91.6967 206.454 91.7745L204.198 87.534L196.923 89.5959L197.234 94.3811C196.418 94.809 195.639 95.2759 194.9 95.7816L190.971 93.3307L185.719 98.7383L188.209 102.473C187.665 103.329 187.12 104.185 186.692 105.119L182.452 104.963L180.623 112.277L184.241 114.067C184.163 115.195 184.163 116.362 184.241 117.529L180.896 119.319L182.957 126.594L186.536 126.36C187.081 127.527 187.742 128.656 188.481 129.706L186.692 132.546L192.099 137.798L194.823 135.969C195.951 136.748 197.157 137.409 198.402 137.954L198.285 141.066L205.598 142.894L206.999 140.015C208.361 140.093 209.761 140.054 211.161 139.86L212.601 142.583L219.876 140.521L219.642 137.175C220.848 136.553 221.976 135.814 222.988 134.997L225.789 136.748L231.041 131.34L228.979 128.266C229.601 127.216 230.146 126.127 230.613 124.999L234.347 125.154ZM211.123 125.816C205.637 127.372 199.88 124.182 198.324 118.696C196.768 113.172 199.958 107.453 205.443 105.897C210.928 104.341 216.686 107.531 218.242 113.016C219.837 118.502 216.647 124.22 211.123 125.816Z" fill="#B0BFDE"/>
<path d="M203.887 100.411C195.367 102.823 190.427 111.693 192.877 120.213C195.289 128.733 204.159 133.674 212.679 131.223C221.198 128.811 226.139 119.941 223.688 111.421C221.276 102.94 212.406 97.9992 203.887 100.411ZM211.784 128.033C205.015 129.978 198.013 126.049 196.067 119.319C194.161 112.588 198.051 105.547 204.782 103.64C211.512 101.734 218.553 105.624 220.459 112.394C222.404 119.085 218.514 126.127 211.784 128.033Z" fill="#BCD0E2"/>
<path d="M325.067 204.674L329.035 188.918L321.06 184.988C321.06 182.693 320.944 180.359 320.632 178.025L328.491 173.862L324.056 158.223L314.214 158.884C313.202 157.094 312.074 155.344 310.829 153.71L316.003 145.462L304.332 134.141L295.618 139.977C294.023 139.004 292.351 138.148 290.639 137.37L290.989 127.06L275.234 123.092L270.449 132.663C268.62 132.624 266.792 132.663 264.924 132.818L260.062 123.676L244.423 128.111L245.123 138.459C243.373 139.354 241.7 140.366 240.066 141.416L231.624 136.164L220.304 147.835L225.672 155.849C224.466 157.678 223.377 159.545 222.404 161.529L213.262 161.218L209.294 176.974L217.075 180.787C216.88 183.238 216.88 185.728 217.036 188.218L209.839 192.03L214.274 207.67L222.015 207.164C223.221 209.693 224.622 212.066 226.178 214.322L222.326 220.469L233.997 231.79L239.871 227.861C242.322 229.495 244.89 230.934 247.574 232.14L247.341 238.832L263.096 242.8L266.13 236.653C269.087 236.809 272.082 236.731 275.078 236.342L278.19 242.216L293.829 237.781L293.362 230.623C295.93 229.261 298.341 227.705 300.598 225.993L306.628 229.767L317.948 218.096L313.513 211.482C314.875 209.226 316.042 206.891 317.053 204.44L325.067 204.674ZM275.117 206.113C263.291 209.498 250.959 202.612 247.574 190.785C244.19 178.958 251.075 166.626 262.901 163.241C274.728 159.857 287.06 166.743 290.444 178.569C293.829 190.396 286.943 202.729 275.117 206.113Z" fill="#BCD0E2"/>
<path d="M259.556 151.531C241.233 156.744 230.652 175.807 235.826 194.131C241.038 212.455 260.101 223.037 278.423 217.823C296.708 212.61 307.328 193.547 302.115 175.224C296.941 156.9 277.879 146.318 259.556 151.531ZM276.478 210.937C261.968 215.061 246.874 206.658 242.75 192.147C238.626 177.636 247.029 162.541 261.54 158.378C276.05 154.254 291.145 162.658 295.268 177.169C299.392 191.68 290.989 206.814 276.478 210.937Z" fill="#B0BFDE"/>
<path d="M329.93 270.694C327.868 272.561 326.195 276.919 323.706 292.169C323.628 292.675 317.715 296.526 317.715 296.526L328.763 298.822L329.035 291.819C329.035 291.819 328.452 287.851 328.53 276.179C328.53 272.795 330.047 270.577 329.93 270.694Z" fill="#B0BFDE"/>
<path d="M355.178 326.21C355.917 326.21 357.045 326.054 358.056 325.16C359.496 323.915 360.118 321.658 359.924 318.507C359.768 316.367 358.951 314.228 358.056 311.932C356.578 308.081 354.866 303.723 355.761 297.966L354.127 297.693C353.155 303.918 355.022 308.703 356.539 312.516C357.434 314.772 358.173 316.717 358.29 318.585C358.445 321.152 358.017 322.981 357.006 323.876C356.033 324.732 354.866 324.498 354.789 324.498L354.438 326.132C354.477 326.132 354.75 326.21 355.178 326.21Z" fill="#367082"/>
<path d="M342.418 339.437L340.784 341.927L354.438 346.284C354.438 346.284 355.333 345.429 351.988 343.678C348.097 341.616 342.418 339.437 342.418 339.437Z" fill="#88BDDA"/>
<path d="M339.967 339.437L341.601 341.927L327.985 346.284C327.985 346.284 327.09 345.429 330.436 343.678C334.287 341.616 339.967 339.437 339.967 339.437Z" fill="#88BDDA"/>
<path d="M342.612 332.046H339.772V342.2H342.612V332.046Z" fill="#88BDDA"/>
<path d="M342.573 339.943L341.173 342.316L352.844 346.479C352.844 346.479 353.622 345.662 350.743 343.989C347.436 342.044 342.573 339.943 342.573 339.943Z" fill="#ACD5F4"/>
<path d="M339.811 339.943L341.212 342.316L329.541 346.479C329.541 346.479 328.763 345.662 331.642 343.989C334.948 342.044 339.811 339.943 339.811 339.943Z" fill="#ACD5F4"/>
<path d="M351.56 347.413C351.56 347.957 351.988 348.385 352.532 348.385C353.077 348.385 353.505 347.957 353.505 347.413C353.505 346.868 353.077 346.44 352.532 346.44C351.988 346.44 351.56 346.868 351.56 347.413Z" fill="#001F46"/>
<path d="M328.919 347.413C328.919 347.957 329.347 348.385 329.891 348.385C330.436 348.385 330.864 347.957 330.864 347.413C330.864 346.868 330.436 346.44 329.891 346.44C329.385 346.44 328.919 346.868 328.919 347.413Z" fill="#001F46"/>
<path d="M353.933 347.413C353.933 347.957 354.361 348.385 354.905 348.385C355.45 348.385 355.878 347.957 355.878 347.413C355.878 346.868 355.45 346.44 354.905 346.44C354.4 346.44 353.933 346.868 353.933 347.413Z" fill="#367082"/>
<path d="M326.546 347.413C326.546 347.957 326.974 348.385 327.518 348.385C328.063 348.385 328.491 347.957 328.491 347.413C328.491 346.868 328.063 346.44 327.518 346.44C326.974 346.44 326.546 346.868 326.546 347.413Z" fill="#367082"/>
<path d="M342.301 328.35H340.2V332.007H342.301V328.35Z" fill="#367082"/>
<path d="M338.605 326.405C338.605 327.533 339.5 328.428 340.628 328.428H341.756C342.885 328.428 343.779 327.533 343.779 326.405C343.779 325.276 342.885 324.382 341.756 324.382H340.628C339.539 324.382 338.605 325.315 338.605 326.405Z" fill="#367082"/>
<path d="M325.729 324.576C325.69 324.343 325.651 322.825 325.651 322.592C325.651 320.958 326.701 319.635 328.024 319.635H354.439C355.761 319.635 356.812 320.958 356.812 322.592C356.812 322.864 356.773 324.343 356.734 324.576H325.729Z" fill="#3BB6D5"/>
<path d="M357.045 325.354C357.045 325.86 356.734 326.249 356.384 326.249H326.079C325.729 326.249 325.417 325.86 325.417 325.354C325.417 324.848 325.729 324.459 326.079 324.459H356.384C356.734 324.459 357.045 324.848 357.045 325.354Z" fill="#367082"/>
<path d="M355.567 309.326C354.905 309.365 350.782 309.442 350.081 309.442C345.569 309.481 341.64 308.664 341.445 307.536C340.55 302.907 340.512 298.16 341.328 293.492C341.523 292.364 345.491 291.508 350.12 291.585C350.859 291.585 355.061 291.663 355.722 291.702C354.283 297.499 354.205 303.529 355.567 309.326Z" fill="#3BB6D5"/>
<path d="M356.189 291.741C356.695 291.741 357.045 291.974 356.967 292.286C355.722 297.732 355.645 303.373 356.812 308.82C356.889 309.092 356.539 309.365 356.034 309.365C355.528 309.365 355.061 309.131 355.022 308.859C353.855 303.412 353.894 297.771 355.139 292.286C355.217 291.936 355.683 291.702 356.189 291.741Z" fill="#367082"/>
<path d="M356.384 309.326C356.267 309.365 355.372 309.404 355.178 309.404C354.205 309.404 353.155 308.548 352.96 307.458C352.143 302.907 352.143 298.199 353.038 293.647C353.233 292.558 354.283 291.663 355.294 291.702C355.45 291.702 356.384 291.741 356.5 291.78C355.1 297.499 355.061 303.529 356.384 309.326Z" fill="#2F91AA"/>
<path d="M327.324 335.42L323.563 337.62L326.903 343.329L330.663 341.128L327.324 335.42Z" fill="#367082"/>
<path d="M316.509 313.022L330.086 339.593L325.417 341.577C325.417 341.577 308.923 316.484 310.012 314.539C311.14 312.632 315.809 311.815 316.509 313.022Z" fill="#163F59"/>
<path d="M331.486 342.978L328.763 344.573L328.257 343.756L327.557 345.273L320.632 349.319C320.632 349.319 320.088 348.113 324.639 345.234C325.806 344.495 325.69 342.394 325.69 342.394C325.69 342.394 325.962 341.499 327.596 342.238C328.024 342.433 330.164 340.332 330.164 340.332C330.164 340.332 331.369 341.81 331.486 342.978Z" fill="#163F59"/>
<path d="M347.786 293.181C347.786 293.181 350.587 301.856 352.416 304.502C353.738 306.369 354.866 310.298 354.75 312.049C354.594 313.8 354.439 319.441 351.404 319.713C347.047 320.141 338.8 319.557 338.8 319.557C338.8 319.557 334.015 307.225 334.17 305.63C334.326 304.035 335.338 302.128 335.532 301.35C335.765 300.572 334.287 297.538 334.287 297.538L347.786 293.181Z" fill="#163F59"/>
<path d="M338.372 310.687L315.108 322.825C315.108 322.825 307.056 314.617 310.401 312.438C316.859 308.236 335.532 301.35 335.532 301.35L338.372 310.687Z" fill="#163F59"/>
<path d="M314.447 344.339L314.097 350.603L309.195 350.447L310.479 343.328L314.447 344.339Z" fill="#367082"/>
<path d="M351.093 319.674L320.36 319.557C320.36 319.557 314.719 317.068 317.442 313.761C319.193 311.66 340.434 307.536 346.58 307.497C359.068 307.38 351.093 319.674 351.093 319.674Z" fill="#194866"/>
<path d="M325.028 318.974L315.031 349.047L309.312 346.557C309.312 346.557 314.058 315.9 317.481 315.045C320.905 314.228 325.262 317.962 325.028 318.974Z" fill="#194866"/>
<path d="M314.058 351.342L310.712 351.459L310.673 350.447L309.273 351.498L300.87 351.77C300.87 351.77 300.987 350.408 306.628 349.98C308.067 349.864 309.04 347.88 309.04 347.88C309.04 347.88 309.74 347.218 310.868 348.697C311.179 349.086 314.175 348.23 314.175 348.23C314.175 348.23 314.525 350.214 314.058 351.342Z" fill="#163F59"/>
<path d="M349.929 300.589L349.81 303.465L350.47 303.492L350.59 300.616L349.929 300.589Z" fill="#163F59"/>
<path d="M335.649 269.099C341.367 268.749 348.486 270.227 349.615 274.312C350.937 279.019 350.004 295.476 354.205 305.669C354.361 306.058 354.088 307.147 353.31 307.069C348.759 306.563 334.987 306.447 334.987 306.447L328.607 290.418L327.596 281.898C327.596 281.898 326.974 271.9 330.28 269.916C331.058 269.449 333.509 269.216 335.649 269.099Z" fill="#BCD0E2"/>
<path d="M255.043 354.96H251.737L257.183 302.323H261.968L255.043 354.96Z" fill="#93CEF5"/>
<path d="M261.618 304.735L259.556 320.686L257.066 303.49L257.183 302.323H261.345L261.618 304.735Z" fill="#86BBD8"/>
<path d="M299.197 354.96H295.891L301.337 302.323H306.122L299.197 354.96Z" fill="#93CEF5"/>
<path d="M305.772 304.735L303.671 320.686L301.22 303.49L301.337 302.323H305.499L305.772 304.735Z" fill="#86BBD8"/>
<path d="M333.781 354.96H337.088L331.642 302.323H326.857L333.781 354.96Z" fill="#93CEF5"/>
<path d="M327.168 304.735L333.587 320.997L331.759 303.49L331.642 302.323H327.479L327.168 304.735Z" fill="#86BBD8"/>
<path d="M336.232 300.611H296.513V303.685H336.232V300.611Z" fill="#2F91AA"/>
<path d="M298.38 300.611H253.254V303.685H298.38V300.611Z" fill="#3BB6D5"/>
<path d="M319.971 293.608C319.971 293.608 318.221 293.57 316.742 294.503C315.614 295.204 314.603 296.721 315.614 297.499C316.664 298.316 318.221 299.094 318.221 299.094C318.221 299.094 322.227 299.172 319.971 293.608Z" fill="#C4D1E1"/>
<path d="M335.532 290.379C335.532 290.379 332.07 296.059 325.534 296.954C324.406 297.11 323.589 298.082 324.056 298.51C324.678 299.016 325.573 299.211 327.168 299.405C330.475 299.794 335.065 299.366 338.566 297.032C343.701 293.57 345.413 291.897 345.258 289.835C345.063 287.734 335.532 290.379 335.532 290.379Z" fill="#E9D6B8"/>
<path d="M348.72 272.678C349.77 274.818 350.081 278.086 349.459 282.638C348.953 286.139 344.791 291.547 344.013 293.258C343.896 293.531 343.507 294.776 343.507 294.776L339.306 297.654L332.498 292.208L335.221 289.329L335.882 289.485C335.882 289.485 336.543 287.812 336.543 287.111C336.505 286.411 340.006 277.58 341.912 271.9C342.923 268.593 347.67 270.577 348.72 272.678Z" fill="#B0BFDE"/>
<path d="M339.5 289.757L337.399 288.901L336.543 288.59C336.427 289.134 335.843 289.446 335.843 289.446L337.516 289.835L339.422 290.613L341.523 292.325L339.5 289.757Z" fill="#BCD0E2"/>
<path d="M326.04 296.993L322.383 295.593C322.383 295.593 321.138 296.76 321.294 297.11C321.449 297.46 320.983 299.366 320.983 299.366L322.616 301L324.173 300.728C324.173 300.728 324.367 300.144 323.861 300.028C323.356 299.911 324.25 299.677 324.562 299.561C324.795 299.483 327.168 298.744 326.04 296.993Z" fill="#E9D6B8"/>
<path d="M331.175 299.833V299.133L302.698 298.627V299.327C302.698 299.327 302.698 299.327 302.698 299.366L302.776 299.483C303.126 300.105 303.788 300.222 304.527 300.222L329.308 300.689C330.047 300.689 330.708 300.611 331.097 300.028L331.175 299.833Z" fill="#B6C2C9"/>
<path d="M324.289 299.833C324.289 299.833 324.289 299.872 324.289 299.833L324.367 299.95C324.484 300.105 324.6 300.222 324.795 300.3L329.113 300.378C329.852 300.378 330.475 300.3 330.825 299.833L330.903 299.716V299.366L324.289 299.25V299.833Z" fill="#D8E5ED"/>
<path d="M320.438 299.6L306.2 299.327L306.239 298.861L320.477 299.094L320.438 299.6Z" fill="#879BA6"/>
<path d="M324.134 298.977L320.71 284.894C320.632 284.505 320.243 284.233 319.893 284.194L299.898 283.844C299.509 283.844 299.314 284.116 299.392 284.505L302.815 298.588L324.134 298.977Z" fill="#D9E1E4"/>
<path d="M312.969 291.43C313.163 292.13 312.696 292.714 311.996 292.714C311.296 292.714 310.557 292.091 310.401 291.391C310.246 290.691 310.673 290.107 311.374 290.107C312.074 290.146 312.813 290.73 312.969 291.43Z" fill="#B6C2C9"/>
<path d="M332.498 269.021C332.653 270.383 333.509 271.55 334.443 271.589C335.299 271.589 336.154 271.589 337.01 271.55C337.905 271.472 338.761 270.305 338.878 268.943C339.072 266.726 339.228 264.469 339.422 262.252C339.539 260.929 338.878 258.245 337.516 257.467C336.271 256.766 334.832 256.805 333.587 257.506C332.225 258.323 331.642 261.007 331.797 262.33C332.031 264.547 332.264 266.765 332.498 269.021Z" fill="#E2C59C"/>
<path d="M332.77 270.461L334.559 273.612L340.862 269.721L339.383 268.01L332.77 270.461Z" fill="#B0BFDE"/>
<path d="M332.537 269.371L333.003 270.538L331.525 273.067L331.369 271.044L332.537 269.371Z" fill="#B0BFDE"/>
<path d="M333.12 255.949L332.731 254.315L331.992 254.471L330.047 254.86L328.88 255.093C327.596 255.366 326.74 256.494 327.012 257.7L327.401 259.334L328.141 259.178L330.086 258.789L331.253 258.556C332.575 258.284 333.392 257.117 333.12 255.949Z" fill="#163F59"/>
<path d="M339.15 265.053C339.383 266.103 338.644 267.115 337.516 267.348L332.77 268.282C331.603 268.515 330.475 267.854 330.241 266.804L328.179 258.206C327.946 257.155 328.646 256.144 329.813 255.91L334.559 254.977C335.727 254.743 336.855 255.405 337.088 256.455L339.15 265.053Z" fill="#E9D6B8"/>
<path d="M332.887 254.277C333.704 254.121 334.521 254.354 335.104 254.86L335.921 254.704C336.932 254.51 337.905 255.094 338.138 255.988L339.111 260.073L337.827 260.307L337.438 258.634C337.283 258.011 336.582 257.583 335.882 257.739L335.143 257.895L333.198 258.284L332.031 258.517C330.708 258.789 329.463 258.011 329.152 256.844L328.724 255.094L332.887 254.277Z" fill="#163F59"/>
<path d="M337.633 261.474C337.516 260.929 337.905 260.384 338.528 260.229H338.605C339.228 260.112 339.85 260.462 339.967 261.007L340.278 262.252C340.395 262.796 340.006 263.341 339.383 263.497H339.306C338.839 263.575 338.411 263.419 338.138 263.108" fill="#E9D6B8"/>
<path d="M201.32 231.829C218.398 182.46 202.487 132.196 148.646 113.561C94.8058 94.9257 51.2352 124.687 34.196 174.018C20.8915 212.494 43.2603 235.214 55.1255 275.051C57.4596 282.949 44.3495 306.174 44.3495 306.174L111.65 329.439C111.65 329.439 115.696 303.062 122.426 298.316C156.388 274.351 188.016 270.344 201.32 231.829Z" fill="#FEC12F"/>
<path d="M78.1546 299.483C61.7379 244.395 30.8495 213.038 49.2113 159.857C53.1794 148.419 58.1589 137.759 64.072 128.033C50.8841 139.549 40.6139 155.421 34.1562 174.095C20.8516 212.571 43.2204 235.291 55.0856 275.129C57.4197 283.027 44.3097 306.252 44.3097 306.252L75.1981 316.912C77.7267 309.987 79.3217 303.373 78.1546 299.483Z" fill="#FFAB01"/>
<path d="M43.1815 305.824L39.9915 315.122C34.6619 330.489 42.8314 347.296 58.1978 352.626L72.1248 357.45C87.4912 362.78 104.297 354.61 109.627 339.204L112.817 329.906L43.1815 305.824Z" fill="#3D7AA8"/>
<path d="M81.8503 187.284L97.3335 177.052L103.169 194.676L118.652 184.444L124.526 202.028L140.009 191.797L145.883 209.42L161.405 199.188L167.28 216.812" stroke="#F4DA80" stroke-width="18.94" stroke-miterlimit="10"/>
<path d="M89.942 203.74L89.4752 255.094L69.2849 313.527" stroke="#F4DA80" stroke-width="18.94" stroke-miterlimit="10"/>
<path d="M142.188 221.792L110.833 262.485L90.6423 320.919" stroke="#F4DA80" stroke-width="18.94" stroke-miterlimit="10"/>
<path d="M60.4985 317.157L57.994 324.401L101.526 339.454L104.03 332.211L60.4985 317.157Z" fill="#34688F"/>
<path d="M55.9612 330.21L53.4575 337.453L84.7826 348.282L87.2863 341.038L55.9612 330.21Z" fill="#34688F"/>
<path d="M191.594 234.863L185.564 224.048L186.77 221.403C186.77 221.403 186.925 221.48 186.964 222.181C186.964 222.375 186.497 223.153 186.575 223.348C186.692 223.62 186.575 224.554 186.925 224.787C189.337 226.382 193.266 228.289 195.289 230.856C198.557 235.058 191.633 235.097 191.594 234.863Z" fill="#E9D6B8"/>
<path d="M208.827 261.668C208.827 261.668 210.033 256.844 204.198 244.901C198.246 232.724 197.624 233.346 197.624 233.346L195.639 230.973L190.66 233.502L201.592 260.462L208.827 261.668Z" fill="#D1DBEA"/>
<path d="M195.834 233.735L192.8 235.525L191.983 235.875L190.738 233.618L194.589 232.335L195.834 233.735Z" fill="#B0BFDE"/>
<path d="M188.909 221.208C188.832 220.236 188.87 218.524 188.365 218.874L188.17 221.986L187.47 223.348L186.303 223.776L186.809 224.671C186.731 225.06 186.731 225.371 187.353 225.449L187.548 225.838C188.248 224.904 188.559 224.515 188.676 224.165L188.948 222.686C189.065 222.297 188.909 221.208 188.909 221.208Z" fill="#E9D6B8"/>
<path d="M214.624 290.885C214.624 290.885 208.399 312.983 203.381 320.919C198.363 328.817 196.651 318.546 196.651 318.546L202.875 281.782L217.386 281.704C217.347 281.665 216.997 282.443 214.624 290.885Z" fill="#3C463B"/>
<path d="M207.738 281.782C207.738 281.782 211.901 318.04 212.523 319.869C214.546 326.015 219.175 322.047 219.876 319.985C220.576 317.923 221.782 302.712 221.548 291.624C221.315 280.537 221.315 281.276 221.315 281.276L207.738 281.782Z" fill="#3C463B"/>
<path d="M220.459 352.976C220.693 353.248 220.498 353.91 220.498 353.91C220.498 353.91 216.725 354.338 215.519 354.026C215.207 353.949 214.663 353.676 214.157 353.404C214.079 353.365 213.924 353.054 213.846 353.015C213.69 352.937 213.612 353.093 213.496 352.976C213.145 352.781 212.912 352.587 212.912 352.587C212.601 350.875 213.029 350.175 213.029 350.175C213.029 350.175 216.219 349.124 216.841 349.864C218.281 351.614 219.992 352.392 220.459 352.976Z" fill="#161711"/>
<path d="M197.079 351.42L196.534 354.221H193.694C193.694 354.221 193.539 353.832 193.305 353.832C193.111 353.832 192.839 354.221 192.566 354.221C191.983 354.221 191.282 354.221 191.049 354.221C190.504 354.221 185.33 354.221 185.33 354.221C185.33 354.221 185.214 353.637 185.369 353.443C185.447 353.326 185.914 353.17 186.264 353.054C187.742 352.626 191.983 351.342 192.683 349.941C193.5 348.23 197.079 351.42 197.079 351.42Z" fill="#161711"/>
<path d="M214.935 242.255C214.702 243.15 215.013 244.006 215.635 244.161C216.258 244.317 216.919 243.695 217.152 242.8L217.425 241.672C217.658 240.777 217.347 239.921 216.724 239.765C216.102 239.61 215.441 240.232 215.207 241.127L214.935 242.255Z" fill="#E9D6B8"/>
<path d="M209.294 250.697C209.411 252.331 210.306 253.732 211.2 253.771C212.056 253.771 212.951 253.771 213.807 253.771C214.74 253.693 215.596 252.292 215.713 250.697C215.908 248.013 216.141 245.368 216.335 242.683C216.491 241.088 215.869 237.859 214.468 236.925C213.184 236.069 211.745 236.069 210.5 236.925C209.1 237.859 208.477 241.088 208.633 242.683C208.866 245.329 209.1 248.013 209.294 250.697Z" fill="#E2C59C"/>
<path d="M228.745 276.53L219.448 286.022C219.448 286.022 230.652 283.454 231.157 278.825C231.663 274.195 228.745 276.53 228.745 276.53Z" fill="#E9D6B8"/>
<path d="M199.413 253.187L204.159 247.507L212.445 252.565L217.464 251.981L222.988 254.393C222.988 254.393 225.477 256.805 223.182 264.508C220.848 272.211 221.743 284.31 221.743 284.31L202.019 285.205C202.019 285.205 200.619 274.818 201.319 263.691C201.786 257.116 200.308 255.093 199.413 253.187Z" fill="#D1DBEA"/>
<path d="M219.448 254.743C219.448 254.743 222.521 252.331 225.516 256.805C230.107 263.652 233.18 271.2 233.725 272.756C234.269 274.312 234.97 278.942 232.83 280.303C230.69 281.665 230.69 281.665 230.69 281.665L226.217 278.903L226.917 277.541L227.267 276.685C227.267 276.685 224.777 271.2 222.093 266.22C219.448 261.279 219.448 254.743 219.448 254.743Z" fill="#D1DBEA"/>
<path d="M207.971 246.574C208.399 248.091 209.022 248.441 210.111 248.597C211.161 248.713 211.395 248.791 212.445 248.908C213.573 248.947 214.702 247.507 214.935 246.146C215.363 243.928 216.569 242.1 216.958 239.882C217.23 238.559 216.647 237.353 215.052 236.381C213.573 235.525 211.823 233.774 210.228 234.319C208.516 234.941 207.544 237.587 207.621 238.948C207.738 241.244 207.855 244.278 207.971 246.574Z" fill="#E9D6B8"/>
<path d="M212.484 252.604L214.157 255.327L217.425 251.709L215.985 250.153L212.484 252.604Z" fill="#B0BFDE"/>
<path d="M209.061 250.114L211.045 252.098L209.722 254.471L208.127 251.359L209.061 250.114Z" fill="#B0BFDE"/>
<path d="M211.434 304.385C211.434 304.385 212.367 318.157 212.212 325.393C212.095 330.878 212.095 341.383 212.951 350.33C212.99 350.875 217.464 350.447 217.464 350.447C217.464 350.447 220.459 316.173 220.926 310.532C221.432 304.968 215.013 300.378 211.434 304.385Z" fill="#3C463B"/>
<path d="M198.168 319.596C198.168 319.596 199.452 319.869 203.42 320.219C205.248 320.374 198.129 351.964 198.129 351.964L192.488 349.552L196.729 317.729L198.168 319.596Z" fill="#323B31"/>
<path d="M217.775 238.17L216.958 239.921C216.958 239.921 215.246 237.976 214.04 236.42C213.651 235.914 209.761 235.875 208.788 236.031C208.088 236.147 208.01 237.081 207.855 237.587C207.271 239.454 208.088 234.397 208.088 234.397C208.088 234.397 209.411 232.023 211.901 231.829C213.262 231.712 213.924 232.529 214.429 233.541C214.546 233.774 212.912 233.152 213.184 233.113C213.262 233.113 214.857 234.513 214.935 234.63C215.168 235.175 215.441 235.719 215.791 236.186C217.114 237.976 217.775 238.17 217.775 238.17Z" fill="#163F59"/>
<path d="M211.94 239.182L210.85 239.337L211.161 239.999L210.306 240.31L209.45 243.656L210.85 243.734L211.084 241.711L211.94 240.699L214.118 240.504L211.94 239.182Z" fill="#E2C59C"/>
<path d="M230.768 280.809L226.917 277.541L225.439 279.603L229.212 282.676L230.768 280.809Z" fill="#D1DBEA"/>
<path d="M222.21 282.404C221.587 282.599 221.626 282.56 221.626 282.56C221.626 282.56 221.665 283.377 221.159 283.999C220.926 284.31 219.992 285.127 219.992 285.127L218.67 286.411L218.008 286.956C218.008 286.956 217.619 287.228 217.58 287.384C217.464 287.812 217.814 287.734 217.814 287.734L220.576 285.867L218.514 288.279C218.514 288.279 218.281 288.629 218.436 288.823C218.553 288.979 218.67 288.901 218.67 288.901L221.665 286.722L220.731 288.084C220.731 288.084 220.537 288.434 220.654 288.629C220.77 288.823 220.809 288.862 220.809 288.862L223.066 286.333C223.066 286.294 222.832 282.21 222.21 282.404Z" fill="#E9D6B8"/>
<path d="M220.887 286.372L219.525 288.162C219.525 288.162 219.175 288.512 219.136 288.784C219.059 289.096 219.331 289.173 219.331 289.173L221.626 286.684L220.887 286.372Z" fill="#E9D6B8"/>
<path d="M212.64 284.661H210.539C208.361 273.884 208.477 262.719 210.85 251.981C211.473 252.254 212.095 252.487 212.718 252.72C210.422 263.263 210.383 274.156 212.64 284.661Z" fill="#B0BFDE"/>
<path d="M1.51719 348.58H0L35.2065 217.123H36.7237L1.51719 348.58Z" fill="#B0BFDE"/>
<path d="M22.2521 348.58H20.7349L55.9415 217.123H57.4586L22.2521 348.58Z" fill="#B0BFDE"/>
<path d="M33.8061 225.254L34.1951 223.737H55.4357L55.0078 225.254H33.8061Z" fill="#B0BFDE"/>
<path d="M30.6939 236.848L31.1218 235.33H52.3235L51.9345 236.848H30.6939Z" fill="#B0BFDE"/>
<path d="M27.5817 248.402L28.0096 246.885H49.2114L48.8223 248.402H27.5817Z" fill="#B0BFDE"/>
<path d="M24.5084 259.956L24.8974 258.439H46.1381L45.7102 259.956H24.5084Z" fill="#B0BFDE"/>
<path d="M21.3962 271.511L21.8242 269.994H43.0259L42.6369 271.511H21.3962Z" fill="#B0BFDE"/>
<path d="M18.323 283.065L18.712 281.548H39.9526L39.5247 283.065H18.323Z" fill="#B0BFDE"/>
<path d="M15.2108 294.62L15.5998 293.103H36.8405L36.4514 294.62H15.2108Z" fill="#B0BFDE"/>
<path d="M12.0986 306.174L12.5265 304.657H33.7283L33.3393 306.174H12.0986Z" fill="#B0BFDE"/>
<path d="M9.02531 317.729L9.41434 316.212H30.655L30.227 317.729H9.02531Z" fill="#B0BFDE"/>
<path d="M5.91313 329.322L6.34106 327.805H27.5428L27.1538 329.322H5.91313Z" fill="#B0BFDE"/>
<path d="M2.83987 340.877L3.2289 339.36H24.4695L24.0416 340.877H2.83987Z" fill="#B0BFDE"/>
<path d="M34.5452 246.729C34.7786 246.496 34.6619 245.795 34.6619 245.795C34.6619 245.795 31.0051 245.095 29.7602 245.251C29.449 245.29 28.9044 245.523 28.3987 245.757C28.3209 245.795 28.1263 246.068 28.0485 246.107C27.8929 246.184 27.8151 246.029 27.6984 246.107C27.3483 246.301 27.1149 246.418 27.1149 246.457C26.6481 248.13 27.0371 248.869 27.0371 248.869C27.0371 248.869 29.9937 250.075 30.7717 249.491C32.639 248.052 34.0395 247.235 34.5452 246.729Z" fill="#161711"/>
<path d="M43.1037 243.617L42.8314 246.418L45.5546 247.196C45.5546 247.196 45.8269 246.846 46.0603 246.924C46.2548 246.963 46.4104 247.429 46.6438 247.507C47.2274 247.663 47.8498 247.857 48.0832 247.935C48.5889 248.091 53.5295 249.491 53.5295 249.491C53.5295 249.491 53.8019 248.947 53.724 248.713C53.6851 248.597 53.2572 248.285 52.9849 248.13C51.7011 247.352 48.0443 244.94 47.7331 243.422C47.383 241.555 43.1037 243.617 43.1037 243.617Z" fill="#161711"/>
<path d="M45.2433 153.36L44.8154 149.975C44.8154 149.975 47.1495 149.391 47.1495 148.03C47.2273 145.306 45.1266 141.649 44.2319 140.716C41.6643 138.109 39.1746 132.896 33.4948 139.626C31.3552 142.194 38.2409 148.769 39.1357 150.403C40.0304 152.037 39.797 154.332 39.797 154.332L41.8977 155.032L45.2433 153.36Z" fill="#E9D6B8"/>
<path d="M30.5383 176.313L44.6598 180.398C44.6598 180.398 36.2958 182.265 29.3323 180.748C22.3299 179.27 29.877 176.391 30.5383 176.313Z" fill="#E2C59C"/>
<path d="M36.4903 210.86C36.4903 210.86 42.1312 217.94 40.0693 223.97C36.4125 234.669 33.4171 243.267 32.2111 246.846C31.7443 248.246 31.3552 247.935 31.3552 247.935L28.243 248.013L26.8815 246.612L33.3003 221.947L36.4903 210.86Z" fill="#163F59"/>
<path d="M66.9119 152.426L75.626 141.883C75.626 141.883 72.2804 156.394 67.5733 157.561C62.8272 158.767 66.9119 152.426 66.9119 152.426Z" fill="#E9D6B8"/>
<path d="M39.408 154.021C39.408 154.021 36.2958 153.671 30.3827 165.109C24.4695 176.546 25.7533 176.469 25.7533 176.469L25.1309 179.309L29.4879 181.37L35.5178 171.839L39.408 154.021Z" fill="#35A3BF"/>
<path d="M51.1954 190.668C51.1954 190.668 45.4378 214.478 37.6963 228.016C33.5727 235.291 33.8061 224.826 33.8061 224.826L40.2249 182.071L55.0078 181.37C54.9689 181.37 53.4517 183.316 51.1954 190.668Z" fill="#163F59"/>
<path d="M41.3142 189.501C41.3142 189.501 53.1794 213.466 53.763 215.178C56.5639 223.542 60.0651 213.272 60.2597 211.249C60.4153 209.226 59.6372 198.761 56.8752 188.723C54.0742 178.686 54.0742 178.686 54.0742 178.686L41.3142 189.501Z" fill="#163F59"/>
<path d="M53.4906 210.509C53.4906 210.509 51.4677 214.633 49.2114 220.002C47.5775 223.931 44.193 235.603 42.598 243.889C42.4813 244.395 48.0832 244.356 48.0832 244.356C48.0832 244.356 56.4861 222.258 58.3923 217.318C60.2596 212.377 57.731 207.825 53.4906 210.509Z" fill="#163F59"/>
<path d="M34.9731 157.522L38.591 153.71L40.1082 151.648L46.7605 150.714L48.161 152.776L53.6073 154.721C53.6073 154.721 55.1245 156.861 54.9689 165.42C54.7744 174.912 59.5205 187.867 57.6143 189.307C45.2433 198.605 38.6689 191.33 38.6689 191.33C38.6689 191.33 32.3667 173.434 34.9731 157.522Z" fill="#3BB6D5"/>
<path d="M44.4653 156.005C44.4653 156.005 43.7262 157.6 48.0832 158.845C55.5525 160.985 63.3718 160.207 64.889 160.129C66.4062 160.012 68.5458 159.818 70.0241 157.055C71.1134 154.955 71.5024 154.254 71.5024 154.254L67.3009 151.298L66.3673 152.426L65.9783 153.126C65.9783 153.126 60.3374 152.815 55.0078 152.465C42.6369 151.648 44.4653 156.005 44.4653 156.005Z" fill="#3BB6D5"/>
<path d="M42.5202 142.311C42.5202 142.311 41.5476 142.077 41.6254 142.739C41.7032 143.4 42.598 144.606 43.0259 144.606C43.4538 144.606 44.1152 146.24 44.1152 146.24L43.7651 148.419L38.7467 150.131C38.7467 150.131 36.9572 149.975 36.4514 148.886C35.9457 147.796 32.0555 140.366 32.0555 140.366L34.9342 137.331C34.9342 137.331 36.4903 135.775 37.6574 134.958C39.4469 133.713 40.225 134.647 40.3806 135.23C40.4973 135.814 41.1586 135.658 41.9367 135.386C42.7536 135.114 43.9596 135.386 43.6484 135.931C43.5316 136.125 44.5042 136.358 44.3875 137.059C44.2319 138.07 42.7925 138.848 43.1426 140.249C43.2982 140.871 43.7262 143.011 42.5202 142.311Z" fill="#194866"/>
<path d="M75.0814 144.762C75.0814 144.762 72.9807 143.75 72.825 143.128C72.6694 142.466 72.2804 140.093 72.2804 140.093L72.2415 139.471C72.2415 139.471 72.9029 139.043 73.1363 140.638C73.3697 142.272 73.6809 141.416 73.6809 141.416L74.031 139.86L74.5757 137.992L74.7313 137.137C74.7313 137.137 74.7702 136.631 74.8869 136.514C75.1981 136.203 75.3148 136.553 75.3148 136.553L75.0425 139.938L76.1317 136.864C76.1317 136.864 76.3263 136.475 76.5597 136.514C76.7542 136.553 76.7153 136.67 76.7153 136.67L76.2874 140.443L77.0265 138.926C77.0265 138.926 77.221 138.576 77.4544 138.576C77.6878 138.576 77.7656 138.576 77.7656 138.576L75.7038 144.84L75.0814 144.762Z" fill="#E9D6B8"/>
<path d="M288.694 43.378C288.46 43.1445 285.97 41.8218 283.986 41.9774C282.002 42.133 268.659 46.4514 265.936 48.9412C263.213 51.3922 265.43 52.8316 267.22 53.2596C268.97 53.6486 271.771 52.4815 276.634 51.6256C281.691 50.7308 285.776 51.2755 287.332 49.8749C288.849 48.4744 290.6 45.2843 288.694 43.378Z" fill="#194866"/>
<path d="M267.998 48.2799C267.998 48.2799 265.586 47.5018 263.68 51.8979C261.734 56.2941 257.727 66.059 257.727 66.059L262.357 67.0316C262.357 67.0316 267.025 58.356 267.998 56.4108C268.931 54.4656 272.121 50.9642 267.998 48.2799Z" fill="#194866"/>
<path d="M249.269 63.4169L238.802 76.8632L257.374 91.3219L267.841 77.8757L249.269 63.4169Z" fill="#163F59"/>
<path d="M256.949 66.1757L262.863 70.7664L259.517 75.0458L253.604 70.4551L256.949 66.1757ZM261.54 70.9609L257.144 67.5373L254.965 70.2995L259.361 73.7231L261.54 70.9609Z" fill="#163F59"/>
<path d="M258.272 65.9034C258.272 65.9034 257.805 66.6036 258.194 67.6151C258.583 68.6266 257.883 68.1598 257.883 68.1598L256.638 68.7045L257.611 69.4436L260.217 71.0776L262.94 70.3773C262.94 70.3773 263.252 69.8327 263.174 69.4047C263.057 68.9768 261.696 66.9149 261.696 66.9149L258.272 65.9034Z" fill="#E9D6B8"/>
<path d="M322.227 44.3505L322.266 40.3823L323.822 38.9429L325.768 40.5769L326.935 42.0163L326.818 43.3779C326.818 43.3779 324.989 45.4788 323.472 45.4788C321.916 45.5177 322.227 44.3505 322.227 44.3505Z" fill="#E9D6B8"/>
<path d="M291.339 34.041C291.339 34.041 292.078 37.5813 289.9 40.538C287.682 43.4947 297.758 42.7555 297.758 42.7555C297.758 42.7555 295.307 39.2541 300.598 37.9703C303.399 37.3089 292.351 32.835 291.339 34.041Z" fill="#E9D6B8"/>
<path d="M300.909 44.1949C300.909 44.1949 310.635 60.9237 315.069 62.402C319.388 63.8414 316.664 59.9511 315.186 56.7609C313.708 53.5708 307.873 44.4284 306.705 43.5336C305.538 42.5999 301.454 42.0941 300.909 44.1949Z" fill="#163F59"/>
<path d="M287.643 42.3665C287.643 42.3665 289.16 41.9385 294.218 42.0552C298.964 42.1719 303.788 42.95 304.527 43.4558C306.083 44.5451 305.577 54.2711 301.142 60.5346C296.708 66.7982 298.808 68.7823 298.808 68.7823C298.808 68.7823 283.17 72.945 282.158 72.5949C281.147 72.2447 279.163 68.7823 279.98 66.6036C280.797 64.425 281.808 54.3878 282.508 51.7034C283.442 48.0464 284.881 42.1719 287.643 42.3665Z" fill="#D1DBEA"/>
<path d="M298.769 64.6195C298.769 64.6195 300.909 57.8502 300.637 54.8935C300.364 51.9368 298.458 42.2497 298.458 42.2497L305.655 42.95C305.655 42.95 306.433 53.8042 305.266 56.333C304.099 58.9006 298.769 64.6195 298.769 64.6195Z" fill="#194866"/>
<path d="M285.504 41.9774L288.81 42.133C288.81 42.133 290.989 55.4771 286.126 60.1456C281.263 64.853 281.186 67.1872 280.524 70.4162C279.902 73.6453 277.607 76.6798 277.607 76.6798L272.588 67.8097C272.588 67.8097 272.16 65.4365 273.522 63.9582C274.883 62.4798 278.618 59.2119 280.018 54.1933C280.563 52.2481 280.719 50.1473 280.719 48.2021C280.68 45.0897 285.504 41.9774 285.504 41.9774Z" fill="#194866"/>
<path d="M284.609 42.2108L284.726 47.2294L286.671 49.6026L284.765 51.7034C284.765 51.7034 286.437 54.1155 283.597 62.402C283.092 63.9193 289.977 59.3286 289.199 48.4744C288.966 45.1286 288.849 42.133 288.849 42.133L284.609 42.2108Z" fill="#163F59"/>
<path d="M300.714 58.1615C300.714 58.1615 300.676 55.7105 300.092 51.8979C299.509 48.0464 298.458 42.2886 298.458 42.2886L302.504 42.9111L303.554 47.1905L301.92 47.8908L303.515 50.7308C303.554 50.6919 302.271 54.8546 300.714 58.1615Z" fill="#163F59"/>
<path d="M293.323 68.899C293.907 69.0157 294.451 69.1324 294.996 69.288C297.019 60.1067 297.097 50.653 295.268 41.4328C294.801 41.5106 294.296 41.6273 293.829 41.7051C295.541 50.7308 295.385 59.99 293.323 68.899Z" fill="#B0BFDE"/>
<path d="M263.68 112.355L258.272 114.378L259.75 118.657L265.664 115.584L263.68 112.355Z" fill="#593446"/>
<path d="M285.504 71.3888L286.048 100.878C286.048 100.878 289.316 105.624 291.417 103.99C293.556 102.395 301.609 79.7921 300.753 73.1395C299.898 66.4869 285.504 71.3888 285.504 71.3888Z" fill="#163F59"/>
<path d="M286.865 98.7383L260.879 112.51L263.524 117.529C263.524 117.529 291.261 107.336 291.456 103.446C291.611 99.5164 287.76 98.3493 286.865 98.7383Z" fill="#163F59"/>
<path d="M298.778 67.4646L280.49 70.8287L280.779 72.3974L299.067 69.0334L298.778 67.4646Z" fill="#3D7AA8"/>
<path d="M298.032 67.2241L297.381 67.3432L297.864 69.9838L298.515 69.8647L298.032 67.2241Z" fill="#163F59"/>
<path d="M289.822 71.4277L290.483 71.311L290.016 68.6656L289.355 68.8212L289.822 71.4277Z" fill="#163F59"/>
<path d="M282.567 70.0786L281.916 70.1966L282.395 72.8378L283.046 72.7197L282.567 70.0786Z" fill="#163F59"/>
<path d="M314.603 59.0174C314.603 59.0174 314.33 61.8185 316.159 62.6743C317.987 63.5302 320.516 60.2234 322.227 55.0881C323.978 49.9527 324.795 45.4399 324.795 45.4399L322.072 43.9226C322.072 43.8448 314.097 57.5001 314.603 59.0174Z" fill="#194866"/>
<path d="M292.428 31.0843C293.129 28.7111 297.719 25.8712 298.731 26.9605C299.158 27.4273 299.509 27.8942 299.703 28.3999C299.898 28.9835 300.131 29.567 300.325 30.1506C300.364 30.2673 300.403 30.4229 300.442 30.5396C300.442 30.5396 300.442 30.5396 300.442 30.5785L301.687 37.4256C301.726 37.6202 301.57 37.8536 301.376 37.8925L296.863 38.7095C296.669 38.7484 293.79 37.0755 293.284 36.6087C292.701 36.1418 292.078 35.8695 291.767 35.4804C291.417 34.9358 291.845 33.224 292.428 31.0843Z" fill="#E9D6B8"/>
<path d="M298.225 29.1002L297.097 32.2125L296.007 35.3248L299.275 34.7024L302.504 34.1188L300.364 31.59L298.225 29.1002Z" fill="#E9D6B8"/>
<path d="M291.456 35.7528L291.378 29.5281C291.378 29.5281 291.456 28.4388 294.568 27.3495C297.68 26.2602 298.886 26.6103 298.886 26.6103L300.442 27.1939L299.975 28.8279L296.241 29.178L297.33 31.4344L297.058 34.1966L296.163 34.3911L296.124 34.4689C296.124 34.4689 296.085 32.9128 295.113 32.3681C294.14 31.8235 293.518 32.8739 294.062 33.7687C294.568 34.6635 294.529 35.0136 294.529 35.0136L293.479 36.2196L291.456 35.7528Z" fill="#194866"/>
<path d="M265.041 48.3577C275.039 38.4371 288.11 55.7494 295.696 43.7281C295.657 43.3001 294.451 43.6114 294.257 43.6892C283.948 52.5204 274.728 34.6245 264.574 44.1171C264.302 44.9341 264.069 45.7511 263.796 46.607C264.224 47.1906 264.613 47.7741 265.041 48.3577Z" fill="#3D7AA8"/>
<path d="M294.918 41.0437L296.124 42.4054C296.124 42.4054 295.968 43.5336 295.774 43.6114C295.579 43.7281 294.296 43.767 294.296 43.767C294.296 43.767 293.868 42.9111 293.751 42.4832C293.634 42.0552 294.918 41.0437 294.918 41.0437Z" fill="#3D7AA8"/>
<path d="M294.801 40.7714L295.074 42.3276L296.824 44.3117L298.458 42.2497L297.408 40.1489L294.801 40.7714Z" fill="#B0BFDE"/>
<path d="M289.55 40.2267L288.81 42.133L292.623 44.4284L295.074 42.3275L294.801 40.7714L289.55 40.2267Z" fill="#B0BFDE"/>
<path d="M261.112 121.264C261.073 121.225 260.879 120.914 260.84 120.797C260.528 119.513 262.046 118.113 262.046 118.113C262.046 118.113 262.435 117.296 260.84 116.712C260.412 116.556 260.334 113.677 260.334 113.677C260.334 113.677 258.467 113.911 257.611 114.65L258.428 117.607L259.322 117.373L258.778 118.93L259.595 121.808H259.556L259.595 121.847L260.451 122.703L262.94 125.115C262.94 124.999 263.874 124.22 261.112 121.264Z" fill="#081832"/>
<path d="M313.343 93.7726L311.959 100.041L316.062 100.946L317.445 94.678L313.343 93.7726Z" fill="#593446"/>
<path d="M294.685 83.6436L323.589 70.1828C323.589 70.1828 325.379 62.8688 317.326 64.3472C309.273 65.8256 291.728 70.3773 291.728 70.3773L280.835 72.0113C280.835 72.0113 282.158 82.1652 284.259 84.305C286.243 86.3669 294.685 83.6436 294.685 83.6436Z" fill="#194866"/>
<path d="M316.626 69.8327L311.841 97.6879L316.976 97.8824C316.976 97.8824 324.99 69.5603 323.395 68.082C321.8 66.6814 316.937 68.5488 316.626 69.8327Z" fill="#194866"/>
<path d="M311.024 100.139L313.474 102.006L314.019 101.267L314.525 102.823L320.71 107.492C320.71 107.492 321.372 106.402 317.326 103.096C316.275 102.24 316.626 100.217 316.626 100.217C316.626 100.217 316.47 99.3219 314.797 99.8666C314.369 99.9833 312.541 97.7268 312.541 97.7268C312.541 97.7268 311.257 99.0496 311.024 100.139Z" fill="#081832"/>
<path d="M319.349 252.448H296.513C295.113 252.448 293.984 253.576 293.984 254.977V272.717C293.984 274.118 295.113 275.246 296.513 275.246H304.138L305.422 276.53L307.95 279.058L310.479 276.53L311.763 275.246H319.349C320.749 275.246 321.877 274.118 321.877 272.717V254.977C321.877 253.576 320.749 252.448 319.349 252.448Z" fill="#FEC12F"/>
<path d="M316.82 265.092V262.563H314.175C314.019 261.746 313.708 261.007 313.241 260.346L315.147 258.478L313.358 256.689L311.452 258.595C310.79 258.167 310.051 257.817 309.234 257.661V255.016H306.705V257.661C305.889 257.817 305.149 258.128 304.488 258.595L302.621 256.689L300.831 258.478L302.698 260.384C302.271 261.046 301.92 261.785 301.765 262.602H299.12V265.131H301.765C301.92 265.948 302.271 266.687 302.698 267.348L300.831 269.255L302.621 271.044L304.527 269.177C305.188 269.605 305.927 269.955 306.744 270.11V272.756H309.273V270.11C310.09 269.955 310.829 269.644 311.49 269.177L313.397 271.044L315.186 269.255L313.28 267.348C313.708 266.687 314.058 265.948 314.214 265.131H316.82V265.092ZM307.95 267.659C305.85 267.659 304.138 265.948 304.138 263.847C304.138 261.746 305.85 260.034 307.95 260.034C310.051 260.034 311.763 261.746 311.763 263.847C311.763 265.948 310.051 267.659 307.95 267.659Z" fill="white"/>
<path d="M51.3121 102.784H28.5154C27.1149 102.784 25.9867 103.913 25.9867 105.313V123.053C25.9867 124.454 27.1149 125.582 28.5154 125.582H36.1402L37.424 126.866L39.9526 129.395L42.4813 126.866L43.7651 125.582H51.351C52.7515 125.582 53.8796 124.454 53.8796 123.053V105.313C53.8407 103.913 52.7126 102.784 51.3121 102.784Z" fill="#316091"/>
<path d="M306.472 27.3106C306.472 28.9057 307.756 30.2284 309.39 30.2284H311.335V36.9588L318.104 30.1895H340.356C341.951 30.1895 343.274 28.9057 343.274 27.2717V3.11232C343.274 1.51725 341.99 0.194519 340.356 0.194519H309.39C307.795 0.194519 306.472 1.47835 306.472 3.11232V27.3106Z" fill="#B0BFDE"/>
<path d="M337.438 8.90901H312.268V10.8542H337.438V8.90901Z" fill="white"/>
<path d="M337.438 13.7331H312.268V15.6783H337.438V13.7331Z" fill="white"/>
<path d="M337.438 18.5961H312.268V20.5413H337.438V18.5961Z" fill="white"/>
<path d="M262.201 179.27C263.485 181.876 266.675 182.965 269.359 181.643C272.044 180.359 273.172 177.169 271.888 174.523C270.604 171.917 267.414 170.827 264.73 172.15C262.046 173.473 260.917 176.624 262.201 179.27Z" fill="#194866"/>
<path d="M259.478 186C261.073 189.307 265.119 190.668 268.503 188.996C271.888 187.362 273.327 183.316 271.693 180.009C270.098 176.702 266.053 175.34 262.668 177.013C259.322 178.647 257.883 182.693 259.478 186Z" fill="#194866"/>
<path d="M265.158 193.314C265.158 193.314 265.352 194.209 261.112 195.259C256.872 196.348 250.336 196.854 250.336 196.854L259.906 193.431C259.906 193.47 263.641 192.341 265.158 193.314Z" fill="#E2C59C"/>
<path d="M253.759 196.348C251.737 196.932 251.192 198.177 250.492 198.722C249.791 199.266 249.13 199.967 249.13 199.967C249.325 198.994 249.986 198.761 250.219 198.41C250.453 198.021 250.414 198.216 249.675 198.371C249.247 198.449 248.741 199.383 248.352 199.928C248.002 200.394 247.73 200.511 247.73 200.511C247.73 200.511 248.041 199.655 248.547 198.877C249.13 197.944 249.947 197.088 250.18 196.893C250.569 196.621 251.892 196.154 252.865 196.037C253.993 195.804 255.199 195.921 253.759 196.348Z" fill="#E2C59C"/>
<path d="M250.258 196.854C250.258 196.854 248.819 197.671 248.624 197.982C248.469 198.177 247.924 199.227 247.924 199.227C247.924 199.227 248.469 198.955 248.702 198.566C248.974 198.138 250.258 196.854 250.258 196.854Z" fill="#E2C59C"/>
<path d="M262.785 191.991C262.785 191.991 266.753 191.096 267.142 193.508C267.375 194.87 266.597 195.57 265.43 195.804C263.213 196.271 260.645 196.66 260.645 196.66L258.505 193.392L262.785 191.991Z" fill="#FFAB01"/>
<path d="M262.551 190.046L263.641 179.231C263.641 179.231 263.563 176.391 264.574 176.469C266.053 176.546 266.325 178.997 266.442 179.853C266.714 181.643 267.064 182.343 267.064 186.856C267.064 189.618 267.259 192.769 267.064 194.637C266.947 195.921 265.702 194.481 264.38 194.364C261.968 194.131 262.551 190.046 262.551 190.046Z" fill="#FFAB01"/>
<path d="M238.86 220.313L235.242 228.172L230.224 228.25L227.695 227.744L233.141 226.46L236.059 219.185L238.86 220.313Z" fill="#E9D6B8"/>
<path d="M234.697 229.378L234.036 229.222L233.647 228.405L229.601 228.6L226.333 227.977C226.333 227.977 226.411 227.744 226.567 227.666C227.15 227.355 229.679 227.199 229.679 227.199C229.679 227.199 229.407 227.9 229.718 228.055C229.99 228.211 233.102 228.016 233.88 227.9C235.164 227.705 235.825 227.394 235.787 227.549C235.67 227.822 234.697 229.378 234.697 229.378Z" fill="#161711"/>
<path d="M258.817 204.402L247.029 204.09L238.237 223.348L234.581 221.908L243.178 198.761C243.178 198.761 243.878 197.282 247.418 197.282C250.881 197.282 264.886 196.893 266.481 197.36C270.254 198.372 258.194 201.212 258.817 204.402Z" fill="#34688F"/>
<path d="M267.22 172.422C268.503 175.029 271.693 176.118 274.378 174.796C277.062 173.473 278.19 170.322 276.906 167.676C275.623 165.07 272.433 163.98 269.748 165.303C267.103 166.587 265.936 169.777 267.22 172.422Z" fill="#194866"/>
<path d="M261.734 170.711C262.707 172.734 265.158 173.551 267.142 172.578L267.22 170.4C269.243 169.427 270.06 166.976 269.087 164.992L268.426 163.63C267.453 161.607 265.002 160.79 263.018 161.763L262.123 162.191C260.101 163.163 259.284 165.614 260.256 167.598L261.734 170.711Z" fill="#194866"/>
<path d="M260.567 164.642C260.723 164.992 260.917 165.303 261.151 165.614C262.668 167.793 264.963 168.843 266.597 168.338C267.181 169.388 267.842 170.244 268.503 170.905C269.243 171.683 270.799 172.15 270.799 172.15C271.849 173.667 271.265 177.986 267.453 178.453C265.158 178.725 265.625 176.313 266.442 174.835C266.831 174.134 267.181 173.317 267.103 172.928C266.831 171.528 266.325 171.372 265.508 170.905C264.146 170.322 262.901 170.944 262.901 170.944C262.785 171.022 262.629 171.022 262.512 170.944C262.318 170.75 262.162 170.516 262.046 170.244L260.567 167.248C260.139 166.353 260.178 165.42 260.567 164.642Z" fill="#E9D6B8"/>
<path d="M272.471 200.589C272.471 200.589 270.721 200.939 270.254 201.134C269.632 201.367 267.725 201.056 267.725 201.056C267.725 201.056 267.492 191.797 267.025 188.529C266.558 185.3 265.741 184.405 265.741 183.393C265.741 181.759 265.897 181.409 266.169 180.126C266.442 178.881 265.625 177.208 265.897 177.519C266.364 178.025 268.076 178.842 269.671 177.052C269.943 176.819 272.471 200.589 272.471 200.589Z" fill="#163F59"/>
<path d="M266.325 173.823C266.325 173.823 263.952 176.196 264.069 176.974C264.146 177.752 263.913 181.02 264.458 184.522C265.002 188.023 265.43 188.879 265.508 191.408C265.586 193.936 265.002 194.52 265.236 197.632C265.391 200.083 265.78 202.223 265.78 202.223C265.78 202.223 266.908 202.534 267.725 201.639C268.581 200.745 268.27 192.225 267.959 190.124C267.648 188.023 266.403 182.538 266.481 181.059C266.558 179.581 267.025 176.118 267.297 175.652C267.959 174.523 266.519 173.94 266.325 173.823Z" fill="#FEC12F"/>
<path d="M266.325 173.59C266.325 173.59 266.442 173.784 266.597 173.901C266.908 174.095 267.297 174.523 267.297 174.523C267.297 174.523 266.831 174.29 266.636 174.718C266.403 175.224 266.286 176.352 266.286 176.352C266.286 176.352 265.43 174.912 265.625 174.446C266.014 173.629 266.325 173.59 266.325 173.59Z" fill="#FFAB01"/>
<path d="M269.554 179.231C270.449 182.149 273.6 183.744 276.556 182.81C279.513 181.876 281.186 178.764 280.291 175.885C279.396 172.967 276.245 171.372 273.288 172.306C270.293 173.239 268.62 176.352 269.554 179.231Z" fill="#194866"/>
<path d="M250.492 222.025L250.297 227.511L249.208 228.833L246.212 230.545L243.995 230.156L247.885 227.238L248.196 221.48L250.492 222.025Z" fill="#E9D6B8"/>
<path d="M250.142 228.717L249.13 229.417L248.819 229.183L245.512 231.012C245.512 231.012 243.762 231.907 243.295 231.323C243.139 231.129 243.334 230.545 243.878 230.117C244.306 229.806 244.579 229.65 244.579 229.65C244.579 229.65 244.695 230.078 245.668 230.234C245.979 230.273 247.963 228.989 248.624 228.639C249.83 228.016 250.336 227.199 250.375 227.277C250.569 227.511 250.142 228.717 250.142 228.717Z" fill="#161711"/>
<path d="M273.833 193.119L272.394 196.465L269.943 196.776L250.18 198.021C250.18 198.021 248.43 197.477 247.302 200.278C245.707 204.246 247.807 224.165 247.807 224.165L250.725 224.126L252.32 205.374C252.32 205.374 271.304 208.681 276.79 207.008C278.89 206.347 280.485 202.651 280.174 198.916C279.941 195.998 277.996 193.275 277.996 193.275L273.833 193.119Z" fill="#3D7AA8"/>
<path d="M271.149 200.2C271.149 200.2 270.215 191.913 269.709 187.984C269.204 184.055 269.32 177.48 269.204 176.546C269.087 175.613 268.581 174.251 268.581 174.251C268.581 174.251 269.554 172.111 270.799 172.189C271.888 172.267 275.35 173.395 277.023 174.095C278.19 174.562 277.568 187.751 277.684 188.451C278.073 190.941 279.279 193.82 280.096 195.804C280.719 197.399 281.224 199.733 281.224 199.733C281.224 199.733 274.883 198.994 271.149 200.2Z" fill="#FEC12F"/>
<path d="M270.565 171.528L269.632 172.578C269.632 172.578 268.348 174.368 268.737 174.134C269.281 173.823 269.904 175.69 269.904 175.69L271.616 172.15L270.565 171.528Z" fill="#FFAB01"/>
<path d="M278.112 191.641C278.112 191.641 279.552 192.653 274.105 193.236C268.659 193.781 260.49 193.392 260.49 193.392L272.977 191.019C272.977 191.019 276.44 190.318 278.112 191.641Z" fill="#E9D6B8"/>
<path d="M264.847 193.314C262.24 193.664 261.307 194.987 260.334 195.493C259.361 195.998 258.389 196.699 258.428 196.66C258.856 195.57 259.712 195.454 260.062 195.065C260.451 194.676 260.334 194.87 259.4 194.909C258.856 194.948 258.078 195.921 257.455 196.465C256.949 196.932 256.599 197.01 256.599 197.01C256.599 197.01 257.144 196.076 257.922 195.298C258.856 194.325 260.023 193.47 260.295 193.314C260.84 193.042 262.551 192.769 263.796 192.769C265.197 192.73 266.714 193.081 264.847 193.314Z" fill="#E9D6B8"/>
<path d="M260.451 193.353C260.451 193.353 258.544 194.053 258.233 194.364C258 194.559 257.144 195.648 257.144 195.648C257.144 195.648 257.883 195.454 258.233 195.026C258.583 194.598 260.451 193.353 260.451 193.353Z" fill="#E9D6B8"/>
<path d="M274.883 190.085L273.094 178.064C273.094 178.064 273.522 175.574 274.3 174.757C275.195 173.745 276.945 174.056 276.945 174.056C276.945 174.056 278.968 175.729 279.124 185.261C279.24 191.797 279.824 194.442 277.023 194.753C274.417 195.026 271.421 195.181 271.421 195.181L269.437 191.252L274.883 190.085Z" fill="#FFAB01"/>
<path d="M260.062 196.621H242.828V196.971H260.062V196.621Z" fill="#CDD5D7"/>
<path d="M252.476 196.582C252.476 196.854 252.281 197.088 252.048 197.088H243.217C242.984 197.088 242.633 196.893 242.361 196.232L238.004 188.256C238.004 187.906 238.276 187.712 238.51 187.751L247.574 188.023C247.807 188.062 248.002 188.256 248.158 188.645L252.476 196.582Z" fill="#D9E1E4"/>
<path d="M251.386 196.971H251.464H260.101C259.789 197.127 259.284 197.243 258.7 197.243H251.464H251.386H244.189C243.606 197.243 243.1 197.127 242.789 196.971H251.386Z" fill="#B7BEC0"/>
<path d="M255.627 180.592C255.627 181.682 254.732 182.576 253.643 182.576H252.32V187.245L247.652 182.576H232.363C231.274 182.576 230.379 181.682 230.379 180.592V163.98C230.379 162.891 231.274 161.996 232.363 161.996H253.643C254.732 161.996 255.627 162.891 255.627 163.98V180.592Z" fill="#3BB6D5"/>
<path d="M251.659 167.987H234.347V169.31H251.659V167.987Z" fill="white"/>
<path d="M251.659 171.294H234.347V172.617H251.659V171.294Z" fill="white"/>
<path d="M251.659 174.601H234.347V175.924H251.659V174.601Z" fill="white"/>
<path d="M43.5705 115.467C43.9207 115.817 44.4264 116.051 44.971 116.051C46.0603 116.051 46.955 115.156 46.955 114.067C46.955 112.977 46.0603 112.082 44.971 112.082C44.4264 112.082 43.9207 112.316 43.5705 112.666V109.242H40.6918C41.0419 109.593 41.2753 110.098 41.2753 110.643C41.2753 111.732 40.3806 112.627 39.2913 112.627C38.202 112.627 37.3073 111.732 37.3073 110.643C37.3073 110.098 37.5407 109.593 37.8908 109.242H35.012V118.891H43.5705V115.467Z" fill="white"/>
<path d="M107.292 309.909C104.686 310.571 99.8621 312.905 98.8507 316.912C97.3335 322.903 100.368 331.734 95.5829 340.371C94.0657 343.133 122.036 346.829 122.036 346.829L127.444 316.484C127.444 316.484 120.714 309.909 119.313 309.442C116.473 308.509 112.505 308.586 107.292 309.909Z" fill="#3BB6D5"/>
<path d="M127.483 316.484C128.455 318.896 130.906 333.329 128.183 336.753C127.872 337.142 129.622 337.764 129.272 339.554C129.233 339.865 128.689 341.305 128.689 341.305L126.432 341.888L119.663 338.037L120.947 336.481H121.57C121.57 336.481 122.153 335.936 121.998 335.275C121.842 334.613 123.554 333.524 126.121 322.32C126.938 319.013 127.288 315.939 127.483 316.484Z" fill="#35A3BF"/>
<path d="M124.876 336.053L122.892 335.625L122.075 335.508C122.075 336.053 121.647 336.481 121.647 336.481L123.203 336.52L125.032 336.909L127.21 338.154L124.876 336.053Z" fill="#ECB60D"/>
<path d="M121.997 337.92C121.997 337.92 123.554 337.92 124.876 338.698C125.888 339.321 126.783 340.643 125.888 341.383C124.954 342.122 123.554 342.783 123.554 342.783C123.554 342.783 120.013 342.9 121.997 337.92Z" fill="#C4D1E1"/>
<path d="M125.888 341.46L124.954 341.266C124.954 341.266 121.725 340.955 121.258 341.227C120.792 341.499 119.313 342.472 119.313 342.472L119.002 342.744C119.002 342.744 119.741 343.211 120.714 342.511C121.686 341.811 121.764 342.355 121.764 342.355L121.608 343.211V344.3L121.453 344.767C121.453 344.767 121.297 345.04 121.414 345.117C121.725 345.39 122.036 345.273 122.036 345.273L123.009 343.561L123.281 345.429C123.281 345.429 123.398 345.701 123.709 345.74C123.982 345.818 123.982 345.74 123.982 345.74L124.215 345.273C124.254 345.39 124.293 345.506 124.409 345.584C124.643 345.779 124.993 345.74 124.993 345.74L124.915 343.756L125.304 344.767C125.304 344.767 125.46 345.001 125.732 345.078C126.043 345.156 126.16 345.195 126.16 345.195L125.888 341.46Z" fill="#E4EEF3"/>
<path d="M109.082 333.718C109.082 333.718 111.416 339.671 117.096 341.266C118.068 341.538 118.691 342.589 118.185 342.939C117.563 343.367 116.746 343.483 115.345 343.483C112.389 343.483 108.382 342.55 105.581 339.865C101.457 335.897 100.173 334.069 100.562 332.046C100.99 330.061 109.082 333.718 109.082 333.718Z" fill="#E9D6B8"/>
<path d="M99.6676 314.889C98.4616 316.873 97.7614 320.024 97.8003 324.537C97.8003 328.038 100.835 333.757 101.302 335.547C101.379 335.858 101.574 337.103 101.574 337.103L104.919 340.371L111.649 335.819L109.627 332.668L109.004 332.746C109.004 332.746 108.615 331.034 108.732 330.334C108.849 329.672 106.865 320.647 105.892 314.85C105.27 311.543 100.835 312.944 99.6676 314.889Z" fill="#35A3BF"/>
<path d="M105.659 332.668L107.604 332.046L108.382 331.851C108.421 332.396 108.887 332.785 108.887 332.785L107.331 332.979L105.542 333.524L103.48 334.963L105.659 332.668Z" fill="#3BB6D5"/>
<path d="M116.668 341.266L120.091 340.332C120.091 340.332 121.064 341.616 120.869 341.966C120.675 342.277 120.869 344.223 120.869 344.223L119.197 345.623L117.835 345.156C117.835 345.156 117.757 344.573 118.185 344.495C118.652 344.456 117.874 344.106 117.64 343.95C117.446 343.833 115.462 342.822 116.668 341.266Z" fill="#E9D6B8"/>
<path d="M111.416 309.637C111.027 310.726 111.611 311.932 112.7 312.282L114.645 312.944C115.734 313.333 116.94 312.749 117.29 311.66L119.002 306.719C119.391 305.63 118.808 304.424 117.718 304.074L115.773 303.412C114.684 303.023 113.478 303.607 113.128 304.696L111.416 309.637Z" fill="#E4EEF3"/>
<path d="M119.897 313.955C119.702 314.655 118.963 315.083 118.224 314.889L112.389 313.294C111.688 313.099 111.26 312.36 111.455 311.621L113.828 302.945C114.023 302.245 114.762 301.817 115.501 302.012L121.336 303.607C122.036 303.801 122.464 304.54 122.27 305.28L119.897 313.955Z" fill="#E9D6B8"/>
<path d="M121.803 307.069C121.803 307.069 122.814 306.447 123.126 305.98C123.281 305.746 123.281 304.696 122.737 304.113C122.192 303.568 121.453 304.113 121.453 304.113C121.453 304.113 122.348 304.968 122.309 305.202C122.309 305.435 121.803 307.069 121.803 307.069Z" fill="#163F59"/>
<path d="M112.155 306.68C112.155 306.68 112.194 303.101 112.622 302.167C113.05 301.234 113.361 300.572 114.567 300.806C116.396 301.117 116.318 301.506 117.329 301.234C118.341 300.922 120.247 300.066 120.83 300.066C121.803 300.105 123.087 300.767 122.698 302.479C122.387 303.723 123.087 304.268 123.048 304.307C122.931 304.424 122.581 304.502 121.92 304.618C120.052 304.968 119.041 304.891 117.874 304.19C116.707 303.529 114.606 302.167 114.061 303.023C113.517 303.879 112.855 306.719 112.7 306.914C112.583 307.108 112.311 306.914 112.155 306.68Z" fill="#194866"/>
<path d="M113.283 309.792C113.206 310.026 112.972 310.182 112.739 310.104L111.455 309.754C111.222 309.676 111.066 309.442 111.144 309.209L111.766 306.914C111.844 306.68 112.077 306.525 112.311 306.602L113.556 306.953C113.789 307.03 113.945 307.264 113.867 307.497L113.283 309.792Z" fill="#E9D6B8"/>
<path d="M120.83 311.893C120.753 312.127 120.519 312.282 120.286 312.205L119.041 311.854C118.808 311.777 118.652 311.543 118.73 311.31L119.352 309.014C119.43 308.781 119.663 308.625 119.897 308.703L121.181 309.053C121.414 309.131 121.57 309.365 121.492 309.598L120.83 311.893Z" fill="#E9D6B8"/>
<path d="M112.505 307.614C112.505 307.614 111.572 311.037 111.26 312.166C110.988 313.177 110.755 315.55 116.59 317.184C120.014 318.118 120.597 315.55 120.83 314.733C120.986 314.111 120.83 312.01 120.558 311.543L120.169 312.944C120.169 312.944 119.819 311.388 118.185 310.921C115.54 310.182 114.528 311.582 113.361 311.232C112.466 310.96 112.194 309.287 112.505 307.614Z" fill="#194866"/>
<path d="M116.473 312.866L118.263 313.372C118.496 313.449 118.769 313.294 118.808 313.06L118.885 312.827L116.201 312.088L116.123 312.36C116.084 312.555 116.201 312.788 116.473 312.866Z" fill="#E9D6B8"/>
<path d="M145.028 347.49C144.211 349.786 129.583 358.267 124.682 357.761L109.938 358.461C97.4113 356.944 91.4592 337.453 91.4592 337.453C91.965 332.551 104.336 339.671 108.732 341.849C115.695 345.351 120.13 345.506 120.13 345.506C124.798 345.973 130.206 342.394 136.08 342.277C142.538 342.122 146.311 343.872 145.028 347.49Z" fill="#282723"/>
<path d="M112.933 345.156V344.534L138.336 344.067V344.689C138.336 344.689 138.336 344.689 138.336 344.728L138.259 344.845C137.947 345.39 137.364 345.506 136.703 345.506L114.606 345.895C113.945 345.895 113.361 345.818 113.011 345.312L112.933 345.156Z" fill="#B6C2C9"/>
<path d="M119.041 345.156L118.963 345.273C118.846 345.429 118.73 345.506 118.613 345.584L114.762 345.662C114.1 345.662 113.556 345.623 113.244 345.195L113.167 345.117V344.806L119.041 344.689V345.156Z" fill="#D8E5ED"/>
<path d="M135.137 344.251L122.458 344.483L122.465 344.911L135.145 344.679L135.137 344.251Z" fill="#879BA6"/>
<path d="M119.158 344.378L122.231 331.851C122.309 331.54 122.659 331.229 122.97 331.229L140.787 330.917C141.099 330.917 141.332 331.19 141.254 331.501L138.181 344.028L119.158 344.378Z" fill="#B0BFDE"/>
<path d="M129.117 337.648C128.961 338.27 129.35 338.815 129.972 338.776C130.595 338.776 131.256 338.231 131.412 337.609C131.567 336.986 131.178 336.442 130.556 336.481C129.934 336.481 129.272 337.025 129.117 337.648Z" fill="#E1EEFE"/>
<path d="M107.681 361.729C109.432 362.041 110.794 359.979 110.794 359.979L115.345 356.399L114.373 353.987L105.542 357.956C105.503 357.956 105.931 361.418 107.681 361.729Z" fill="#E9D6B8"/>
<path d="M110.794 359.862C110.794 359.862 110.794 360.056 110.444 360.99C110.093 361.924 109.704 362.235 109.238 362.391C107.526 362.896 106.32 362.624 102.235 363.441C98.1504 364.219 96.9444 363.636 95.7385 361.768C94.5325 359.901 95.7774 358.422 97.7614 358.267C100.64 358.033 102.235 358.384 103.752 358.15C105.308 357.917 105.425 357.567 106.32 356.983C107.176 356.438 107.993 359.59 107.176 360.329C106.475 360.951 110.171 361.029 110.794 359.862Z" fill="#35A3BF"/>
<path d="M109.899 361.652C108.187 362.157 106.981 361.885 102.896 362.702C98.8118 363.48 97.6058 362.896 96.3998 361.029C95.8552 360.173 95.8163 359.395 96.1275 358.773C95.2327 359.395 94.9215 360.484 95.7385 361.729C96.9444 363.597 98.1504 364.18 102.235 363.402C106.32 362.624 107.526 362.858 109.238 362.352C109.588 362.235 109.899 362.041 110.171 361.496C110.093 361.574 110.016 361.613 109.899 361.652Z" fill="white"/>
<path d="M110.794 359.902C110.794 359.862 110.794 359.862 110.794 359.862C110.754 359.862 110.754 359.902 110.794 359.902C110.754 359.902 110.754 359.902 110.794 359.902Z" fill="#E9D6B8"/>
<path d="M101.963 361.301C101.846 361.34 101.729 361.107 101.691 360.757C101.613 360.056 101.457 359.356 101.224 358.656C101.107 358.306 101.107 357.995 101.263 357.956C101.418 357.917 101.652 358.15 101.729 358.5C101.963 359.201 102.118 359.901 102.157 360.562C102.196 360.951 102.118 361.263 101.963 361.301Z" fill="white"/>
<path d="M103.247 361.068C103.091 361.107 102.974 360.873 102.935 360.523C102.858 359.862 102.702 359.201 102.469 358.539C102.352 358.228 102.352 357.956 102.507 357.917C102.663 357.917 102.896 358.15 103.013 358.461C103.247 359.123 103.363 359.784 103.441 360.407C103.48 360.757 103.363 361.068 103.247 361.068Z" fill="white"/>
<path d="M104.569 361.029C104.414 361.068 104.297 360.796 104.219 360.446C104.102 359.784 103.947 359.084 103.675 358.423C103.558 358.072 103.558 357.8 103.713 357.8C103.869 357.8 104.102 358.072 104.258 358.384C104.491 359.045 104.686 359.745 104.764 360.407C104.803 360.718 104.686 360.99 104.569 361.029Z" fill="white"/>
<path d="M107.993 355.894C107.993 355.894 139.192 343.055 140.982 343.055C147.012 343.017 145.611 349.086 142.577 351.964C138.959 355.349 111.572 361.535 111.572 361.535L107.993 355.894Z" fill="#323B31"/>
<path d="M120.364 358.111L111.844 350.058L115.462 346.44L124.76 356.205L120.364 358.111Z" fill="#E9D6B8"/>
<path d="M122.114 351.77C122.114 351.77 100.446 331.89 98.9674 331.306C94.0268 329.283 90.9535 334.769 91.148 336.636C91.3814 339.087 113.4 358.967 113.4 358.967L122.114 351.77Z" fill="#3C463B"/>
<path d="M134.991 358.734C135.497 359.201 135.574 360.562 135.574 360.562C135.574 360.562 128.339 363.286 125.81 363.363C125.149 363.363 123.943 363.13 122.814 362.78C122.62 362.741 122.192 362.235 121.998 362.157C121.647 362.041 121.57 362.391 121.258 362.313C120.48 362.079 119.936 361.846 119.936 361.807C118.418 358.539 118.924 356.944 118.924 356.944C118.924 356.944 122.231 357.878 121.686 357.139C120.48 355.544 123.943 353.91 124.721 354.766C127.794 358.228 133.513 357.411 134.991 358.734Z" fill="#35A3BF"/>
<path d="M135.38 359.434C133.162 360.329 128.494 362.157 127.561 362.196C123.748 362.469 121.103 361.107 119.313 360.329C119.469 360.796 119.663 361.301 119.936 361.885C119.975 361.924 120.519 362.118 121.258 362.391C121.57 362.469 121.647 362.157 121.997 362.235C122.192 362.274 122.62 362.78 122.814 362.858C123.943 363.169 125.149 363.441 125.81 363.441C128.339 363.402 135.574 360.64 135.574 360.64C135.574 360.64 135.535 359.979 135.38 359.434Z" fill="white"/>
<path d="M130.245 357.333C130.323 357.45 130.011 357.606 129.622 357.683C128.805 357.839 127.988 358.111 127.171 358.422C126.782 358.578 126.432 358.617 126.355 358.5C126.316 358.345 126.588 358.111 126.977 357.956C127.755 357.644 128.572 357.411 129.389 357.255C129.817 357.139 130.206 357.178 130.245 357.333Z" fill="white"/>
<path d="M128.65 356.75C128.728 356.866 128.416 357.061 128.027 357.178C127.21 357.411 126.432 357.722 125.654 358.111C125.265 358.306 124.915 358.345 124.876 358.228C124.837 358.072 125.071 357.8 125.46 357.606C126.238 357.216 127.016 356.944 127.794 356.711C128.222 356.594 128.572 356.633 128.65 356.75Z" fill="white"/>
<path d="M127.094 356.244C127.133 356.361 126.899 356.594 126.51 356.75C125.732 357.061 124.993 357.411 124.254 357.839C123.904 358.072 123.554 358.15 123.515 357.995C123.476 357.839 123.709 357.528 124.059 357.333C124.798 356.905 125.538 356.555 126.316 356.244C126.666 356.088 127.016 356.088 127.094 356.244Z" fill="white"/>
</svg>
