<svg width="501" height="383" viewBox="0 0 501 383" fill="none" xmlns="http://www.w3.org/2000/svg">
<path d="M239.942 97.4246C274.238 97.4246 302.171 69.4656 302.171 35.1376V8.52802C302.171 3.83221 298.342 0 293.705 0H276.718C272.027 0 268.252 3.83221 268.252 8.52802V12.3602C268.252 14.4653 266.419 16.1925 264.262 16.1925H226.514V95.9133L228.402 96.2911C232.23 97.0468 236.113 97.4246 239.942 97.4246ZM293.705 4.69581C295.862 4.69581 297.587 6.42301 297.587 8.582V35.1916C297.587 66.9828 271.757 92.8367 239.996 92.8367C237.084 92.8367 234.118 92.6208 231.152 92.1351V20.8883H264.262C269.007 20.8883 272.89 17.056 272.89 12.4142V8.582C272.89 6.42301 274.615 4.69581 276.772 4.69581H293.705V4.69581Z" fill="#FDBF14"/>
<path d="M183.59 97.4246C187.419 97.4246 191.301 97.0467 195.184 96.3451L197.071 95.9672V16.2464H159.324C157.167 16.2464 155.333 14.4652 155.333 12.4142V8.58198C155.333 3.88617 151.504 0.0539551 146.813 0.0539551H129.827C125.135 0.0539551 121.306 3.88617 121.306 8.58198V35.1916C121.36 69.5196 149.294 97.4246 183.59 97.4246ZM192.488 92.135C189.522 92.6208 186.556 92.8367 183.644 92.8367C151.882 92.8367 126.052 66.9828 126.052 35.1916V8.58198C126.052 6.42299 127.777 4.69579 129.934 4.69579H146.921C149.078 4.69579 150.803 6.42299 150.803 8.58198V12.4142C150.803 17.11 154.686 20.8882 159.431 20.8882H192.541V92.135H192.488Z" fill="#FDBF14"/>
<path d="M205.214 107.788H218.318V187.239H205.214V107.788Z" fill="#FDBF14"/>
<path d="M205.214 122.145H218.318V129.594H205.214V122.145Z" fill="#FFA813"/>
<path d="M203.003 106.061H220.636V126.193H203.003V106.061Z" fill="#FFA813"/>
<path d="M203.003 121.443H220.636V126.193H203.003V121.443Z" fill="#FDBF14"/>
<path d="M182.134 194.903C188.174 194.903 193.081 190.099 193.296 184.108H209.474H214.112H230.289C230.505 190.099 235.412 194.903 241.451 194.903H252.614V206.454H214.112H209.474H170.971V194.903H182.134Z" fill="#FDBF14"/>
<path d="M251.482 26.0159V89.9221C251.482 105.737 238.701 118.529 222.901 118.529H200.684C184.884 118.529 172.104 105.737 172.104 89.9221V26.0159H251.482Z" fill="#FDBF14"/>
<path d="M165.956 14.4653H257.629V26.8255H165.956V14.4653Z" fill="#FDBF14"/>
<path d="M211.793 42.91L206.562 53.5431L194.86 55.2163L203.327 63.4744L201.331 75.133L211.793 69.6276L222.254 75.133L220.259 63.4744L228.725 55.2163L217.023 53.5431L211.793 42.91Z" fill="#FFA813"/>
<path d="M172.158 26.0159H251.482V31.9531H172.158V26.0159Z" fill="#FFA813"/>
<path d="M247.383 196.846V206.454H214.112H209.474H170.971V196.846H247.383Z" fill="#FFA813"/>
<path d="M217.778 196.764L218.156 200.974L218.911 204.482L220.313 205.4L221.391 205.724L221.715 206.317L225.382 208.746C226.352 209.178 227.808 209.394 229.48 209.016C230.073 208.854 229.264 207.289 229.049 207.073C227.862 205.67 226.083 204.212 226.083 204.212L223.225 200.65L219.989 196.224L217.778 196.764Z" fill="#161711"/>
<path d="M184.884 204.05L185.801 205.724L186.286 207.613L186.232 210.635L184.614 210.851L183.374 210.581L182.565 211.175C182.565 211.175 177.928 212.093 176.148 212.147C173.236 212.255 171.672 211.931 171.079 211.391C170.756 211.067 172.104 210.473 172.535 210.419C175.124 210.042 177.82 208.368 177.82 208.368L179.923 205.94L180.354 204.266L184.884 204.05Z" fill="#161711"/>
<path d="M162.613 64.0397L151.666 45.7962C151.666 45.7962 165.094 54.4862 167.304 60.9092C169.515 67.3322 162.613 64.0397 162.613 64.0397Z" fill="#E9D6B8"/>
<path d="M187.796 69.0593L172.373 64.2556L169.408 61.125L170.324 60.5853L166.981 57.8865L160.186 62.5823L163.53 68.4116L164.608 67.9798L167.035 71.0564L168.868 71.0024L184.507 83.3087L187.796 69.0593Z" fill="#B0BFDE"/>
<path d="M205.322 69.6531L184.129 67.2242C184.129 67.2242 166.55 71.6501 169.731 108.083C169.731 108.245 197.934 114.29 197.341 107.435C195.993 90.1635 205.322 69.6531 205.322 69.6531Z" fill="#D1DBEA"/>
<path d="M221.391 60.4233L237.677 48.9807C237.677 48.9807 229.534 63.23 225.49 65.9288C221.499 68.6275 221.391 60.4233 221.391 60.4233Z" fill="#E9D6B8"/>
<path d="M199.498 70.9484L217.778 60.1535L217.239 59.3978L221.931 57.7786L228.563 65.389L223.656 69.2752L222.793 67.9798L221.23 66.0367L222.578 68.4116L218.048 73.4852L213.842 74.3488L199.174 86.925L199.498 70.9484Z" fill="#D1DBEA"/>
<path d="M197.449 107.004L224.519 200.542L217.724 200.92L204.675 171.18L201.493 162.166L185.963 126.92L182.943 107.543L197.449 107.004Z" fill="#163F59"/>
<path d="M186.124 204.374L184.237 165.728L185.909 148.025L187.958 123.736L184.884 107.435L169.947 107.921L173.074 135.34L173.722 160.223L174.261 169.56L178.251 206.425L186.124 204.374Z" fill="#163F59"/>
<path d="M234.603 51.4636C234.603 51.4636 233.201 48.1171 233.686 47.1996C234.172 46.282 236.221 43.0975 236.221 43.0975L236.814 42.3418C236.814 42.3418 238.054 42.5037 236.652 44.6627C235.25 46.8217 236.49 46.1201 236.49 46.1201L238.486 44.6627L241.074 43.0435L242.152 42.1799C242.152 42.1799 242.692 41.6401 242.961 41.6401C243.662 41.5862 243.447 42.1259 243.447 42.1259L239.618 45.7962L244.094 43.3673C244.094 43.3673 244.741 43.1514 244.957 43.4213C245.172 43.6912 245.01 43.7991 245.01 43.7991L240.589 47.7393L243.015 46.7138C243.015 46.7138 243.608 46.4979 243.878 46.7678C244.148 47.0376 244.202 47.0916 244.202 47.0916L235.304 52.2192L234.603 51.4636Z" fill="#E9D6B8"/>
<path d="M240.319 46.4979L243.555 44.9866C243.555 44.9866 244.256 44.5548 244.687 44.5548C245.172 44.5548 245.226 44.9866 245.226 44.9866L240.589 47.7933L240.319 46.4979Z" fill="#E9D6B8"/>
<path d="M154.848 49.0886C154.848 49.0886 156.034 45.6882 155.495 44.8246C154.956 43.961 152.745 40.8844 152.745 40.8844L152.098 40.1288C152.098 40.1288 150.911 40.3987 152.421 42.4497C153.931 44.5007 152.637 43.907 152.637 43.907L150.534 42.5576L147.838 41.1003L146.705 40.2907C146.705 40.2907 146.112 39.8049 145.842 39.8049C145.141 39.8049 145.411 40.3447 145.411 40.3447L149.455 43.7991L144.872 41.6401C144.872 41.6401 144.225 41.4782 144.009 41.748C143.793 42.0179 144.009 42.1259 144.009 42.1259L148.646 45.7961L146.166 44.9325C146.166 44.9325 145.519 44.7706 145.303 45.0405C145.087 45.3104 144.98 45.3643 144.98 45.3643L154.147 50.0062L154.848 49.0886Z" fill="#E9D6B8"/>
<path d="M148.862 44.3928L145.519 43.0435C145.519 43.0435 144.818 42.6656 144.386 42.6656C143.901 42.7196 143.901 43.1514 143.901 43.1514L148.7 45.6343L148.862 44.3928Z" fill="#E9D6B8"/>
<path d="M190.115 61.7187C189.414 66.4685 189.252 68.8974 189.36 69.2213C190.169 71.4342 196.316 70.3008 196.262 69.0054C196.208 67.71 197.934 62.2045 198.311 61.3949C198.797 60.6932 190.546 58.9121 190.115 61.7187Z" fill="#E9D6B8"/>
<path d="M193.997 60.2075C195.561 60.3694 197.071 60.6933 197.826 61.0171C197.233 62.3665 196.586 63.7159 196.047 64.6334C194.644 67.0623 192.164 67.3862 190.546 67.764C190.223 67.8719 189.791 67.8719 189.36 67.818C189.414 66.9544 189.629 65.2272 190.115 61.7728C190.331 60.4234 192.11 60.0996 193.997 60.2075Z" fill="#DEC9A9"/>
<path d="M191.948 48.8728L186.61 60.6393C186.61 60.6393 185.369 63.446 186.232 64.3096C187.095 65.1732 190.061 66.3067 191.679 65.9288C193.296 65.551 195.777 65.2272 197.179 62.7983C198.581 60.3694 201.062 54.2163 201.062 54.2163C201.062 54.2163 201.116 51.8414 196.855 51.3556C192.595 50.8699 191.948 48.8728 191.948 48.8728Z" fill="#E9D6B8"/>
<path d="M193.674 46.174C193.081 46.0661 192.056 46.0661 191.463 46.8757C190.816 47.6853 191.085 49.4125 191.786 49.9523C192.487 50.492 197.556 52.813 198.257 52.8669C198.959 52.9209 200.253 53.1908 201.223 52.4891C201.87 52.0033 200.576 49.7904 199.282 49.6284C195.939 49.2506 195.831 46.5519 193.674 46.174Z" fill="#194866"/>
<path d="M199.821 52.0033L197.503 57.0769L196.694 59.9376L197.287 60.2075L198.365 60.6932C198.365 60.6932 203.326 54.5401 201.978 52.9748C200.684 51.4635 200.145 51.6794 199.821 52.0033Z" fill="#194866"/>
<path d="M197.125 60.8012C196.909 61.233 197.125 61.7728 197.556 61.9347L198.042 62.1506C198.473 62.3665 199.012 62.1506 199.228 61.7188L200.091 59.8297C200.307 59.3979 200.091 58.8581 199.659 58.6422L199.174 58.4263C198.743 58.2104 198.204 58.4263 197.988 58.8581L197.125 60.8012Z" fill="#E9D6B8"/>
<path d="M190.169 70.2468C190.169 70.2468 179.06 84.2263 177.442 101.984C177.335 103.387 178.467 104.683 178.467 104.683L180.786 103.117C180.84 103.171 184.938 83.5246 190.169 70.2468Z" fill="#316091"/>
<path d="M190.331 70.1928L190.115 73.1615L196.586 69.5991L196.316 68.7895L190.331 70.1928Z" fill="#B0BFDE"/>
<path d="M189.252 68.3577L187.634 71.5422L190.277 70.0849L189.252 68.3577Z" fill="#B0BFDE"/>
<path d="M399.398 177.495C395.677 181.867 393.304 188.506 393.304 196.008C393.304 207.235 398.643 216.627 405.815 219.109C409.536 214.737 411.909 208.099 411.909 200.596C411.909 189.423 406.57 180.032 399.398 177.495Z" fill="#E4EFFF"/>
<path d="M396.001 222.078C390.339 215.115 382.789 211.229 376.318 211.229C376.588 216.573 378.96 222.564 383.22 227.799C388.883 234.762 396.432 238.648 402.903 238.648C402.58 233.305 400.261 227.314 396.001 222.078Z" fill="#E4EFFF"/>
<path d="M404.79 245.503C401.447 241.617 396.594 238.54 390.824 237.029C381.441 234.654 372.22 237.137 366.989 242.75C370.332 246.637 375.186 249.713 380.956 251.224C390.339 253.599 399.56 251.117 404.79 245.503Z" fill="#E4EFFF"/>
<path d="M425.282 233.305C416.6 235.95 410.237 242.157 408.134 249.119C413.634 252.304 421.076 253.221 428.518 250.954C437.199 248.31 443.563 242.103 445.666 235.14C440.165 231.955 432.67 231.038 425.282 233.305Z" fill="#E4EFFF"/>
<path d="M421.993 208.099C415.306 211.877 411.1 218.192 410.237 224.669C415.414 225.802 421.292 224.993 426.63 221.97C433.317 218.192 437.469 211.823 438.278 205.292C433.101 204.266 427.277 205.13 421.993 208.099Z" fill="#E4EFFF"/>
<path d="M404.952 216.842H406.031V304.552H404.952V216.842Z" fill="#E4EFFF"/>
<path d="M405.006 228.933L405.653 229.796L411.909 224.561L411.208 223.751L405.006 228.933Z" fill="#E4EFFF"/>
<path d="M378.745 270.386C385.054 274.758 392.55 275.837 398.751 273.84C397.511 268.658 394.221 263.693 389.26 260.184C382.951 255.812 375.455 254.787 369.2 256.838C370.44 262.019 373.73 266.877 378.745 270.386Z" fill="#E4EFFF"/>
<path d="M404.844 276.755L405.276 275.783L397.942 272.383L397.457 273.354L404.844 276.755Z" fill="#E4EFFF"/>
<path d="M409.122 246.986L410.045 247.545L405.834 254.52L404.911 253.962L409.122 246.986Z" fill="#E4EFFF"/>
<path d="M402.317 237.6L406.043 240.713L405.352 241.542L401.626 238.429L402.317 237.6Z" fill="#E4EFFF"/>
<path d="M404.287 245.329L405.648 245.845L405.266 246.855L403.904 246.338L404.287 245.329Z" fill="#E4EFFF"/>
<path d="M414.982 257.432C420.644 250.469 428.194 246.583 434.665 246.583C434.341 251.926 432.023 257.917 427.763 263.153C422.1 270.116 414.551 274.002 408.08 274.002C408.403 268.658 410.722 262.667 414.982 257.432Z" fill="#E4EFFF"/>
<path d="M406.139 280.857C409.482 276.97 414.335 273.894 420.105 272.383C429.488 270.008 438.709 272.491 443.94 278.104C440.597 281.99 435.743 285.067 429.973 286.578C420.644 288.953 411.423 286.47 406.139 280.857Z" fill="#E4EFFF"/>
<path d="M405.599 276.916L404.952 276.107L408.673 272.976L409.374 273.786L405.599 276.916Z" fill="#E4EFFF"/>
<path d="M406.706 280.644L407.085 281.655L405.722 282.168L405.343 281.157L406.706 280.644Z" fill="#E4EFFF"/>
<path d="M400.477 291.759C398.697 288.575 395.731 285.768 391.902 283.933C385.701 280.965 378.906 281.396 374.485 284.581C376.264 287.765 379.23 290.572 383.059 292.407C389.26 295.376 396.001 294.944 400.477 291.759Z" fill="#E4EFFF"/>
<path d="M371.238 341.578C331.259 335.101 306.461 351.24 297.528 353.939C233.63 372.938 217.278 378.443 189.356 360.631C175.493 351.78 137.125 374.881 98.9033 356.691C70.6399 343.252 23.3878 354.316 8.84115 348.433C-14.9314 338.772 13.869 303.472 40.6192 298.722C55.8492 296.024 115.012 308.168 101.051 290.68C83.6245 268.874 113.645 265.582 129.656 274.649C136.051 278.266 203.61 307.682 202.78 296.293C199.656 254.571 233.191 266.931 247.933 287.226C256.036 298.452 282.298 298.129 291.963 294.89C317.347 286.308 358.692 295.754 382.562 298.075C486.537 308.114 457.102 355.45 371.238 341.578Z" fill="#E4EFFF" fill-opacity="0.5"/>
<path d="M125.135 304.875C122.978 305.037 104.967 302.285 96.8245 312.594C90.3535 320.744 86.9023 316.75 85.3924 312.378C83.8286 308.006 84.3139 303.148 78.7057 304.713C60.1555 309.787 42.7377 301.691 52.7678 293.325C58.2142 288.791 51.851 282.908 47.1056 284.095C37.0756 286.578 29.2025 283.717 33.3547 277.24C37.453 270.871 37.1834 265.852 32.6537 265.366C28.124 264.88 19.9274 268.496 19.6039 259.698C19.496 256.244 26.2905 250.739 33.4087 251.44C37.453 251.818 49.5862 256.514 45.8654 246.798C42.0367 236.813 50.7186 237.515 54.6012 241.941C56.0572 243.56 70.7248 257.647 70.9405 250.955C71.1562 243.02 78.0586 242.696 83.2354 251.386C85.6081 255.327 88.0887 265.474 91.3242 263.207C94.5597 260.94 99.7904 258.781 103.296 264.88C109.389 275.351 120.605 305.199 125.135 304.875Z" fill="#D1DBEA"/>
<path d="M25.32 256.946C25.32 256.946 54.4395 256.298 81.6177 275.459C108.85 294.566 119.042 303.796 138.131 311.082" stroke="white" stroke-width="1.6748" stroke-miterlimit="10"/>
<path d="M42.4681 275.459C42.4681 275.459 54.9787 265.636 66.1412 266.499" stroke="white" stroke-width="1.6748" stroke-miterlimit="10"/>
<path d="M50.9882 244.64C50.9882 244.64 56.6504 259.159 68.5139 267.633" stroke="white" stroke-width="1.6748" stroke-miterlimit="10"/>
<path d="M58.8074 296.887C58.8074 296.887 66.4108 296.563 91.8095 282.8" stroke="white" stroke-width="1.6748" stroke-miterlimit="10"/>
<path d="M75.9016 248.31C75.9016 248.31 80.701 272.005 83.8286 276.97" stroke="white" stroke-width="1.6748" stroke-miterlimit="10"/>
<path d="M98.0649 265.15C98.0649 265.15 99.6826 284.905 107.987 294.242" stroke="white" stroke-width="1.6748" stroke-miterlimit="10"/>
<path d="M139.641 379.577C139.641 379.577 131.768 384.758 125.836 380.116C119.904 375.475 115.698 370.077 120.336 366.893C125.027 363.654 148.053 367.648 139.641 379.577Z" fill="#E4EFFF" fill-opacity="0.5"/>
<path d="M89.7632 191.719L91.2192 210.394C91.2192 210.394 96.2342 200.355 96.7735 193.338C97.3127 186.321 89.6014 191.449 89.7632 191.719Z" fill="#E9D6B8"/>
<path d="M56.3836 181.086L65.5508 195.983C65.5508 195.983 51.9079 189.452 52.6089 183.353C53.3099 177.199 56.3836 181.086 56.3836 181.086Z" fill="#E9D6B8"/>
<path d="M79.5714 145.678C79.4096 147.783 78.2232 149.672 77.0369 149.726C75.9045 149.726 74.7721 149.726 73.5857 149.726C72.3993 149.618 71.213 147.783 71.0512 145.678C70.7816 142.17 70.512 138.661 70.1884 135.153C70.0266 133.048 70.8355 128.838 72.669 127.543C74.3406 126.409 76.228 126.409 77.8997 127.543C79.7332 128.784 80.542 133.048 80.3803 135.153C80.1106 138.607 79.841 142.116 79.5714 145.678Z" fill="#E9D6B8"/>
<path d="M89.4936 151.022C89.4936 151.022 93.9694 153.936 96.5578 171.802C99.1462 189.668 97.4746 188.966 97.4746 188.966L96.9892 193.014L90.4104 193.716L86.6356 178.333L89.4936 151.022Z" fill="#B0BFDE"/>
<path d="M91.1653 151.238L80.8117 146.542L75.4731 148.161L68.8403 147.405L61.5604 150.59C61.5604 150.59 58.271 153.774 61.3447 163.922C64.4184 174.069 63.9331 190.909 63.9331 190.909L90.4104 192.582C90.3564 192.528 88.5769 156.905 91.1653 151.238Z" fill="#D1DBEA"/>
<path d="M66.2519 151.022C66.2519 151.022 62.2614 148.755 58.271 153.72C51.4764 162.194 48.187 172.72 47.432 174.717C46.731 176.768 45.8143 182.867 48.6184 184.648C51.4225 186.483 51.4225 186.483 51.4225 186.483L57.3003 182.867L56.3836 181.086L55.8983 179.952C55.8983 179.952 59.1877 172.72 62.6929 166.189C66.2519 159.604 66.2519 151.022 66.2519 151.022Z" fill="#D1DBEA"/>
<path d="M74.1249 147.945L71.5366 150.752L68.8942 147.027L70.4581 144.653L74.1249 147.945Z" fill="#B0BFDE"/>
<path d="M79.895 144.922L74.826 148.161L77.1987 151.022L81.1353 146.542L79.895 144.922Z" fill="#B0BFDE"/>
<path d="M75.8506 125.06V122.577H76.8751H79.5175H81.1352C82.9147 122.577 84.3168 124.034 84.3168 125.761V128.19H83.2922H80.6499H79.0321C77.2526 128.244 75.8506 126.787 75.8506 125.06Z" fill="#163F59"/>
<path d="M70.7816 139.849C70.7816 141.414 72.0758 142.709 73.6396 142.709H80.1106C81.6744 142.709 82.9686 141.414 82.9686 139.849V126.895C82.9686 125.33 81.6744 124.034 80.1106 124.034H73.6396C72.0758 124.034 70.7816 125.33 70.7816 126.895V139.849Z" fill="#E9D6B8"/>
<path d="M75.6349 122.577C74.5025 122.577 73.5318 123.171 72.9386 124.034H71.8601C70.512 124.034 69.3796 125.168 69.3796 126.517V132.67H71.1052V130.187C71.1052 129.216 71.914 128.46 72.8308 128.46H73.8554H76.4977H78.1154C79.8949 128.46 81.297 127.003 81.297 125.276V122.577H75.6349Z" fill="#163F59"/>
<path d="M71.6444 134.289C71.6444 133.426 70.9434 132.778 70.1345 132.778H70.0267C69.1639 132.778 68.5168 133.48 68.5168 134.289V136.125C68.5168 136.988 69.2178 137.636 70.0267 137.636H70.1345C70.7816 137.636 71.267 137.258 71.5366 136.718" fill="#E9D6B8"/>
<path d="M73.424 202.082C73.424 202.082 81.4049 230.365 87.768 240.458C94.1311 250.605 96.396 237.435 96.396 237.435L88.469 190.423L69.9189 190.315C69.9189 190.315 70.3503 191.287 73.424 202.082Z" fill="#163F59"/>
<path d="M82.2137 190.423C82.2137 190.423 76.8752 236.788 76.1202 239.109C73.5318 246.989 67.6 241.915 66.7372 239.27C65.8205 236.626 64.3106 217.195 64.6341 202.999C64.9577 188.804 64.9577 189.722 64.9577 189.722L82.2137 190.423Z" fill="#194866"/>
<path d="M65.9284 281.479C65.6588 281.803 65.8745 282.666 65.8745 282.666C65.8745 282.666 70.6738 283.206 72.2376 282.828C72.6151 282.72 73.3162 282.396 73.9633 282.019C74.0711 281.965 74.2868 281.587 74.3407 281.533C74.5564 281.425 74.6103 281.587 74.826 281.479C75.2574 281.209 75.581 280.993 75.581 280.993C76.0124 278.78 75.4192 277.916 75.4192 277.916C75.4192 277.916 71.3209 276.567 70.5659 277.485C68.7325 279.752 66.5216 280.723 65.9284 281.479Z" fill="#161711"/>
<path d="M95.8028 279.482L96.5038 283.044H100.171C100.171 283.044 100.386 282.558 100.656 282.558C100.926 282.558 101.249 283.044 101.627 283.044C102.382 283.044 103.244 283.044 103.568 283.044C104.269 283.044 110.902 283.044 110.902 283.044C110.902 283.044 111.064 282.288 110.848 282.019C110.74 281.911 110.147 281.641 109.715 281.533C107.828 280.993 102.436 279.374 101.519 277.539C100.386 275.38 95.8028 279.482 95.8028 279.482Z" fill="#161711"/>
<path d="M77.4683 219.354C77.4683 219.354 76.282 236.95 76.4437 246.233C76.5516 253.25 76.6055 266.69 75.527 278.132C75.4731 278.834 69.757 278.294 69.757 278.294C69.757 278.294 65.9284 234.467 65.3352 227.288C64.6881 220.109 72.8847 214.226 77.4683 219.354Z" fill="#194866"/>
<path d="M94.4007 238.785C94.4007 238.785 92.783 239.163 87.714 239.594C85.3952 239.81 94.5086 280.183 94.5086 280.183L101.681 277.053L96.2881 236.41L94.4007 238.785Z" fill="#163F59"/>
<path d="M147.784 206.67H266.796V332.053H147.784V206.67Z" fill="#FEC12F"/>
<path d="M64.7391 331.809C64.7391 331.809 125.135 321.284 138.94 300.449C152.745 279.615 147.676 241.131 113.379 273.138C79.0832 305.253 84.7992 323.551 64.7391 331.809Z" fill="#B0BFDE"/>
<path d="M137.754 273.894C137.754 273.894 110.036 319.988 64.7391 331.809" stroke="#B0BFDE" stroke-width="0.9258" stroke-miterlimit="10"/>
<path d="M130.689 224.453C130.689 224.453 135.704 222.402 138.077 217.814C138.94 216.141 139.048 212.578 137.322 211.715C135.597 210.797 133.116 212.201 131.876 214.576C129.503 219.109 130.689 224.453 130.689 224.453Z" fill="#B0BFDE"/>
<path d="M126.16 231.74C126.16 231.74 127.778 227.26 126.268 223.157C125.728 221.646 123.41 219.541 121.846 220.189C120.228 220.783 119.635 223.211 120.498 225.37C122.008 229.473 126.16 231.74 126.16 231.74Z" fill="#B0BFDE"/>
<path d="M122.655 241.077C122.655 241.077 122.331 236.327 119.257 233.197C118.125 232.063 115.213 231.092 113.973 232.279C112.732 233.467 113.218 235.896 114.835 237.569C117.963 240.699 122.655 241.077 122.655 241.077Z" fill="#B0BFDE"/>
<path d="M126.16 232.009C126.16 232.009 130.096 234.006 134.464 233.359C136.028 233.143 138.616 231.578 138.401 230.228C138.185 228.825 136.028 228.015 133.709 228.339C129.341 228.933 126.16 232.009 126.16 232.009Z" fill="#B0BFDE"/>
<path d="M122.061 240.861C122.061 240.861 125.998 243.02 130.366 242.373C131.93 242.157 134.518 240.537 134.302 239.08C134.087 237.623 131.876 236.705 129.611 237.029C125.243 237.677 122.061 240.861 122.061 240.861Z" fill="#B0BFDE"/>
<path d="M118.772 253.869C118.772 253.869 121.846 256.136 125.189 255.65C126.375 255.488 128.317 253.977 128.101 252.52C127.885 251.062 126.16 250.091 124.434 250.361C121.091 250.793 118.772 253.869 118.772 253.869Z" fill="#B0BFDE"/>
<path d="M118.233 253.707C118.233 253.707 118.287 250.037 116.184 247.122C115.429 246.097 113.272 244.855 112.301 245.557C111.33 246.259 111.492 248.202 112.571 249.713C114.728 252.628 118.233 253.707 118.233 253.707Z" fill="#B0BFDE"/>
<path d="M94.2361 302.285C93.1037 302.177 92.4566 301.799 92.4027 301.745L92.888 300.989L92.6723 301.367L92.888 300.989C92.9419 301.043 94.7214 302.069 97.5255 300.827C100.653 299.478 103.727 295.916 106.693 290.302C110.737 282.638 114.404 271.195 117.532 256.406C121.199 239.188 126.214 231.038 129.503 225.64C130.366 224.237 131.067 223.05 131.606 221.97L132.415 222.348C131.876 223.427 131.121 224.669 130.258 226.072C126.969 231.416 122.061 239.512 118.395 256.568C111.384 289.547 103.349 299.262 97.7952 301.637C96.3392 302.285 95.0989 302.393 94.2361 302.285Z" fill="#B0BFDE"/>
<path d="M36 282.936H155.013V332.107H36V282.936Z" fill="#FEC12F"/>
<path d="M292.234 116.64C292.234 121.497 296.44 125.384 301.67 125.384C306.847 125.384 311.107 121.443 311.107 116.64C311.107 111.782 306.901 107.896 301.67 107.896C296.44 107.842 292.234 111.782 292.234 116.64Z" fill="#282723"/>
<path d="M298.92 117.017C298.92 121.875 303.126 125.761 308.357 125.761C313.534 125.761 317.794 121.821 317.794 117.017C317.794 112.16 313.588 108.274 308.357 108.274C303.126 108.274 298.92 112.214 298.92 117.017Z" fill="#282723"/>
<path d="M321.03 109.785C321.03 109.785 319.627 109.029 323.51 101.851C327.393 94.6719 334.834 84.9564 334.834 84.9564L327.339 102.282C327.339 102.228 324.157 108.759 321.03 109.785Z" fill="#E9D6B8"/>
<path d="M314.019 118.853L324.858 98.7739L325.344 97.5865L331.491 100.285C331.491 100.285 322.917 115.722 322.324 116.37C321.731 117.071 318.279 123.548 317.848 124.79C317.417 126.031 314.612 132.022 310.676 129.809C306.739 127.65 314.019 118.853 314.019 118.853Z" fill="#F4DA80"/>
<path d="M331.06 90.2459C332.947 86.8455 332.138 84.5786 332.408 82.9593C332.677 81.3401 332.623 79.6129 332.677 79.6129C333.648 81.0702 333.055 82.2037 333.217 82.9593C333.378 83.715 333.217 83.4991 333.972 82.3116C334.403 81.6639 333.918 79.8828 333.756 78.6953C333.648 77.6698 333.864 77.184 333.864 77.184C333.864 77.184 334.565 78.6413 334.834 80.2606C335.212 82.2037 335.212 84.3627 335.158 84.7945C334.996 85.6581 333.81 87.979 332.677 89.4903C331.437 91.1635 329.658 92.6748 331.06 90.2459Z" fill="#E9D6B8"/>
<path d="M290.616 108.759C290.616 108.759 292.018 108.004 288.135 100.825C284.253 93.6463 276.811 83.9308 276.811 83.9308L284.307 101.257C284.253 101.257 287.434 107.734 290.616 108.759Z" fill="#E9D6B8"/>
<path d="M297.626 117.881L286.787 97.8024L286.302 96.6149L280.154 99.3137C280.154 99.3137 288.728 114.75 289.322 115.398C289.915 116.1 293.096 122.685 293.797 123.818C296.062 127.543 296.062 129.648 296.601 129.162C299.837 126.085 297.626 117.881 297.626 117.881Z" fill="#F4DA80"/>
<path d="M280.586 89.2744C278.698 85.874 279.507 83.607 279.238 81.9878C278.968 80.3685 279.022 78.6414 278.968 78.6414C277.997 80.0987 278.591 81.2321 278.429 81.9878C278.267 82.7434 278.429 82.5275 277.674 81.3401C277.242 80.6924 277.728 78.9112 277.89 77.6698C277.997 76.6443 277.782 76.1585 277.782 76.1585C277.782 76.1585 277.081 77.6158 276.811 79.2351C276.434 81.1782 276.434 83.3372 276.487 83.769C276.595 84.6326 277.836 86.9535 278.968 88.4648C280.208 90.192 281.988 91.7033 280.586 89.2744Z" fill="#E9D6B8"/>
<path d="M324.966 232.038L327.177 242.563C327.177 242.563 332.138 246.341 333.702 246.773C335.32 247.205 334.996 246.611 334.78 246.287C334.619 245.963 331.599 243.804 330.898 242.401C330.197 240.998 329.064 231.876 328.849 231.444C328.795 230.958 324.966 232.038 324.966 232.038Z" fill="#E9D6B8"/>
<path d="M290.508 234.575C290.508 234.575 288.674 240.566 288.459 242.563C288.243 244.614 288.567 245.262 287.973 245.909C287.326 246.503 282.904 251.415 281.934 251.361C280.963 251.307 281.017 250.389 281.017 250.389C281.017 250.389 284.468 246.665 285.061 245.208C285.655 243.75 286.248 235.438 286.302 234.629C286.356 233.819 290.508 234.575 290.508 234.575Z" fill="#E9D6B8"/>
<path d="M305.445 159.118L314.72 196.954L324.535 233.333L330.197 232.47C330.197 232.47 322.971 195.173 322.809 191.881C322.647 188.588 321.191 162.032 316.446 156.365C311.754 150.752 305.445 159.118 305.445 159.118Z" fill="#194866"/>
<path d="M309.22 160.791C309.22 160.791 314.612 155.394 317.902 158.632C318.225 159.55 318.495 160.629 318.765 161.817C315.799 166.836 313.049 170.938 312.402 172.018C312.132 172.504 311.323 173.907 310.298 175.904L309.112 169.103L309.22 160.791Z" fill="#163F59"/>
<path d="M295.954 154.206C295.954 154.206 291.101 174.717 290.4 185.889C289.699 197.062 286.464 229.663 286.464 229.663L286.086 235.384L290.508 235.492L300.053 194.201L309.112 156.149L295.954 154.206Z" fill="#194866"/>
<path d="M298.758 107.518C298.758 112.16 302.425 115.884 307.009 115.884C311.539 115.884 315.26 112.16 315.26 107.518C315.26 102.876 311.593 99.1518 307.009 99.1518C302.479 99.1518 298.758 102.876 298.758 107.518Z" fill="#282723"/>
<path d="M308.465 109.947C308.465 109.947 307.656 114.427 308.357 115.668C309.004 116.91 313.48 119.77 314.127 120.634C314.774 121.497 312.833 128.244 306.416 127.219C299.999 126.193 297.356 123.117 297.356 122.091C297.356 121.12 294.391 119.338 296.494 118.637C298.597 117.881 301.994 117.395 302.911 116.424C303.827 115.452 305.014 112.915 304.367 110.325C303.612 107.734 308.465 109.947 308.465 109.947Z" fill="#E9D6B8"/>
<path d="M304.96 101.041C305.068 100.987 305.229 100.987 305.391 100.933C305.661 102.444 306.955 104.279 308.95 105.737C309.436 106.061 309.921 106.384 310.406 106.654V108.112C310.406 110.271 308.519 111.998 306.146 111.998C303.774 111.998 301.886 110.271 301.886 108.112V104.873C303.072 104.118 304.205 102.768 304.96 101.041Z" fill="#E9D6B8"/>
<path d="M297.734 155.933L317.201 161.331L314.181 144.329L314.882 124.412C314.882 124.412 310.946 125.869 307.548 126.031C305.283 126.139 300.484 124.412 300.484 124.412L297.734 155.933Z" fill="#AD5C49"/>
<path d="M315.961 122.037C315.961 122.037 315.313 134.343 315.691 138.823C316.068 143.303 320.005 157.499 320.382 160.089C320.76 162.68 320.76 162.68 320.76 162.68C320.76 162.68 319.034 163.652 318.118 163.814C317.201 163.922 315.475 163.112 314.828 160.089C314.073 156.365 311.754 143.519 311.323 141.198C310.676 137.906 311.215 128.244 310.676 127.003C310.137 125.761 308.249 121.713 308.519 120.742C308.789 119.77 310.676 117.935 310.676 117.935C310.676 117.935 314.936 119.662 315.961 122.037Z" fill="#F4DA80"/>
<path d="M299.46 117.557C299.46 117.557 301.994 118.583 302.803 118.961C303.612 119.338 303.18 123.44 302.803 123.98C302.425 124.52 301.724 137.15 301.617 140.119C301.509 143.087 301.131 154.854 300.646 157.013C300.161 159.172 300.43 161.655 298.111 162.518C295.739 163.382 292.827 163.382 292.827 163.382C292.827 163.382 294.013 156.041 294.606 153.504C295.199 150.968 297.033 144.922 297.249 141.09C297.464 137.258 296.601 131.429 295.9 128.406C295.092 125.006 294.714 120.364 294.498 119.824C294.283 119.23 298.651 117.827 299.46 117.557Z" fill="#F4DA80"/>
<path d="M327.015 242.023C327.015 242.023 326.8 242.725 327.015 243.373C327.231 243.912 328.04 245.424 328.04 245.424L329.172 245.693L329.01 244.938C329.01 244.938 331.437 246.719 332.516 247.205C333.594 247.637 335.967 248.824 337.045 248.23C337.315 248.068 337.315 247.691 337.315 247.691C337.315 247.691 335.05 246.125 334.726 245.909C334.403 245.693 333.81 246.395 332.947 246.071C332.084 245.747 329.442 244.236 328.687 243.696C327.824 242.941 327.015 242.023 327.015 242.023Z" fill="#161711"/>
<path d="M288.351 244.56C288.351 244.56 288.513 245.262 288.351 245.963C288.243 246.503 287.704 247.367 287.704 247.367L286.679 247.852C286.679 247.852 284.684 249.904 283.767 250.497C282.797 251.091 280.801 252.602 279.723 252.116C279.453 252.009 279.399 251.631 279.399 251.631C279.399 251.631 281.233 249.796 281.556 249.526C281.826 249.256 282.473 249.85 283.228 249.418C283.983 248.986 286.194 247.097 286.787 246.449C287.596 245.639 288.351 244.56 288.351 244.56Z" fill="#161711"/>
<path d="M299.945 117.179L302.803 118.961C302.803 118.961 301.994 119.23 301.616 120.094C301.239 120.958 300.915 122.037 300.915 122.037L298.381 117.935C298.381 117.935 299.945 116.91 299.945 117.179Z" fill="#F0CA67"/>
<path d="M310.46 117.449L309.975 118.151L308.519 120.634C308.519 120.634 308.843 119.878 309.975 120.688C310.73 121.228 311.161 122.631 311.161 122.631L311.97 118.151L310.46 117.449Z" fill="#F0CA67"/>
<path d="M243 243.804H362.013V332.053H243V243.804Z" fill="#FEC12F"/>
</svg>
